<svg width="24" height="24" viewBox="0 0 24 24" fill="#4E8438" xmlns="http://www.w3.org/2000/svg">
<path fill-rule="evenodd" clip-rule="evenodd" d="M1 9.2C1 8.0799 1 7.51984 1.21799 7.09202C1.40973 6.71569 1.71569 6.40973 2.09202 6.21799C2.51984 6 3.0799 6 4.2 6L16.8 6C17.9201 6 18.4802 6 18.908 6.21799C19.2843 6.40973 19.5903 6.71569 19.782 7.09202C20 7.51984 20 8.0799 20 9.2V14.8C20 15.9201 20 16.4802 19.782 16.908C19.5903 17.2843 19.2843 17.5903 18.908 17.782C18.4802 18 17.9201 18 16.8 18H4.2C3.07989 18 2.51984 18 2.09202 17.782C1.71569 17.5903 1.40973 17.2843 1.21799 16.908C1 16.4802 1 15.9201 1 14.8L1 9.2ZM21 9C21.465 9 21.6975 9 21.8882 9.05111C22.4059 9.18981 22.8102 9.59413 22.9489 10.1118C23 10.3025 23 10.535 23 11V13C23 13.465 23 13.6975 22.9489 13.8882C22.8102 14.4059 22.4059 14.8102 21.8882 14.9489C21.6975 15 21.465 15 21 15V9ZM12.725 11.792L10.5889 15.7922C10.3969 16.1523 9.83685 16.0162 9.83685 15.6002V12.8L8.90079 12.8C8.59677 12.8 8.40476 12.48 8.54877 12.208L10.6849 8.20777C10.8769 7.84774 11.4369 7.98375 11.4369 8.39978V11.2H12.373C12.669 11.2 12.869 11.52 12.725 11.792Z" fill=""/>
</svg>
