<svg width="24" height="24" viewBox="0 0 24 24" fill="none" xmlns="http://www.w3.org/2000/svg">
<g clip-path="url(#clip0_57011_68053)">
<rect width="24" height="24" rx="12" fill="#1A47B8"/>
<path fill-rule="evenodd" clip-rule="evenodd" d="M-1.22545 0H-4.7998V4L25.2064 24L28.8002 24V20L-1.22545 0Z" fill="white"/>
<path d="M-3.60765 0L28.8002 21.6567V24H27.636L-4.7998 2.32089V0H-3.60765Z" fill="#F93939"/>
<path fill-rule="evenodd" clip-rule="evenodd" d="M25.6002 0H28.8002V4C28.8002 4 8.01588 17.3249 -1.5998 24H-4.7998V20L25.6002 0Z" fill="white"/>
<path d="M28.8002 0H27.715L-4.7998 21.6753V24H-3.60765L28.8002 2.33842V0Z" fill="#F93939"/>
<path fill-rule="evenodd" clip-rule="evenodd" d="M7.41952 0H16.6088V7.40291H28.8002V16.5922H16.6088V24H7.41952V16.5922H-4.7998V7.40291H7.41952V0Z" fill="white"/>
<path fill-rule="evenodd" clip-rule="evenodd" d="M9.34756 0H14.6528V9.23077H28.8002V14.7692H14.6528V24H9.34756V14.7692H-4.7998V9.23077H9.34756V0Z" fill="#F93939"/>
</g>
<defs>
<clipPath id="clip0_57011_68053">
<rect width="24" height="24" rx="12" fill="white"/>
</clipPath>
</defs>
</svg>
