<svg width="64" height="64" viewBox="0 0 64 64" fill="none" xmlns="http://www.w3.org/2000/svg">
<path d="M30.1165 12.5667C34.2599 18.8633 24.5665 25.7467 21.9999 19.57C20.731 16.5144 21.2276 13.8167 23.4899 11.4767C25.5499 9.34667 28.5965 10.2567 30.1165 12.5667Z" fill="white"/>
<path d="M34.8335 14.3301C37.5768 12.8468 39.7068 19.1434 35.6101 20.5368C33.2201 21.3468 32.2501 19.5101 32.5635 17.4868C32.7813 16.0823 33.5379 15.0301 34.8335 14.3301Z" fill="white"/>
<path d="M38.7489 19.1928C37.8262 20.6524 37.9473 22.3851 39.0195 23.0629C40.0916 23.7406 41.7088 23.1069 42.6315 21.6472C43.5542 20.1876 43.4331 18.4549 42.361 17.7772C41.2888 17.0994 39.6717 17.7332 38.7489 19.1928Z" fill="white"/>
<path d="M42.856 23.1913C41.9977 24.5283 42.1798 26.1756 43.2626 26.8708C44.3455 27.566 45.9192 27.0458 46.7775 25.7088C47.6358 24.3719 47.4537 22.7245 46.3708 22.0293C45.2879 21.3341 43.7143 21.8544 42.856 23.1913Z" fill="white"/>
<path d="M24.4699 41.8366C27.6166 44.8899 32.6932 41.7299 29.2366 37.7733C27.8454 36.1822 26.4632 34.5922 25.0899 33.0033C20.6432 27.8666 26.4666 22.6933 31.4199 22.1933C32.4132 22.0933 33.4454 22.2266 34.5166 22.5933C50.5332 28.0766 44.4932 45.4266 34.0266 52.1933C30.8699 54.2366 27.1966 54.6266 24.5232 51.6366C22.5932 49.4833 21.2799 45.1299 21.5032 42.0866C21.6366 40.2366 23.5032 40.8966 24.4699 41.8366Z" fill="white"/>
<path d="M35.1359 2.16434C40.1614 2.69255 44.972 4.48161 49.1214 7.36553C53.2708 10.2495 56.6245 14.1348 58.8714 18.661" stroke="#19A2C7" stroke-width="4" stroke-linecap="round" stroke-linejoin="round"/>
<path d="M61.3444 25.7626C62.395 30.7054 62.1801 35.8335 60.7196 40.671C59.2591 45.5085 56.6003 49.8987 52.9899 53.4342" stroke="#F5BA7A" stroke-width="4" stroke-linecap="round" stroke-linejoin="round"/>
<path d="M47 57.9808C42.6238 60.5073 37.6803 61.8876 32.6283 61.9934C27.5762 62.0992 22.5793 60.9272 18.1011 58.5861" stroke="#674186" stroke-width="4" stroke-linecap="round" stroke-linejoin="round"/>
<path d="M11.9261 54.2943C8.17084 50.9131 5.33053 46.6381 3.66871 41.866C2.00689 37.0939 1.57741 31.9793 2.42012 26.9969" stroke="#ED618B" stroke-width="4" stroke-linecap="round" stroke-linejoin="round"/>
<path d="M4.59364 19.7979C6.64895 15.1816 9.83702 11.1592 13.862 8.1041C17.887 5.04896 22.6185 3.06001 27.6175 2.32183" stroke="#3F9BE1" stroke-width="4" stroke-linecap="round" stroke-linejoin="round"/>
</svg>
