<svg width="56" height="56" viewBox="0 0 56 56" fill="none" xmlns="http://www.w3.org/2000/svg">
<rect width="56" height="56" rx="28" fill="#1C375C"/>
<path d="M23.9219 28.3089V21.3292C26.3202 21.3343 29.7251 21.3282 32.1232 21.3292V28.3089" stroke="white" stroke-width="0.833333"/>
<path d="M32.0764 21.2818C32.067 21.2835 32.0633 21.2893 32.0653 21.2991C31.3609 21.2956 30.6564 21.2928 29.952 21.2908C29.7945 21.2903 29.5406 21.2927 29.1903 21.298C28.9024 21.3023 28.6147 21.3022 28.3272 21.2976C28.0668 21.2939 27.8165 21.2939 27.5765 21.2976C27.326 21.3017 27.0755 21.3029 26.825 21.3014C26.7971 21.3014 26.774 21.3002 26.7557 21.2976C26.7178 21.2923 26.6952 21.2897 26.6879 21.2897C25.7952 21.293 24.9025 21.2954 24.0098 21.2969C24.0093 21.2969 23.9972 21.2944 23.9736 21.2893C23.9667 21.2878 23.9595 21.2879 23.9519 21.2897C23.9186 21.0087 23.9204 20.7282 23.9572 20.4482C23.958 20.4421 23.9606 20.4365 23.9645 20.4323C23.9684 20.4281 23.9733 20.4256 23.9785 20.4251L24.1089 20.413C24.1281 20.4112 24.1459 20.4038 24.1589 20.3924C24.1718 20.381 24.179 20.3664 24.179 20.3514V19.5847C24.179 19.5572 24.1686 19.5308 24.15 19.5106L23.7267 19.0528C23.6774 18.9996 23.6532 18.9338 23.6543 18.8554L23.6645 18.1439C23.6647 18.1369 23.6631 18.13 23.6601 18.1236C23.6571 18.1172 23.6527 18.1116 23.6471 18.1071C23.6416 18.1026 23.6351 18.0994 23.6281 18.0976C23.6211 18.0959 23.6137 18.0957 23.6066 18.0971C23.5462 18.1084 23.5189 18.0895 23.5247 18.0403C23.529 18.0025 23.5312 17.9822 23.5312 17.9795C23.5312 17.9162 23.5305 17.8531 23.5293 17.7901C23.5292 17.7847 23.5309 17.7794 23.5341 17.7751C23.5373 17.7708 23.542 17.7677 23.5472 17.7663C23.6338 17.7438 23.7199 17.7452 23.8055 17.7704C23.8113 17.772 23.8165 17.7751 23.8206 17.7794C23.8247 17.7837 23.8275 17.7889 23.8288 17.7946L23.844 17.857C23.8454 17.8624 23.8483 17.8672 23.8525 17.8707C23.8566 17.8742 23.8617 17.8762 23.8669 17.8763L23.9961 17.8782C24.0063 17.8784 24.0162 17.8744 24.0236 17.8672C24.0311 17.86 24.0354 17.8501 24.0357 17.8396C24.0372 17.7814 24.0628 17.7523 24.1123 17.7523C24.2078 17.752 24.2642 17.7537 24.2815 17.7572C24.3231 17.7658 24.3433 17.7965 24.3421 17.8494C24.342 17.855 24.3437 17.8603 24.3469 17.8646C24.3501 17.8689 24.3546 17.8718 24.3596 17.8729C24.4101 17.8837 24.4606 17.8831 24.5109 17.871C24.5158 17.8698 24.5201 17.8667 24.5231 17.8623C24.5262 17.8579 24.5278 17.8524 24.5276 17.8468C24.5256 17.7911 24.5523 17.7605 24.6077 17.7549C24.6765 17.7479 24.7441 17.7519 24.8104 17.767C24.816 17.7683 24.8212 17.7711 24.8252 17.7752C24.8292 17.7793 24.8319 17.7845 24.8329 17.7901C24.8489 17.88 24.8487 17.97 24.8325 18.06C24.8316 18.0654 24.8291 18.0706 24.8252 18.0748C24.8214 18.079 24.8164 18.0821 24.8108 18.0838L24.7307 18.108C24.7253 18.1097 24.7204 18.1129 24.7166 18.1172C24.7128 18.1216 24.7103 18.1269 24.7094 18.1326C24.6858 18.2891 24.6836 18.446 24.7029 18.6033C24.7038 18.6098 24.7059 18.6158 24.709 18.6209C24.7122 18.626 24.7164 18.6299 24.7212 18.6324C24.7489 18.6465 24.7865 18.6481 24.834 18.6373C24.8861 18.6254 24.9129 18.6433 24.9144 18.691L24.9217 18.9076C24.9222 18.9254 24.929 18.9423 24.9408 18.9547C24.9527 18.9671 24.9685 18.9741 24.9849 18.9741H25.3183C25.3277 18.9741 25.3366 18.9701 25.3433 18.9631C25.3499 18.956 25.3537 18.9464 25.3538 18.9363L25.3561 18.6948C25.3566 18.6464 25.3844 18.6264 25.4395 18.635C25.5106 18.6461 25.5536 18.6394 25.5683 18.615C25.5693 18.6132 25.5698 18.5813 25.5698 18.5193C25.5698 18.4019 25.5698 18.2797 25.5698 18.1526C25.5698 18.1446 25.5681 18.1368 25.5649 18.1295C25.5616 18.1222 25.5569 18.1156 25.551 18.1103C25.5451 18.1049 25.5381 18.1008 25.5305 18.0983C25.5229 18.0957 25.5149 18.0948 25.507 18.0955C25.4569 18.1001 25.4295 18.0758 25.4246 18.0226C25.418 17.9518 25.4239 17.8722 25.4422 17.784C25.4437 17.7765 25.4476 17.7697 25.4534 17.7648C25.4592 17.7599 25.4664 17.7572 25.4738 17.7572L25.7123 17.7553C25.7154 17.7553 25.7184 17.756 25.7212 17.7573C25.724 17.7586 25.7264 17.7605 25.7283 17.7628C25.7303 17.7652 25.7317 17.7679 25.7324 17.7709C25.7331 17.7738 25.7332 17.7769 25.7325 17.7799C25.7211 17.8356 25.7351 17.8678 25.7745 17.8766C25.7892 17.8799 25.8178 17.8823 25.8602 17.8838C25.9224 17.8861 25.9537 17.8535 25.9539 17.7859C25.954 17.7804 25.9558 17.7751 25.9591 17.7709C25.9623 17.7668 25.9669 17.764 25.9718 17.7632C26.0562 17.7484 26.1405 17.7484 26.2249 17.7632C26.2298 17.7641 26.2343 17.7668 26.2374 17.7708C26.2405 17.7749 26.242 17.78 26.2416 17.7852C26.2358 17.8547 26.2664 17.8874 26.3335 17.8831C26.3401 17.8826 26.3643 17.8823 26.4063 17.8823C26.453 17.8823 26.4695 17.8523 26.4558 17.7923C26.4548 17.7879 26.4548 17.7832 26.4558 17.7787C26.4568 17.7742 26.4589 17.77 26.4618 17.7664C26.4646 17.7628 26.4683 17.7599 26.4725 17.7579C26.4767 17.7559 26.4813 17.7549 26.4859 17.7549H26.7164C26.7197 17.7549 26.723 17.7556 26.7261 17.7568C26.7291 17.7581 26.7319 17.7599 26.7342 17.7622C26.7366 17.7645 26.7384 17.7673 26.7397 17.7703C26.7409 17.7733 26.7416 17.7766 26.7416 17.7799C26.7416 17.8703 26.7429 17.9534 26.7454 18.029C26.7472 18.0872 26.7268 18.1114 26.6844 18.1016C26.6765 18.0998 26.6682 18.0998 26.6602 18.1016C26.6522 18.1034 26.6448 18.107 26.6384 18.1121C26.632 18.1171 26.6268 18.1236 26.6232 18.1309C26.6196 18.1383 26.6178 18.1464 26.6177 18.1545V18.6048C26.6177 18.6145 26.6215 18.6239 26.6281 18.6308C26.6347 18.6378 26.6437 18.6417 26.6532 18.6418L26.7888 18.6433C26.7991 18.6434 26.8089 18.6474 26.8161 18.6544C26.8233 18.6614 26.8273 18.6709 26.8273 18.6808V18.9242C26.8273 18.9375 26.8326 18.9502 26.8421 18.9595C26.8515 18.9689 26.8643 18.9741 26.8776 18.9741H27.2004C27.2119 18.9742 27.2231 18.9694 27.2317 18.9608C27.2403 18.9522 27.2457 18.9403 27.2469 18.9276L27.2663 18.6974C27.2704 18.6483 27.3012 18.6285 27.3589 18.638C27.4422 18.6522 27.482 18.6296 27.4782 18.5704C27.4764 18.5442 27.4755 18.5297 27.4755 18.5269C27.4783 18.3946 27.4761 18.2624 27.469 18.1303C27.4688 18.1254 27.4667 18.1208 27.4629 18.1172C27.4592 18.1137 27.4542 18.1115 27.4488 18.111C27.3767 18.105 27.3424 18.0681 27.3459 18.0003C27.3485 17.9526 27.3497 17.9277 27.3497 17.9254C27.349 17.88 27.3511 17.8349 27.3562 17.7901C27.3568 17.7845 27.3591 17.7793 27.3627 17.7751C27.3664 17.7709 27.3713 17.7679 27.3768 17.7666C27.4584 17.7472 27.5396 17.7472 27.6207 17.7666C27.6258 17.7679 27.6305 17.7707 27.6342 17.775C27.6379 17.7792 27.6405 17.7846 27.6416 17.7905L27.6538 17.857C27.6548 17.8625 27.6577 17.8675 27.662 17.8711C27.6664 17.8747 27.6718 17.8766 27.6775 17.8766H27.8154C27.8206 17.8767 27.8256 17.8747 27.8299 17.8712C27.8342 17.8676 27.8374 17.8627 27.839 17.857L27.8611 17.7848C27.8629 17.7793 27.8662 17.7744 27.8708 17.7706C27.8754 17.7668 27.881 17.7643 27.887 17.7632C27.965 17.7494 28.0429 17.7494 28.1206 17.7632C28.1259 17.7641 28.1309 17.7668 28.1347 17.7708C28.1385 17.7749 28.1411 17.7802 28.142 17.7859C28.1585 17.8835 28.2217 17.9124 28.3317 17.8729C28.3367 17.871 28.3411 17.8676 28.3443 17.8631C28.3474 17.8585 28.3493 17.853 28.3496 17.8472C28.3542 17.7836 28.3862 17.7513 28.4457 17.75C28.452 17.75 28.4845 17.7508 28.5432 17.7523C28.5701 17.753 28.5964 17.7574 28.6221 17.7655C28.6275 17.7671 28.6324 17.7702 28.6363 17.7745C28.6402 17.7789 28.6429 17.7842 28.6442 17.7901C28.664 17.88 28.664 17.97 28.6442 18.06C28.6427 18.0667 28.6399 18.0728 28.636 18.0775C28.6322 18.0823 28.6275 18.0855 28.6225 18.0868L28.5543 18.1054C28.5485 18.107 28.5433 18.1099 28.5397 18.1136C28.536 18.1173 28.534 18.1216 28.5341 18.1258L28.5386 18.6176C28.5387 18.6231 28.5408 18.6283 28.5444 18.6322C28.548 18.6362 28.5529 18.6385 28.5581 18.6388L28.6633 18.646C28.7227 18.65 28.7532 18.6806 28.7547 18.7378L28.76 18.9533C28.7602 18.9586 28.7627 18.9636 28.767 18.9672C28.7713 18.9708 28.777 18.9727 28.7829 18.9726L29.1449 18.9685C29.15 18.9683 29.1549 18.9662 29.1586 18.9624C29.1622 18.9586 29.1644 18.9535 29.1647 18.948L29.1792 18.6811C29.1795 18.6754 29.1815 18.6698 29.1849 18.6652C29.1883 18.6607 29.1929 18.6573 29.1983 18.6554C29.2427 18.6406 29.2947 18.6377 29.3541 18.6467C29.3609 18.6478 29.3678 18.6474 29.3743 18.6455C29.3809 18.6437 29.387 18.6405 29.3922 18.6361C29.3974 18.6317 29.4015 18.6262 29.4044 18.6201C29.4072 18.614 29.4086 18.6073 29.4086 18.6006L29.4071 18.1258C29.407 18.1207 29.405 18.1158 29.4014 18.112C29.3979 18.1082 29.393 18.1057 29.3876 18.105L29.292 18.0914C29.2863 18.0906 29.2811 18.0879 29.2773 18.0839C29.2735 18.0798 29.2714 18.0747 29.2714 18.0695V17.781C29.2714 17.7758 29.2736 17.7707 29.2774 17.7667C29.2813 17.7628 29.2866 17.7602 29.2924 17.7595C29.3373 17.7544 29.3824 17.7525 29.4277 17.7538C29.4315 17.7538 29.4506 17.7526 29.4852 17.7504C29.5363 17.7474 29.5562 17.776 29.545 17.8362C29.5441 17.8413 29.5443 17.8465 29.5456 17.8514C29.5469 17.8564 29.5492 17.8611 29.5526 17.865C29.5559 17.869 29.56 17.8722 29.5647 17.8744C29.5694 17.8766 29.5745 17.8778 29.5797 17.8778H29.7336C29.7391 17.8778 29.7444 17.8766 29.7493 17.8743C29.7542 17.872 29.7586 17.8686 29.762 17.8645C29.7655 17.8603 29.768 17.8555 29.7693 17.8503C29.7707 17.845 29.7708 17.8396 29.7698 17.8343C29.7584 17.7751 29.7843 17.7472 29.8476 17.7508C29.8981 17.7535 29.9529 17.7549 30.0118 17.7549C30.0231 17.7549 30.0339 17.7591 30.0422 17.7668C30.0504 17.7745 30.0553 17.785 30.056 17.7961C30.0591 17.8496 30.0796 17.8782 30.1177 17.8819C30.1246 17.8827 30.1539 17.8833 30.2058 17.8838C30.2596 17.8841 30.2817 17.8512 30.2721 17.7852C30.2713 17.78 30.2725 17.7749 30.2754 17.7707C30.2782 17.7666 30.2825 17.7637 30.2873 17.7629C30.3704 17.7462 30.4532 17.7476 30.5358 17.767C30.5416 17.7683 30.547 17.771 30.5515 17.7748C30.556 17.7786 30.5593 17.7835 30.5613 17.7889C30.5938 17.8794 30.5938 17.97 30.5613 18.0608C30.5595 18.0656 30.5563 18.0701 30.5519 18.074C30.5474 18.0778 30.5419 18.0809 30.5358 18.0831L30.4577 18.1088C30.4525 18.1105 30.4479 18.1139 30.4445 18.1185C30.4411 18.1231 30.4391 18.1288 30.4386 18.1349C30.4274 18.2609 30.4237 18.3871 30.4275 18.5137C30.4275 18.5167 30.4267 18.5338 30.4249 18.5651C30.4213 18.6321 30.4649 18.6567 30.5556 18.6388C30.6166 18.627 30.6477 18.6472 30.6489 18.6997L30.6547 18.9299C30.655 18.9417 30.6595 18.9529 30.6672 18.9612C30.675 18.9695 30.6854 18.9741 30.6962 18.9741H31.0148C31.062 18.9741 31.0856 18.9507 31.0856 18.9038V18.7031C31.0856 18.6944 31.0875 18.6858 31.0912 18.6779C31.0949 18.67 31.1002 18.663 31.1069 18.6573C31.1136 18.6517 31.1214 18.6476 31.1298 18.6452C31.1382 18.6429 31.1471 18.6423 31.1557 18.6437C31.2002 18.6508 31.2431 18.6461 31.2845 18.6297C31.2902 18.6275 31.295 18.6238 31.2984 18.6191C31.3017 18.6143 31.3036 18.6088 31.3036 18.6033L31.3032 18.1383C31.3032 18.1295 31.2996 18.1211 31.2933 18.1147C31.2869 18.1083 31.2782 18.1044 31.2689 18.1039C31.1909 18.0978 31.1538 18.0638 31.1577 18.0018C31.1597 17.966 31.1607 17.9462 31.1607 17.9424C31.1594 17.8945 31.1615 17.8469 31.1668 17.7995C31.1674 17.7938 31.1695 17.7885 31.1731 17.784C31.1766 17.7795 31.1813 17.7761 31.1866 17.7742C31.2725 17.7437 31.359 17.7423 31.4461 17.77C31.4511 17.7716 31.4554 17.7749 31.4583 17.7795C31.4612 17.7841 31.4626 17.7897 31.4621 17.7954C31.4583 17.8511 31.4804 17.8799 31.5284 17.8819C31.5581 17.8829 31.5867 17.8835 31.6142 17.8835C31.6609 17.8832 31.6819 17.8557 31.677 17.801C31.6763 17.7913 31.6793 17.7816 31.6854 17.774C31.6916 17.7664 31.7005 17.7614 31.7102 17.7602C31.8009 17.7489 31.8779 17.7523 31.9411 17.7704C31.9463 17.7718 31.9508 17.775 31.954 17.7793C31.9573 17.7837 31.959 17.7891 31.959 17.7946C31.9588 17.8609 31.9906 17.8905 32.0547 17.8835C32.0605 17.8829 32.0815 17.8823 32.1175 17.8816C32.1549 17.8808 32.1729 17.8574 32.1716 17.8112C32.1714 17.8042 32.1726 17.7972 32.1751 17.7906C32.1775 17.784 32.1813 17.778 32.186 17.773C32.1908 17.7679 32.1965 17.7638 32.2028 17.7611C32.2091 17.7583 32.2159 17.7568 32.2227 17.7568L32.4403 17.7549C32.4499 17.7549 32.4591 17.7588 32.4659 17.7657C32.4727 17.7725 32.4765 17.7819 32.4765 17.7916V18.0649C32.4765 18.0717 32.474 18.0783 32.4694 18.0835C32.4647 18.0886 32.4583 18.092 32.4513 18.0929L32.3641 18.1039C32.3589 18.1045 32.3542 18.1071 32.3508 18.1112C32.3473 18.1153 32.3454 18.1206 32.3454 18.1262L32.3408 18.9624C32.3408 18.9746 32.3364 18.9862 32.3283 18.9949L31.8592 19.5049C31.8334 19.5329 31.8192 19.5688 31.8192 19.6055V20.3359C31.8192 20.3901 31.8466 20.4178 31.9015 20.419L32.044 20.4217C32.0577 20.422 32.0707 20.4276 32.0803 20.4373C32.0899 20.4471 32.0953 20.4602 32.0954 20.4739C32.0967 20.7319 32.0953 20.9889 32.0912 21.2447C32.091 21.2593 32.086 21.2717 32.0764 21.2818Z" fill="white"/>
<path d="M32.2004 28.1344C32.2021 28.1417 32.208 28.1444 32.2179 28.1424C32.2169 28.4824 32.2192 28.8222 32.2247 29.162C32.228 29.3644 32.2133 29.5144 32.1805 29.6122C32.1168 29.8033 32.0008 29.9462 31.8326 30.0409C31.7635 30.08 31.5461 30.1448 31.1803 30.2353C30.3414 30.4432 29.5017 30.6476 28.6611 30.8485C28.5003 30.8868 28.3825 30.9311 28.3079 30.9815C28.2029 31.0521 28.1134 31.145 28.0392 31.2602C28.0363 31.2647 28.0323 31.2685 28.0276 31.2711C28.0228 31.2737 28.0175 31.2751 28.0121 31.2751C28.0066 31.2751 28.0013 31.2738 27.9965 31.2713C27.9917 31.2687 27.9877 31.265 27.9847 31.2605C27.9009 31.1325 27.8004 31.0326 27.6833 30.9607C27.6096 30.9156 27.4791 30.8699 27.2916 30.8235C26.4144 30.607 25.5357 30.3968 24.6554 30.1929C24.5569 30.1702 24.4362 30.1326 24.2934 30.0799C24.0678 29.9967 23.9197 29.8446 23.8491 29.6236C23.8189 29.5291 23.7992 29.4323 23.79 29.3332L23.7996 28.1424L24.5994 28.142C24.6067 28.142 24.6137 28.145 24.6188 28.1503C24.6239 28.1556 24.6268 28.1628 24.6268 28.1703V28.6032C24.6268 28.6088 24.6291 28.6142 24.6331 28.6182C24.6371 28.6221 24.6425 28.6244 24.6482 28.6244H25.6256C25.6353 28.6244 25.6447 28.6207 25.6517 28.6141C25.6588 28.6074 25.6629 28.5984 25.6633 28.5888C25.6656 28.5389 25.668 28.4942 25.6706 28.4546C25.6721 28.4284 25.6699 28.3842 25.6641 28.3219C25.6587 28.262 25.6645 28.2026 25.6812 28.1439C25.6826 28.1386 25.6857 28.1339 25.6901 28.1303C25.6945 28.1268 25.6999 28.1247 25.7056 28.1242C25.9566 28.1048 26.2075 28.1063 26.4582 28.1288C26.4637 28.1293 26.4688 28.1316 26.4728 28.1353C26.4767 28.139 26.4792 28.1439 26.4799 28.1492C26.4972 28.2795 26.5013 28.4192 26.4921 28.5684C26.4919 28.572 26.4924 28.5755 26.4937 28.5789C26.4949 28.5822 26.4968 28.5853 26.4993 28.5879C26.5017 28.5904 26.5047 28.5925 26.508 28.5939C26.5113 28.5953 26.5148 28.596 26.5184 28.596H27.5454C27.5487 28.596 27.5519 28.5954 27.555 28.5941C27.558 28.5929 27.5608 28.591 27.5631 28.5887C27.5655 28.5864 27.5673 28.5836 27.5686 28.5806C27.5699 28.5776 27.5705 28.5743 27.5705 28.5711V28.1703C27.5705 28.1654 27.5715 28.1606 27.5734 28.156C27.5753 28.1515 27.5781 28.1473 27.5816 28.1439C27.5851 28.1404 27.5892 28.1376 27.5938 28.1358C27.5984 28.1339 27.6033 28.1329 27.6082 28.1329H28.3928C28.3962 28.1329 28.3995 28.1336 28.4026 28.1348C28.4057 28.1361 28.4085 28.138 28.4109 28.1403C28.4133 28.1427 28.4151 28.1455 28.4164 28.1485C28.4177 28.1516 28.4184 28.1549 28.4184 28.1582V28.5658C28.4184 28.5713 28.4206 28.5766 28.4245 28.5805C28.4284 28.5844 28.4338 28.5866 28.4393 28.5866L29.4499 28.5843C29.462 28.5843 29.4737 28.5793 29.4824 28.5704C29.491 28.5614 29.4959 28.5493 29.496 28.5367L29.5009 28.1212C29.5009 28.1161 29.5031 28.1113 29.5068 28.1077C29.5106 28.1041 29.5158 28.102 29.5211 28.1019L30.2623 28.0947C30.2701 28.0947 30.2778 28.0961 30.285 28.099C30.2922 28.1019 30.2988 28.1061 30.3043 28.1114C30.3098 28.1168 30.3142 28.1231 30.3172 28.1301C30.3202 28.1371 30.3217 28.1446 30.3217 28.1522L30.3233 28.5741C30.3234 28.5799 30.3257 28.5855 30.3299 28.5896C30.334 28.5937 30.3396 28.596 30.3454 28.596L31.3502 28.5938C31.3557 28.5938 31.361 28.5917 31.3649 28.5881C31.3688 28.5845 31.3711 28.5796 31.3712 28.5745L31.3796 28.1805C31.3797 28.1709 31.3834 28.1618 31.3896 28.155C31.3959 28.1482 31.4043 28.1444 31.4131 28.1443L32.2004 28.1344Z" fill="white"/>
<path d="M27.9524 21.7915C27.9552 21.7713 27.9453 21.746 27.9227 21.7155C27.8981 21.6822 27.9036 21.6767 27.9395 21.6989C27.9758 21.7215 28.0209 21.7239 28.0747 21.706C28.0913 21.7007 28.0972 21.7064 28.0926 21.723C28.0693 21.8075 28.0887 21.8353 28.151 21.8066C28.154 21.8052 28.1574 21.8046 28.1608 21.8048C28.1642 21.805 28.1674 21.806 28.1703 21.8078C28.1731 21.8096 28.1755 21.812 28.1771 21.8149C28.1787 21.8178 28.1795 21.8211 28.1795 21.8244L28.1784 21.9779C28.1783 21.9798 28.1778 21.9816 28.1768 21.9833C28.1757 21.9849 28.1743 21.9862 28.1725 21.9872C28.1708 21.9881 28.1688 21.9886 28.1668 21.9887C28.1647 21.9887 28.1627 21.9882 28.1609 21.9873C28.0981 21.9553 28.0793 21.9777 28.1045 22.0546C28.1083 22.0657 28.1047 22.069 28.0938 22.0644C28.041 22.0425 27.9879 22.0436 27.9345 22.0678C27.9091 22.0792 27.9019 22.0722 27.9128 22.047C27.9468 21.9682 27.9308 21.9481 27.8648 21.9869C27.8632 21.9879 27.8613 21.9885 27.8594 21.9885C27.8575 21.9886 27.8556 21.9881 27.8539 21.9873C27.8522 21.9864 27.8508 21.9851 27.8498 21.9835C27.8487 21.9819 27.8481 21.9801 27.848 21.9782C27.8455 21.9349 27.8428 21.8915 27.84 21.8482C27.8377 21.8096 27.8593 21.7997 27.9048 21.8183C27.9097 21.8203 27.9149 21.8212 27.9202 21.8209C27.9255 21.8206 27.9306 21.8191 27.9352 21.8165C27.9398 21.8139 27.9438 21.8103 27.9467 21.8059C27.9497 21.8016 27.9517 21.7967 27.9524 21.7915Z" fill="white"/>
<path d="M28.0713 22.1217C28.0833 22.1363 28.0883 22.1556 28.0852 22.1754C28.0821 22.1952 28.0711 22.2138 28.0546 22.2273C28.0464 22.2339 28.0372 22.2391 28.0274 22.2425C28.0175 22.2459 28.0073 22.2474 27.9973 22.247C27.9874 22.2466 27.9778 22.2443 27.9691 22.2402C27.9605 22.236 27.953 22.2302 27.947 22.223C27.9349 22.2084 27.9299 22.1891 27.933 22.1693C27.9362 22.1495 27.9472 22.1309 27.9637 22.1174C27.9718 22.1108 27.9811 22.1056 27.9909 22.1022C28.0007 22.0989 28.0109 22.0973 28.0209 22.0977C28.0309 22.0981 28.0405 22.1004 28.0491 22.1046C28.0578 22.1087 28.0653 22.1145 28.0713 22.1217Z" fill="white"/>
<path d="M27.3914 22.9563L27.3876 23.1968C27.3875 23.2022 27.3854 23.2074 27.3818 23.2112C27.3782 23.215 27.3733 23.2172 27.3682 23.2172L27.2485 23.2176C27.243 23.2176 27.2376 23.2153 27.2337 23.2113C27.2298 23.2072 27.2276 23.2017 27.2276 23.196V22.9832C27.2276 22.979 27.2267 22.9749 27.2249 22.9711C27.2231 22.9673 27.2206 22.9639 27.2174 22.9612C27.2142 22.9585 27.2105 22.9565 27.2065 22.9553C27.2024 22.9541 27.1982 22.9538 27.194 22.9544C27.1562 22.96 27.1525 22.9513 27.183 22.9284C27.4548 22.7262 27.723 22.5225 27.9874 22.317C27.9937 22.3122 28.0015 22.3096 28.0094 22.3096C28.0173 22.3096 28.025 22.3122 28.0312 22.317L28.8295 22.9393C28.8367 22.9449 28.8354 22.9494 28.8257 22.9529L28.7979 22.9635C28.7933 22.9651 28.7893 22.969 28.7866 22.9745C28.7838 22.98 28.7824 22.9869 28.7827 22.9941L28.7865 23.1873C28.7866 23.1906 28.7862 23.1939 28.7854 23.1969C28.7846 23.2 28.7834 23.2028 28.7818 23.2051C28.7802 23.2075 28.7782 23.2094 28.7761 23.2107C28.774 23.2119 28.7717 23.2126 28.7693 23.2126L28.6394 23.2108C28.6335 23.2107 28.6278 23.2078 28.6236 23.2027C28.6194 23.1975 28.617 23.1905 28.6169 23.1832L28.6135 22.9609C28.6134 22.9556 28.6111 22.9505 28.6072 22.9468C28.6033 22.9431 28.5981 22.9409 28.5925 22.9408L28.1242 22.9355C28.1216 22.9355 28.119 22.936 28.1165 22.9369C28.1141 22.9379 28.1118 22.9393 28.1099 22.9412C28.1081 22.943 28.1066 22.9452 28.1056 22.9476C28.1045 22.95 28.104 22.9526 28.104 22.9552L28.1071 23.1971C28.1071 23.1999 28.1066 23.2026 28.1057 23.2052C28.1047 23.2077 28.1032 23.21 28.1014 23.212C28.0995 23.2139 28.0973 23.2154 28.0949 23.2165C28.0925 23.2175 28.0899 23.218 28.0872 23.2179L27.9158 23.2168C27.9111 23.2168 27.9067 23.2147 27.9034 23.211C27.9001 23.2074 27.8982 23.2024 27.8982 23.1971V22.9609C27.8982 22.9556 27.8961 22.9506 27.8923 22.9468C27.8886 22.9431 27.8834 22.9409 27.878 22.9408L27.4105 22.9367C27.4055 22.9366 27.4008 22.9386 27.3972 22.9423C27.3936 22.946 27.3915 22.951 27.3914 22.9563Z" fill="white"/>
<path d="M27.1343 23.3293H27.5012C27.5065 23.3293 27.5115 23.3273 27.5152 23.3237C27.519 23.3201 27.5211 23.3152 27.5211 23.3101L27.5218 23.0984C27.5218 23.0926 27.5228 23.0868 27.5248 23.0815C27.5267 23.0761 27.5295 23.0713 27.5331 23.0672C27.5367 23.0631 27.5409 23.0599 27.5456 23.0577C27.5503 23.0555 27.5553 23.0545 27.5603 23.0545L27.7493 23.0549C27.7541 23.0549 27.7586 23.0574 27.762 23.0617C27.7653 23.0661 27.7672 23.0721 27.7672 23.0783L27.7687 23.3116C27.7687 23.3168 27.7709 23.3218 27.7747 23.3255C27.7784 23.3292 27.7836 23.3312 27.7889 23.3312H28.218C28.2231 23.3312 28.2279 23.3292 28.2315 23.3257C28.2351 23.3222 28.2371 23.3173 28.2371 23.3123L28.239 23.0689C28.239 23.0662 28.2395 23.0636 28.2404 23.0611C28.2414 23.0587 28.2428 23.0564 28.2446 23.0546C28.2464 23.0527 28.2485 23.0512 28.2508 23.0502C28.2531 23.0493 28.2555 23.0488 28.258 23.0488L28.4588 23.0526C28.4641 23.0527 28.4691 23.0549 28.4729 23.0588C28.4766 23.0627 28.4788 23.0679 28.479 23.0734L28.4874 23.3101C28.4875 23.3152 28.4895 23.3201 28.493 23.3237C28.4965 23.3273 28.5012 23.3293 28.5061 23.3293H28.873C28.8782 23.3293 28.8832 23.3273 28.8869 23.3237C28.8906 23.3201 28.8928 23.3152 28.8929 23.3101L28.894 23.0919C28.8941 23.0856 28.8965 23.0795 28.9007 23.0751C28.9049 23.0706 28.9106 23.0681 28.9165 23.0681L29.1539 23.0719C29.1592 23.0719 29.1644 23.0741 29.1682 23.078C29.172 23.0819 29.1741 23.0872 29.1741 23.0927L29.1794 23.5244C29.1795 23.5276 29.1789 23.5307 29.1776 23.5336C29.1764 23.5366 29.1745 23.5392 29.1722 23.5415C29.1698 23.5438 29.1671 23.5455 29.164 23.5468C29.1609 23.548 29.1576 23.5486 29.1543 23.5486L26.8489 23.5463C26.8437 23.5464 26.8387 23.5444 26.835 23.5408C26.8313 23.5373 26.8292 23.5325 26.8291 23.5274L26.8271 23.0855C26.8271 23.0805 26.8292 23.0757 26.8327 23.0721C26.8363 23.0686 26.8411 23.0666 26.8462 23.0666H27.0939C27.099 23.0666 27.1039 23.0687 27.1075 23.0723C27.1111 23.076 27.1132 23.081 27.1133 23.0863L27.1148 23.3104C27.1148 23.3155 27.1169 23.3203 27.1205 23.3238C27.1242 23.3274 27.1291 23.3293 27.1343 23.3293Z" fill="white"/>
<path d="M25.5343 23.3484C25.5343 23.3753 25.5236 23.401 25.5044 23.42C25.4853 23.439 25.4593 23.4497 25.4322 23.4497C25.4051 23.4497 25.3791 23.439 25.36 23.42C25.3408 23.401 25.3301 23.3753 25.3301 23.3484C25.3301 23.3215 25.3408 23.2957 25.36 23.2767C25.3791 23.2577 25.4051 23.2471 25.4322 23.2471C25.4593 23.2471 25.4853 23.2577 25.5044 23.2767C25.5236 23.2957 25.5343 23.3215 25.5343 23.3484Z" fill="white"/>
<path d="M30.6757 23.3497C30.6757 23.3767 30.6649 23.4026 30.6457 23.4217C30.6265 23.4407 30.6004 23.4514 30.5732 23.4514C30.546 23.4514 30.5199 23.4407 30.5007 23.4217C30.4815 23.4026 30.4707 23.3767 30.4707 23.3497C30.4707 23.3228 30.4815 23.2969 30.5007 23.2778C30.5199 23.2588 30.546 23.248 30.5732 23.248C30.6004 23.248 30.6265 23.2588 30.6457 23.2778C30.6649 23.2969 30.6757 23.3228 30.6757 23.3497Z" fill="white"/>
<path d="M25.4946 23.8185C25.4946 23.8214 25.494 23.8242 25.4929 23.8268C25.4918 23.8294 25.4902 23.8317 25.4882 23.8337C25.4861 23.8357 25.4837 23.8373 25.4811 23.8384C25.4785 23.8394 25.4756 23.84 25.4728 23.84L25.4103 23.8396C25.4045 23.8396 25.399 23.8373 25.395 23.8332C25.3909 23.8292 25.3886 23.8237 25.3887 23.818L25.3902 23.5322C25.3902 23.5293 25.3908 23.5265 25.3919 23.5239C25.393 23.5213 25.3946 23.519 25.3966 23.517C25.3987 23.515 25.4011 23.5134 25.4037 23.5123C25.4063 23.5113 25.4092 23.5107 25.412 23.5107L25.4745 23.5111C25.4803 23.5111 25.4858 23.5134 25.4898 23.5175C25.4939 23.5215 25.4961 23.527 25.4961 23.5327L25.4946 23.8185Z" fill="white"/>
<path d="M30.6102 23.813C30.6102 23.8164 30.6095 23.8198 30.6081 23.823C30.6068 23.8261 30.6049 23.829 30.6024 23.8314C30.6 23.8338 30.5971 23.8357 30.5939 23.837C30.5907 23.8383 30.5872 23.839 30.5838 23.839L30.5594 23.8389C30.556 23.8389 30.5525 23.8382 30.5494 23.8369C30.5462 23.8355 30.5433 23.8336 30.5408 23.8312C30.5384 23.8288 30.5365 23.8259 30.5352 23.8227C30.5339 23.8195 30.5332 23.8161 30.5332 23.8127L30.5342 23.5367C30.5342 23.5333 30.5349 23.5299 30.5362 23.5268C30.5375 23.5236 30.5395 23.5207 30.5419 23.5183C30.5444 23.5159 30.5473 23.514 30.5505 23.5127C30.5537 23.5114 30.5571 23.5107 30.5606 23.5107L30.5849 23.5108C30.5884 23.5108 30.5918 23.5115 30.595 23.5128C30.5982 23.5142 30.6011 23.5161 30.6035 23.5185C30.6059 23.521 30.6079 23.5238 30.6092 23.527C30.6105 23.5302 30.6112 23.5336 30.6111 23.537L30.6102 23.813Z" fill="white"/>
<path d="M27.0417 25.4866C27.0389 25.4904 27.0356 25.4936 27.0318 25.4964C27.0242 25.5022 27.0204 25.4999 27.0204 25.4896L27.0181 23.681C27.0181 23.676 27.0201 23.6712 27.0236 23.6676C27.0272 23.6641 27.0321 23.6621 27.0371 23.6621L28.9634 23.6644C28.9704 23.6644 28.9772 23.6672 28.9822 23.6722C28.9872 23.6773 28.99 23.6841 28.99 23.6912V25.4783C28.99 25.4984 28.9827 25.5015 28.9679 25.4873L28.0793 24.645C28.0738 24.6397 28.0705 24.6326 28.07 24.6251C28.0696 24.6175 28.0721 24.6102 28.077 24.6046L28.1864 24.4798C28.1895 24.4762 28.1911 24.4714 28.1909 24.4664C28.1907 24.4614 28.1887 24.4565 28.1852 24.4526L28.0431 24.2946C28.0394 24.2905 28.035 24.2871 28.03 24.2847C28.025 24.2824 28.0197 24.281 28.0142 24.2808C28.0088 24.2805 28.0034 24.2814 27.9984 24.2833C27.9934 24.2852 27.9889 24.2882 27.9852 24.2919L27.8217 24.4564C27.8179 24.4602 27.8158 24.4654 27.8158 24.4708C27.8158 24.4761 27.8179 24.4813 27.8217 24.4851L27.9391 24.6023C27.9409 24.6041 27.9423 24.6063 27.9432 24.6086C27.9441 24.611 27.9445 24.6136 27.9444 24.6161C27.9443 24.6187 27.9436 24.6212 27.9425 24.6236C27.9414 24.626 27.9399 24.6281 27.9379 24.6299L27.0627 25.4571C27.0621 25.4576 27.0552 25.4674 27.0417 25.4866ZM27.6312 23.836C27.5529 23.7912 27.4917 23.8002 27.4475 23.8632C27.4411 23.8723 27.4376 23.8845 27.4376 23.898L27.4338 24.1343C27.4338 24.1376 27.4345 24.1408 27.4359 24.1437C27.4373 24.1466 27.4393 24.1492 27.4419 24.1512C27.4444 24.1532 27.4474 24.1546 27.4505 24.1553C27.4537 24.156 27.457 24.1559 27.4601 24.1551C27.5211 24.1385 27.5797 24.1378 27.6361 24.1532C27.64 24.1543 27.6441 24.1544 27.648 24.1536C27.652 24.1528 27.6557 24.1511 27.6589 24.1486C27.6621 24.1461 27.6646 24.1429 27.6664 24.1392C27.6681 24.1356 27.669 24.1315 27.6689 24.1275L27.6659 23.8969C27.6658 23.8842 27.6625 23.872 27.6564 23.8613C27.6503 23.8506 27.6416 23.8419 27.6312 23.836ZM28.0793 23.8292C28.0117 23.8 27.955 23.8031 27.909 23.8387C27.9039 23.8426 27.8997 23.8474 27.8968 23.8527C27.8939 23.8581 27.8923 23.8639 27.8922 23.8697L27.8861 24.1324C27.8861 24.1346 27.8866 24.1367 27.8876 24.1387C27.8886 24.1407 27.8901 24.1426 27.892 24.1441C27.8939 24.1457 27.8962 24.1469 27.8987 24.1477C27.9012 24.1486 27.904 24.149 27.9067 24.149H28.0919C28.0975 24.1491 28.1028 24.1474 28.107 24.1443C28.1112 24.1413 28.1139 24.1371 28.1147 24.1324C28.1318 24.0381 28.1305 23.9497 28.1109 23.867C28.1089 23.8587 28.105 23.8509 28.0995 23.8444C28.0941 23.8378 28.0871 23.8326 28.0793 23.8292ZM28.521 23.8266C28.4689 23.8041 28.4244 23.8025 28.3876 23.8216C28.3571 23.8375 28.3397 23.8704 28.3354 23.9203C28.3293 23.9894 28.33 24.0586 28.3377 24.1279C28.3381 24.133 28.3406 24.1378 28.3445 24.1412C28.3484 24.1447 28.3534 24.1465 28.3586 24.1464L28.5514 24.1434C28.5566 24.1433 28.5616 24.1412 28.5652 24.1375C28.5688 24.1338 28.5709 24.1289 28.5709 24.1237V23.9026C28.5709 23.8864 28.5661 23.8707 28.5573 23.8572C28.5484 23.8437 28.5358 23.8331 28.521 23.8266Z" fill="white"/>
<path d="M24.9444 24.4663C25.0734 24.2834 25.2059 24.1013 25.3418 23.92C25.3454 23.9153 25.35 23.9113 25.3555 23.9087C25.3609 23.906 25.3669 23.9046 25.3731 23.9045L26.8664 23.9004C26.8718 23.9004 26.8772 23.9015 26.8821 23.9036C26.8871 23.9057 26.8916 23.9087 26.8953 23.9126C26.899 23.9165 26.9019 23.921 26.9037 23.926C26.9056 23.931 26.9064 23.9363 26.9061 23.9416C26.8906 24.214 26.8889 24.4702 26.9011 24.7102C26.9012 24.7124 26.9008 24.7147 26.9 24.7168C26.8993 24.7189 26.898 24.7208 26.8965 24.7224C26.8949 24.7241 26.893 24.7253 26.8909 24.7262C26.8888 24.7271 26.8866 24.7276 26.8843 24.7276L24.7721 24.7268C24.7702 24.7268 24.7684 24.7263 24.7667 24.7253C24.7651 24.7244 24.7637 24.723 24.7627 24.7214C24.7618 24.7197 24.7613 24.7179 24.7612 24.716C24.7612 24.7141 24.7617 24.7122 24.7626 24.7106C24.7883 24.6662 24.8173 24.6244 24.8499 24.585C24.8986 24.5263 24.9301 24.4867 24.9444 24.4663Z" fill="white"/>
<path d="M31.2467 24.7079C31.2579 24.723 31.2542 24.7303 31.2356 24.7298C30.5411 24.7157 29.8372 24.7151 29.1238 24.7279C29.1212 24.728 29.1187 24.7275 29.1163 24.7266C29.1139 24.7256 29.1117 24.7242 29.1098 24.7224C29.108 24.7206 29.1065 24.7185 29.1055 24.7161C29.1045 24.7137 29.104 24.7112 29.104 24.7086V23.9249C29.104 23.9224 29.1045 23.9199 29.1055 23.9176C29.1065 23.9152 29.108 23.9131 29.1098 23.9113C29.1116 23.9095 29.1138 23.9081 29.1162 23.9071C29.1186 23.9062 29.1212 23.9057 29.1238 23.9057L30.6355 23.9053C30.6418 23.9053 30.6481 23.9068 30.6538 23.9097C30.6595 23.9126 30.6645 23.9168 30.6682 23.9219L31.2467 24.7079Z" fill="white"/>
<path d="M26.843 25.5353L25.1496 25.533C25.1442 25.533 25.1391 25.5308 25.1353 25.5268C25.1315 25.5229 25.1294 25.5175 25.1294 25.5119L25.1351 24.8639C25.1351 24.859 25.137 24.8543 25.1402 24.8508C25.1435 24.8473 25.148 24.8454 25.1526 24.8454L26.8777 24.8408C26.8826 24.8408 26.8874 24.8428 26.8909 24.8462C26.8944 24.8497 26.8964 24.8544 26.8964 24.8593L26.8918 25.5209C26.8918 25.524 26.8913 25.5271 26.8903 25.53C26.8894 25.5328 26.888 25.5354 26.8862 25.5376C26.8845 25.5397 26.8824 25.5413 26.8801 25.5424C26.8779 25.5434 26.8755 25.5438 26.8731 25.5436C26.8696 25.5431 26.866 25.5421 26.8624 25.5406C26.8543 25.5371 26.8478 25.5353 26.843 25.5353ZM26.1121 25.0442C26.0281 24.981 25.9587 24.9875 25.9041 25.0639C25.8971 25.0737 25.8934 25.0858 25.8934 25.0987L25.8957 25.3323C25.8957 25.3348 25.8962 25.3373 25.8972 25.3396C25.8982 25.3419 25.8996 25.344 25.9014 25.3458C25.9032 25.3475 25.9054 25.3489 25.9077 25.3499C25.9101 25.3508 25.9126 25.3512 25.9151 25.3512L26.1152 25.3474C26.1177 25.3474 26.1202 25.3468 26.1225 25.3458C26.1247 25.3447 26.1268 25.3433 26.1286 25.3414C26.1303 25.3395 26.1317 25.3373 26.1326 25.3349C26.1335 25.3325 26.1339 25.33 26.1339 25.3274L26.132 25.0832C26.1318 25.0755 26.13 25.068 26.1266 25.0613C26.1231 25.0545 26.1182 25.0487 26.1121 25.0442ZM25.6617 25.0499C25.5873 24.9909 25.5221 24.989 25.4662 25.0442C25.457 25.0532 25.4516 25.065 25.4514 25.0771L25.4472 25.3323C25.4472 25.3348 25.4477 25.3373 25.4488 25.3396C25.4498 25.3419 25.4513 25.3439 25.4532 25.3457C25.4552 25.3474 25.4574 25.3487 25.4599 25.3496C25.4624 25.3505 25.4651 25.3509 25.4678 25.3508L25.6644 25.3455C25.6697 25.3454 25.6747 25.3432 25.6784 25.3394C25.6821 25.3356 25.6842 25.3305 25.6842 25.3251V25.096C25.6842 25.0872 25.6822 25.0784 25.6783 25.0704C25.6744 25.0625 25.6687 25.0554 25.6617 25.0499ZM26.5462 25.0336C26.4827 24.9893 26.4244 24.9928 26.3713 25.0442C26.3624 25.053 26.3573 25.0647 26.3568 25.0771L26.3484 25.3274C26.3483 25.33 26.3487 25.3327 26.3497 25.3351C26.3506 25.3376 26.352 25.3399 26.3538 25.3418C26.3556 25.3437 26.3578 25.3452 26.3602 25.3462C26.3626 25.3473 26.3652 25.3478 26.3678 25.3478L26.5706 25.3455C26.5732 25.3455 26.5758 25.345 26.5782 25.344C26.5806 25.3429 26.5828 25.3414 26.5846 25.3395C26.5864 25.3376 26.5878 25.3353 26.5887 25.3329C26.5897 25.3304 26.5901 25.3277 26.59 25.3251L26.5786 25.0627C26.5783 25.0594 26.5775 25.0563 26.5761 25.0535C26.5747 25.0507 26.5728 25.0483 26.5706 25.0465C26.568 25.0445 26.5652 25.0428 26.5622 25.0416C26.5543 25.0383 26.549 25.0356 26.5462 25.0336Z" fill="white"/>
<path d="M29.1348 24.8408L30.8549 24.8454C30.8596 24.8454 30.8642 24.8473 30.8675 24.8509C30.8709 24.8544 30.8728 24.8592 30.8728 24.8643V25.5209C30.8728 25.5259 30.8709 25.5308 30.8676 25.5343C30.8644 25.5378 30.8599 25.5398 30.8552 25.5398L29.1352 25.5308C29.13 25.5308 29.1251 25.5288 29.1214 25.5252C29.1178 25.5217 29.1157 25.5169 29.1157 25.5119V24.8597C29.1157 24.8547 29.1177 24.8499 29.1213 24.8464C29.1249 24.8428 29.1297 24.8408 29.1348 24.8408ZM29.6096 25.0287C29.5557 24.9959 29.5086 24.9938 29.4682 25.0223C29.4395 25.0427 29.4236 25.0784 29.4206 25.1293C29.417 25.1872 29.417 25.2516 29.4206 25.3225C29.4208 25.3283 29.4233 25.3338 29.4277 25.3379C29.4321 25.342 29.438 25.3443 29.4442 25.3444L29.6347 25.3474C29.6376 25.3475 29.6405 25.347 29.6432 25.3459C29.6458 25.3449 29.6483 25.3434 29.6503 25.3415C29.6524 25.3395 29.654 25.3372 29.6551 25.3347C29.6563 25.3321 29.6568 25.3294 29.6568 25.3266V25.1119C29.6568 25.0952 29.6525 25.0787 29.6442 25.0641C29.6359 25.0496 29.624 25.0374 29.6096 25.0287ZM30.0516 25.0212C29.9868 24.9907 29.9323 24.999 29.8881 25.0461C29.8791 25.0558 29.874 25.0677 29.874 25.0794L29.8717 25.3278C29.8717 25.3326 29.8739 25.3372 29.8778 25.3406C29.8816 25.344 29.8869 25.3459 29.8923 25.3459L30.0848 25.344C30.09 25.344 30.095 25.342 30.0988 25.3384C30.1025 25.3347 30.1046 25.3298 30.1046 25.3247V25.1043C30.1045 25.0869 30.0996 25.0698 30.0902 25.0551C30.0808 25.0404 30.0674 25.0286 30.0516 25.0212ZM30.5195 25.0317C30.452 24.9881 30.3933 24.9922 30.3435 25.0438C30.3347 25.0528 30.3296 25.0647 30.3294 25.0771L30.321 25.3274C30.3209 25.3297 30.3213 25.332 30.3222 25.3342C30.3231 25.3363 30.3245 25.3383 30.3263 25.34C30.3281 25.3417 30.3302 25.343 30.3326 25.344C30.3349 25.3449 30.3375 25.3455 30.3401 25.3455L30.5405 25.3493C30.5432 25.3493 30.5459 25.3489 30.5484 25.3481C30.5509 25.3472 30.5532 25.346 30.5551 25.3444C30.557 25.3428 30.5584 25.3409 30.5594 25.3388C30.5604 25.3367 30.5608 25.3345 30.5607 25.3323L30.5466 25.0741C30.5461 25.066 30.5434 25.058 30.5387 25.0506C30.534 25.0432 30.5274 25.0368 30.5195 25.0317Z" fill="white"/>
<path d="M27.1924 26.669C27.1889 26.6684 27.1857 26.6669 27.1829 26.6649C27.18 26.6628 27.1777 26.6601 27.1761 26.657C27.1744 26.6539 27.1735 26.6505 27.1734 26.6471C27.1732 26.6436 27.1738 26.6401 27.1752 26.6369L27.903 24.9485C27.9084 24.9362 27.9099 24.9364 27.9076 24.9493L27.6191 26.5802C27.6181 26.5862 27.6157 26.5919 27.6122 26.5968C27.6087 26.6017 27.6042 26.6057 27.5989 26.6086C27.4747 26.6776 27.3392 26.6978 27.1924 26.669Z" fill="white"/>
<path d="M27.783 26.6706C27.7752 26.6689 27.7684 26.6643 27.7639 26.6578C27.7594 26.6513 27.7575 26.6433 27.7586 26.6355L27.9995 24.983C27.9998 24.9806 28.0005 24.9782 28.0016 24.976C28.0027 24.9738 28.0041 24.972 28.0056 24.9706C28.0072 24.9692 28.0089 24.9683 28.0106 24.9679C28.0123 24.9676 28.014 24.9678 28.0155 24.9686C28.0203 24.9712 28.0235 24.9767 28.025 24.9853C28.1111 25.5302 28.199 26.0834 28.2887 26.6449C28.2897 26.651 28.2883 26.6573 28.2847 26.6624C28.2812 26.6674 28.2757 26.671 28.2696 26.6721C28.0974 26.7059 27.9352 26.7054 27.783 26.6706Z" fill="white"/>
<path d="M28.4154 26.6366C28.4077 26.6328 28.4011 26.6273 28.396 26.6205C28.3909 26.6137 28.3875 26.6057 28.3861 26.5973C28.2923 26.0708 28.1986 25.5421 28.1049 25.0114C28.1041 25.0061 28.1038 25.0011 28.1041 24.9966C28.1059 24.9696 28.1131 24.9713 28.1258 25.0015C28.3588 25.5497 28.5934 26.0923 28.8296 26.6294C28.8316 26.6338 28.8325 26.6385 28.8324 26.6433C28.8324 26.648 28.8313 26.6527 28.8292 26.657C28.8271 26.6613 28.8242 26.6651 28.8205 26.6682C28.8168 26.6712 28.8125 26.6735 28.8079 26.6748C28.672 26.7123 28.5412 26.6996 28.4154 26.6366Z" fill="white"/>
<path d="M26.6129 26.6399L27.7759 25.0222C27.7835 25.0116 27.7847 25.0121 27.7793 25.0237L27.045 26.5968C27.0372 26.6139 27.0235 26.6276 27.0065 26.6354C26.8625 26.7029 26.7348 26.7158 26.6236 26.6739C26.6203 26.6727 26.6174 26.6708 26.6151 26.6683C26.6127 26.6658 26.6109 26.6628 26.6099 26.6595C26.6089 26.6562 26.6086 26.6528 26.6091 26.6494C26.6097 26.646 26.6109 26.6427 26.6129 26.6399Z" fill="white"/>
<path d="M28.2842 25.1336C28.2654 25.1019 28.2513 25.068 28.2419 25.0319C28.2383 25.0191 28.2405 25.0181 28.2484 25.0289L29.3927 26.6296C29.3955 26.6335 29.3973 26.6381 29.3979 26.6429C29.3985 26.6477 29.3978 26.6526 29.396 26.6571C29.3942 26.6616 29.3912 26.6655 29.3875 26.6686C29.3837 26.6716 29.3792 26.6737 29.3744 26.6746C29.2545 26.6955 29.1455 26.6821 29.0474 26.6345C29.004 26.6136 28.969 26.5763 28.9423 26.5226C28.7324 26.1015 28.5337 25.6754 28.3459 25.2444C28.3396 25.2298 28.319 25.1929 28.2842 25.1336Z" fill="white"/>
<path d="M26.0566 26.659C26.0264 26.6532 26.0222 26.6393 26.044 26.6174L27.5679 25.0965C27.6108 25.0537 27.6142 25.0566 27.5782 25.1052C27.2261 25.5763 26.8746 26.0476 26.5238 26.5191C26.4811 26.5763 26.434 26.6146 26.3824 26.634C26.28 26.6726 26.1714 26.6809 26.0566 26.659Z" fill="white"/>
<path d="M28.5793 25.2411C29.03 25.6857 29.488 26.1413 29.9534 26.6078C29.9834 26.6378 29.9772 26.6548 29.9348 26.6588C29.8248 26.6689 29.7126 26.6522 29.5983 26.6086C29.5495 26.5902 29.5068 26.5568 29.4702 26.5084C29.1199 26.0439 28.7715 25.5777 28.425 25.11C28.393 25.0669 28.3964 25.0638 28.4353 25.1009C28.4803 25.1442 28.5283 25.191 28.5793 25.2411Z" fill="white"/>
<path d="M26.5798 25.9379C26.3486 26.1791 26.1109 26.4139 25.8668 26.6422C25.858 26.6507 25.8462 26.6555 25.834 26.6555L24.5781 26.6577C24.5301 26.6577 24.4965 26.6356 24.4775 26.5912C24.3781 26.3606 24.4131 26.1538 24.5823 25.9708C24.6887 25.8556 24.823 25.7615 24.985 25.6884C25.0051 25.6793 25.0262 25.6748 25.0483 25.6748H26.8156C26.8375 25.6748 26.841 25.6827 26.8263 25.6986C26.7862 25.7417 26.7453 25.7822 26.7036 25.82C26.649 25.8694 26.6077 25.9087 26.5798 25.9379Z" fill="white"/>
<path d="M31.3357 25.8805C31.5888 26.0836 31.6347 26.3295 31.4737 26.618C31.4691 26.6264 31.4622 26.6334 31.4537 26.6382C31.4453 26.6431 31.4356 26.6457 31.4257 26.6456L30.1789 26.6396C30.1407 26.6393 30.1045 26.6246 30.0779 26.5984L29.1679 25.705C29.1476 25.6849 29.1518 25.6748 29.1805 25.6748H30.9413C30.9683 25.6748 30.9939 25.6803 31.0183 25.6914C31.1451 25.7492 31.2509 25.8122 31.3357 25.8805Z" fill="white"/>
<path d="M26.625 27.9362L26.2348 27.9343C26.2322 27.9343 26.2297 27.9338 26.2273 27.9329C26.225 27.9319 26.2228 27.9305 26.221 27.9287C26.2192 27.9269 26.2178 27.9248 26.2168 27.9224C26.2158 27.9201 26.2153 27.9176 26.2153 27.915L26.2199 26.8123C26.2199 26.8072 26.2218 26.8022 26.2252 26.7982C26.2285 26.7941 26.2333 26.7912 26.2386 26.79L26.447 26.7401C26.4598 26.7369 26.4723 26.738 26.4821 26.7431C26.6213 26.8164 26.7865 26.8274 26.9778 26.776C27.0187 26.7649 27.0591 26.7668 27.099 26.7816C27.2352 26.8328 27.3988 26.8215 27.5898 26.7476C27.6016 26.743 27.6147 26.7426 27.6268 26.7465C27.8717 26.8266 28.1108 26.8285 28.3443 26.7522C28.3566 26.7482 28.3698 26.7485 28.3816 26.7529C28.5739 26.823 28.761 26.8281 28.9429 26.7684C28.9548 26.7647 28.9677 26.765 28.9795 26.7692C29.1553 26.8324 29.3276 26.8265 29.4962 26.7514C29.5088 26.746 29.5216 26.7446 29.5324 26.7472L29.7214 26.7968C29.7268 26.7982 29.7315 26.8014 29.7349 26.8058C29.7382 26.8102 29.7401 26.8157 29.7401 26.8213V27.9132C29.7401 27.9183 29.7381 27.9232 29.7346 27.9268C29.7311 27.9304 29.7264 27.9324 29.7214 27.9324L29.3488 27.9339C29.3395 27.9339 29.3305 27.9376 29.324 27.944C29.3174 27.9505 29.3137 27.9592 29.3137 27.9683V28.4061C29.3137 28.4113 29.3116 28.4163 29.3079 28.42C29.3042 28.4237 29.2991 28.4258 29.2939 28.4258H28.5897C28.5846 28.4258 28.5798 28.4238 28.5762 28.4203C28.5727 28.4167 28.5706 28.4119 28.5706 28.4069V27.988C28.5706 27.9812 28.5679 27.9746 28.5631 27.9698C28.5582 27.965 28.5516 27.9623 28.5447 27.9623H27.4427C27.4336 27.9623 27.4249 27.9658 27.4185 27.9722C27.412 27.9785 27.4084 27.987 27.4084 27.9959V28.4061C27.4084 28.4113 27.4063 28.4163 27.4026 28.42C27.3989 28.4237 27.3939 28.4258 27.3886 28.4258H26.6657C26.6606 28.4258 26.6556 28.4237 26.652 28.42C26.6484 28.4163 26.6463 28.4113 26.6463 28.4061L26.6444 27.9551C26.6443 27.9501 26.6422 27.9453 26.6386 27.9417C26.6349 27.9382 26.6301 27.9362 26.625 27.9362ZM27.5296 27.6822C27.5321 27.6822 27.5347 27.6817 27.537 27.6807C27.5394 27.6797 27.5415 27.6783 27.5432 27.6764C27.545 27.6746 27.5463 27.6725 27.5472 27.6702C27.5481 27.6678 27.5484 27.6654 27.5483 27.6629C27.5419 27.5401 27.5393 27.4144 27.5403 27.2856C27.541 27.1996 27.5277 27.1375 27.5003 27.0992C27.4545 27.0357 27.3858 27.0116 27.2941 27.027C27.2413 27.0358 27.199 27.0629 27.1672 27.1083C27.1454 27.1395 27.1341 27.1844 27.1333 27.2429C27.1315 27.3749 27.1313 27.5134 27.1325 27.6583C27.1325 27.6639 27.1348 27.6691 27.1388 27.673C27.1428 27.6769 27.1482 27.6791 27.1539 27.6791L27.5296 27.6822ZM28.1778 27.6825C28.1834 27.6825 28.1889 27.6804 28.1929 27.6766C28.1969 27.6727 28.1991 27.6675 28.1991 27.6621C28.1991 27.5429 28.1991 27.4197 28.1991 27.2924C28.1991 27.2213 28.1933 27.1713 28.1816 27.1423C28.1595 27.0869 28.1185 27.0508 28.0585 27.0342C27.9602 27.0067 27.8859 27.0249 27.8356 27.0886C27.8048 27.1277 27.7895 27.1913 27.7895 27.2795C27.7895 27.403 27.7895 27.5309 27.7895 27.6633C27.7895 27.6682 27.7916 27.6729 27.7953 27.6764C27.799 27.6798 27.804 27.6818 27.8093 27.6818L28.1778 27.6825ZM28.8561 27.6825C28.8612 27.6824 28.8662 27.6804 28.8698 27.677C28.8734 27.6735 28.8755 27.6689 28.8755 27.664C28.8755 27.5385 28.8755 27.4137 28.8755 27.2897C28.8755 27.2008 28.8605 27.1363 28.8305 27.0962C28.7815 27.0304 28.7083 27.0081 28.611 27.0293C28.5562 27.0414 28.5158 27.0717 28.4899 27.1204C28.4739 27.1506 28.4662 27.1967 28.467 27.2587C28.4683 27.3948 28.4659 27.5309 28.4598 27.667C28.4597 27.6694 28.46 27.6717 28.4609 27.6739C28.4618 27.676 28.4631 27.678 28.4649 27.6797C28.4666 27.6814 28.4686 27.6827 28.4709 27.6835C28.4732 27.6844 28.4756 27.6849 28.478 27.6848L28.8561 27.6825ZM26.8677 27.6818C26.8703 27.6818 26.8728 27.6814 26.8752 27.6804C26.8776 27.6795 26.8797 27.6781 26.8816 27.6764C26.8834 27.6746 26.8848 27.6725 26.8858 27.6702C26.8867 27.6679 26.8872 27.6654 26.8871 27.6629C26.8841 27.5374 26.8848 27.4136 26.8894 27.2916C26.8937 27.1754 26.8445 27.1093 26.7416 27.0932C26.6694 27.0818 26.6177 27.1027 26.5865 27.1559C26.5692 27.1849 26.5607 27.2329 26.561 27.3C26.5615 27.4202 26.5604 27.5423 26.5579 27.6663C26.5579 27.6697 26.5593 27.673 26.5617 27.6754C26.5641 27.6778 26.5674 27.6791 26.5709 27.6791L26.8677 27.6818ZM29.4185 27.6882C29.4231 27.69 29.4278 27.6904 29.4326 27.6893C29.4372 27.6886 29.4415 27.6855 29.4445 27.6806C29.4475 27.6758 29.4491 27.6695 29.449 27.6629C29.4467 27.5359 29.4459 27.409 29.4467 27.2822C29.4477 27.1385 29.3777 27.0787 29.2367 27.1026C29.1631 27.1152 29.1258 27.1587 29.1251 27.233L29.1209 27.6531C29.1209 27.6583 29.1229 27.6634 29.1264 27.6672C29.13 27.671 29.1348 27.6733 29.1399 27.6735L29.393 27.6814C29.3978 27.6817 29.4063 27.6839 29.4185 27.6882Z" fill="white"/>
<path d="M30.4548 27.9356L29.9022 27.9337C29.8971 27.9337 29.8921 27.9316 29.8885 27.928C29.8849 27.9244 29.8828 27.9195 29.8828 27.9144L29.8855 26.8245C29.8855 26.8188 29.8873 26.8134 29.8905 26.8088C29.8938 26.8043 29.8985 26.8009 29.9038 26.7991C29.9823 26.7744 30.0524 26.7618 30.1141 26.7613C30.5343 26.7566 30.9543 26.7528 31.3743 26.75C31.3768 26.75 31.3792 26.7505 31.3816 26.7514C31.3839 26.7524 31.386 26.7538 31.3877 26.7555C31.3895 26.7573 31.3909 26.7594 31.3919 26.7617C31.3928 26.764 31.3933 26.7664 31.3933 26.7689L31.3998 27.9359C31.3998 27.9435 31.3962 27.9508 31.3897 27.9563C31.3833 27.9617 31.3746 27.9649 31.3655 27.9651L31.2394 27.9685C31.2345 27.9686 31.2298 27.9712 31.2264 27.9758C31.223 27.9804 31.2211 27.9866 31.2211 27.993V28.418C31.2211 28.4232 31.2191 28.4282 31.2155 28.4319C31.2119 28.4356 31.2071 28.4376 31.202 28.4376L30.4952 28.4437C30.4927 28.4437 30.4902 28.4433 30.4879 28.4423C30.4856 28.4414 30.4835 28.44 30.4817 28.4382C30.48 28.4364 30.4785 28.4342 30.4776 28.4319C30.4766 28.4295 30.4761 28.427 30.4761 28.4244L30.4738 27.9552C30.4738 27.9501 30.4718 27.9451 30.4683 27.9415C30.4647 27.9378 30.4599 27.9357 30.4548 27.9356ZM30.2372 27.0736C30.1803 27.0512 30.1335 27.0541 30.097 27.0823C30.07 27.103 30.0566 27.1399 30.0566 27.1931C30.0563 27.2563 30.0571 27.3197 30.0589 27.3832C30.059 27.3885 30.0611 27.3935 30.0648 27.3972C30.0685 27.4008 30.0735 27.4029 30.0787 27.4029H30.2738C30.2765 27.4029 30.2793 27.4024 30.2818 27.4014C30.2844 27.4004 30.2867 27.3989 30.2886 27.3971C30.2905 27.3952 30.292 27.3931 30.293 27.3907C30.294 27.3883 30.2945 27.3858 30.2944 27.3832L30.2814 27.1296C30.2808 27.118 30.2764 27.1065 30.2685 27.0966C30.2607 27.0867 30.2498 27.0787 30.2372 27.0736ZM30.6788 27.0713C30.6199 27.0477 30.5694 27.0563 30.5272 27.0974C30.5177 27.1069 30.5122 27.1186 30.5119 27.1299L30.5066 27.3825C30.5066 27.3853 30.5071 27.3881 30.5082 27.3907C30.5093 27.3933 30.5109 27.3957 30.5129 27.3977C30.515 27.3997 30.5175 27.4013 30.5202 27.4024C30.5229 27.4035 30.5258 27.404 30.5287 27.404L30.7211 27.4029C30.7264 27.4028 30.7315 27.4006 30.7352 27.3969C30.7389 27.3931 30.741 27.3881 30.741 27.3829L30.7429 27.164C30.7434 27.1196 30.722 27.0887 30.6788 27.0713ZM31.127 27.0713C31.0698 27.0494 31.0252 27.0555 30.9932 27.0895C30.9729 27.1109 30.9629 27.1475 30.9631 27.1991C30.9634 27.2573 30.9611 27.3156 30.9563 27.3738C30.9559 27.3791 30.9575 27.3844 30.9606 27.3886C30.9638 27.3929 30.9683 27.3958 30.9734 27.3968C31.0394 27.41 31.1058 27.4106 31.1723 27.3987C31.1775 27.3978 31.1821 27.395 31.1855 27.3908C31.1888 27.3867 31.1906 27.3814 31.1906 27.3761V27.164C31.1906 27.1189 31.1694 27.088 31.127 27.0713Z" fill="white"/>
<path d="M26.1004 26.7939C26.1066 26.7952 26.1122 26.7986 26.1162 26.8036C26.1202 26.8085 26.1225 26.8147 26.1225 26.8211V27.9137C26.1225 27.9189 26.1204 27.9239 26.1167 27.9276C26.113 27.9313 26.1079 27.9334 26.1027 27.9334H25.552C25.5465 27.9334 25.5413 27.9354 25.5373 27.9391C25.5334 27.9428 25.5312 27.9478 25.5311 27.953L25.5227 28.4184C25.5226 28.4251 25.52 28.4314 25.5154 28.4361C25.5108 28.4407 25.5047 28.4434 25.4983 28.4434L24.8055 28.4373C24.8005 28.4373 24.7956 28.4353 24.7919 28.4317C24.7883 28.4281 24.7862 28.4232 24.7861 28.418C24.7853 28.3023 24.7861 28.1867 24.7884 28.071C24.7884 28.0692 24.7898 28.0533 24.7926 28.0233C24.7979 27.9671 24.7658 27.9518 24.6962 27.9772C24.6884 27.9801 24.68 27.981 24.6718 27.98C24.6635 27.979 24.6557 27.9761 24.6488 27.9715C24.642 27.9668 24.6364 27.9606 24.6325 27.9534C24.6286 27.9462 24.6265 27.9381 24.6264 27.93L24.6177 26.7769C24.6176 26.7736 24.6183 26.7704 24.6195 26.7674C24.6208 26.7644 24.6226 26.7616 24.625 26.7593C24.6274 26.757 24.6302 26.7551 24.6334 26.7539C24.6365 26.7526 24.6398 26.752 24.6432 26.752C25.0657 26.752 25.4843 26.752 25.8992 26.752C25.9289 26.752 25.9624 26.7576 25.9998 26.769C26.0287 26.778 26.0623 26.7864 26.1004 26.7939ZM25.0193 27.0956C24.9467 27.0472 24.8881 27.0463 24.8436 27.093C24.8198 27.1179 24.8073 27.1539 24.8063 27.2011C24.8055 27.2406 24.8082 27.2801 24.8143 27.3194C24.8158 27.33 24.8148 27.3422 24.8113 27.3561C24.8013 27.3934 24.817 27.4106 24.8581 27.4079C24.8904 27.4056 24.9078 27.4045 24.9103 27.4045C24.9484 27.405 24.9867 27.4043 25.025 27.4026C25.0302 27.4024 25.035 27.4002 25.0385 27.3966C25.0421 27.3929 25.0441 27.388 25.0441 27.3829L25.046 27.1447C25.046 27.1352 25.0436 27.1257 25.0389 27.1172C25.0343 27.1086 25.0275 27.1012 25.0193 27.0956ZM25.4975 27.3285C25.5077 27.272 25.5047 27.2057 25.4884 27.1296C25.4851 27.1142 25.4774 27.1001 25.4663 27.0888C25.4552 27.0775 25.4411 27.0695 25.4255 27.0657C25.3732 27.0534 25.3317 27.0606 25.3009 27.0873C25.2786 27.1067 25.2667 27.1407 25.2655 27.1894C25.264 27.2539 25.2643 27.3183 25.2666 27.3825C25.2668 27.3878 25.269 27.3928 25.2726 27.3965C25.2763 27.4002 25.2812 27.4024 25.2864 27.4026C25.3395 27.4051 25.3925 27.4083 25.4453 27.412C25.4959 27.4158 25.5147 27.3999 25.5017 27.3644C25.497 27.3521 25.4956 27.3396 25.4975 27.3285ZM25.9117 27.0835C25.8333 27.0422 25.7706 27.0524 25.7239 27.1141C25.7167 27.1234 25.7128 27.1355 25.7128 27.1485V27.3844C25.7128 27.3896 25.7149 27.3946 25.7186 27.3983C25.7224 27.402 25.7274 27.4041 25.7327 27.4041H25.9251C25.9283 27.4041 25.9315 27.4035 25.9345 27.4024C25.9374 27.4012 25.9401 27.3996 25.9423 27.3975C25.9446 27.3954 25.9463 27.3929 25.9475 27.3902C25.9487 27.3876 25.9492 27.3847 25.9491 27.3818L25.9422 27.127C25.942 27.1186 25.9391 27.1102 25.9337 27.1025C25.9284 27.0949 25.9208 27.0883 25.9117 27.0835Z" fill="white"/>
<path d="M19.8097 35.5078C19.9525 35.3185 20.1565 35.2027 20.4217 35.1604C20.787 35.1019 21.1345 35.1519 21.4642 35.3104C21.4696 35.3131 21.4742 35.317 21.4774 35.3219C21.4806 35.3267 21.4824 35.3323 21.4825 35.338L21.4879 35.7928C21.4881 35.8148 21.4787 35.8199 21.4597 35.8083C21.3311 35.7315 21.1946 35.6765 21.05 35.6435C20.909 35.6112 20.7882 35.5964 20.6876 35.5989C20.5594 35.6022 20.4397 35.6363 20.3287 35.7013C20.2718 35.7349 20.2323 35.7884 20.2102 35.862C20.1576 36.0389 20.1924 36.187 20.3146 36.3062C20.4015 36.3912 20.5228 36.475 20.6785 36.5576C20.8746 36.6615 21.0631 36.7774 21.244 36.9054C21.3718 36.9957 21.4707 37.1061 21.5408 37.2366C21.6094 37.3641 21.6449 37.5031 21.6472 37.6536C21.6512 37.9369 21.5293 38.1651 21.2813 38.3383C21.0248 38.5177 20.7287 38.5926 20.3931 38.5628C20.0649 38.5338 19.775 38.4427 19.5235 38.2895C19.519 38.2868 19.5157 38.2824 19.5143 38.2774C19.513 38.2724 19.5137 38.2671 19.5163 38.2626L19.7179 37.9024C19.7195 37.8994 19.7217 37.8969 19.7244 37.8949C19.7271 37.8929 19.7302 37.8914 19.7335 37.8907C19.7368 37.8899 19.7402 37.8899 19.7436 37.8905C19.7469 37.8912 19.7501 37.8925 19.7529 37.8944C19.993 38.0595 20.2604 38.1336 20.555 38.1167C20.644 38.1117 20.7279 38.0923 20.8069 38.0585C20.8948 38.0207 20.9621 37.9704 21.0089 37.9077C21.0833 37.8078 21.0979 37.6915 21.0527 37.5587C21.0209 37.465 20.9586 37.382 20.8656 37.31C20.7538 37.223 20.6241 37.1405 20.4765 37.0623C20.3638 37.0028 20.2379 36.926 20.0989 36.8317C20.0133 36.7735 19.9361 36.7068 19.8672 36.6317C19.7974 36.5554 19.7421 36.4713 19.7015 36.3796C19.5658 36.0733 19.6019 35.7828 19.8097 35.5078Z" fill="white"/>
<path d="M30.8804 37.9648L30.8911 36.8454C30.8911 36.8397 30.8934 36.8342 30.8974 36.8302C30.9015 36.8261 30.907 36.8238 30.9128 36.8238H31.3864C31.3947 36.8238 31.4027 36.8272 31.4085 36.833C31.4144 36.8389 31.4177 36.8469 31.4177 36.8552L31.4154 38.2211C31.4154 38.227 31.4138 38.2327 31.4108 38.2378C31.4078 38.2428 31.4034 38.247 31.3983 38.2499C31.2227 38.3461 31.0396 38.4195 30.8488 38.4699C30.6476 38.5228 30.4541 38.5541 30.2684 38.5636C30.0748 38.5735 29.8843 38.5547 29.6968 38.5073C29.5101 38.4604 29.3378 38.3842 29.1797 38.2786C28.7362 37.9817 28.5025 37.544 28.4786 36.9656C28.455 36.3932 28.6369 35.9358 29.0243 35.5933C29.2105 35.4285 29.4307 35.3076 29.685 35.2307C30.0323 35.1256 30.3971 35.1077 30.7794 35.1771C30.9712 35.2116 31.1369 35.2564 31.2763 35.3116C31.2818 35.3138 31.2865 35.3174 31.2899 35.322C31.2932 35.3267 31.295 35.3322 31.295 35.3377L31.2999 35.7755C31.3001 35.781 31.2987 35.7864 31.296 35.7912C31.2933 35.796 31.2893 35.8 31.2845 35.8029C31.2797 35.8057 31.2741 35.8073 31.2684 35.8075C31.2627 35.8077 31.257 35.8064 31.2519 35.8039C30.9664 35.6607 30.6741 35.587 30.3751 35.5827C30.0947 35.5787 29.8494 35.6325 29.6393 35.7441C29.2997 35.9248 29.1105 36.2343 29.0719 36.6726C29.0615 36.7911 29.0657 36.916 29.0845 37.0473C29.1033 37.1766 29.1369 37.2958 29.1855 37.4049C29.4022 37.8913 29.812 38.1198 30.4151 38.0903C30.5958 38.0815 30.7449 38.0489 30.8625 37.9924C30.8678 37.9899 30.8722 37.986 30.8754 37.9811C30.8785 37.9762 30.8803 37.9706 30.8804 37.9648Z" fill="white"/>
<path d="M36.2715 35.4755C36.5324 35.2781 36.8381 35.1672 37.1887 35.1428C37.5778 35.1155 37.9359 35.1978 38.2629 35.3896C38.4343 35.4905 38.5799 35.6182 38.6996 35.773C38.8098 35.9156 38.8945 36.0847 38.9537 36.2803C39.0279 36.5266 39.0543 36.7775 39.033 37.033C39.0114 37.2921 38.9436 37.5299 38.8295 37.7464C38.6049 38.1723 38.2382 38.4406 37.7294 38.5513C37.4967 38.6017 37.2416 38.6018 36.9642 38.5517C36.3134 38.4337 35.8928 38.0689 35.7025 37.4572C35.6378 37.2488 35.6101 37.0124 35.6195 36.748C35.6289 36.4881 35.6903 36.2484 35.8039 36.0289C35.9172 35.8104 36.0731 35.6259 36.2715 35.4755ZM36.4898 35.9321C36.3445 36.0932 36.2471 36.2743 36.1975 36.4754C36.1543 36.6503 36.142 36.8395 36.1606 37.0429C36.1789 37.245 36.2365 37.4296 36.3336 37.5967C36.5315 37.9372 36.8419 38.1105 37.2649 38.1165C37.6635 38.1221 37.9658 37.9857 38.1718 37.7075C38.2828 37.5573 38.3586 37.3731 38.3993 37.1551C38.4371 36.9528 38.438 36.75 38.4019 36.5469C38.3636 36.3319 38.2935 36.1552 38.1916 36.0168C38.0717 35.8538 37.9096 35.7377 37.7054 35.6686C37.3863 35.5605 37.0718 35.5806 36.7619 35.7287C36.6575 35.7787 36.5668 35.8464 36.4898 35.9321Z" fill="white"/>
<path d="M45.4742 37.937L45.4787 36.8456C45.4787 36.8405 45.4807 36.8357 45.4843 36.8321C45.4879 36.8285 45.4927 36.8264 45.4978 36.8263L45.9756 36.8244C45.9789 36.8244 45.9821 36.825 45.9851 36.8263C45.988 36.8275 45.9907 36.8293 45.993 36.8316C45.9953 36.8339 45.9971 36.8366 45.9983 36.8396C45.9995 36.8426 46.0001 36.8458 46 36.849L45.9935 38.2258C45.9936 38.2314 45.992 38.2369 45.9891 38.2418C45.9861 38.2466 45.9819 38.2507 45.9768 38.2534C45.4888 38.5191 44.979 38.6161 44.4476 38.5445C44.1379 38.5029 43.8674 38.3852 43.6359 38.1914C43.4449 38.0316 43.2976 37.8298 43.1939 37.5858C43.0428 37.2294 43.0121 36.8551 43.1021 36.463C43.2169 35.9614 43.488 35.5976 43.9153 35.3715C44.1274 35.2591 44.369 35.1872 44.64 35.1557C45.046 35.1083 45.4524 35.16 45.8594 35.3107C45.8645 35.3126 45.8688 35.316 45.8719 35.3204C45.8749 35.3247 45.8766 35.3299 45.8766 35.3352V35.7957C45.8766 35.7982 45.876 35.8006 45.8748 35.8027C45.8735 35.8049 45.8718 35.8067 45.8697 35.808C45.8675 35.8092 45.8651 35.81 45.8625 35.8101C45.86 35.8102 45.8575 35.8097 45.8552 35.8086C45.5237 35.6417 45.183 35.5679 44.8332 35.587C44.5533 35.6027 44.3151 35.6785 44.1187 35.8146C43.8558 35.9966 43.7044 36.2539 43.6645 36.5866C43.6396 36.7923 43.647 36.9881 43.6866 37.1741C43.7298 37.3782 43.8204 37.5586 43.9583 37.7151C44.0731 37.8451 44.2115 37.9427 44.3733 38.0077C44.5359 38.073 44.707 38.1042 44.8866 38.1014C45.0217 38.0992 45.1228 38.0919 45.1899 38.0795C45.2867 38.0621 45.3764 38.0247 45.4589 37.9672C45.4636 37.9639 45.4675 37.9594 45.4701 37.9541C45.4728 37.9488 45.4742 37.943 45.4742 37.937Z" fill="white"/>
<path d="M10.5552 36.5762L12.2097 36.5785C12.2149 36.5785 12.2198 36.5765 12.2235 36.5729C12.2271 36.5692 12.2292 36.5643 12.2292 36.5592V35.1767C12.2292 35.17 12.2319 35.1635 12.2367 35.1588C12.2414 35.154 12.2479 35.1514 12.2547 35.1514H12.7604C12.7632 35.1514 12.766 35.1519 12.7685 35.153C12.7711 35.154 12.7735 35.1556 12.7755 35.1576C12.7774 35.1595 12.779 35.1619 12.7801 35.1644C12.7812 35.167 12.7817 35.1698 12.7817 35.1725L12.7794 38.4854C12.7794 38.4904 12.7774 38.4952 12.7739 38.4988C12.7703 38.5023 12.7654 38.5043 12.7604 38.5043L12.2623 38.5066C12.258 38.5066 12.2537 38.5058 12.2497 38.5042C12.2457 38.5025 12.242 38.5001 12.2389 38.497C12.2358 38.4939 12.2334 38.4902 12.2317 38.4861C12.23 38.4821 12.2292 38.4777 12.2292 38.4733V37.0628C12.2292 37.0572 12.2269 37.0518 12.2229 37.0478C12.2189 37.0439 12.2135 37.0416 12.2078 37.0416H10.5598C10.5528 37.0416 10.5461 37.0444 10.5412 37.0493C10.5362 37.0542 10.5335 37.0608 10.5335 37.0677V38.4733C10.5335 38.4821 10.5299 38.4906 10.5237 38.4968C10.5174 38.5031 10.5088 38.5066 10.4999 38.5066H10.0293C10.0255 38.5066 10.0217 38.5058 10.0181 38.5044C10.0146 38.5029 10.0113 38.5008 10.0086 38.498C10.0059 38.4953 10.0037 38.4921 10.0022 38.4886C10.0008 38.4851 10 38.4813 10 38.4775L10.0069 35.1775C10.007 35.172 10.0091 35.1668 10.0127 35.163C10.0163 35.1592 10.0212 35.157 10.0263 35.157L10.5072 35.1574C10.5097 35.1574 10.5123 35.1579 10.5146 35.1589C10.517 35.1599 10.5191 35.1613 10.5209 35.1632C10.5227 35.165 10.5242 35.1672 10.5251 35.1696C10.5261 35.1719 10.5266 35.1745 10.5266 35.1771L10.5358 36.557C10.5359 36.5621 10.538 36.567 10.5416 36.5706C10.5452 36.5742 10.5501 36.5762 10.5552 36.5762Z" fill="white"/>
<path d="M14.5849 38.0597L15.8252 38.062C15.8296 38.062 15.834 38.0628 15.8381 38.0645C15.8421 38.0661 15.8458 38.0686 15.849 38.0716C15.8521 38.0747 15.8545 38.0783 15.8562 38.0823C15.8579 38.0863 15.8588 38.0906 15.8588 38.0949V38.4812C15.8588 38.4845 15.8581 38.4878 15.8569 38.4908C15.8556 38.4938 15.8537 38.4966 15.8514 38.4989C15.8491 38.5012 15.8463 38.503 15.8433 38.5043C15.8402 38.5056 15.8369 38.5062 15.8336 38.5062H14.0648C14.0579 38.5062 14.0513 38.5035 14.0464 38.4987C14.0416 38.4938 14.0389 38.4873 14.0389 38.4805C14.0422 38.1118 14.0414 37.7486 14.0366 37.3909C14.033 37.1288 14.0328 36.8767 14.0358 36.6345C14.0422 36.1488 14.0425 35.663 14.0369 35.1771C14.0369 35.172 14.039 35.1671 14.0425 35.1634C14.0461 35.1598 14.0509 35.1578 14.056 35.1578L15.8077 35.1514C15.8107 35.1513 15.8136 35.152 15.8162 35.1533C15.8189 35.1546 15.8211 35.1566 15.8229 35.159C15.8246 35.1614 15.8257 35.1642 15.8261 35.1672C15.8265 35.1701 15.8262 35.1731 15.8252 35.1759L15.6774 35.605C15.6756 35.6104 15.6722 35.6151 15.6675 35.6184C15.6629 35.6217 15.6573 35.6235 15.6515 35.6236H14.5822C14.5772 35.6236 14.5723 35.6255 14.5688 35.6291C14.5652 35.6326 14.5632 35.6374 14.5632 35.6425L14.5655 36.5468C14.5655 36.5552 14.569 36.5633 14.5752 36.5693C14.5814 36.5754 14.5898 36.5788 14.5986 36.5789L15.642 36.5849C15.6474 36.5849 15.6526 36.5869 15.6565 36.5905C15.6604 36.594 15.6625 36.5988 15.6625 36.6038V36.9966C15.6625 37.0017 15.6604 37.0065 15.6565 37.0101C15.6527 37.0137 15.6474 37.0158 15.642 37.0159L14.583 37.0223C14.5777 37.0223 14.5727 37.0244 14.569 37.028C14.5653 37.0316 14.5632 37.0365 14.5632 37.0416L14.5655 38.0408C14.5655 38.0458 14.5675 38.0506 14.5712 38.0542C14.5748 38.0577 14.5798 38.0597 14.5849 38.0597Z" fill="white"/>
<path d="M17.5187 38.0601L18.7202 38.0624C18.7268 38.0624 18.7332 38.065 18.7379 38.0697C18.7427 38.0744 18.7453 38.0807 18.7453 38.0873V38.4877C18.7453 38.4902 18.7448 38.4926 18.7439 38.4949C18.7429 38.4972 18.7415 38.4993 18.7397 38.501C18.738 38.5028 18.7359 38.5042 18.7335 38.5051C18.7312 38.5061 18.7288 38.5066 18.7263 38.5066L16.9905 38.5043C16.9835 38.5043 16.9767 38.5015 16.9717 38.4964C16.9667 38.4914 16.9639 38.4846 16.9639 38.4775V35.1763C16.9639 35.1697 16.9665 35.1634 16.9712 35.1587C16.9759 35.154 16.9823 35.1514 16.989 35.1514H17.4722C17.4789 35.1514 17.4853 35.154 17.49 35.1588C17.4947 35.1635 17.4973 35.17 17.4973 35.1767L17.4996 38.0412C17.4996 38.0462 17.5016 38.051 17.5052 38.0546C17.5088 38.0581 17.5136 38.0601 17.5187 38.0601Z" fill="white"/>
<path d="M23.2703 38.4944C23.2703 38.4975 23.2691 38.5005 23.2668 38.5027C23.2646 38.5049 23.2616 38.5061 23.2585 38.5061H22.7296C22.7265 38.5061 22.7234 38.5049 22.7212 38.5027C22.719 38.5005 22.7178 38.4975 22.7178 38.4944V35.166C22.7178 35.1629 22.719 35.1599 22.7212 35.1577C22.7234 35.1555 22.7265 35.1543 22.7296 35.1543H23.2585C23.2616 35.1543 23.2646 35.1555 23.2668 35.1577C23.2691 35.1599 23.2703 35.1629 23.2703 35.166V38.4944Z" fill="white"/>
<path d="M25.0866 36.0114C25.0632 35.9681 25.0515 35.971 25.0515 36.0201V38.516C25.0515 38.5185 25.0511 38.521 25.0501 38.5233C25.0491 38.5256 25.0477 38.5276 25.046 38.5294C25.0442 38.5311 25.0421 38.5325 25.0398 38.5335C25.0375 38.5344 25.035 38.5349 25.0325 38.5349H24.5512C24.5424 38.5349 24.534 38.5315 24.5278 38.5253C24.5216 38.5191 24.5181 38.5108 24.5181 38.502V35.1861C24.5181 35.1769 24.5218 35.1681 24.5283 35.1616C24.5349 35.155 24.5438 35.1514 24.5531 35.1514H25.0401C25.0493 35.1514 25.0584 35.1535 25.0667 35.1575C25.075 35.1616 25.0822 35.1675 25.0877 35.1748C25.6349 35.8815 26.1828 36.5912 26.7312 37.304C26.8095 37.4056 26.8772 37.5091 26.9343 37.6148C26.9493 37.6422 26.9568 37.6403 26.9568 37.6091V35.1892C26.9568 35.1867 26.9573 35.1842 26.9583 35.1819C26.9592 35.1796 26.9606 35.1776 26.9624 35.1758C26.9642 35.1741 26.9663 35.1727 26.9686 35.1717C26.9709 35.1708 26.9734 35.1703 26.9759 35.1703H27.4713C27.4738 35.1703 27.4762 35.1708 27.4786 35.1717C27.4809 35.1727 27.483 35.1741 27.4847 35.1758C27.4865 35.1776 27.4879 35.1796 27.4889 35.1819C27.4898 35.1842 27.4903 35.1867 27.4903 35.1892V38.502C27.4903 38.5108 27.4868 38.5191 27.4806 38.5253C27.4744 38.5315 27.466 38.5349 27.4572 38.5349H27.017C27.0121 38.5349 27.0072 38.5338 27.0027 38.5316C26.9983 38.5295 26.9945 38.5263 26.9915 38.5225C26.4938 37.8853 26.0029 37.2543 25.5187 36.6295C25.5172 36.6275 25.4766 36.5767 25.3968 36.4772C25.2771 36.3272 25.1737 36.172 25.0866 36.0114Z" fill="white"/>
<path d="M34.1942 36.6695C34.1561 36.6862 34.1564 36.702 34.195 36.7172C34.4792 36.8296 34.6629 37.0069 34.746 37.2491C34.824 37.4769 34.8095 37.707 34.7025 37.9394C34.5864 38.1919 34.3766 38.3618 34.073 38.449C33.9087 38.4962 33.7245 38.5181 33.5205 38.5148C33.2228 38.51 32.9249 38.5062 32.6269 38.5035C32.622 38.5035 32.6172 38.5015 32.6137 38.4979C32.6102 38.4944 32.6082 38.4896 32.6082 38.4846L32.606 35.1759C32.606 35.1725 32.6066 35.1692 32.6079 35.1662C32.6092 35.1631 32.6111 35.1603 32.6134 35.1579C32.6158 35.1556 32.6186 35.1537 32.6217 35.1525C32.6248 35.1512 32.6281 35.1505 32.6315 35.1505C32.9351 35.1505 33.2314 35.1495 33.5205 35.1475C33.6353 35.1467 33.7485 35.1568 33.86 35.1777C33.985 35.2009 34.0912 35.2382 34.1786 35.2896C34.3414 35.3852 34.4551 35.5206 34.5196 35.6961C34.5669 35.8241 34.5828 35.9539 34.5673 36.0854C34.5513 36.22 34.5037 36.3464 34.4247 36.4646C34.3584 36.5634 34.2816 36.6317 34.1942 36.6695ZM33.9229 36.4004C34.0174 36.2917 34.0554 36.1648 34.0368 36.0197C34.0185 35.8783 33.9585 35.7742 33.8566 35.7074C33.7872 35.6623 33.6794 35.6353 33.5331 35.6265C33.4254 35.6202 33.3108 35.6197 33.1894 35.625C33.1811 35.6254 33.1733 35.6289 33.1676 35.6347C33.1619 35.6406 33.1588 35.6483 33.1589 35.6564L33.165 36.5516C33.1651 36.5567 33.1671 36.5617 33.1707 36.5654C33.1743 36.5691 33.1792 36.5713 33.1844 36.5716C33.3028 36.5792 33.4212 36.5814 33.5395 36.5784C33.6955 36.5744 33.8233 36.515 33.9229 36.4004ZM34.142 37.8464C34.2716 37.6718 34.2897 37.5014 34.1965 37.3353C34.1398 37.2345 34.0522 37.159 33.9336 37.1088C33.8228 37.062 33.7042 37.0389 33.5777 37.0396C33.4443 37.0404 33.3109 37.0408 33.1775 37.0408C33.175 37.0408 33.1726 37.0413 33.1703 37.0422C33.1679 37.0432 33.1658 37.0446 33.1641 37.0463C33.1623 37.0481 33.1609 37.0502 33.1599 37.0525C33.159 37.0547 33.1585 37.0572 33.1585 37.0597V38.0419C33.1585 38.0468 33.1604 38.0516 33.1639 38.0552C33.1674 38.0588 33.1721 38.0609 33.1772 38.0611C33.3618 38.0657 33.5398 38.0632 33.711 38.0536C33.9038 38.043 34.0475 37.9739 34.142 37.8464Z" fill="white"/>
<path d="M41.4346 37.0117C41.5347 37.117 41.6302 37.2416 41.7211 37.3856C41.951 37.7497 42.1763 38.117 42.3968 38.4872C42.4034 38.4983 42.4002 38.5038 42.3872 38.5038L41.8103 38.5061C41.8023 38.5061 41.7944 38.504 41.7874 38.5C41.7804 38.496 41.7745 38.4903 41.7703 38.4834C41.5386 38.1033 41.3012 37.7284 41.0581 37.3587C41.0197 37.3007 40.9713 37.2399 40.9129 37.1761C40.9039 37.1663 40.893 37.1585 40.8808 37.1532C40.8686 37.1479 40.8554 37.1451 40.842 37.1451H40.5764C40.5731 37.1451 40.5699 37.1458 40.5668 37.147C40.5638 37.1483 40.561 37.1501 40.5587 37.1524C40.5563 37.1547 40.5545 37.1575 40.5532 37.1605C40.5519 37.1635 40.5513 37.1668 40.5513 37.1701V38.4849C40.5513 38.4905 40.5491 38.4959 40.5452 38.4999C40.5412 38.5039 40.5359 38.5061 40.5303 38.5061L40.0491 38.5042C40.0439 38.5041 40.0389 38.502 40.0353 38.4984C40.0317 38.4948 40.0296 38.49 40.0296 38.4849L40.0273 35.1872C40.0273 35.1777 40.0311 35.1686 40.0377 35.1619C40.0443 35.1552 40.0533 35.1514 40.0628 35.1513C40.3821 35.147 40.691 35.1501 40.9895 35.1607C41.1887 35.1675 41.377 35.215 41.5546 35.3032C41.7406 35.3952 41.8718 35.527 41.9483 35.6987C42.0184 35.8557 42.0396 36.0291 42.0119 36.2189C41.9659 36.5342 41.7768 36.7787 41.4445 36.9523C41.4393 36.955 41.4348 36.9589 41.4314 36.9636C41.428 36.9684 41.4257 36.9738 41.4247 36.9795C41.4238 36.9853 41.4242 36.9912 41.4259 36.9967C41.4276 37.0023 41.4306 37.0074 41.4346 37.0117ZM40.5395 36.716C40.5394 36.7219 40.5416 36.7275 40.5458 36.7318C40.5499 36.736 40.5556 36.7385 40.5616 36.7387C40.6884 36.7422 40.8151 36.7386 40.9419 36.7277C41.1075 36.7139 41.2416 36.6428 41.3443 36.5145C41.4535 36.3779 41.494 36.2321 41.4658 36.0771C41.4204 35.8276 41.2655 35.6819 41.0013 35.6401C40.8845 35.6214 40.7385 35.6164 40.5635 35.625C40.5583 35.6252 40.5533 35.6273 40.5497 35.631C40.5461 35.6346 40.5441 35.6395 40.5441 35.6446L40.5395 36.716Z" fill="white"/>
</svg>
