<svg width="104" height="104" viewBox="0 0 104 104" fill="none" xmlns="http://www.w3.org/2000/svg">
<g clip-path="url(#clip0_56036_33391)">
<path d="M80.0698 0H77.5816C68.6583 0.290469 57.5311 2.54922 51.22 9.43516C49.8123 10.9708 50.6553 12.0087 52.1381 12.9736C57.9841 16.7883 62.7433 20.6152 66.2797 26.7962C69.0686 31.6692 72.3877 36.8977 77.7603 39.13C78.7922 39.5586 79.6209 39.3372 80.1328 38.348C80.2682 37.4271 79.9148 36.7798 79.0725 36.4061C74.2381 34.257 70.9455 29.1992 68.51 24.5152C68.0652 23.658 67.3928 22.6545 66.8261 21.9233C63.3973 17.4938 59.2847 13.8111 54.4883 10.8753C54.4097 10.8442 54.3515 10.809 54.3136 10.7697C54.3024 10.7573 54.2938 10.7429 54.2883 10.7272C54.2828 10.7115 54.2804 10.6948 54.2814 10.6782C54.2823 10.6616 54.2866 10.6453 54.2938 10.6303C54.3011 10.6153 54.3113 10.602 54.3237 10.5909C62.5991 3.40641 76.2491 2.03125 86.6166 3.70094C91.0427 4.41391 97.3395 6.34359 99.7486 10.6397C102.655 15.8194 100.112 22.6017 94.2663 24.2389C94.2229 24.2511 94.1836 24.243 94.1484 24.2145L90.1591 20.9869C90.113 20.9503 90.088 20.9016 90.0839 20.8406C89.8903 17.6069 89.0317 14.5627 87.5083 11.7081C87.0438 10.8374 86.6491 10.2368 86.3241 9.90641C85.0342 8.59016 82.9684 10.3127 84.0105 11.8158C85.4391 13.8728 86.3423 16.141 86.7202 18.6205C86.731 18.6949 86.7046 18.7126 86.6409 18.6733C80.6135 15.0468 74.2124 12.2755 67.4375 10.3594C65.3047 9.75609 64.5145 12.6709 66.5722 13.2661C68.8702 13.931 71.1235 14.692 73.3322 15.5492C73.346 15.5543 73.3578 15.5636 73.3662 15.5757C73.3745 15.5878 73.3788 15.6023 73.3786 15.617C73.3784 15.6317 73.3736 15.6459 73.3649 15.6578C73.3562 15.6697 73.3441 15.6786 73.3302 15.6833C71.9557 16.141 70.7004 16.8066 69.5642 17.68C67.9352 18.9333 69.5683 21.3058 71.3659 20.0647C73.2387 18.7708 75.595 18.007 77.7908 17.5033C77.8571 17.487 77.9208 17.4931 77.9817 17.5216C82.9847 19.8128 87.813 22.7094 91.9283 26.3819C91.9784 26.4279 92.0075 26.4841 92.0156 26.5505C92.1795 27.994 92.0258 29.38 91.5545 30.7084C90.5051 33.4845 88.6255 35.3932 85.9158 36.4345C84.9713 36.7961 84.5183 37.2856 84.6747 38.3094C85.1439 39.4408 86.0559 39.6256 87.1609 39.1808C91.4333 37.4583 94.0448 34.276 94.9955 29.6339C94.9972 29.6248 95.0014 29.6164 95.0077 29.6096C95.014 29.6029 95.0221 29.598 95.031 29.5957C95.04 29.5933 95.0494 29.5936 95.0582 29.5964C95.067 29.5992 95.0748 29.6045 95.0808 29.6116C98.6944 33.7553 100.884 38.8436 100.953 44.3828C100.98 46.3958 103.667 46.6091 104 44.5737V43.6089C103.673 37.1658 100.99 31.4559 96.7017 26.8552C96.6892 26.8415 96.68 26.8251 96.6747 26.8074C96.6695 26.7896 96.6684 26.7709 96.6716 26.7528C96.6747 26.7347 96.682 26.7176 96.6929 26.703C96.7038 26.6883 96.7179 26.6764 96.7342 26.6683C101.093 24.442 103.515 20.9314 104 16.1362V14.8159C103.85 13.2776 103.596 11.9776 103.238 10.9159C100.325 2.27906 87.7195 0.316875 80.0698 0Z" fill="black"/>
<path d="M13.7496 0H12.5816C7.93612 0.345313 3.10378 2.67313 0.345339 6.54875C0.148308 6.825 0.081274 7.15609 2.47955e-05 7.47703V7.8325C0.197056 8.9375 0.82674 9.36812 1.93987 9.57938C8.41346 10.8123 15.1958 14.7814 21.2997 9.94906C23.591 8.13313 24.0561 5.83781 21.9091 3.69688C19.6977 1.49229 16.9779 0.26 13.7496 0ZM8.98831 8.26922L4.12955 6.88391C4.12203 6.88205 4.11516 6.87817 4.10967 6.8727C4.10419 6.86723 4.1003 6.86036 4.09842 6.85284C4.09654 6.84533 4.09674 6.83744 4.099 6.83003C4.10127 6.82262 4.10551 6.81596 4.11127 6.81078C5.96106 5.10182 8.11148 3.96839 10.5625 3.41047C14.2702 2.52078 17.4031 3.41182 19.9611 6.08359C20.2658 6.40047 20.3267 6.73156 19.9916 7.04234C16.7741 10.0262 12.8599 9.49609 8.98831 8.26922Z" fill="black"/>
<path d="M54.4882 10.8752L54.7624 10.8102C54.822 10.7966 54.8796 10.802 54.9351 10.8264C61.7174 13.8286 67.4943 18.793 72.4424 24.2428C73.9835 25.9382 75.1108 27.0961 75.8244 27.7163C80.4598 31.7422 85.7207 33.0666 91.5544 30.7083C92.0257 29.3799 92.1794 27.9939 92.0155 26.5503C92.0074 26.484 91.9783 26.4278 91.9282 26.3817C87.8129 22.7092 82.9846 19.8127 77.9816 17.5214C77.9207 17.493 77.8571 17.4869 77.7907 17.5031C75.5949 18.0069 73.2387 18.7706 71.3659 20.0645C69.5682 21.3056 67.9351 18.9331 69.5641 17.6799C70.7003 16.8064 71.9556 16.1408 73.3301 15.6831C73.344 15.6785 73.3562 15.6696 73.3648 15.6577C73.3735 15.6458 73.3783 15.6315 73.3785 15.6168C73.3787 15.6021 73.3744 15.5877 73.3661 15.5756C73.3578 15.5634 73.3459 15.5542 73.3321 15.5491C71.1235 14.6919 68.8701 13.9308 66.5721 13.2659C64.5145 12.6708 65.3046 9.75595 67.4374 10.3592C74.2123 12.2754 80.6135 15.0467 86.6409 18.6731C86.7045 18.7124 86.7309 18.6948 86.7201 18.6203C86.3423 16.1408 85.439 13.8726 84.0104 11.8156C82.9684 10.3125 85.0341 8.59001 86.324 9.90626C86.649 10.2367 87.0437 10.8373 87.5082 11.708C89.0316 14.5626 89.8902 17.6067 90.0838 20.8405C90.0879 20.9014 90.1129 20.9502 90.159 20.9867L94.1484 24.2144C94.1836 24.2428 94.2228 24.2509 94.2662 24.2388C100.112 22.6016 102.655 15.8192 99.7485 10.6395C97.3394 6.34345 91.0426 4.41376 86.6165 3.70079C76.249 2.0311 62.599 3.40626 54.3237 10.5908C54.3112 10.6018 54.301 10.6152 54.2937 10.6302C54.2865 10.6452 54.2822 10.6614 54.2813 10.678C54.2803 10.6947 54.2827 10.7113 54.2882 10.727C54.2938 10.7427 54.3024 10.7572 54.3135 10.7695C54.3514 10.8088 54.4097 10.844 54.4882 10.8752Z" fill="#91E569"/>
<path d="M10.5625 3.41053C9.30046 4.77688 8.77572 6.39646 8.98832 8.26928C12.8599 9.49615 16.7741 10.0263 19.9916 7.0424C20.3268 6.73162 20.2658 6.40053 19.9611 6.08365C17.4031 3.41188 14.2703 2.52084 10.5625 3.41053Z" fill="#D4E16C"/>
<path d="M10.5625 3.41064C8.11146 3.96856 5.96104 5.102 4.11125 6.81096C4.10549 6.81614 4.10125 6.82279 4.09898 6.8302C4.09671 6.83761 4.09651 6.8455 4.09839 6.85302C4.10027 6.86054 4.10416 6.8674 4.10965 6.87287C4.11514 6.87835 4.12201 6.88222 4.12953 6.88408L8.98828 8.26939C8.77568 6.39658 9.30042 4.777 10.5625 3.41064Z" fill="#A4CE39"/>
<path d="M54.4882 10.8755C59.2847 13.8113 63.3973 17.494 66.826 21.9234C67.3927 22.6547 68.0651 23.6581 68.5099 24.5153C70.9454 29.1994 74.238 34.2572 79.0724 36.4063C79.9147 36.78 80.2681 37.4273 80.1327 38.3481C81.6264 38.6054 83.1403 38.5926 84.6746 38.3095C84.5182 37.2858 84.9712 36.7963 85.9157 36.4347C88.6254 35.3933 90.505 33.4846 91.5544 30.7086C85.7207 33.0669 80.4598 31.7425 75.8244 27.7166C75.1108 27.0964 73.9835 25.9385 72.4424 24.2431C67.4943 18.7933 61.7174 13.8289 54.9351 10.8267C54.8795 10.8024 54.822 10.7969 54.7624 10.8105L54.4882 10.8755Z" fill="#92BD27"/>
<path d="M-2.00272e-05 19.3092V19.5631C0.190918 20.6295 0.830759 20.8997 1.88904 20.9444C4.5967 21.0601 6.40654 21.8665 8.73639 23.1097C9.55295 23.5464 10.5239 23.1544 10.857 22.3317C11.2328 21.4054 10.6661 20.7595 9.87388 20.272C7.43503 18.7675 4.77545 17.9841 1.89513 17.9219C0.851071 17.8995 0.182793 18.2672 -2.00272e-05 19.3092Z" fill="black"/>
<path d="M45.2827 21.5655C43.9116 20.5926 42.4654 22.248 43.1865 23.6841C44.5406 26.383 46.4656 28.5239 48.9613 30.1069C50.9682 31.3785 52.4205 28.7724 50.9337 27.7751C48.725 26.2936 47.0499 24.4993 45.9084 22.3923C45.6822 21.9779 45.4737 21.7023 45.2827 21.5655Z" fill="black"/>
<path d="M-3.05176e-05 61.61V62.4733C0.63575 75.4631 7.58872 87.021 18.9901 93.2711C19.9042 93.7708 20.7045 93.6286 21.3281 92.8202C21.7242 91.6339 21.2387 91.057 20.2048 90.472C9.99778 84.683 3.7456 74.4109 3.07528 62.7536C3.06851 62.6304 3.11319 62.608 3.20934 62.6866C8.75059 67.2731 15.1436 69.9205 22.3884 70.6288C22.9003 70.6775 23.2761 70.6619 23.5157 70.582C24.4359 70.2713 24.7223 68.9347 24.1414 68.2319C21.5962 65.1505 19.4654 62.0447 17.8729 58.488C13.1036 47.8341 14.4686 36.4895 20.7979 26.6156C20.8213 26.5789 20.8549 26.5499 20.8947 26.5322C20.9344 26.5145 20.9785 26.5089 21.0214 26.5161C22.0248 26.6867 22.9565 26.9183 23.8164 27.2108C31.7261 29.7681 37.4501 35.7766 41.99 42.4695C42.5953 43.3613 43.2595 43.6538 44.2731 43.2658C45.1242 42.4899 45.0876 41.7505 44.4823 40.7836C39.2031 32.3702 30.8384 25.0272 20.7939 23.3636C19.9651 23.2275 19.3354 23.3616 18.8703 24.042C9.5834 37.6149 9.65653 53.6434 19.3009 66.9563C19.3094 66.9674 19.3142 66.9808 19.3147 66.9948C19.3152 67.0087 19.3113 67.0225 19.3037 67.0344C19.296 67.0462 19.2848 67.0556 19.2716 67.0612C19.2584 67.0669 19.2439 67.0685 19.2298 67.066C13.8822 66.0056 9.14939 63.7239 5.03137 60.2206C4.36919 59.6587 3.88169 59.3208 3.56887 59.207C1.87888 58.5997 0.227467 59.8774 -3.05176e-05 61.61Z" fill="black"/>
<path d="M21.3281 92.8198L25.3317 94.4529C25.7177 93.4982 26.4144 93.1597 27.4219 93.4373C32.7884 94.9188 38.1712 95.0569 43.5703 93.8517L43.4098 93.7623C43.353 93.7298 43.2914 93.7115 43.225 93.7075C28.6427 92.7568 13.063 86.3361 9.49 70.537C9.48483 70.5126 9.48646 70.4873 9.49472 70.4637C9.50297 70.4402 9.51752 70.4195 9.53673 70.4039C9.55593 70.3882 9.57904 70.3784 9.60344 70.3753C9.62784 70.3723 9.65257 70.3762 9.67484 70.3867C16.0652 73.2812 23.6519 75.1561 30.6617 73.8337C30.6809 73.8302 30.6989 73.822 30.7141 73.8099C30.7293 73.7977 30.7413 73.782 30.7489 73.7641C30.7566 73.7462 30.7597 73.7266 30.7579 73.7072C30.7562 73.6878 30.7496 73.6692 30.7389 73.6529C21.4683 60.0639 16.8452 42.8429 23.8164 27.2104C22.9565 26.9179 22.0248 26.6864 21.0214 26.5157C20.9785 26.5085 20.9344 26.5142 20.8947 26.5319C20.855 26.5496 20.8213 26.5786 20.798 26.6153C14.4686 36.4892 13.1036 47.8337 17.873 58.4876C19.4655 62.0443 21.5963 65.1501 24.1414 68.2315C24.7223 68.9343 24.4359 70.2709 23.5158 70.5817C23.2761 70.6616 22.9003 70.6772 22.3884 70.6284C15.1436 69.9202 8.75062 67.2728 3.20937 62.6862C3.11323 62.6077 3.06855 62.63 3.07532 62.7532C3.74563 74.4106 9.99781 84.6826 20.2048 90.4717C21.2388 91.0567 21.7242 91.6336 21.3281 92.8198Z" fill="#B6941A"/>
<path d="M23.8163 27.2104C16.8451 42.8429 21.4682 60.0639 30.7388 73.6529C30.7496 73.6692 30.7561 73.6879 30.7578 73.7073C30.7596 73.7267 30.7565 73.7462 30.7489 73.7641C30.7412 73.782 30.7292 73.7977 30.714 73.8099C30.6988 73.822 30.6808 73.8302 30.6617 73.8337C23.6518 75.1561 16.0651 73.2812 9.67478 70.3867C9.6525 70.3762 9.62777 70.3723 9.60337 70.3753C9.57898 70.3784 9.55587 70.3882 9.53666 70.4039C9.51746 70.4195 9.50291 70.4402 9.49465 70.4637C9.4864 70.4873 9.48476 70.5126 9.48994 70.537C13.0629 86.3361 28.6426 92.7569 43.2249 93.7075C43.2913 93.7115 43.3529 93.7298 43.4098 93.7623L43.5702 93.8517C45.9712 93.3236 48.2651 92.5524 50.4521 91.5381C50.5483 91.4934 50.5625 91.4298 50.4948 91.3472C47.475 87.7126 44.6881 83.9067 42.1341 79.9295C42.0773 79.8401 42.0001 79.8151 41.9026 79.8543C34.1737 82.9378 25.1813 81.0081 18.0293 77.3823C17.4321 77.0803 17.0408 76.7831 16.8552 76.4906C16.3332 75.672 16.9995 74.3598 18.0374 74.2725C18.315 74.2495 18.6604 74.3341 19.0734 74.5264C25.5673 77.5428 33.2291 79.8665 40.2999 77.1812C40.3717 77.1541 40.388 77.1081 40.3487 77.0431C35.2665 68.5423 30.9582 59.2006 28.2181 49.6679C27.7468 48.0267 29.6867 46.812 30.7571 48.1059C30.9413 48.3294 31.1282 48.7579 31.3177 49.3917C32.1655 52.2165 33.1344 55.0007 34.2245 57.7442C34.2286 57.7537 34.2354 57.7618 34.2442 57.7675C34.2529 57.7732 34.263 57.7761 34.2732 57.7759C34.2834 57.7756 34.2932 57.7723 34.3012 57.7663C34.3092 57.7602 34.315 57.7518 34.3179 57.7422C34.9909 55.7258 35.9219 53.8415 37.1109 52.0892C38.3377 50.2794 40.8768 51.8861 39.5727 53.8665C37.8665 56.4604 36.5421 59.5784 36.5543 62.7126C36.5557 63.0688 36.6376 63.4236 36.8001 63.777C39.6818 70.059 43.0949 76.0688 47.0396 81.8064C47.0473 81.817 47.0577 81.8254 47.0697 81.8307C47.0817 81.8359 47.0948 81.8378 47.1077 81.8362C47.1205 81.8345 47.1325 81.8293 47.1424 81.8212C47.1522 81.813 47.1596 81.8023 47.1635 81.7901C49.2963 75.6476 53.042 70.3197 57.7443 65.8672C59.2373 64.4534 61.366 66.4989 59.7268 68.1442C55.0245 72.8608 50.9335 78.4345 49.469 85.0625C49.4527 85.1329 49.467 85.1959 49.5117 85.2514L53.2573 89.9172C53.2844 89.9508 53.3229 89.9734 53.3654 89.9809C53.408 89.9884 53.4519 89.9802 53.4888 89.9578C69.6231 79.9864 74.6829 59.6251 64.679 43.3528C64.6726 43.3419 64.663 43.3332 64.6516 43.3277C64.6402 43.3223 64.6274 43.3205 64.6149 43.3225C64.6024 43.3244 64.5908 43.3301 64.5816 43.3388C64.5723 43.3475 64.5659 43.3587 64.5632 43.3711C62.536 51.0654 57.7382 57.734 51.3906 62.4608C51.1048 62.6734 50.767 62.735 50.377 62.6456C50.3187 62.6321 50.2795 62.5969 50.2591 62.54L48.9043 58.7436C48.6768 58.1044 48.6402 58.1152 48.7946 58.7761C48.9463 59.4315 49.0736 60.0923 49.1765 60.7586C49.2293 61.1012 49.2049 61.1066 49.1034 60.7748C48.6592 59.3435 48.253 57.9006 47.8846 56.4462C47.8711 56.3921 47.8921 56.367 47.9476 56.3711C48.0227 56.3772 48.3904 57.4456 48.4432 57.5715C48.4467 57.5818 48.4541 57.5902 48.4639 57.595C48.4736 57.5997 48.4848 57.6004 48.495 57.5969C48.5052 57.5934 48.5137 57.586 48.5184 57.5763C48.5232 57.5666 48.5239 57.5554 48.5204 57.5451C47.8054 54.8029 46.8873 52.1549 45.766 49.6009C45.3009 48.5406 45.1892 47.6733 46.2373 46.944L44.2731 43.2654C43.2595 43.6534 42.5952 43.3609 41.9899 42.4692C37.4501 35.7762 31.726 29.7678 23.8163 27.2104Z" fill="#D7C635"/>
<path d="M46.2374 46.9442C45.1892 47.6734 45.301 48.5408 45.7661 49.6011C46.8874 52.1551 47.8055 54.8031 48.5205 57.5453C48.524 57.5555 48.5233 57.5668 48.5185 57.5765C48.5138 57.5862 48.5053 57.5936 48.4951 57.5971C48.4849 57.6006 48.4737 57.5999 48.4639 57.5951C48.4542 57.5904 48.4468 57.582 48.4433 57.5717C48.3905 57.4458 48.0228 56.3773 47.9477 56.3713C47.8922 56.3672 47.8712 56.3922 47.8847 56.4464C48.253 57.9008 48.6593 59.3437 49.1035 60.775C49.205 61.1068 49.2294 61.1014 49.1766 60.7588C49.0737 60.0925 48.9464 59.4317 48.7947 58.7763C48.6403 58.1154 48.6769 58.1046 48.9044 58.7438L50.2592 62.5402C50.2795 62.597 50.3188 62.6322 50.3771 62.6458C50.7671 62.7352 51.1049 62.6735 51.3906 62.4609C57.7383 57.7342 62.5361 51.0656 64.5633 43.3713C64.566 43.3589 64.5724 43.3477 64.5816 43.339C64.5909 43.3303 64.6025 43.3246 64.615 43.3227C64.6275 43.3207 64.6403 43.3225 64.6517 43.3279C64.6631 43.3333 64.6727 43.3421 64.6791 43.353C74.683 59.6253 69.6231 79.9866 53.4889 89.958C53.4519 89.9803 53.4081 89.9886 53.3655 89.9811C53.3229 89.9736 53.2845 89.951 53.2574 89.9174L49.5117 85.2516C49.467 85.196 49.4528 85.1331 49.4691 85.0627C50.9336 78.4347 55.0245 72.8609 59.7269 68.1444C61.3661 66.4991 59.2374 64.4536 57.7444 65.8673C53.042 70.3198 49.2964 75.6478 47.1636 81.7903C47.1596 81.8025 47.1523 81.8132 47.1425 81.8213C47.1326 81.8295 47.1206 81.8347 47.1077 81.8363C47.0949 81.838 47.0818 81.8361 47.0698 81.8309C47.0577 81.8256 47.0473 81.8172 47.0397 81.8066C43.095 76.069 39.6818 70.0592 36.8002 63.7772C36.6377 63.4238 36.5557 63.069 36.5544 62.7128C36.5422 59.5786 37.8666 56.4606 39.5728 53.8667C40.8769 51.8863 38.3378 50.2795 37.111 52.0894C35.922 53.8417 34.991 55.726 34.318 57.7423C34.3151 57.752 34.3092 57.7604 34.3013 57.7664C34.2933 57.7725 34.2835 57.7758 34.2733 57.776C34.2631 57.7763 34.253 57.7733 34.2442 57.7677C34.2355 57.762 34.2286 57.7539 34.2245 57.7444C33.1344 55.0008 32.1655 52.2167 31.3178 49.3919C31.1282 48.7581 30.9414 48.3295 30.7572 48.1061C29.6867 46.8122 27.7469 48.0269 28.2181 49.6681C30.9583 59.2008 35.2666 68.5425 40.3488 77.0433C40.388 77.1083 40.3718 77.1543 40.3 77.1814C33.2292 79.8667 25.5674 77.543 19.0735 74.5266C18.6604 74.3343 18.3151 74.2496 18.0375 74.2727C16.9995 74.36 16.3333 75.6722 16.8553 76.4908C17.0409 76.7833 17.4322 77.0805 18.0294 77.3825C25.1814 81.0083 34.1738 82.938 41.9027 79.8545C42.0002 79.8153 42.0774 79.8403 42.1342 79.9297C44.6882 83.9069 47.4751 87.7128 50.4949 91.3473C50.5626 91.43 50.5484 91.4936 50.4522 91.5383C48.2652 92.5526 45.9713 93.3238 43.5703 93.8519C38.1713 95.0571 32.7885 94.919 27.4219 93.4375C26.4144 93.1599 25.7177 93.4984 25.3317 94.4531C25.1692 95.4552 25.5281 96.0822 26.4083 96.3341C33.7641 98.4344 41.1558 98.1913 48.5835 95.6048C49.3729 95.3286 50.7136 94.7598 52.6053 93.8986C52.6757 93.8674 52.736 93.8803 52.7861 93.9372C56.1174 97.653 59.4737 100.858 62.855 103.551C64.5714 104.916 66.5417 102.641 64.6466 101.083C61.3952 98.4114 58.3463 95.5216 55.4999 92.4137C55.4908 92.4038 55.4841 92.3919 55.48 92.3791C55.476 92.3663 55.4748 92.3528 55.4766 92.3397C55.4783 92.3265 55.483 92.3139 55.4902 92.3028C55.4973 92.2917 55.5069 92.2825 55.5181 92.2756C73.0011 81.3414 78.2864 58.2461 66.7124 40.8911C65.7475 39.4448 63.3669 39.2295 62.3228 40.7083C62.1278 40.9845 61.9024 41.5892 61.6464 42.5222C59.9524 48.6918 56.6976 53.8924 51.8822 58.1242C51.8731 58.1325 51.8619 58.1383 51.8498 58.1408C51.8378 58.1434 51.8251 58.1426 51.8133 58.1388C51.8014 58.1349 51.7906 58.1279 51.7821 58.1186C51.7735 58.1093 51.7674 58.0979 51.7644 58.0856C50.9736 54.5756 49.8449 51.1963 48.3783 47.9477C47.9538 47.0031 47.2246 46.6639 46.2374 46.9442Z" fill="black"/>
<path d="M91.4064 58.7559C92.552 58.2948 94.0003 57.8154 93.3868 56.3164C92.1478 53.2878 85.7026 58.8331 84.6423 60.0132C84.0451 60.6795 83.4764 61.4473 83.907 62.3045C84.3146 63.117 84.9659 63.3858 85.861 63.1109C86.249 62.9911 86.7304 62.2882 86.9498 62.0425C88.3216 60.496 89.8071 59.4005 91.4064 58.7559Z" fill="black"/>
<path d="M90.1956 84.8046C91.1219 85.0362 91.778 84.7633 92.1639 83.986C93.4449 81.4104 95.3239 79.5471 97.8006 78.396C97.9794 78.3121 98.2035 78.3154 98.473 78.4062C98.9036 78.4549 99.1907 78.6269 99.3342 78.9221C101.728 83.831 101.441 88.5536 98.473 93.0901C96.5528 96.0273 94.0191 98.307 90.872 99.9293L89.8686 100.419C89.7914 100.457 89.7576 100.433 89.767 100.348C90.0974 97.1505 90.3574 93.9493 90.547 90.744C90.6053 89.7554 90.1611 89.1298 89.2145 88.8671C87.9145 88.9626 87.5753 89.7223 87.4819 90.9552C87.2402 94.124 87.2077 97.4898 86.58 100.598C86.2367 102.304 86.318 103.62 88.27 104H88.5747C90.1062 103.66 91.5972 103.073 93.0475 102.239C99.0295 98.7918 103.691 92.826 104 85.7065V84.9448C103.811 80.7888 101.887 72.6719 95.5764 76.1027C92.8992 77.5585 90.8856 79.6737 89.5355 82.4484C89.0581 83.4294 89.2288 84.2887 90.1956 84.8046Z" fill="black"/>
<path d="M90.1956 84.8046C89.7406 86.1262 89.4135 87.4804 89.2145 88.8671C90.161 89.1298 90.6052 89.7554 90.547 90.7439C90.3574 93.9493 90.0974 97.1505 89.767 100.348C89.7575 100.433 89.7913 100.457 89.8685 100.419L90.872 99.9293C91.6398 97.8682 92.0806 96.3089 92.1943 95.2513C92.8416 89.2835 94.8654 83.8357 98.2657 78.9079C98.3443 78.7927 98.4133 78.6255 98.4729 78.4061C98.2034 78.3154 97.9793 78.312 97.8006 78.396C95.3238 79.547 93.4449 81.4104 92.1638 83.986C91.7779 84.7633 91.1218 85.0361 90.1956 84.8046Z" fill="#A4CE39"/>
<path d="M98.4729 78.4062C98.4133 78.6256 98.3442 78.7929 98.2657 78.908C94.8654 83.8358 92.8416 89.2836 92.1943 95.2514C92.0805 96.309 91.6398 97.8683 90.8719 99.9294C94.019 98.3071 96.5527 96.0273 98.4729 93.0902C101.441 88.5537 101.728 83.831 99.3341 78.9222C99.1906 78.627 98.9035 78.455 98.4729 78.4062Z" fill="#D4E16C"/>
<path d="M71.2197 91.3248C70.7484 92.8807 72.7837 93.9248 73.8542 92.6918C75.7852 90.4683 77.0297 87.9184 77.5876 85.0421C77.6987 84.4761 77.7068 84.0482 77.612 83.7584C77.2464 82.631 75.8123 82.3731 75.0486 83.2465C74.8698 83.451 74.7331 83.8037 74.6383 84.3048C74.2076 86.592 73.257 88.6347 71.7864 90.4331C71.4736 90.8149 71.2847 91.1122 71.2197 91.3248Z" fill="black"/>
<path d="M2.04851 93.5091C0.534049 92.779 -0.615081 94.653 0.335954 95.9483C2.12226 98.3828 4.37805 100.172 7.10331 101.315C9.29453 102.233 10.2907 99.4212 8.65804 98.6865C6.23281 97.5951 4.28131 96.1061 2.80355 94.2196C2.51131 93.8488 2.25963 93.612 2.04851 93.5091Z" fill="black"/>
</g>
<defs>
<clipPath id="clip0_56036_33391">
<rect width="104" height="104" fill="white" transform="matrix(-1 0 0 1 104 0)"/>
</clipPath>
</defs>
</svg>
