<svg width="32" height="32" viewBox="0 0 32 32" fill="none" xmlns="http://www.w3.org/2000/svg">
<path d="M13.7333 10.2667C13.2133 10.7867 13.2133 11.6133 13.7333 12.1333L16.2666 14.6667H3.99996C3.26663 14.6667 2.66663 15.2667 2.66663 16C2.66663 16.7333 3.26663 17.3333 3.99996 17.3333H16.2666L13.7333 19.8667C13.2133 20.3867 13.2133 21.2133 13.7333 21.7333C14.2533 22.2533 15.08 22.2533 15.6 21.7333L20.3866 16.9467C20.9066 16.4267 20.9066 15.5867 20.3866 15.0667L15.6 10.2667C15.08 9.74667 14.2533 9.74667 13.7333 10.2667ZM26.6666 25.3333H17.3333C16.6 25.3333 16 25.9333 16 26.6667C16 27.4 16.6 28 17.3333 28H26.6666C28.1333 28 29.3333 26.8 29.3333 25.3333V6.66667C29.3333 5.2 28.1333 4 26.6666 4H17.3333C16.6 4 16 4.6 16 5.33333C16 6.06667 16.6 6.66667 17.3333 6.66667H26.6666V25.3333Z" fill="#40484C"/>
</svg>
