<svg width="24" height="24" viewBox="0 0 24 24" fill="#40484C" xmlns="http://www.w3.org/2000/svg">
<path d="M19.5002 12.0001C19.5002 11.7701 19.4902 11.5501 19.4702 11.3201L21.3302 9.91012C21.7302 9.61012 21.8402 9.05012 21.5902 8.61012L19.7202 5.38012C19.4702 4.94012 18.9302 4.76012 18.4702 4.96012L16.3202 5.87012C15.9502 5.61012 15.5602 5.38012 15.1502 5.19012L14.8602 2.88012C14.8002 2.38012 14.3702 2.00012 13.8702 2.00012H10.1402C9.63015 2.00012 9.20015 2.38012 9.14015 2.88012L8.85015 5.19012C8.44015 5.38012 8.05015 5.61012 7.68015 5.87012L5.53015 4.96012C5.07015 4.76012 4.53015 4.94012 4.28015 5.38012L2.41015 8.62012C2.16015 9.06012 2.27015 9.61012 2.67015 9.92012L4.53015 11.3301C4.51015 11.5501 4.50015 11.7701 4.50015 12.0001C4.50015 12.2301 4.51015 12.4501 4.53015 12.6801L2.67015 14.0901C2.27015 14.3901 2.16015 14.9501 2.41015 15.3901L4.28015 18.6201C4.53015 19.0601 5.07015 19.2401 5.53015 19.0401L7.68015 18.1301C8.05015 18.3901 8.44015 18.6201 8.85015 18.8101L9.14015 21.1201C9.20015 21.6201 9.63015 22.0001 10.1302 22.0001H13.8602C14.3602 22.0001 14.7902 21.6201 14.8502 21.1201L15.1402 18.8101C15.5502 18.6201 15.9402 18.3901 16.3102 18.1301L18.4602 19.0401C18.9202 19.2401 19.4602 19.0601 19.7102 18.6201L21.5802 15.3901C21.8302 14.9501 21.7202 14.4001 21.3202 14.0901L19.4602 12.6801C19.4902 12.4501 19.5002 12.2301 19.5002 12.0001ZM12.0402 15.5001C10.1102 15.5001 8.54015 13.9301 8.54015 12.0001C8.54015 10.0701 10.1102 8.50012 12.0402 8.50012C13.9702 8.50012 15.5402 10.0701 15.5402 12.0001C15.5402 13.9301 13.9702 15.5001 12.0402 15.5001Z" fill=""/>
</svg>
