<svg width="64" height="64" viewBox="0 0 64 64" fill="none" xmlns="http://www.w3.org/2000/svg">
<circle opacity="0.2" cx="32" cy="32" r="32" fill="white"/>
<path fill-rule="evenodd" clip-rule="evenodd" d="M43.5831 11C44.3137 11 44.9059 11.5922 44.9059 12.3228C44.9059 13.0534 44.3137 13.6456 43.5831 13.6456C42.8525 13.6456 42.2603 13.0534 42.2603 12.3228C42.2603 11.5922 42.8525 11 43.5831 11ZM43.5831 33.2991C48.4883 33.2991 52.4648 29.3226 52.4648 24.4173C52.4648 19.512 48.4883 15.5355 43.5831 15.5355C38.6778 15.5355 34.7013 19.512 34.7013 24.4173C34.7013 29.3226 38.6778 33.2991 43.5831 33.2991ZM55.6774 25.74C56.4079 25.74 57.0002 25.1478 57.0002 24.4172C57.0002 23.6866 56.4079 23.0944 55.6774 23.0944C54.9468 23.0944 54.3546 23.6866 54.3546 24.4172C54.3546 25.1478 54.9468 25.74 55.6774 25.74ZM53.0702 33.9046C52.5536 34.4212 51.7161 34.4212 51.1995 33.9046C50.6829 33.388 50.6829 32.5505 51.1995 32.0339C51.7161 31.5173 52.5536 31.5173 53.0702 32.0339C53.5868 32.5505 53.5868 33.388 53.0702 33.9046ZM34.0959 16.8006C34.6125 17.3172 35.4501 17.3172 35.9667 16.8006C36.4833 16.284 36.4833 15.4465 35.9667 14.9299C35.4501 14.4133 34.6125 14.4133 34.0959 14.9299C33.5793 15.4465 33.5793 16.284 34.0959 16.8006ZM51.1997 16.8007C50.6831 16.2841 50.6831 15.4466 51.1997 14.93C51.7163 14.4134 52.5539 14.4134 53.0704 14.93C53.587 15.4466 53.587 16.2841 53.0704 16.8007C52.5539 17.3173 51.7163 17.3173 51.1997 16.8007Z" fill="#FFBF00"/>
<path d="M40.9968 26.9616C43.5266 26.1651 46.2691 26.4062 48.6211 27.6318C50.973 28.8574 52.7418 30.9671 53.5383 33.4969C54.3348 36.0266 54.0937 38.7691 52.8681 41.1211C51.6425 43.4731 49.5328 45.2419 47.0031 46.0384" stroke="white" stroke-width="3" stroke-linecap="round" stroke-linejoin="round"/>
<path d="M12.9729 43.9846C11.0975 42.1093 10.0439 39.5657 10.0439 36.9136C10.0439 34.2614 11.0975 31.7179 12.9729 29.8425C14.8482 27.9671 17.3917 26.9136 20.0439 26.9136C22.696 26.9136 25.2396 27.9671 27.1149 29.8425" stroke="white" stroke-width="3" stroke-linecap="round" stroke-linejoin="round"/>
<path d="M21.0439 26.9136C21.0439 24.2614 22.0975 21.7179 23.9729 19.8425C25.8482 17.9671 28.3917 16.9136 31.0439 16.9136C33.696 16.9136 36.2396 17.9671 38.1149 19.8425C39.9903 21.7179 41.0438 24.2614 41.0438 26.9136" stroke="white" stroke-width="3" stroke-linecap="round" stroke-linejoin="round"/>
</svg>
