<svg width="1200" height="1200" viewBox="0 0 1200 1200" fill="none" xmlns="http://www.w3.org/2000/svg">
<path fill-rule="evenodd" clip-rule="evenodd" d="M621 0V6C621 24.5193 614.786 40.0791 603.141 52.0824C592.037 63.5283 577.282 70.4236 562.197 74.8718C532.513 83.6245 494 84.8934 458.952 85.997L457.515 86.0422C421.348 87.18 388.521 88.2128 364.131 94.5651C351.973 97.7315 343.895 101.767 338.957 106.213C334.642 110.098 331.958 114.918 331.556 122.6C331.036 132.555 332.918 138.788 335.308 142.806C337.656 146.752 341.451 150.181 347.672 152.915C361.115 158.826 382.986 160.202 411.982 156.501C468.95 149.23 540.454 124.258 593.032 103.101C651.458 77.7546 745.004 42.6829 828.735 31.4795C870.488 25.8929 912.035 25.909 946.077 37.7789C981.458 50.1157 1008.48 75.3352 1017.96 117.133C1027.37 158.672 1014.55 194.324 988.279 222.542C962.765 249.946 924.779 270.315 882.371 284.954C797.373 314.294 687.145 323.151 598.555 313.379C569.071 310.127 535.3 305.195 499.407 299.953C427.028 289.382 346.021 277.55 274.14 275.694C220.496 274.309 175.791 278.752 145.955 291.71C131.388 298.037 121.497 305.913 115.435 315.075C109.513 324.024 106.108 335.899 107.436 352.513C108.816 369.767 113.689 382.628 120.751 392.484C127.841 402.381 137.933 410.354 151.406 416.566C179.055 429.316 218.868 433.726 268.095 432.475C316.859 431.235 372.117 424.572 429.371 417.166C435.681 416.349 442.015 415.524 448.365 414.697C499.216 408.071 551.069 401.314 599.399 398.046C709.679 390.587 825.211 412.817 906.91 454.771C947.694 475.714 981.707 502.43 1001.63 534.499C1022.13 567.486 1027.13 605.411 1010.41 644.813C993.289 685.162 960.937 705.252 923.043 711.505C886.399 717.551 844.242 710.878 803.33 699.16C721.238 675.647 635.565 629.175 591.199 605.068C548.358 581.789 492.25 562.473 445.19 559.458C421.648 557.95 402.119 560.639 387.897 567.341C374.507 573.652 365.131 583.752 360.844 600.079C356.764 615.62 360.194 629.945 370.764 644.218C381.793 659.111 400.409 673.476 425.141 686.352C474.498 712.046 542.452 728.844 602.396 733.801C663.609 738.862 721.989 744.531 764.002 759.074C785.177 766.404 804.408 776.692 817.726 792.232C831.694 808.529 837.646 828.84 835.011 852.385C832.175 877.736 818.547 895.923 799.385 907.566C781.123 918.662 758.275 923.651 735.383 925.471C689.454 929.123 635.594 920.54 596.307 911.593C591.026 910.39 584.756 908.91 577.648 907.231C531.612 896.361 450.443 877.194 375.332 871.503C331.77 868.203 292.59 869.67 264.325 878.611C250.383 883.021 240.213 888.908 233.384 895.901C226.847 902.594 222.542 911.117 221.407 922.823C219.061 947.006 228.55 965.062 248.359 979.791C269.234 995.313 301.179 1006.57 340.742 1013.52C419.501 1027.36 520.078 1022.79 597.679 1010.74C635.971 1004.79 679.072 993.896 723.086 982.449C726.84 981.472 730.601 980.492 734.366 979.51C774.294 969.101 814.641 958.583 850.903 951.894C889.876 944.706 927.728 941.169 956.668 949.13C971.692 953.263 985.579 960.829 995.553 973.699C1005.56 986.608 1010 1002.76 1010 1021C1010 1042.34 1000.97 1059.34 986.308 1071.92C972.426 1083.83 953.963 1091.45 934.542 1096.82C899.468 1106.5 854.285 1110.53 810.623 1114.41C806.164 1114.81 801.72 1115.21 797.305 1115.61C748.141 1120.06 702.151 1125.08 668.5 1137.08C651.861 1143.01 639.93 1150.1 632.295 1158.24C625.148 1165.85 621 1175.14 621 1188V1200H581V1188C581 1164.99 589.008 1145.9 603.134 1130.86C616.773 1116.33 635.233 1106.48 655.062 1099.4C694.349 1085.39 745.609 1080.13 793.695 1075.77C797.931 1075.39 802.143 1075.01 806.326 1074.63C851.122 1070.62 892.542 1066.92 923.895 1058.26C940.944 1053.55 952.87 1047.91 960.262 1041.56C966.872 1035.89 970 1029.66 970 1021C970 1009.24 967.208 1002.42 963.936 998.202C960.634 993.941 955.203 990.213 946.058 987.698C926.663 982.362 896.78 984.107 858.159 991.231C823.411 997.64 784.488 1007.78 744.194 1018.29C740.525 1019.24 736.844 1020.2 733.154 1021.16C689.394 1032.54 644.401 1043.96 603.818 1050.26C523.666 1062.71 418.37 1067.78 333.817 1052.92C291.725 1045.52 252.654 1032.83 224.491 1011.89C195.262 990.155 177.689 959.224 181.593 918.962C183.583 898.445 191.684 881.35 204.767 867.953C217.558 854.855 234.223 846.179 252.261 840.473C287.957 829.182 333.324 828.206 378.354 831.618C456.956 837.573 541.68 857.613 587.328 868.41C594.226 870.042 600.232 871.462 605.189 872.591C643.151 881.237 692.335 888.768 732.213 885.597C752.225 884.006 767.971 879.849 778.614 873.381C788.358 867.461 793.947 859.667 795.259 847.937C796.774 834.402 793.47 825.398 787.354 818.261C780.588 810.367 768.907 803.101 750.917 796.873C714.598 784.301 661.635 778.836 599.1 773.665C535.296 768.389 461.876 750.57 406.671 721.832C379.122 707.49 354.66 689.685 338.619 668.023C322.118 645.742 314.486 619.13 322.156 589.921C329.619 561.498 347.368 542.223 370.845 531.158C393.49 520.486 420.57 517.799 447.747 519.54C502.124 523.024 563.89 544.705 610.297 569.921C655.18 594.31 737.126 638.59 814.344 660.706C853.088 671.803 888.508 676.662 916.531 672.039C943.302 667.621 962.704 654.838 973.589 629.187C984.876 602.589 981.772 578.326 967.658 555.61C952.973 531.976 925.871 509.473 888.638 490.354C814.305 452.183 706.204 430.913 602.098 437.954C555.097 441.133 504.554 447.717 453.509 454.365C447.179 455.19 440.842 456.015 434.503 456.835C377.454 464.215 320.237 471.162 269.112 472.462C218.451 473.75 170.962 469.631 134.656 452.891C116.152 444.358 100.103 432.346 88.2348 415.781C76.3379 399.175 69.4342 379.098 67.5636 355.7C65.6418 331.663 70.4561 310.561 82.0777 293C93.5591 275.65 110.538 263.482 130.021 255.021C168.287 238.401 220.41 234.293 275.172 235.707C349.302 237.622 435.343 250.155 509.029 260.888C543.975 265.979 576.141 270.664 602.941 273.621C686.599 282.849 790.759 274.261 869.319 247.143C908.689 233.552 939.775 215.938 959.003 195.285C977.474 175.445 985.065 152.966 978.946 125.977C972.887 99.2475 956.909 83.9177 932.907 75.5487C907.566 66.7127 873.349 65.8665 834.04 71.1262C755.765 81.5996 666.14 114.972 608.712 139.901L608.466 140.008L608.218 140.108C555.162 161.468 479.51 188.207 417.046 196.179C386.28 200.106 355.332 199.978 331.574 189.533C319.194 184.09 308.292 175.629 300.932 163.257C293.615 150.957 290.778 136.444 291.611 120.51C292.563 102.304 299.939 87.5181 312.193 76.4861C323.822 66.0153 338.82 59.8228 354.049 55.8564C382.885 48.3462 419.618 47.2027 453.406 46.1508C454.841 46.1061 456.27 46.0616 457.694 46.0168C494.323 44.8634 527.148 43.5039 550.884 36.505C562.508 33.0773 569.983 28.8159 574.431 24.2303C578.339 20.2021 581 14.8557 581 6V0H621Z" fill="white" fill-opacity="0.3"/>
<path d="M892.609 1141.04C894.67 1139.54 897.593 1140.32 898.626 1142.66L902.954 1152.44C903.241 1153.09 903.694 1153.65 904.269 1154.07L912.939 1160.33C915.007 1161.83 915.166 1164.85 913.265 1166.55L905.297 1173.69C904.769 1174.17 904.377 1174.77 904.159 1175.45L900.878 1185.63C900.095 1188.06 897.269 1189.14 895.062 1187.86L885.81 1182.49C885.197 1182.13 884.5 1181.95 883.792 1181.95L873.093 1181.97C870.541 1181.98 868.636 1179.63 869.172 1177.13L871.422 1166.67C871.571 1165.98 871.533 1165.26 871.313 1164.59L867.982 1154.42C867.188 1152 868.836 1149.46 871.375 1149.2L882.018 1148.1C882.723 1148.03 883.396 1147.77 883.968 1147.35L892.609 1141.04Z" fill="#C7D9F5"/>
<path d="M1097 899C1097 916.673 1082.67 931 1065 931C1047.33 931 1033 916.673 1033 899C1033 881.327 1047.33 867 1065 867C1082.67 867 1097 881.327 1097 899Z" fill="#F0CCCC"/>
<path d="M97.0705 1094.1C95.927 1089.83 98.4597 1085.45 102.727 1084.3L149.092 1071.88C153.36 1070.74 157.746 1073.27 158.89 1077.54L171.313 1123.9C172.457 1128.17 169.924 1132.55 165.656 1133.7L119.292 1146.12C115.024 1147.27 110.637 1144.73 109.494 1140.46L97.0705 1094.1Z" fill="#EADAAA"/>
<path d="M565.688 321.22C567.401 320.47 569.405 321.007 570.514 322.513L576.501 330.648C576.74 330.973 577.027 331.26 577.352 331.499L585.487 337.487C586.993 338.595 587.53 340.599 586.78 342.312L582.729 351.566C582.567 351.935 582.462 352.327 582.418 352.727L581.3 362.767C581.093 364.625 579.625 366.093 577.767 366.3L567.727 367.418C567.327 367.462 566.935 367.567 566.566 367.729L557.312 371.78C555.599 372.53 553.595 371.993 552.487 370.487L546.499 362.352C546.26 362.027 545.973 361.74 545.648 361.501L537.513 355.514C536.007 354.405 535.47 352.401 536.22 350.688L540.271 341.434C540.433 341.065 540.538 340.673 540.583 340.273L541.701 330.233C541.908 328.375 543.375 326.908 545.233 326.701L555.273 325.583C555.673 325.538 556.065 325.433 556.434 325.271L565.688 321.22Z" fill="#B3DCD2"/>
<path d="M1091.17 328.413C1092.38 322.374 1099.67 319.906 1104.3 323.97L1135.53 351.406C1140.15 355.47 1138.65 363.019 1132.81 364.994L1093.44 378.322C1087.61 380.296 1081.82 375.216 1083.03 369.177L1091.17 328.413Z" fill="#C7D2E2"/>
<path d="M81.5501 523.343C85.9371 521.231 91.0473 521.231 95.4343 523.343L112.823 531.717C117.21 533.83 120.397 537.825 121.48 542.573L125.775 561.389C126.858 566.136 125.721 571.118 122.685 574.925L110.652 590.015C107.616 593.822 103.012 596.039 98.1424 596.039H78.842C73.9728 596.039 69.3686 593.822 66.3327 590.015L54.2992 574.925C51.2633 571.118 50.1261 566.136 51.2096 561.389L55.5044 542.573C56.5879 537.825 59.7741 533.83 64.1611 531.717L81.5501 523.343Z" fill="#D5E0BC"/>
</svg>
