<svg width="32" height="32" viewBox="0 0 32 32" fill="none" xmlns="http://www.w3.org/2000/svg">
<path d="M0 16C0 7.16344 7.16344 0 16 0C24.8366 0 32 7.16344 32 16C32 24.8366 24.8366 32 16 32C7.16344 32 0 24.8366 0 16Z" fill="#E7EEFF"/>
<g clip-path="url(#clip0_55889_43109)">
<path d="M22.7392 7.95581C22.339 8.29089 22.0106 8.68086 21.7538 9.12573C21.7434 9.14379 21.7257 9.15727 21.7046 9.16326C21.6834 9.16925 21.6605 9.16726 21.6408 9.15773L21.0565 8.8674C21.0459 8.86219 21.0344 8.85933 21.0222 8.85881L20.9493 8.85413L20.9276 8.82057C20.9199 8.80834 20.9086 8.79832 20.8949 8.79169C19.1779 7.95971 16.8824 7.39465 14.9912 7.64206C13.625 7.82053 12.3265 8.20113 11.0959 8.78388C11.078 8.79221 11.0685 8.81016 11.0674 8.83774L10.9192 8.86818C10.9114 8.86974 10.9039 8.87234 10.8966 8.87598L10.1834 9.24436C10.1737 9.24937 10.163 9.25251 10.152 9.25361C10.1409 9.25471 10.1298 9.25374 10.1191 9.25077C10.1084 9.24779 10.0985 9.24286 10.0898 9.23627C10.0812 9.22968 10.074 9.22155 10.0687 9.21236C9.81139 8.75865 9.48461 8.35046 9.08835 7.98781C9.94337 7.71672 10.7621 7.79555 11.5446 8.22429C11.5583 8.23193 11.574 8.23572 11.5898 8.23522L11.6409 8.23365C11.6463 8.23355 11.6515 8.23226 11.6563 8.2299C11.661 8.22755 11.6651 8.22418 11.6682 8.22008C11.6713 8.21598 11.6733 8.21125 11.6741 8.20629C11.6749 8.20133 11.6744 8.19627 11.6727 8.19151C11.4785 7.6738 11.4598 7.1808 11.6166 6.71252C11.712 6.42635 11.9141 6.20314 12.2227 6.04288C12.2326 6.03777 12.2435 6.03459 12.2548 6.03352C12.266 6.03245 12.2774 6.03351 12.2882 6.03665C12.299 6.03978 12.309 6.04492 12.3176 6.05176C12.3262 6.0586 12.3332 6.067 12.3382 6.07644C12.4465 6.27988 12.5453 6.41933 12.6346 6.49477C13.0749 6.86784 13.3403 6.61887 13.6216 6.25361C14.5776 5.01188 15.5019 4.23297 17.2005 4.00273C17.3021 3.98921 17.3314 4.02589 17.2884 4.11278C16.91 4.87374 17.7589 5.89771 18.3056 6.4097C18.8288 6.89905 19.1586 6.44872 19.3897 6.03195C19.3948 6.02262 19.4019 6.01434 19.4105 6.00761C19.4191 6.00087 19.4291 5.99583 19.4398 5.99277C19.4505 5.98971 19.4617 5.9887 19.4728 5.9898C19.4839 5.9909 19.4947 5.99409 19.5044 5.99917C20.3357 6.42999 20.3081 7.31817 20.1046 8.08459C20.1013 8.09674 20.1012 8.10947 20.1043 8.12167C20.1074 8.13387 20.1136 8.1452 20.1224 8.1547C20.1312 8.16419 20.1423 8.17157 20.1548 8.17622C20.1673 8.18086 20.1808 8.18262 20.1942 8.18136C20.2835 8.17304 20.4373 8.11997 20.6555 8.02215C21.309 7.72973 22.0036 7.70762 22.7392 7.95581Z" fill="#E26D05"/>
<path d="M26.0845 13.6674L25.0539 13.971C25.0356 13.9764 25.0198 13.9877 25.0092 14.0027C24.9987 14.0178 24.9941 14.0358 24.9962 14.0537L25.1561 15.4944C25.146 15.9898 25.1698 16.4817 25.2272 16.9703C25.2278 17.8163 25.1787 18.6577 25.0799 19.4943C24.8497 21.4471 23.6534 23.2492 21.6165 23.9508C20.8229 24.1725 20.0198 24.3538 19.2072 24.4948C18.7378 24.5739 18.2645 24.6186 17.7873 24.629C16.5193 24.6582 15.2502 24.6532 13.9799 24.6142C13.9715 24.6142 13.9634 24.6153 13.9556 24.6173L13.7916 24.6587C13.7748 24.6095 13.7547 24.5853 13.6944 24.5822C13.2574 24.5604 12.8224 24.5229 12.3893 24.4698L10.1407 23.9407C9.14891 23.5192 8.37509 22.9094 7.81922 22.1113C6.70244 20.509 6.7175 18.8466 6.69322 16.79L6.77694 15.5499L6.95525 14.1161C6.95743 14.0985 6.95305 14.0806 6.94285 14.0656C6.93265 14.0505 6.91724 14.0392 6.89917 14.0334L5.91382 13.722C3.70789 12.5716 3.24076 9.50591 5.40316 8.06517C6.61705 7.2566 7.84544 7.23084 9.08835 7.9879C9.48461 8.35056 9.81139 8.75874 10.0687 9.21245C10.074 9.22164 10.0812 9.22977 10.0898 9.23636C10.0985 9.24295 10.1084 9.24788 10.1191 9.25086C10.1298 9.25384 10.1409 9.2548 10.152 9.2537C10.163 9.2526 10.1737 9.24946 10.1834 9.24445L10.8966 8.87607C10.9039 8.87243 10.9114 8.86983 10.9192 8.86827L11.0674 8.83783C11.841 9.24211 12.5526 9.93517 13.2081 10.5728C14.0692 11.409 14.7278 12.3505 15.1838 13.3973C15.5019 14.1284 15.7335 14.9294 15.8786 15.8004C15.9132 16.0075 15.9486 16.0077 15.9849 15.8012C16.1328 14.951 16.3536 14.1674 16.6471 13.4504C17.4232 11.5554 19.1611 9.98043 20.9493 8.85422L21.0222 8.8589C21.0344 8.85942 21.0459 8.86228 21.0565 8.86749L21.6408 9.15782C21.6605 9.16735 21.6835 9.16934 21.7046 9.16335C21.7257 9.15737 21.7434 9.14388 21.7538 9.12582C22.0106 8.68095 22.339 8.29098 22.7392 7.9559C23.4536 7.52664 24.2048 7.35676 24.9928 7.44625C27.1494 7.69054 28.478 9.73615 27.8392 11.6491C27.5534 12.506 26.9685 13.1788 26.0845 13.6674ZM7.23738 12.7854C7.55718 11.8083 8.10831 10.9451 8.89078 10.1958C8.96445 10.1256 9.0532 10.1162 9.1185 10.0429C9.23235 9.91488 9.50527 9.75098 9.46257 9.57927C9.18631 9.36386 8.88269 9.19164 8.55174 9.0626C6.57268 8.28916 4.71249 10.0725 5.52957 11.9004C5.77235 12.4426 6.22441 12.8742 6.88577 13.1952C7.05209 13.2758 7.15032 13.2384 7.18046 13.0828L7.23738 12.7854ZM22.9275 10.0686C23.455 10.5884 23.7809 10.9375 23.9054 11.116C24.2586 11.6218 24.517 12.1418 24.6806 12.6762L24.8304 13.0758C24.8377 13.095 24.8527 13.1108 24.8722 13.1198C24.8917 13.1288 24.9143 13.1304 24.9351 13.1242C25.5535 12.9389 26.0192 12.6179 26.3323 12.1611C27.4248 10.5673 25.9891 8.57481 23.9958 8.9229C23.4106 9.02514 22.9719 9.18358 22.5307 9.56835C22.5227 9.57539 22.5162 9.58386 22.5116 9.59326C22.5071 9.60266 22.5046 9.61281 22.5043 9.62311C22.504 9.63341 22.5058 9.64367 22.5098 9.6533C22.5138 9.66292 22.5197 9.67171 22.5274 9.67917L22.9275 10.0686ZM20.807 17.9912C20.807 17.7055 20.6853 17.4316 20.4686 17.2296C20.252 17.0276 19.9581 16.9141 19.6517 16.9141C19.3453 16.9141 19.0515 17.0276 18.8348 17.2296C18.6181 17.4316 18.4964 17.7055 18.4964 17.9912C18.4964 18.1326 18.5263 18.2727 18.5844 18.4033C18.6424 18.534 18.7275 18.6527 18.8348 18.7528C18.9421 18.8528 19.0694 18.9321 19.2096 18.9862C19.3498 19.0404 19.5 19.0682 19.6517 19.0682C19.8034 19.0682 19.9537 19.0404 20.0938 18.9862C20.234 18.9321 20.3613 18.8528 20.4686 18.7528C20.5759 18.6527 20.661 18.534 20.7191 18.4033C20.7771 18.2727 20.807 18.1326 20.807 17.9912ZM13.0331 18.0021C13.0331 17.7171 12.9116 17.4437 12.6954 17.2422C12.4793 17.0406 12.186 16.9274 11.8803 16.9274C11.5746 16.9274 11.2814 17.0406 11.0652 17.2422C10.849 17.4437 10.7275 17.7171 10.7275 18.0021C10.7275 18.2871 10.849 18.5605 11.0652 18.762C11.2814 18.9636 11.5746 19.0768 11.8803 19.0768C12.186 19.0768 12.4793 18.9636 12.6954 18.762C12.9116 18.5605 13.0331 18.2871 13.0331 18.0021ZM15.8217 23.1118C15.8686 23.0317 15.9171 23.0309 15.9673 23.1095C16.0678 23.2666 16.1858 23.41 16.3215 23.5395C17.5035 24.6696 20.4847 24.5853 20.7593 22.6724C20.9192 21.5579 20.1046 20.2194 19.2407 19.4264C19.1586 19.3515 19.0824 19.332 18.9845 19.2828C18.9662 19.2738 18.9522 19.2588 18.9452 19.2407C18.915 19.1621 18.8522 19.1195 18.7568 19.1127C18.7415 19.1117 18.727 19.1068 18.7149 19.0986C18.2506 18.7927 17.7257 18.5976 17.1402 18.5133C16.235 18.3827 15.3451 18.3858 14.4705 18.5227C14.3717 18.5383 14.2562 18.5102 14.1624 18.5812C14.1524 18.589 14.1412 18.5942 14.1289 18.5968C13.419 18.7524 12.8684 19.0456 12.4772 19.4764C11.7698 20.2545 11.0164 21.2387 11.013 22.3072C11.0063 24.3286 13.5672 24.6696 15.049 23.8455C15.3883 23.6566 15.6459 23.412 15.8217 23.1118Z" fill="#FFC037"/>
<path d="M20.9493 8.85416C19.1611 9.98037 17.4232 11.5554 16.6471 13.4503C16.3536 14.1673 16.1328 14.9509 15.9849 15.8011C15.9486 16.0077 15.9132 16.0074 15.8786 15.8003C15.7335 14.9293 15.5019 14.1283 15.1838 13.3973C14.7278 12.3504 14.0692 11.4089 13.2081 10.5728C12.5526 9.93511 11.841 9.24205 11.0674 8.83777C11.0685 8.81019 11.078 8.79224 11.0959 8.78392C12.3265 8.20117 13.625 7.82056 14.9912 7.64209C16.8824 7.39468 19.1779 7.95974 20.8949 8.79172C20.9086 8.79836 20.9199 8.80837 20.9276 8.8206L20.9493 8.85416Z" fill="#EA7F0F"/>
<path d="M9.46256 9.57918L9.04314 10.0061C9.02909 10.0206 9.00962 10.0295 8.98866 10.0311C8.9677 10.0327 8.94679 10.0268 8.93013 10.0147C7.41988 8.92359 5.37384 10.2051 6.35081 11.9042C6.55508 12.2596 6.8506 12.5533 7.23737 12.7853L7.18045 13.0827C7.15031 13.2383 7.05208 13.2757 6.88576 13.1951C6.2244 12.8741 5.77234 12.4425 5.52956 11.9003C4.71248 10.0724 6.57266 8.28907 8.55172 9.06251C8.88268 9.19155 9.1863 9.36377 9.46256 9.57918Z" fill="#FDF9D5"/>
<path d="M24.6806 12.6761C25.0512 12.4321 25.3447 12.1956 25.5613 11.9667C26.4746 11.0036 25.6626 9.59171 24.3281 9.61434C23.8208 9.62267 23.3539 9.77407 22.9275 10.0686L22.5274 9.67912C22.5197 9.67166 22.5138 9.66286 22.5098 9.65324C22.5058 9.64362 22.504 9.63336 22.5043 9.62306C22.5046 9.61275 22.5071 9.60261 22.5116 9.59321C22.5162 9.58381 22.5227 9.57534 22.5307 9.56829C22.9719 9.18352 23.4106 9.02509 23.9958 8.92284C25.9891 8.57476 27.4248 10.5673 26.3323 12.161C26.0192 12.6178 25.5535 12.9389 24.9351 13.1241C24.9143 13.1303 24.8917 13.1288 24.8722 13.1197C24.8527 13.1107 24.8377 13.0949 24.8304 13.0757L24.6806 12.6761Z" fill="#FDF9D5"/>
<path d="M9.46255 9.5791C9.50525 9.7508 9.23233 9.9147 9.11848 10.0427C9.05318 10.1161 8.96443 10.1254 8.89076 10.1957C8.10829 10.9449 7.55716 11.8081 7.23736 12.7853C6.85059 12.5532 6.55507 12.2595 6.3508 11.9041C5.37383 10.205 7.41987 8.92351 8.93011 10.0146C8.94678 10.0267 8.96769 10.0326 8.98865 10.031C9.00961 10.0294 9.02908 10.0205 9.04313 10.006L9.46255 9.5791Z" fill="#FFC5AC"/>
<path d="M24.6806 12.6761C24.517 12.1417 24.2586 11.6216 23.9054 11.1159C23.7809 10.9374 23.455 10.5883 22.9276 10.0685C23.3539 9.77402 23.8208 9.62261 24.3281 9.61428C25.6626 9.59165 26.4746 11.0035 25.5613 11.9666C25.3447 12.1956 25.0512 12.432 24.6806 12.6761Z" fill="#FFC5AC"/>
<path d="M26.0845 13.6672C26.3557 14.059 26.5237 14.4768 26.5885 14.9207C26.5907 14.9369 26.5874 14.9533 26.5793 14.9675C26.4127 15.2656 25.4851 15.4256 25.1561 15.4943L24.9962 14.0536C24.9941 14.0357 24.9987 14.0177 25.0093 14.0026C25.0198 13.9875 25.0356 13.9763 25.054 13.9708L26.0845 13.6672Z" fill="#E26D05"/>
<path d="M5.91382 13.7219L6.89917 14.0333C6.91724 14.0391 6.93265 14.0504 6.94285 14.0655C6.95305 14.0805 6.95743 14.0984 6.95525 14.1161L6.77694 15.5498C6.43816 15.4587 6.10191 15.3567 5.76816 15.2438C5.49134 15.1507 5.38278 14.9798 5.4425 14.7311C5.52677 14.3793 5.68388 14.043 5.91382 13.7219Z" fill="#E26D05"/>
<path d="M6.69321 16.79C6.71749 18.8466 6.70243 20.509 7.81921 22.1113C8.37509 22.9094 9.1489 23.5192 10.1407 23.9407C10.0653 24.1566 10.0346 24.358 10.0486 24.5448L10.0034 24.8406L8.88743 24.622C8.87809 24.6202 8.86927 24.6165 8.86157 24.6113C8.85387 24.606 8.84746 24.5993 8.84278 24.5915C8.83811 24.5838 8.83526 24.5752 8.83444 24.5663C8.83363 24.5574 8.83484 24.5485 8.83803 24.5401L8.85059 24.5073C8.85415 24.4976 8.85513 24.4872 8.85345 24.477C8.85178 24.4668 8.84749 24.4572 8.84097 24.449C8.83446 24.4408 8.8259 24.4342 8.81605 24.4298C8.8062 24.4254 8.79535 24.4233 8.78445 24.4238C7.89761 24.4566 7.07022 24.2818 6.30226 23.8993C5.59737 23.5489 5.23404 22.9027 5.65095 22.1956C5.76703 21.9989 5.89596 21.8202 6.03772 21.6594C6.11529 21.5709 6.0938 21.5371 5.97325 21.5579C5.7701 21.5933 5.56612 21.6097 5.36129 21.6071C5.10847 21.604 4.89052 21.5493 4.70746 21.4432C4.31455 21.2158 4.10749 20.8711 4.08628 20.4091C4.0807 20.2904 4.11977 20.2759 4.20348 20.3654C4.53333 20.7176 4.95191 20.8446 5.45923 20.7462C5.70452 20.6986 6.09631 20.6042 6.25286 20.4458C6.26256 20.436 6.26942 20.424 6.27276 20.4111C6.2761 20.3981 6.27583 20.3846 6.27197 20.3717C6.26811 20.3589 6.26079 20.3472 6.25071 20.3377C6.24062 20.3283 6.2281 20.3214 6.21436 20.3178C5.05991 20.011 4.19511 19.8276 5.20892 18.5383C5.67271 17.9472 6.16747 17.3645 6.69321 16.79Z" fill="#E26D05"/>
<path d="M20.807 17.9911C20.807 18.1326 20.7771 18.2726 20.7191 18.4033C20.661 18.534 20.5759 18.6527 20.4686 18.7527C20.3614 18.8527 20.234 18.932 20.0938 18.9862C19.9537 19.0403 19.8034 19.0682 19.6517 19.0682C19.5 19.0682 19.3498 19.0403 19.2096 18.9862C19.0694 18.932 18.9421 18.8527 18.8348 18.7527C18.7275 18.6527 18.6424 18.534 18.5844 18.4033C18.5263 18.2726 18.4964 18.1326 18.4964 17.9911C18.4964 17.7055 18.6182 17.4315 18.8348 17.2295C19.0515 17.0275 19.3453 16.9141 19.6517 16.9141C19.9581 16.9141 20.252 17.0275 20.4686 17.2295C20.6853 17.4315 20.807 17.7055 20.807 17.9911ZM20.0251 17.7039C20.0251 17.6139 19.9867 17.5275 19.9184 17.4638C19.8501 17.4002 19.7575 17.3644 19.6609 17.3644C19.5643 17.3644 19.4717 17.4002 19.4034 17.4638C19.3351 17.5275 19.2968 17.6139 19.2968 17.7039C19.2968 17.7939 19.3351 17.8803 19.4034 17.944C19.4717 18.0076 19.5643 18.0434 19.6609 18.0434C19.7575 18.0434 19.8501 18.0076 19.9184 17.944C19.9867 17.8803 20.0251 17.7939 20.0251 17.7039ZM19.1076 18.6647C19.4168 18.7531 19.7324 18.7674 20.0544 18.7076C20.1325 18.6925 20.1515 18.6691 20.1113 18.6373C20.0979 18.6263 20.0805 18.6207 20.0628 18.6217C19.7575 18.642 19.4533 18.6386 19.1503 18.6116C19.049 18.603 18.9979 18.6334 19.1076 18.6647Z" fill="black"/>
<path d="M13.0331 18.0019C13.0331 18.287 12.9116 18.5603 12.6955 18.7619C12.4793 18.9634 12.1861 19.0767 11.8803 19.0767C11.5746 19.0767 11.2814 18.9634 11.0652 18.7619C10.849 18.5603 10.7275 18.287 10.7275 18.0019C10.7275 17.7169 10.849 17.4436 11.0652 17.242C11.2814 17.0405 11.5746 16.9272 11.8803 16.9272C12.1861 16.9272 12.4793 17.0405 12.6955 17.242C12.9116 17.4436 13.0331 17.7169 13.0331 18.0019ZM12.2487 17.7288C12.2487 17.6404 12.211 17.5556 12.144 17.4931C12.0769 17.4306 11.986 17.3955 11.8912 17.3955C11.7964 17.3955 11.7055 17.4306 11.6384 17.4931C11.5714 17.5556 11.5337 17.6404 11.5337 17.7288C11.5337 17.8172 11.5714 17.9019 11.6384 17.9644C11.7055 18.0269 11.7964 18.062 11.8912 18.062C11.986 18.062 12.0769 18.0269 12.144 17.9644C12.211 17.9019 12.2487 17.8172 12.2487 17.7288ZM11.5798 18.7098C11.8214 18.7442 12.0634 18.7374 12.3056 18.6895C12.3408 18.6828 12.3472 18.6664 12.3248 18.6404C12.3196 18.6345 12.3132 18.6299 12.3059 18.6268C12.2987 18.6237 12.2908 18.6222 12.283 18.6224L11.5856 18.6302C11.239 18.6339 11.2371 18.6604 11.5798 18.7098Z" fill="black"/>
<path d="M25.2272 16.9702C25.8618 17.6313 26.8279 18.6248 26.9945 19.3983C27.0258 19.5439 26.9819 19.6662 26.8631 19.7651C26.5073 20.0593 26.0468 20.1545 25.6006 20.2817C25.5807 20.2878 25.5637 20.3005 25.5529 20.3176C25.352 20.6376 26.514 20.7407 26.7007 20.7321C27.105 20.7141 27.331 20.5752 27.5462 20.2724C27.5585 20.2547 27.5741 20.2443 27.5931 20.2412C27.5996 20.2402 27.6063 20.2406 27.6127 20.2424C27.619 20.2442 27.6248 20.2473 27.6296 20.2516C27.6345 20.2558 27.6382 20.261 27.6406 20.2667C27.643 20.2725 27.6439 20.2787 27.6433 20.2849C27.6307 20.3918 27.6584 20.4784 27.6232 20.5799C27.3411 21.3814 26.6722 21.6561 25.8099 21.5289C25.7139 21.5144 25.6171 21.5047 25.5194 21.5001C25.3966 21.4943 25.3732 21.5365 25.4491 21.6265C25.5445 21.7394 25.6383 21.852 25.7304 21.9644C26.5508 22.9673 25.7555 23.7244 24.7484 24.0795C24.14 24.2939 23.5111 24.412 22.8614 24.4338C22.8496 24.4342 22.8381 24.4368 22.8275 24.4416C22.8169 24.4463 22.8075 24.4531 22.7999 24.4614C22.7923 24.4697 22.7867 24.4794 22.7835 24.4899C22.7802 24.5003 22.7794 24.5113 22.781 24.522L22.8037 24.6719C22.8066 24.6915 22.8013 24.7115 22.7889 24.7278C22.7764 24.744 22.7578 24.7553 22.7367 24.7593L21.7605 24.9404C21.7204 24.8691 21.7 24.7827 21.6994 24.6812L21.6165 23.9507C23.6534 23.2491 24.8497 21.447 25.0799 19.4942C25.1787 18.6576 25.2278 17.8162 25.2272 16.9702Z" fill="#E26D05"/>
<path d="M19.6609 18.0433C19.862 18.0433 20.0251 17.8913 20.0251 17.7038C20.0251 17.5163 19.862 17.3643 19.6609 17.3643C19.4598 17.3643 19.2968 17.5163 19.2968 17.7038C19.2968 17.8913 19.4598 18.0433 19.6609 18.0433Z" fill="#FEFEFE"/>
<path d="M11.8912 18.062C12.0886 18.062 12.2487 17.9128 12.2487 17.7288C12.2487 17.5447 12.0886 17.3955 11.8912 17.3955C11.6938 17.3955 11.5337 17.5447 11.5337 17.7288C11.5337 17.9128 11.6938 18.062 11.8912 18.062Z" fill="#FEFEFE"/>
<path d="M15.8217 23.1117C15.6459 23.4119 15.3883 23.6564 15.049 23.8453C13.5672 24.6695 11.0063 24.3284 11.013 22.307C11.0164 21.2385 11.7698 20.2544 12.4772 19.4762C12.8685 19.0454 13.419 18.7522 14.1289 18.5967C14.1412 18.594 14.1524 18.5889 14.1624 18.581C14.2562 18.51 14.3717 18.5381 14.4705 18.5225C15.3451 18.3857 16.235 18.3825 17.1402 18.5131C17.7257 18.5974 18.2506 18.7925 18.7149 19.0985C18.727 19.1067 18.7415 19.1115 18.7568 19.1125C18.8522 19.1193 18.915 19.162 18.9452 19.2405C18.9522 19.2586 18.9662 19.2736 18.9845 19.2827C19.0825 19.3319 19.1586 19.3514 19.2407 19.4263C20.1046 20.2192 20.9192 21.5578 20.7593 22.6723C20.4847 24.5852 17.5036 24.6695 16.3215 23.5394C16.1859 23.4098 16.0678 23.2665 15.9674 23.1093C15.9171 23.0308 15.8686 23.0315 15.8217 23.1117ZM15.7639 21.0161C15.7533 21.0962 15.7452 21.1764 15.7396 21.2565C15.7162 21.5929 15.5203 21.8418 15.2072 22.0018C15.1903 22.0104 15.177 22.0242 15.1697 22.0408C15.1623 22.0575 15.1614 22.0759 15.167 22.0932C15.1854 22.1499 15.2237 22.1845 15.2817 22.197C15.3353 22.2079 15.395 22.1928 15.4609 22.1517C15.6289 22.0461 15.7494 21.9162 15.8225 21.7622C15.8605 21.6821 15.9007 21.6811 15.9431 21.7591C16.0558 21.9641 16.2249 22.1199 16.4504 22.2266C16.4673 22.2344 16.4864 22.2368 16.5049 22.2334C16.5234 22.23 16.5401 22.2211 16.5525 22.2079L16.6212 22.133C16.6292 22.1242 16.635 22.1139 16.6383 22.1028C16.6415 22.0917 16.6421 22.08 16.6399 22.0687C16.6377 22.0573 16.6329 22.0466 16.6258 22.0372C16.6186 22.0278 16.6093 22.02 16.5986 22.0143C16.1817 21.7958 15.9874 21.4589 16.0159 21.0036C16.0171 20.9848 16.0255 20.967 16.0397 20.9535C16.0538 20.94 16.0727 20.9317 16.0929 20.9303C16.401 20.9074 16.6541 20.7671 16.8522 20.5096C17.7857 19.2944 14.6396 18.9924 14.8556 20.2083C14.8908 20.406 14.9881 20.5692 15.1478 20.6977C15.3001 20.8205 15.4821 20.898 15.6936 20.9303C15.7149 20.9333 15.7342 20.944 15.7473 20.96C15.7604 20.976 15.7663 20.9961 15.7639 21.0161Z" fill="#FFF6CD"/>
<path d="M11.5797 18.71C11.2371 18.6606 11.239 18.634 11.5856 18.6304L12.283 18.6226C12.2908 18.6223 12.2986 18.6238 12.3059 18.6269C12.3131 18.6301 12.3196 18.6347 12.3248 18.6405C12.3471 18.6665 12.3407 18.6829 12.3056 18.6897C12.0633 18.7376 11.8214 18.7443 11.5797 18.71Z" fill="#E7E6D5"/>
<path d="M19.1076 18.6647C18.9979 18.6334 19.049 18.603 19.1502 18.6116C19.4533 18.6386 19.7575 18.642 20.0628 18.6217C20.0804 18.6207 20.0979 18.6263 20.1113 18.6373C20.1515 18.6691 20.1325 18.6925 20.0544 18.7076C19.7324 18.7674 19.4167 18.7531 19.1076 18.6647Z" fill="#EFF0F0"/>
<path d="M15.6936 20.9302C15.4821 20.898 15.3001 20.8204 15.1477 20.6977C14.9881 20.5691 14.8907 20.406 14.8556 20.2083C14.6396 18.9923 17.7857 19.2944 16.8522 20.5096C16.6541 20.7671 16.401 20.9073 16.0929 20.9302C16.0727 20.9317 16.0538 20.94 16.0396 20.9534C16.0255 20.9669 16.017 20.9848 16.0159 21.0036C15.9874 21.4589 16.1817 21.7958 16.5986 22.0143C16.6093 22.02 16.6186 22.0278 16.6258 22.0372C16.6329 22.0466 16.6377 22.0573 16.6399 22.0686C16.642 22.08 16.6415 22.0916 16.6383 22.1027C16.635 22.1139 16.6292 22.1242 16.6212 22.1329L16.5525 22.2079C16.5401 22.221 16.5233 22.23 16.5049 22.2334C16.4864 22.2368 16.4672 22.2344 16.4504 22.2266C16.2249 22.1199 16.0558 21.9641 15.9431 21.7591C15.9006 21.681 15.8605 21.6821 15.8225 21.7622C15.7494 21.9162 15.6288 22.046 15.4608 22.1517C15.395 22.1928 15.3353 22.2079 15.2817 22.1969C15.2237 22.1844 15.1854 22.1498 15.167 22.0931C15.1614 22.0759 15.1623 22.0574 15.1696 22.0408C15.177 22.0242 15.1902 22.0104 15.2072 22.0018C15.5203 21.8418 15.7162 21.5928 15.7396 21.2565C15.7452 21.1763 15.7533 21.0962 15.7639 21.0161C15.7663 20.9961 15.7604 20.976 15.7473 20.96C15.7341 20.944 15.7149 20.9333 15.6936 20.9302Z" fill="black"/>
<path d="M10.1407 23.9407L12.3893 24.4698C12.4027 24.7607 12.3717 25.0383 12.2964 25.3026C11.5563 25.0081 10.8071 24.7555 10.0486 24.5448C10.0346 24.358 10.0653 24.1566 10.1407 23.9407Z" fill="#FFB217"/>
<path d="M21.6165 23.9507L21.6994 24.6812C20.9485 24.9185 20.1766 25.1924 19.4106 25.3774C19.3074 25.1073 19.2396 24.8131 19.2072 24.4947C20.0198 24.3537 20.8229 24.1723 21.6165 23.9507Z" fill="#FFB217"/>
<path d="M12.3893 24.4697C12.8224 24.5228 13.2574 24.5603 13.6944 24.5821C13.7547 24.5852 13.7748 24.6094 13.7916 24.6586C13.2429 24.8808 12.8313 25.2385 12.5567 25.7317L12.2009 26.6722C12.1982 26.2133 12.23 25.7567 12.2964 25.3025C12.3717 25.0382 12.4027 24.7606 12.3893 24.4697Z" fill="#FEAA08"/>
<path d="M19.2072 24.4946C19.2396 24.8131 19.3074 25.1073 19.4106 25.3773C19.4768 25.6021 19.7932 26.804 19.568 26.9672C19.4268 26.4427 19.1843 25.9858 18.8405 25.5967C18.5453 25.2137 18.1942 24.8911 17.7874 24.6289C18.2645 24.6185 18.7378 24.5737 19.2072 24.4946Z" fill="#FCAE15"/>
<path d="M10.0486 24.5447C10.807 24.7554 11.5563 25.008 12.2964 25.3025C12.2299 25.7567 12.1981 26.2133 12.2009 26.6722C12.1786 26.9371 12.1094 27.1868 11.9933 27.4215C11.5345 28.0482 10.7233 28.1918 10.1834 27.5901C9.87863 27.2506 9.84932 26.7893 9.88448 26.3398C9.92299 25.8403 9.96262 25.3405 10.0034 24.8405L10.0486 24.5447Z" fill="#FFC037"/>
<path d="M17.7873 24.6288C18.1942 24.8911 18.5453 25.2137 18.8405 25.5966C17.77 25.7522 16.7272 25.8422 15.712 25.8667C14.852 25.8875 13.9886 25.7964 13.1218 25.5935C13.0119 25.5675 12.8235 25.6135 12.5567 25.7316C12.8313 25.2384 13.2429 24.8807 13.7916 24.6585L13.9556 24.6171C13.9634 24.6151 13.9715 24.614 13.9799 24.614C15.2502 24.653 16.5193 24.658 17.7873 24.6288Z" fill="#FEDD92"/>
<path d="M21.6994 24.6812C21.7 24.7826 21.7204 24.869 21.7605 24.9403C21.8275 25.5615 22.0058 26.733 21.7354 27.3012C21.2968 28.2221 20.0075 28.2518 19.6341 27.2762L19.568 26.9671C19.7932 26.804 19.4768 25.6021 19.4106 25.3773C20.1766 25.1924 20.9485 24.9184 21.6994 24.6812Z" fill="#FFC037"/>
<path d="M18.8405 25.5968C19.1843 25.986 19.4268 26.4429 19.568 26.9673L19.6341 27.2764C19.4271 27.5969 19.1 27.758 18.653 27.7595C16.6689 27.7663 14.6859 27.7671 12.7041 27.7619C12.3943 27.7608 12.1574 27.6474 11.9933 27.4216C12.1094 27.1869 12.1786 26.9372 12.2009 26.6723L12.5567 25.7319C12.8235 25.6137 13.0119 25.5677 13.1218 25.5937C13.9886 25.7966 14.852 25.8877 15.712 25.8669C16.7272 25.8424 17.77 25.7524 18.8405 25.5968Z" fill="#FFE39B"/>
</g>
<defs>
<clipPath id="clip0_55889_43109">
<rect width="24" height="24" fill="white" transform="translate(4 4)"/>
</clipPath>
</defs>
</svg>
