<svg width="32" height="32" viewBox="0 0 32 32" fill="none" xmlns="http://www.w3.org/2000/svg">
<path d="M0 16C0 7.16344 7.16344 0 16 0C24.8366 0 32 7.16344 32 16C32 24.8366 24.8366 32 16 32C7.16344 32 0 24.8366 0 16Z" fill="#D8FFC2"/>
<g clip-path="url(#clip0_55889_43499)">
<path d="M25.4852 16.0827C25.7442 15.8048 25.9358 15.4849 26.0599 15.1232C26.4287 14.0493 26.3146 13.2571 26.0024 12.1312C25.7373 11.1736 26.0727 10.008 26.2906 9.00975C26.7443 6.93096 25.5812 5.41276 23.7714 5.132C23.2322 5.04818 22.7315 5.11183 22.2695 5.32296C21.4455 5.6992 20.9354 6.43813 20.7393 7.53976C20.339 7.43955 19.9964 7.27254 19.7117 7.03873C19.5187 5.68691 20.6355 4.64326 21.6751 4.2727C23.2868 3.69888 25.0151 4.00517 26.2048 5.43451C27.2796 6.72488 27.8491 8.95397 27.9881 10.7199C28.109 12.2598 27.2942 14.8878 26.1945 15.9059C25.9658 16.1177 25.7293 16.1766 25.4852 16.0827Z" fill="#85ADA6"/>
<path d="M12.4715 6.95168L12.4071 7.04622C12.0332 7.1855 11.6721 7.3566 11.3238 7.55953C10.9378 6.01486 10.0792 4.92868 8.48381 5.10545C6.77689 5.29547 5.58119 6.56693 5.73559 8.48879C5.82051 9.54473 6.26911 10.4466 6.20649 11.5384C6.1636 12.2852 5.77247 13.2221 5.86768 13.9036C5.97061 14.6385 6.19048 15.3292 6.52729 15.9758C6.16018 15.9802 5.85567 15.8236 5.61379 15.506C4.95332 14.6382 4.52617 13.6153 4.21738 12.5556C3.63239 10.5515 4.31173 8.01518 5.26126 6.31264C6.54187 4.01832 9.37329 3.30933 11.395 4.87857C12.0326 5.3733 12.3914 6.06433 12.4715 6.95168Z" fill="#85ADA6"/>
<path d="M11.3238 7.55959L10.3683 8.2459C10.1647 7.34027 9.69779 6.9007 8.96756 6.92716C7.07022 6.99617 6.31112 10.2018 8.57214 10.5714C8.04634 11.7484 7.79931 13.016 7.78473 14.3263C7.57458 14.9719 7.12684 15.8161 6.52727 15.9759C6.19046 15.3293 5.97059 14.6385 5.86767 13.9037C5.77246 13.2221 6.16359 12.2853 6.20647 11.5385C6.26909 10.4466 5.82049 9.54479 5.73557 8.48885C5.58118 6.56699 6.77688 5.29552 8.48379 5.10551C10.0792 4.92874 10.9378 6.01492 11.3238 7.55959Z" fill="#708E89"/>
<path d="M25.4852 16.0826C24.9234 15.7735 24.5752 15.1619 24.3521 14.5399C24.2835 13.1474 24.0837 11.9582 23.5287 10.6971C23.5243 10.6871 23.5231 10.6758 23.5253 10.665C23.5275 10.6542 23.5329 10.6445 23.5407 10.6375L23.5579 10.6224C24.1532 10.5197 24.5646 10.1992 24.7922 9.661C25.6868 7.54724 22.4703 5.49871 21.7103 8.18439L20.7393 7.53968C20.9355 6.43805 21.4455 5.69912 22.2695 5.32288C22.7316 5.11176 23.2322 5.0481 23.7715 5.13192C25.5813 5.41269 26.7444 6.93089 26.2907 9.00967C26.0728 10.0079 25.7374 11.1735 26.0025 12.1311C26.3147 13.257 26.4288 14.0492 26.0599 15.1231C25.9358 15.4849 25.7443 15.8047 25.4852 16.0826Z" fill="#708E89"/>
<path d="M19.7117 7.03876C19.9964 7.27258 20.339 7.43958 20.7393 7.53979L21.7102 8.1845C21.836 8.34521 21.9861 8.47126 22.1605 8.56264L22.206 8.65433C22.3089 8.83584 22.4396 8.98268 22.598 9.09486L22.743 9.20452C22.6932 9.37468 22.7996 9.41627 22.8665 9.51742C23.0878 9.85396 23.2885 10.2053 23.4686 10.5715C23.4755 10.5851 23.4853 10.5968 23.4971 10.6053C23.5089 10.6139 23.5224 10.6191 23.5364 10.6206L23.5578 10.6225L23.5407 10.6376C23.5329 10.6446 23.5274 10.6543 23.5253 10.6651C23.5231 10.6759 23.5243 10.6872 23.5286 10.6972C24.0836 11.9583 24.2835 13.1475 24.3521 14.54C24.2217 15.9239 24.0339 17.0602 23.255 18.1946C23.0252 17.0678 22.409 16.4417 21.4066 16.3162L21.2848 15.8615C21.4277 15.6895 21.5435 15.5014 21.6322 15.2972C21.7511 14.9726 21.7217 14.5891 21.5438 14.1467C21.5004 14.0383 21.5387 13.9627 21.6588 13.9198C21.7605 13.8833 21.8223 13.8124 21.844 13.7071C21.849 13.6847 21.8459 13.6607 21.8355 13.64C21.7554 13.4831 21.7465 13.3176 21.8089 13.1437C21.774 12.8664 21.6493 12.6484 21.4349 12.4895C21.3914 12.3106 21.2902 12.1839 21.1312 12.1095C21.114 12.1016 21.0996 12.0878 21.0901 12.07C21.0807 12.0523 21.0768 12.0316 21.0789 12.0112C21.0898 11.916 21.0778 11.8243 21.0429 11.7361C20.8156 11.1632 21.8029 11.9063 21.6064 11.0214C21.446 10.2964 21.0378 9.32552 20.2958 9.07879C20.278 9.07266 20.2587 9.07332 20.2409 9.08068C18.9774 9.59966 17.6145 10.4022 16.2575 9.67907C15.9161 9.49757 15.6271 9.10053 15.2437 9.0457C14.9169 8.99843 14.5703 8.98615 14.2753 8.85002C13.5368 8.50875 13.0564 7.82339 12.5306 7.10966C12.498 7.06523 12.456 7.05011 12.4071 7.04633L12.4714 6.95179C12.508 6.96629 12.5529 6.95242 12.6061 6.9102C13.6071 6.11612 14.7916 6.61904 15.73 6.88562C15.7375 6.88781 15.7454 6.88724 15.7525 6.88399C15.7596 6.88075 15.7656 6.87501 15.7695 6.86766C15.7738 6.8601 15.7729 6.80716 15.7695 6.80243C15.6048 6.56862 15.4856 6.31212 15.4118 6.03293C15.3786 5.90941 15.4167 5.87128 15.5259 5.91855C15.8295 6.05215 16.1529 6.14102 16.496 6.18513C17.6642 6.33449 18.5254 6.44037 19.0795 6.50276C19.0922 6.50426 19.1043 6.50866 19.1151 6.51568C19.126 6.5227 19.1352 6.53216 19.1421 6.54341C19.288 6.77785 19.4778 6.94297 19.7117 7.03876Z" fill="#8AB5AD"/>
<path d="M23.5579 10.6224L23.5364 10.6205C23.5224 10.6191 23.5089 10.6138 23.4971 10.6052C23.4853 10.5967 23.4755 10.585 23.4686 10.5714C23.2885 10.2052 23.0878 9.85387 22.8665 9.51733C22.7996 9.41618 22.6932 9.37458 22.743 9.20442C22.9151 9.10674 23.0887 9.01315 23.2636 8.92366C23.3932 8.85749 23.3554 8.75634 23.2216 8.80833C23.0924 8.85938 22.9614 8.90475 22.8288 8.94446C22.612 8.89026 22.4465 8.76295 22.3321 8.56254C22.4574 8.40499 22.5955 8.26319 22.7464 8.13714C22.803 8.08925 22.811 8.0653 22.7704 8.0653C22.7615 8.06528 22.7525 8.06823 22.7447 8.07381L22.1786 8.51339C22.1709 8.51945 22.1656 8.52862 22.164 8.53891L22.1606 8.56254C21.9862 8.47116 21.8361 8.34512 21.7103 8.18441C22.4702 5.49873 25.6868 7.54726 24.7922 9.66102C24.5646 10.1992 24.1531 10.5197 23.5579 10.6224ZM23.0904 9.69883C23.1333 9.68087 23.7903 9.44737 23.6814 9.39727C23.6735 9.39421 23.6651 9.39388 23.6573 9.39633L23.0398 9.60808C23.0356 9.60947 23.0318 9.61187 23.0286 9.6151C23.0254 9.61832 23.0229 9.62228 23.0213 9.62667C23.0197 9.63106 23.0191 9.63576 23.0195 9.64041C23.0199 9.64505 23.0212 9.64952 23.0235 9.65345L23.0372 9.67898C23.0427 9.68861 23.051 9.69586 23.0607 9.69948C23.0704 9.7031 23.0809 9.70287 23.0904 9.69883Z" fill="#F3A8B1"/>
<path d="M10.3683 8.24589C10.2253 8.41731 10.0758 8.55312 9.91967 8.65333C9.85792 8.60228 9.31153 8.08046 9.29695 8.14474C9.29539 8.15102 9.29544 8.15773 9.2971 8.1642C9.29875 8.17067 9.30196 8.17667 9.30638 8.18161L9.73611 8.65522C9.74869 8.66926 9.75701 8.68725 9.75993 8.70672C9.76285 8.72619 9.76022 8.74617 9.75241 8.76393L9.70524 8.86981C9.62804 8.98136 9.52911 9.05194 9.40846 9.08156C9.39172 9.08588 9.37402 9.08423 9.35785 9.07684L8.9873 8.91518C8.70196 8.7904 8.69195 8.8134 8.95728 8.98419C9.09852 9.07621 9.24777 9.14962 9.40503 9.20445L9.17086 9.59771C8.94098 9.61977 8.72369 9.57093 8.51897 9.45119C8.47866 9.42755 8.3723 9.44646 8.48209 9.51074C8.54156 9.5454 8.72054 9.61662 9.01904 9.72439C8.97615 9.76535 8.94213 9.83688 8.91697 9.93898C8.86264 10.1596 8.74771 10.3704 8.57215 10.5714C6.31113 10.2018 7.07024 6.99616 8.96757 6.92715C9.6978 6.90068 10.1647 7.34026 10.3683 8.24589Z" fill="#F3A8B1"/>
<path d="M12.4071 7.04639C12.456 7.05017 12.498 7.06529 12.5306 7.10972C13.0564 7.82345 13.5368 8.50881 14.2753 8.85008C14.5704 8.98621 14.9169 8.99849 15.2437 9.04576C15.6271 9.10059 15.9162 9.49763 16.2576 9.67913C17.6145 10.4023 18.9775 9.59972 20.2409 9.08074C20.2587 9.07339 20.278 9.07272 20.2958 9.07885C21.0378 9.32558 21.4461 10.2964 21.6065 11.0215C21.8029 11.9063 20.8156 11.1633 21.0429 11.7362C21.0778 11.8244 21.0898 11.9161 21.0789 12.0113C21.0768 12.0317 21.0807 12.0523 21.0902 12.0701C21.0996 12.0878 21.114 12.1017 21.1313 12.1096C21.2902 12.1839 21.3915 12.3106 21.4349 12.4896C21.1456 12.2665 20.8439 12.2331 20.53 12.3894C20.4425 12.4329 20.2486 12.6872 20.56 12.5926C21.2248 12.3922 21.3663 12.7184 21.8089 13.1438C21.7466 13.3177 21.7554 13.4831 21.8355 13.6401C21.846 13.6608 21.849 13.6848 21.8441 13.7072C21.8223 13.8124 21.7606 13.8833 21.6588 13.9199C21.5387 13.9627 21.5004 14.0384 21.5438 14.1468C21.7217 14.5892 21.7511 14.9727 21.6322 15.2972C21.7034 14.4814 21.1767 13.7649 20.4356 13.9057C19.2236 14.1354 19.3617 16.063 20.578 16.149C20.8485 16.1685 21.0841 16.0727 21.2848 15.8616L21.4066 16.3163C20.5326 16.3503 19.7812 16.7653 19.7091 17.8336C19.1968 17.647 18.7776 17.3231 18.4517 16.8618C18.2278 16.5451 17.973 15.9845 17.6583 15.6716C16.7156 14.7348 14.8714 14.7244 14.084 15.9174C13.6123 16.633 13.2572 17.3231 12.45 17.7286C12.3677 17.174 12.1269 16.7877 11.7278 16.5696C10.4558 15.8748 9.06963 16.753 8.95127 18.2996C8.15785 17.1794 7.82676 15.7255 7.78473 14.3264C7.79931 13.0161 8.04634 11.7485 8.57214 10.5715C8.74769 10.3705 8.86263 10.1597 8.91696 9.9391C8.94212 9.837 8.97614 9.76547 9.01903 9.72451L9.17085 9.59783L9.40501 9.20458C9.52681 9.11508 9.62688 9.00354 9.70523 8.86993L9.91966 8.65345C10.0758 8.55324 10.2253 8.41743 10.3683 8.24601L11.3238 7.5597C11.672 7.35677 12.0332 7.18567 12.4071 7.04639ZM10.4935 12.7401C10.4306 12.8372 10.3874 12.9292 10.364 13.0161C10.3451 13.0893 10.366 13.1082 10.4266 13.0729C10.446 13.0615 10.4618 13.0464 10.4738 13.0275C10.7877 12.5189 11.2094 12.3639 11.7389 12.5624C11.746 12.565 11.7536 12.5655 11.7609 12.564C11.7683 12.5626 11.7752 12.5591 11.781 12.5539C11.805 12.5325 11.8038 12.5044 11.7775 12.4697C11.4164 11.9999 10.7517 12.3402 10.4935 12.7401ZM12.7151 14.9909C12.7151 14.6898 12.6065 14.4011 12.4133 14.1881C12.2201 13.9752 11.9581 13.8556 11.6849 13.8556C11.4117 13.8556 11.1497 13.9752 10.9565 14.1881C10.7633 14.4011 10.6548 14.6898 10.6548 14.9909C10.6548 15.2921 10.7633 15.5808 10.9565 15.7938C11.1497 16.0067 11.4117 16.1263 11.6849 16.1263C11.9581 16.1263 12.2201 16.0067 12.4133 15.7938C12.6065 15.5808 12.7151 15.2921 12.7151 14.9909Z" fill="#92BAB9"/>
<path d="M22.3321 8.56267L22.206 8.65437L22.1606 8.56267L22.164 8.53904C22.1656 8.52875 22.1709 8.51958 22.1786 8.51352L22.7447 8.07394C22.7525 8.06836 22.7615 8.06541 22.7704 8.06543C22.811 8.06543 22.803 8.08938 22.7464 8.13728C22.5955 8.26332 22.4574 8.40512 22.3321 8.56267Z" fill="#B23A42"/>
<path d="M9.91969 8.65347L9.70526 8.86995L9.75243 8.76407C9.76024 8.74632 9.76287 8.72633 9.75995 8.70686C9.75703 8.6874 9.74871 8.6694 9.73614 8.65536L9.30641 8.18175C9.30198 8.17682 9.29878 8.17081 9.29712 8.16434C9.29546 8.15787 9.29541 8.15116 9.29697 8.14488C9.31155 8.0806 9.85794 8.60242 9.91969 8.65347Z" fill="#B23A42"/>
<path d="M22.3321 8.5625C22.4465 8.76291 22.6121 8.89021 22.8288 8.94441L22.598 9.09472C22.4396 8.98254 22.309 8.8357 22.2061 8.6542L22.3321 8.5625Z" fill="#ED99AE"/>
<path d="M22.743 9.20438L22.598 9.09472L22.8288 8.94442C22.9614 8.90471 23.0924 8.85934 23.2216 8.80829C23.3554 8.7563 23.3932 8.85745 23.2636 8.92362C23.0887 9.01311 22.9151 9.1067 22.743 9.20438Z" fill="#B23A42"/>
<path d="M9.70522 8.86983C9.62688 9.00343 9.52681 9.11498 9.40501 9.20447C9.24776 9.14964 9.09851 9.07622 8.95727 8.98421C8.69194 8.81342 8.70195 8.79042 8.98729 8.9152L9.35784 9.07685C9.374 9.08425 9.39171 9.0859 9.40844 9.08158C9.5291 9.05196 9.62803 8.98138 9.70522 8.86983Z" fill="#B23A42"/>
<path d="M23.0372 9.67905L23.0235 9.65353C23.0212 9.64959 23.0199 9.64512 23.0195 9.64048C23.0191 9.63583 23.0198 9.63113 23.0213 9.62674C23.0229 9.62236 23.0254 9.6184 23.0286 9.61517C23.0318 9.61195 23.0356 9.60954 23.0398 9.60815L23.6574 9.3964C23.6652 9.39395 23.6736 9.39428 23.6814 9.39734C23.7903 9.44744 23.1333 9.68094 23.0904 9.6989C23.0809 9.70294 23.0705 9.70317 23.0608 9.69955C23.0511 9.69593 23.0427 9.68868 23.0372 9.67905Z" fill="#B23A42"/>
<path d="M9.17085 9.59772L9.01903 9.72439C8.72054 9.61663 8.54155 9.54541 8.48208 9.51075C8.37229 9.44647 8.47865 9.42756 8.51897 9.45119C8.72368 9.57094 8.94098 9.61978 9.17085 9.59772Z" fill="#B23A42"/>
<path d="M10.4935 12.7401C10.7517 12.3402 11.4164 11.9999 11.7775 12.4698C11.8038 12.5044 11.805 12.5325 11.781 12.5539C11.7752 12.5591 11.7683 12.5626 11.7609 12.5641C11.7536 12.5655 11.746 12.565 11.7389 12.5624C11.2094 12.3639 10.7877 12.5189 10.4738 13.0275C10.4617 13.0464 10.446 13.0615 10.4266 13.0729C10.366 13.1082 10.3451 13.0893 10.364 13.0162C10.3874 12.9292 10.4306 12.8372 10.4935 12.7401Z" fill="#010101"/>
<path d="M21.4349 12.4895C21.6493 12.6483 21.774 12.8664 21.8089 13.1437C21.3663 12.7183 21.2247 12.3921 20.56 12.5926C20.2486 12.6871 20.4425 12.4328 20.53 12.3893C20.8439 12.233 21.1456 12.2664 21.4349 12.4895Z" fill="#040A15"/>
<path d="M12.7151 14.9908C12.7151 15.2919 12.6066 15.5807 12.4134 15.7936C12.2202 16.0065 11.9582 16.1262 11.6849 16.1262C11.4117 16.1262 11.1497 16.0065 10.9565 15.7936C10.7633 15.5807 10.6548 15.2919 10.6548 14.9908C10.6548 14.6897 10.7633 14.4009 10.9565 14.188C11.1497 13.9751 11.4117 13.8555 11.6849 13.8555C11.9582 13.8555 12.2202 13.9751 12.4134 14.188C12.6066 14.4009 12.7151 14.6897 12.7151 14.9908ZM11.9114 14.4501C11.9114 14.3801 11.8862 14.313 11.8413 14.2636C11.7964 14.2141 11.7355 14.1863 11.6721 14.1863C11.6086 14.1863 11.5477 14.2141 11.5029 14.2636C11.458 14.313 11.4328 14.3801 11.4328 14.4501C11.4328 14.52 11.458 14.5871 11.5029 14.6366C11.5477 14.686 11.6086 14.7138 11.6721 14.7138C11.7355 14.7138 11.7964 14.686 11.8413 14.6366C11.8862 14.5871 11.9114 14.52 11.9114 14.4501Z" fill="#040A15"/>
<path d="M21.6322 15.297C21.5436 15.5012 21.4278 15.6893 21.2848 15.8614C21.0841 16.0725 20.8485 16.1683 20.578 16.1488C19.3617 16.0627 19.2236 14.1352 20.4356 13.9055C21.1767 13.7646 21.7034 14.4812 21.6322 15.297ZM20.8285 14.4897C20.8285 14.4203 20.8035 14.3537 20.7589 14.3045C20.7143 14.2554 20.6539 14.2279 20.5909 14.2279C20.5279 14.2279 20.4674 14.2554 20.4229 14.3045C20.3783 14.3537 20.3533 14.4203 20.3533 14.4897C20.3533 14.5592 20.3783 14.6258 20.4229 14.6749C20.4674 14.724 20.5279 14.7516 20.5909 14.7516C20.6539 14.7516 20.7143 14.724 20.7589 14.6749C20.8035 14.6258 20.8285 14.5592 20.8285 14.4897Z" fill="#040A15"/>
<path d="M11.9114 14.45C11.9114 14.52 11.8861 14.5871 11.8413 14.6365C11.7964 14.686 11.7355 14.7138 11.672 14.7138C11.6086 14.7138 11.5477 14.686 11.5028 14.6365C11.458 14.5871 11.4327 14.52 11.4327 14.45C11.4327 14.3801 11.458 14.313 11.5028 14.2635C11.5477 14.2141 11.6086 14.1863 11.672 14.1863C11.7355 14.1863 11.7964 14.2141 11.8413 14.2635C11.8861 14.313 11.9114 14.3801 11.9114 14.45ZM11.7158 14.502L11.7149 14.4765C11.7148 14.4658 11.7126 14.4552 11.7085 14.4455C11.7044 14.4358 11.6985 14.4272 11.6912 14.4202C11.6839 14.4133 11.6754 14.4081 11.6661 14.4051C11.6569 14.4021 11.6472 14.4013 11.6377 14.4028C11.5577 14.4141 11.5594 14.4598 11.6429 14.5398C11.6921 14.5871 11.7164 14.5745 11.7158 14.502Z" fill="#FEFEFE"/>
<path d="M20.8285 14.4899C20.8285 14.5593 20.8035 14.6259 20.7589 14.675C20.7144 14.7242 20.6539 14.7517 20.5909 14.7517C20.5279 14.7517 20.4675 14.7242 20.4229 14.675C20.3784 14.6259 20.3533 14.5593 20.3533 14.4899C20.3533 14.4204 20.3784 14.3538 20.4229 14.3047C20.4675 14.2556 20.5279 14.228 20.5909 14.228C20.6539 14.228 20.7144 14.2556 20.7589 14.3047C20.8035 14.3538 20.8285 14.4204 20.8285 14.4899ZM20.6263 14.5691C20.6393 14.5554 20.6463 14.536 20.6457 14.5152C20.6452 14.4943 20.6372 14.4738 20.6235 14.458C20.6168 14.4503 20.6088 14.4439 20.6 14.4393C20.5913 14.4347 20.582 14.4319 20.5727 14.4312C20.5634 14.4305 20.5542 14.4318 20.5456 14.4351C20.5371 14.4384 20.5294 14.4436 20.523 14.4504C20.51 14.4641 20.503 14.4835 20.5035 14.5043C20.504 14.5251 20.512 14.5457 20.5257 14.5614C20.5325 14.5692 20.5405 14.5756 20.5492 14.5802C20.5579 14.5848 20.5672 14.5875 20.5766 14.5883C20.5859 14.589 20.5951 14.5876 20.6036 14.5844C20.6122 14.5811 20.6199 14.5759 20.6263 14.5691Z" fill="#FEFEFE"/>
<path d="M11.6429 14.5399C11.5594 14.4599 11.5577 14.4142 11.6378 14.4028C11.6473 14.4013 11.6569 14.4021 11.6662 14.4052C11.6754 14.4082 11.6839 14.4133 11.6912 14.4203C11.6985 14.4273 11.7044 14.4359 11.7085 14.4456C11.7126 14.4553 11.7148 14.4658 11.715 14.4766L11.7158 14.5021C11.7164 14.5746 11.6921 14.5872 11.6429 14.5399Z" fill="#EBD7B6"/>
<path d="M20.5257 14.5614C20.5542 14.5942 20.5992 14.5976 20.6262 14.5691C20.6532 14.5405 20.652 14.4908 20.6235 14.458C20.595 14.4253 20.5499 14.4218 20.5229 14.4504C20.4959 14.4789 20.4971 14.5286 20.5257 14.5614Z" fill="#EBD7B6"/>
<path d="M19.7092 17.8334C20.4731 18.4333 20.934 19.2492 21.0918 20.2808C20.8362 20.4857 20.5578 20.6454 20.2564 20.7601C20.2175 20.7752 20.1946 20.8058 20.1878 20.8518L20.1681 20.8386C20.163 20.835 20.1572 20.8328 20.1511 20.832C20.145 20.8311 20.1388 20.8318 20.1329 20.8339L18.5615 21.3519C16.91 21.6897 15.2589 21.6897 13.608 21.3519C13.0705 21.2208 12.5364 21.0185 12.0057 20.745L11.0742 20.3082C11.1611 19.1984 11.6197 18.3385 12.45 17.7284C13.2572 17.3229 13.6123 16.6328 14.0841 15.9172C14.8715 14.7242 16.7156 14.7346 17.6583 15.6714C17.9731 15.9843 18.2278 16.5449 18.4517 16.8616C18.7776 17.3229 19.1968 17.6468 19.7092 17.8334ZM15.881 17.3579C15.8999 17.7852 16.0251 18.5348 15.5234 18.6832C15.1214 18.8023 14.834 18.6725 14.6613 18.2937C14.6519 18.2732 14.6359 18.2571 14.6165 18.2486C14.5971 18.2401 14.5755 18.2396 14.5558 18.2474C14.5124 18.2644 14.4835 18.2985 14.4692 18.3495C14.3791 18.6709 14.9083 18.9564 15.1314 18.9838C15.4813 19.0267 15.7724 18.918 16.0045 18.6577C16.0125 18.6488 16.022 18.6418 16.0325 18.637C16.0429 18.6322 16.0541 18.6297 16.0655 18.6297C16.0768 18.6297 16.088 18.6322 16.0984 18.637C16.1089 18.6418 16.1184 18.6488 16.1263 18.6577C16.3877 18.9463 16.711 19.0579 17.0965 18.9923C17.3306 18.9517 17.7175 18.7135 17.6892 18.4053C17.6812 18.3221 17.6423 18.278 17.5725 18.273C17.5562 18.2715 17.5398 18.2755 17.5254 18.2844C17.5109 18.2933 17.499 18.3067 17.491 18.3231C17.3218 18.6766 17.0501 18.803 16.6762 18.7021C16.1109 18.5499 16.2284 17.7445 16.3211 17.2123C16.8589 16.9797 17.7664 15.9682 16.5698 15.6979C16.185 15.6109 15.7987 15.6282 15.411 15.7499C14.9804 15.8841 14.868 16.2783 15.1391 16.6555C15.3467 16.9438 15.67 17.1215 15.881 17.3579Z" fill="#F6F2DD"/>
<path d="M16.321 17.2124L15.881 17.3579C15.67 17.1216 15.3466 16.9439 15.139 16.6556C14.868 16.2784 14.9804 15.8842 15.4109 15.7499C15.7986 15.6283 16.1849 15.611 16.5698 15.6979C17.7663 15.9683 16.8588 16.9798 16.321 17.2124Z" fill="#171C26"/>
<path d="M12.45 17.7286C11.6197 18.3386 11.1611 19.1986 11.0742 20.3084C10.209 19.8382 9.5014 19.1686 8.95129 18.2996C9.06966 16.753 10.4558 15.8748 11.7278 16.5696C12.127 16.7877 12.3677 17.174 12.45 17.7286Z" fill="#FC7D8C"/>
<path d="M21.4066 16.3162C22.409 16.4416 23.0252 17.0677 23.255 18.1945C22.7106 19.092 21.9896 19.7874 21.0918 20.2809C20.934 19.2492 20.4731 18.4334 19.7091 17.8334C19.7812 16.7652 20.5325 16.3502 21.4066 16.3162Z" fill="#FC7D8C"/>
<path d="M16.321 17.2124C16.2284 17.7446 16.1109 18.55 16.6761 18.7022C17.0501 18.8031 17.3217 18.6767 17.491 18.3232C17.4989 18.3069 17.5109 18.2934 17.5253 18.2845C17.5398 18.2756 17.5562 18.2717 17.5725 18.2731C17.6422 18.2781 17.6811 18.3222 17.6891 18.4054C17.7174 18.7136 17.3306 18.9518 17.0964 18.9925C16.711 19.058 16.3876 18.9465 16.1263 18.6578C16.1183 18.649 16.1088 18.6419 16.0984 18.6371C16.0879 18.6323 16.0767 18.6298 16.0654 18.6298C16.0541 18.6298 16.0429 18.6323 16.0324 18.6371C16.022 18.6419 16.0125 18.649 16.0045 18.6578C15.7723 18.9181 15.4813 19.0268 15.1313 18.984C14.9083 18.9565 14.3791 18.671 14.4691 18.3496C14.4834 18.2986 14.5123 18.2646 14.5558 18.2475C14.5755 18.2398 14.597 18.2402 14.6165 18.2487C14.6359 18.2572 14.6518 18.2733 14.6613 18.2939C14.834 18.6726 15.1213 18.8024 15.5233 18.6833C16.0251 18.5349 15.8999 17.7853 15.881 17.358L16.321 17.2124Z" fill="#0F0B0C"/>
<path d="M12.0057 20.7451C12.5363 21.0186 13.0704 21.2209 13.6079 21.352C13.4032 21.5512 13.2388 21.785 13.1147 22.0535L13.0513 22.1357C12.5463 21.992 12.0529 21.8121 11.5708 21.5959C11.5576 21.5896 11.5462 21.5802 11.5365 21.5676C11.4622 21.4667 11.3664 21.4396 11.2491 21.4863C11.4516 21.1787 11.7038 20.9317 12.0057 20.7451Z" fill="#708E89"/>
<path d="M20.1878 20.852C20.4079 21.0259 20.6109 21.2364 20.7968 21.4835C20.3101 21.8528 19.776 22.1216 19.1945 22.2898L19.0967 22.1244C18.96 21.8106 18.7816 21.5531 18.5615 21.3521L20.1329 20.834C20.1388 20.832 20.145 20.8313 20.1511 20.8321C20.1571 20.8329 20.1629 20.8352 20.168 20.8388L20.1878 20.852Z" fill="#708E89"/>
<path d="M13.608 21.3521C15.2588 21.6898 16.91 21.6898 18.5614 21.3521C18.7816 21.5531 18.96 21.8105 19.0967 22.1244C17.3349 22.5586 15.5485 22.5977 13.7375 22.2416C13.4939 22.1937 13.2863 22.131 13.1147 22.0535C13.2388 21.785 13.4032 21.5512 13.608 21.3521Z" fill="#E5CDAB"/>
<path d="M13.0513 22.1357L12.836 22.6915L12.8112 22.7426C12.3417 22.6285 11.9065 22.4763 11.5057 22.286L11.0099 21.8445L11.2492 21.4862C11.3664 21.4396 11.4622 21.4667 11.5365 21.5675C11.5463 21.5801 11.5577 21.5896 11.5709 21.5959C12.0529 21.8121 12.5464 21.992 13.0513 22.1357Z" fill="#77A0A0"/>
<path d="M20.7967 21.4834C21.639 22.5163 22.0007 23.7415 21.8818 25.1588C21.8961 24.487 21.7514 23.8767 21.4478 23.3277C21.2693 23.0063 20.9537 22.7577 20.6929 22.4902C20.6836 22.4807 20.6723 22.4736 20.66 22.4693C20.6477 22.4651 20.6347 22.4638 20.6218 22.4656C20.2026 22.5318 19.8017 22.6647 19.4192 22.8645L19.3531 22.7199L19.1945 22.2898C19.776 22.1215 20.3101 21.8527 20.7967 21.4834Z" fill="#77A0A0"/>
<path d="M11.0099 21.8445L11.5056 22.286C11.2289 22.787 10.9492 23.2905 10.6668 23.7966C10.5781 23.956 10.5158 24.1158 10.4798 24.2759C10.4738 24.3042 10.364 25.1758 10.2233 24.8459C10.1947 23.7474 10.4569 22.747 11.0099 21.8445Z" fill="#7EB1AC"/>
<path d="M13.1148 22.0535C13.2863 22.131 13.4939 22.1937 13.7375 22.2416C15.5485 22.5977 17.3349 22.5586 19.0967 22.1244L19.1945 22.2898L19.3532 22.7199C17.1791 23.1749 15.0067 23.1655 12.836 22.6916L13.0513 22.1357L13.1148 22.0535Z" fill="#EEE0C0"/>
<path d="M11.5057 22.2859C11.9065 22.4762 12.3417 22.6284 12.8111 22.7425C12.5401 23.6405 12.4958 24.5421 12.6782 25.4471C12.7768 25.9349 13.0162 26.468 13.2057 26.9549C13.2692 27.2769 13.2678 27.5949 13.2014 27.9087L12.7537 27.9427C13.0733 27.5615 13.0919 27.171 12.8094 26.7715C12.7962 26.7527 12.7769 26.7401 12.7554 26.7365C12.2167 26.641 10.9164 26.4718 10.7611 27.2517C10.7582 27.2666 10.7586 27.2821 10.7623 27.2969C10.7661 27.3117 10.773 27.3254 10.7826 27.3368C10.9255 27.5069 11.041 27.6985 11.1291 27.9115C10.6368 27.9484 10.1864 27.5845 10.3022 27.0173C10.34 26.8339 10.4295 26.6401 10.5707 26.4359C10.5807 26.4213 10.5865 26.4038 10.5876 26.3853C10.5887 26.3669 10.5849 26.3483 10.5767 26.3319C10.356 25.8964 10.2382 25.4011 10.2233 24.8458C10.364 25.1758 10.4738 24.3042 10.4798 24.2758C10.5158 24.1157 10.5781 23.956 10.6668 23.7965C10.9493 23.2905 11.2289 22.7869 11.5057 22.2859Z" fill="#8AB5AD"/>
<path d="M21.8818 25.1589C21.8806 25.5477 21.796 25.9221 21.6279 26.2819C21.6202 26.2983 21.617 26.3167 21.6187 26.335C21.6203 26.3533 21.6268 26.3707 21.6373 26.385C21.7694 26.5636 21.9255 26.6922 21.953 26.9323C22.041 27.6886 21.6922 28.015 20.9065 27.9117C20.9734 27.7595 21.0909 27.7037 21.1536 27.6054C21.2616 27.4384 21.3074 27.2745 21.2908 27.1138C21.2196 26.4285 19.6602 26.6638 19.2073 26.782C19.1948 26.7852 19.1831 26.7916 19.1731 26.8006C19.1631 26.8096 19.1552 26.8211 19.1499 26.834C18.9955 27.1989 18.8471 27.7822 19.3917 27.837C19.3977 27.8376 19.4034 27.8395 19.4086 27.8426C19.4139 27.8457 19.4185 27.8499 19.4222 27.8551C19.4259 27.8602 19.4286 27.8661 19.4301 27.8724C19.4317 27.8787 19.432 27.8853 19.4312 27.8918C19.4283 27.9107 19.4172 27.9262 19.3977 27.9381C19.2862 27.964 19.1767 27.9482 19.0692 27.8909C18.8605 27.635 18.8259 27.3369 18.9654 26.9966C19.1893 26.3982 19.4629 25.7809 19.5504 25.1749C19.6619 24.4023 19.6182 23.6322 19.4192 22.8646C19.8017 22.6648 20.2026 22.5318 20.6218 22.4656C20.6347 22.4638 20.6477 22.4651 20.66 22.4694C20.6723 22.4736 20.6836 22.4807 20.6929 22.4902C20.9537 22.7577 21.2694 23.0064 21.4478 23.3278C21.7514 23.8767 21.8961 24.4871 21.8818 25.1589Z" fill="#8AB5AD"/>
<path d="M12.836 22.6914C15.0067 23.1653 17.1791 23.1748 19.3532 22.7198L19.4192 22.8644C19.6182 23.632 19.662 24.4021 19.5505 25.1748C19.463 25.7807 19.1893 26.398 18.9655 26.9964C18.7888 26.9463 18.3633 27.1118 18.0305 27.1458C16.4145 27.3147 14.8063 27.2511 13.2057 26.9548C13.0161 26.468 12.7768 25.9348 12.6782 25.447C12.4958 24.542 12.5401 23.6405 12.8111 22.7425L12.836 22.6914Z" fill="#F6F2DD"/>
<path d="M20.9065 27.9117L20.7736 27.8947C20.8302 27.6678 20.8462 27.44 20.8216 27.2112C20.8104 27.1063 20.735 27.1394 20.7496 27.2367C20.7884 27.5002 20.7238 27.7261 20.5557 27.9145C20.3264 28.0047 20.1197 28.0236 19.9356 27.9713C19.8664 27.7274 19.8255 27.4873 19.8129 27.2509C19.8083 27.1614 19.782 27.1526 19.734 27.2245C19.7082 27.2635 19.6968 27.3143 19.6997 27.3767C19.7105 27.5821 19.7554 27.7806 19.8343 27.9722L19.3977 27.9382C19.4172 27.9262 19.4283 27.9108 19.4312 27.8919C19.432 27.8854 19.4317 27.8788 19.4301 27.8725C19.4286 27.8661 19.4259 27.8602 19.4222 27.8551C19.4185 27.85 19.4139 27.8457 19.4086 27.8426C19.4034 27.8395 19.3977 27.8376 19.3917 27.837C18.8471 27.7822 18.9955 27.1989 19.1499 26.834C19.1552 26.8211 19.1631 26.8097 19.1731 26.8007C19.1831 26.7916 19.1948 26.7853 19.2073 26.782C19.6602 26.6639 21.2196 26.4285 21.2908 27.1139C21.3074 27.2746 21.2616 27.4384 21.1535 27.6054C21.0909 27.7037 20.9734 27.7595 20.9065 27.9117Z" fill="#9BC8C0"/>
<path d="M12.7537 27.9428C12.6439 27.9768 12.5355 27.9752 12.4286 27.9381C12.4423 27.8312 12.5041 27.1837 12.3857 27.1648C12.3806 27.164 12.3754 27.1644 12.3705 27.166C12.3655 27.1676 12.361 27.1704 12.3571 27.1742C12.3533 27.178 12.3502 27.1827 12.3482 27.1879C12.3462 27.1932 12.3452 27.1988 12.3454 27.2045C12.3488 27.3416 12.2605 27.9107 12.3214 27.9693H11.6137C11.6543 27.9667 11.6632 27.9563 11.6403 27.9381C11.4145 27.7616 11.3255 27.5171 11.3736 27.2045C11.3942 27.0712 11.2955 27.1714 11.293 27.2253C11.2832 27.4585 11.3247 27.6816 11.4173 27.8946L11.1291 27.9116C11.0411 27.6986 10.9256 27.507 10.7826 27.3368C10.773 27.3255 10.7661 27.3118 10.7624 27.297C10.7586 27.2822 10.7582 27.2667 10.7611 27.2518C10.9164 26.4719 12.2167 26.6411 12.7554 26.7366C12.7769 26.7402 12.7962 26.7527 12.8094 26.7715C13.0919 27.1711 13.0733 27.5615 12.7537 27.9428Z" fill="#A2CDC6"/>
<path d="M18.9655 26.9967C18.8259 27.337 18.8605 27.6351 19.0693 27.891L13.2014 27.9089C13.2677 27.5951 13.2692 27.2771 13.2057 26.9551C14.8063 27.2513 16.4145 27.3149 18.0305 27.146C18.3633 27.112 18.7888 26.9466 18.9655 26.9967Z" fill="#EBD7B6"/>
<path d="M11.6137 27.9692L11.4173 27.8945C11.3247 27.6815 11.2832 27.4584 11.2929 27.2252C11.2955 27.1713 11.3942 27.0711 11.3736 27.2044C11.3255 27.517 11.4145 27.7615 11.6403 27.938C11.6632 27.9563 11.6543 27.9667 11.6137 27.9692Z" fill="#527176"/>
<path d="M20.7736 27.8946C20.7044 27.9469 20.6318 27.9535 20.5557 27.9145C20.7238 27.726 20.7885 27.5001 20.7496 27.2367C20.735 27.1393 20.8105 27.1062 20.8216 27.2111C20.8462 27.4399 20.8302 27.6677 20.7736 27.8946Z" fill="#5A8C79"/>
<path d="M12.4286 27.938L12.3213 27.9692C12.2604 27.9106 12.3488 27.3415 12.3454 27.2044C12.3452 27.1987 12.3461 27.1931 12.3482 27.1879C12.3502 27.1826 12.3532 27.178 12.3571 27.1742C12.3609 27.1704 12.3655 27.1676 12.3704 27.1659C12.3754 27.1643 12.3806 27.1639 12.3857 27.1647C12.504 27.1836 12.4423 27.8312 12.4286 27.938Z" fill="#527176"/>
<path d="M19.9356 27.9711C19.8921 27.9597 19.8584 27.96 19.8344 27.972C19.7555 27.7804 19.7106 27.5819 19.6997 27.3765C19.6968 27.3141 19.7083 27.2633 19.734 27.2243C19.782 27.1524 19.8084 27.1612 19.8129 27.2507C19.8255 27.4871 19.8664 27.7272 19.9356 27.9711Z" fill="#5A8C79"/>
</g>
<defs>
<clipPath id="clip0_55889_43499">
<rect width="24" height="24" fill="white" transform="translate(4 4)"/>
</clipPath>
</defs>
</svg>
