<svg width="32" height="32" viewBox="0 0 32 32" fill="none" xmlns="http://www.w3.org/2000/svg">
<path d="M0 16C0 7.16344 7.16344 0 16 0C24.8366 0 32 7.16344 32 16C32 24.8366 24.8366 32 16 32C7.16344 32 0 24.8366 0 16Z" fill="#FFF3D6"/>
<g clip-path="url(#clip0_55889_43546)">
<path d="M17.2926 4.08721L17.1775 6.22138C17.1766 6.2387 17.1827 6.25569 17.1946 6.26871C17.2064 6.28173 17.2231 6.28976 17.2409 6.29109C17.2818 6.29456 17.3126 6.27271 17.3334 6.22554C17.7485 5.29321 18.0518 4.6387 18.2432 4.26203L18.9605 4.45869L18.568 5.93835C18.4949 6.21375 18.5561 6.24566 18.7519 6.03408L19.8972 4.79583C20.1402 4.84647 20.3564 4.937 20.5457 5.06741C20.3449 5.58214 20.1391 6.09547 19.9284 6.60742C19.8968 6.68373 19.9298 6.72119 20.0273 6.7198C20.0511 6.71911 20.074 6.71149 20.0929 6.69795C20.5661 6.33931 21.0052 5.94459 21.4103 5.51381C21.9731 5.81418 22.4706 6.18565 22.9029 6.62823C22.9128 6.63826 22.9246 6.6463 22.9376 6.65189C22.9507 6.65748 22.9647 6.66052 22.9789 6.66081C22.9932 6.6611 23.0073 6.65864 23.0204 6.65359C23.0336 6.64853 23.0456 6.64097 23.0556 6.63135C23.5195 6.19293 24.0461 5.92031 24.6354 5.81348C26.7927 5.42328 28.5477 7.42633 27.8412 9.41273C27.601 10.087 27.1271 10.6212 26.4195 11.0152C26.403 11.0249 26.3851 11.0297 26.3657 11.0297C26.2948 11.0297 26.2367 11.0519 26.1915 11.0963C26.1766 11.1112 26.1664 11.1299 26.1624 11.1501C26.1584 11.1703 26.1607 11.191 26.1689 11.2098C26.3769 11.6898 26.5174 12.1844 26.5905 12.6936C25.8542 12.9058 25.1201 13.1264 24.3881 13.3554C23.8192 13.5343 24.0407 13.834 24.4988 13.8371C25.2574 13.8427 26.0184 13.8371 26.7819 13.8205C26.8257 14.3616 26.8156 14.8877 26.7518 15.399C26.1618 15.3817 25.5886 15.442 25.0322 15.58C25.014 15.5845 24.9974 15.5935 24.9839 15.6062C24.9705 15.6189 24.9607 15.6348 24.9556 15.6524C24.9505 15.67 24.9502 15.6886 24.9548 15.7064C24.9594 15.7242 24.9686 15.7405 24.9817 15.7538C25.3032 16.0743 26.1001 16.194 26.541 16.3136L26.5679 16.4177L24.0095 17.1357C23.9938 17.14 23.9802 17.1496 23.9712 17.1628C23.9621 17.1759 23.9582 17.1918 23.9601 17.2075L23.9644 17.246L23.9375 17.272C23.9429 17.145 23.8805 17.0743 23.8751 16.9588C23.807 15.5409 23.6819 14.1285 23.4998 12.7217C23.3636 11.6707 22.8477 10.8515 21.9523 10.2639C22.29 9.85913 22.6427 9.48245 22.5857 9.02045C22.5829 8.99708 22.5721 8.97531 22.5549 8.95868C22.5377 8.94206 22.5152 8.93155 22.4911 8.92888C21.8415 8.85916 21.136 9.37319 20.6736 9.76652C19.5731 9.71102 18.6931 10.1009 18.0335 10.9361C17.1388 12.0682 16.9237 13.3096 16.9775 14.731C16.9789 14.7551 16.9708 14.7791 16.9549 14.7986L16.9119 14.8527C16.3383 14.4719 15.7049 14.2551 15.0116 14.2024L14.7492 12.6915C15.2647 13.005 15.8795 13.2565 16.5935 13.4459C16.6192 13.4527 16.6466 13.45 16.6703 13.4382C16.694 13.4265 16.7122 13.4066 16.7215 13.3824C16.8441 13.0716 16.8968 12.7185 16.8796 12.3231C16.8538 11.7082 16.1677 11.5542 15.6698 11.7654C15.2912 11.925 14.9697 12.1671 14.7051 12.4917C14.1997 11.2722 13.5587 10.2753 12.1295 10.0995C10.168 9.85705 8.90655 11.5583 8.61404 13.1951C8.4133 14.3134 8.3079 15.5599 8.29787 16.9348C8.29715 16.9674 8.2588 17.0538 8.1828 17.1939C8.16416 17.1308 8.09927 17.0902 7.98815 17.0722C7.64904 17.0181 6.79983 16.8436 5.44052 16.5488C5.50863 16.5939 5.55344 16.5835 5.57495 16.5176C6.14706 16.5883 7.15902 16.4458 7.48271 15.9099C7.49148 15.8953 7.49646 15.8789 7.49723 15.8621C7.498 15.8453 7.49454 15.8285 7.48714 15.8133C7.47973 15.798 7.46861 15.7847 7.45473 15.7746C7.44084 15.7644 7.42461 15.7576 7.40743 15.7549C6.71057 15.6446 6.01049 15.7653 5.29427 15.7913C5.18314 15.3598 5.1498 14.921 5.19425 14.475C5.94488 14.3356 6.64927 14.0837 7.30742 13.7196C7.53218 13.5947 7.4171 13.4417 7.20417 13.4386C6.5532 13.4282 5.90259 13.4053 5.25233 13.3699C5.35628 12.6284 5.5416 11.9035 5.8083 11.1952C5.81698 11.1719 5.81688 11.1464 5.80803 11.1232C5.79917 11.1 5.78214 11.0805 5.75991 11.0682C5.35915 10.8539 5.09639 10.6878 4.97165 10.5698C2.05838 7.81237 6.37182 3.88431 9.04528 6.72812C9.05484 6.73829 9.06639 6.74653 9.07927 6.75236C9.09214 6.75818 9.10608 6.76148 9.12028 6.76206C9.13448 6.76264 9.14866 6.7605 9.162 6.75574C9.17533 6.75099 9.18756 6.74372 9.19798 6.73436C9.76866 6.21687 10.3953 5.77533 11.0778 5.40975C11.4384 5.88979 11.8119 6.35873 12.1984 6.81657C12.2446 6.86964 12.5102 7.13185 12.4124 6.79368C12.236 6.18322 12.0614 5.57312 11.8886 4.96336L12.507 4.71154L13.0985 5.51172C13.2096 5.66225 13.2745 5.64526 13.2931 5.46074C13.3268 5.12221 13.3143 4.78438 13.2555 4.44725L13.8513 4.26931C14.1101 4.66888 14.3667 5.0688 14.6213 5.46906C14.6822 5.56479 14.737 5.58005 14.7858 5.51485C14.7976 5.49875 14.8029 5.47878 14.8008 5.45865L14.6761 4.22769C14.6741 4.20963 14.6673 4.19236 14.6564 4.17759C14.6455 4.16282 14.6308 4.15104 14.6137 4.14341C14.5786 4.12815 14.5395 4.12399 14.4965 4.13092C14.8184 4.03103 15.15 3.99044 15.4912 4.00917C15.5009 4.15069 15.6031 5.30778 15.7924 5.24534C15.805 5.24112 15.8165 5.23412 15.8258 5.22491C15.8352 5.21569 15.8421 5.20451 15.8461 5.19227L16.244 4.00917C16.5968 3.9842 16.9463 4.01021 17.2926 4.08721ZM25.5785 9.59171C25.828 9.50742 25.9872 9.29619 26.1496 9.06415C26.7916 8.14639 25.7592 7.03404 24.6784 7.45338C24.5078 7.51929 24.3422 7.59768 24.1816 7.68855C24.1673 7.69666 24.1551 7.70782 24.146 7.72116C24.1369 7.73451 24.1311 7.74968 24.129 7.76549C24.1269 7.7813 24.1286 7.79732 24.134 7.81231C24.1394 7.8273 24.1483 7.84085 24.1601 7.85191C24.6806 8.34929 25.1097 8.91258 25.4473 9.54176C25.4593 9.56398 25.4792 9.58126 25.5033 9.59044C25.5274 9.59961 25.5541 9.60006 25.5785 9.59171ZM7.88599 7.65421C7.72253 7.58623 7.55764 7.52137 7.39131 7.45963C6.21696 7.02364 5.19532 8.31079 6.03629 9.25353C6.15315 9.38464 6.27611 9.4939 6.40516 9.5813C6.41719 9.58943 6.4308 9.5951 6.44514 9.59799C6.45949 9.60087 6.47428 9.6009 6.48858 9.59807C6.50289 9.59524 6.51642 9.58962 6.52833 9.58155C6.54025 9.57348 6.5503 9.56312 6.55787 9.55112C6.95362 8.93026 7.40815 8.35345 7.92147 7.82069C7.93324 7.80854 7.94181 7.79382 7.94648 7.77779C7.95115 7.76175 7.95177 7.74487 7.94829 7.72856C7.94482 7.71225 7.93734 7.69698 7.9265 7.68404C7.91566 7.6711 7.90177 7.66087 7.88599 7.65421ZM18.6497 9.70409C18.6665 9.72195 18.6893 9.73359 18.714 9.737C18.7387 9.74042 18.7639 9.7354 18.7852 9.72282L19.6928 9.19317C19.7059 9.18548 19.7171 9.17518 19.7258 9.16296C19.7344 9.15073 19.7402 9.13687 19.7429 9.1223C19.7455 9.10772 19.7449 9.09277 19.7411 9.07844C19.7373 9.0641 19.7304 9.05072 19.7208 9.03918C18.996 8.15991 18.0529 9.07247 18.6497 9.70409ZM9.61416 9.80086C9.9461 10.0853 10.2178 10.1394 10.4293 9.96318C10.7183 9.72178 10.9215 9.45089 11.0391 9.15052C11.0452 9.13458 11.0473 9.11743 11.045 9.10056C11.0427 9.0837 11.0362 9.06763 11.026 9.05376C11.0158 9.0399 11.0023 9.02867 10.9865 9.02104C10.9708 9.01342 10.9534 9.00964 10.9358 9.01004C10.3759 9.02322 9.93033 9.23966 9.5991 9.65934C9.58268 9.68024 9.57511 9.70643 9.5779 9.73268C9.58069 9.75892 9.59364 9.78328 9.61416 9.80086Z" fill="#FFD381"/>
<path d="M15.4912 4.00928H16.244L15.8461 5.19238C15.8421 5.20462 15.8351 5.21579 15.8258 5.22501C15.8165 5.23422 15.805 5.24122 15.7923 5.24545C15.6031 5.30788 15.5009 4.15079 15.4912 4.00928Z" fill="#D26B01"/>
<path d="M17.2925 4.08716L18.2432 4.26197C18.0517 4.63865 17.7485 5.29316 17.3334 6.22549C17.3126 6.27266 17.2818 6.2945 17.2409 6.29103C17.223 6.2897 17.2064 6.28167 17.1945 6.26865C17.1827 6.25563 17.1766 6.23865 17.1775 6.22132L17.2925 4.08716Z" fill="#D87504"/>
<path d="M14.4965 4.13094C14.5395 4.124 14.5786 4.12816 14.6137 4.14342C14.6308 4.15106 14.6455 4.16283 14.6564 4.1776C14.6673 4.19238 14.6741 4.20964 14.6761 4.22771L14.8008 5.45867C14.8029 5.4788 14.7976 5.49876 14.7858 5.51486C14.737 5.58007 14.6822 5.56481 14.6213 5.46908C14.3667 5.06881 14.1101 4.6689 13.8513 4.26933L14.4965 4.13094Z" fill="#D26B01"/>
<path d="M13.2554 4.44727C13.3142 4.7844 13.3268 5.12223 13.2931 5.46076C13.2744 5.64528 13.2096 5.66227 13.0984 5.51174L12.507 4.71156C12.7428 4.58531 12.9923 4.49721 13.2554 4.44727Z" fill="#D87504"/>
<path d="M18.9605 4.45874C19.3218 4.5406 19.6341 4.65297 19.8972 4.79588L18.7519 6.03413C18.5562 6.24571 18.4949 6.2138 18.568 5.9384L18.9605 4.45874Z" fill="#D97211"/>
<path d="M11.8886 4.96338C12.0614 5.57314 12.236 6.18324 12.4123 6.7937C12.5102 7.13187 12.2446 6.86966 12.1983 6.81659C11.8119 6.35875 11.4384 5.88981 11.0778 5.40977L11.8886 4.96338Z" fill="#D87504"/>
<path d="M20.5457 5.06738C20.8539 5.18046 21.1422 5.32925 21.4103 5.51377C21.0052 5.94456 20.5661 6.33928 20.0929 6.69792C20.074 6.71145 20.0511 6.71908 20.0273 6.71977C19.9298 6.72116 19.8968 6.6837 19.9284 6.60739C20.1392 6.09544 20.3449 5.58211 20.5457 5.06738Z" fill="#D26B01"/>
<path d="M25.5786 9.59177C25.5542 9.60013 25.5275 9.59967 25.5033 9.5905C25.4792 9.58132 25.4594 9.56404 25.4474 9.54182C25.1097 8.91264 24.6806 8.34935 24.1601 7.85197C24.1484 7.84091 24.1395 7.82736 24.1341 7.81237C24.1287 7.79738 24.1269 7.78136 24.129 7.76555C24.1311 7.74974 24.1369 7.73457 24.1461 7.72122C24.1552 7.70788 24.1674 7.69672 24.1816 7.68861C24.3422 7.59774 24.5079 7.51935 24.6785 7.45345C25.7593 7.03411 26.7916 8.14645 26.1496 9.06421C25.9872 9.29625 25.8281 9.50748 25.5786 9.59177Z" fill="#F7A191"/>
<path d="M7.88595 7.65414C7.90173 7.6608 7.91562 7.67103 7.92647 7.68397C7.93731 7.69691 7.94478 7.71218 7.94826 7.72849C7.95174 7.7448 7.95111 7.76168 7.94645 7.77772C7.94178 7.79375 7.9332 7.80846 7.92144 7.82062C7.40811 8.35338 6.95358 8.93019 6.55783 9.55105C6.55026 9.56305 6.54021 9.57341 6.5283 9.58148C6.51638 9.58955 6.50285 9.59517 6.48855 9.598C6.47424 9.60082 6.45945 9.6008 6.44511 9.59792C6.43076 9.59503 6.41716 9.58935 6.40512 9.58123C6.27607 9.49383 6.15311 9.38457 6.03625 9.25346C5.19528 8.31072 6.21693 7.02357 7.39127 7.45956C7.5576 7.5213 7.72249 7.58616 7.88595 7.65414Z" fill="#F7A191"/>
<path d="M18.6497 9.70401C18.0529 9.0724 18.996 8.15984 19.7208 9.0391C19.7304 9.05064 19.7373 9.06403 19.7411 9.07836C19.7449 9.0927 19.7455 9.10765 19.7429 9.12222C19.7402 9.1368 19.7344 9.15066 19.7258 9.16288C19.7172 9.1751 19.7059 9.1854 19.6929 9.1931L18.7852 9.72274C18.7639 9.73533 18.7387 9.74035 18.714 9.73693C18.6893 9.73351 18.6666 9.72187 18.6497 9.70401Z" fill="#D26B01"/>
<path d="M21.9522 10.2638C21.5543 10.0612 21.1281 9.89543 20.6736 9.7664C21.136 9.37308 21.8415 8.85905 22.491 8.92877C22.5152 8.93144 22.5377 8.94194 22.5549 8.95857C22.572 8.9752 22.5829 8.99697 22.5857 9.02034C22.6427 9.48234 22.2899 9.85902 21.9522 10.2638Z" fill="#D26B01"/>
<path d="M9.61416 9.80086C9.59364 9.78328 9.58069 9.75892 9.5779 9.73268C9.57511 9.70643 9.58268 9.68024 9.5991 9.65934C9.93033 9.23966 10.3759 9.02322 10.9358 9.01004C10.9534 9.00964 10.9708 9.01342 10.9865 9.02104C11.0022 9.02867 11.0158 9.0399 11.026 9.05376C11.0362 9.06763 11.0427 9.0837 11.045 9.10057C11.0473 9.11743 11.0452 9.13458 11.0391 9.15052C10.9215 9.45089 10.7182 9.72178 10.4293 9.96318C10.2178 10.1394 9.9461 10.0853 9.61416 9.80086Z" fill="#D26B01"/>
<path d="M20.6736 9.76642C21.1281 9.89544 21.5543 10.0612 21.9522 10.2638C22.8477 10.8514 23.3635 11.6706 23.4998 12.7216C23.6819 14.1284 23.807 15.5408 23.8751 16.9587C23.8805 17.0742 23.9428 17.1449 23.9375 17.2719C24.0077 17.6652 23.9923 18.0568 23.8912 18.4467C23.6933 16.4956 21.2006 15.8432 19.9606 17.3562C18.8562 18.7026 19.8724 20.4497 21.5135 20.6578C21.6318 20.6786 21.6318 20.7192 21.5135 20.7796L19.6799 21.1625C17.4431 21.5093 15.1955 21.5579 12.9371 21.3082L10.3615 20.8076C10.2476 20.8465 10.2099 20.8226 10.2486 20.7359C10.8982 20.6183 11.6348 20.3602 12.022 19.8212C12.8178 18.713 12.4554 17.2386 11.1369 16.7235C9.98623 16.2729 8.50754 16.7318 8.17417 18.0003C8.02935 18.0204 7.98813 17.9618 8.05051 17.8244C8.14801 17.6107 8.18922 17.4179 8.17417 17.2459L8.18278 17.1938C8.25877 17.0537 8.29712 16.9673 8.29784 16.9347C8.30788 15.5598 8.41328 14.3133 8.61402 13.195C8.90653 11.5582 10.168 9.85695 12.1295 10.0994C13.5587 10.2752 14.1997 11.2721 14.7051 12.4916C14.7503 12.5547 14.765 12.6213 14.7492 12.6914L15.0116 14.2023C14.9162 14.5255 14.9162 14.8464 15.0116 15.1648L15.1503 16.3427C14.9116 16.3697 14.7234 16.4852 14.5857 16.6892C14.5725 16.7087 14.5664 16.7322 14.5685 16.7558C14.6352 17.4269 15.2288 17.6954 15.8311 17.8192C15.8533 17.8237 15.8735 17.8349 15.8887 17.8511C15.904 17.8674 15.9135 17.8879 15.916 17.9097C15.9648 18.344 15.9612 18.7234 15.9053 19.0481C15.745 19.9763 14.4933 19.8379 14.4492 18.9773C14.4481 18.9507 14.4363 18.9256 14.4165 18.9072C14.3966 18.8887 14.3702 18.8785 14.3427 18.8785C14.2997 18.8778 14.2671 18.8976 14.2448 18.9378C14.0631 19.2593 14.6191 19.7671 14.8761 19.8399C15.3823 19.9849 15.7504 19.8479 15.9805 19.4289C16.0393 19.3221 16.1013 19.32 16.1666 19.4227C16.2777 19.5961 16.3766 19.7016 16.4634 19.739C17.0083 19.9756 17.451 19.8885 17.7915 19.4778C17.8722 19.3811 18.0141 19.0366 17.9023 18.9118C17.8908 18.8993 17.8786 18.8882 17.8657 18.8785C17.7847 18.8188 17.7388 18.8382 17.7281 18.9367C17.6693 19.5056 17.3667 19.7425 16.8204 19.6474C16.058 19.5143 16.1773 18.4196 16.1967 17.8868C16.1976 17.8617 16.2076 17.8377 16.225 17.8193C16.2424 17.801 16.266 17.7895 16.2913 17.7869C16.867 17.7231 17.2556 17.4366 17.4571 16.9275C17.4641 16.9084 17.4656 16.8879 17.4614 16.8681C17.3875 16.5414 17.1699 16.3624 16.8086 16.3312L16.8849 15.607L17.0151 15.0586C17.0184 15.0445 17.0187 15.03 17.016 15.0158C17.0132 15.0016 17.0074 14.9882 16.9989 14.9764L16.9118 14.8526L16.9548 14.7985C16.9708 14.779 16.9788 14.755 16.9774 14.7309C16.9237 13.3095 17.1387 12.0681 18.0335 10.936C18.6931 10.1008 19.5731 9.71092 20.6736 9.76642ZM12.3902 14.7427C12.4201 14.5535 12.41 14.3602 12.3605 14.174C12.311 13.9877 12.2231 13.8121 12.1017 13.6572C11.9804 13.5023 11.8279 13.3711 11.6531 13.2711C11.4784 13.1711 11.2846 13.1043 11.0831 13.0744C10.8815 13.0446 10.676 13.0523 10.4783 13.0972C10.2806 13.142 10.0946 13.2231 9.93088 13.3358C9.76717 13.4485 9.62898 13.5906 9.52419 13.754C9.41939 13.9174 9.35006 14.099 9.32013 14.2882C9.2902 14.4774 9.30028 14.6707 9.34977 14.857C9.39927 15.0432 9.48721 15.2188 9.60858 15.3737C9.72996 15.5286 9.88239 15.6598 10.0572 15.7598C10.232 15.8598 10.4257 15.9267 10.6273 15.9565C10.8288 15.9864 11.0343 15.9786 11.232 15.9338C11.4297 15.8889 11.6157 15.8079 11.7794 15.6951C11.9431 15.5824 12.0813 15.4403 12.1861 15.2769C12.2909 15.1135 12.3603 14.932 12.3902 14.7427ZM22.6903 14.6529C22.7223 14.2681 22.5881 13.8862 22.3172 13.5912C22.0464 13.2962 21.661 13.1124 21.2459 13.08C21.0404 13.064 20.8338 13.0857 20.6378 13.1439C20.4419 13.202 20.2605 13.2955 20.1039 13.4189C19.9474 13.5423 19.8188 13.6933 19.7255 13.8632C19.6322 14.0332 19.5761 14.2187 19.5602 14.4092C19.5282 14.7941 19.6624 15.176 19.9333 15.471C20.2042 15.7659 20.5895 15.9498 21.0046 15.9821C21.2101 15.9981 21.4168 15.9764 21.6127 15.9183C21.8087 15.8601 21.9901 15.7667 22.1466 15.6433C22.3031 15.5198 22.4317 15.3689 22.525 15.1989C22.6183 15.029 22.6745 14.8435 22.6903 14.6529Z" fill="#FEF9DA"/>
<path d="M14.7492 12.6915C14.7649 12.6215 14.7502 12.5549 14.7051 12.4918C14.9696 12.1671 15.2912 11.925 15.6697 11.7655C16.1676 11.5542 16.8537 11.7082 16.8796 12.3232C16.8968 12.7186 16.8441 13.0717 16.7215 13.3825C16.7122 13.4066 16.6939 13.4265 16.6702 13.4383C16.6465 13.45 16.6192 13.4527 16.5935 13.4459C15.8794 13.2566 15.2647 13.0051 14.7492 12.6915Z" fill="#D26B01"/>
<path d="M26.5905 12.6936C26.7145 13.0724 26.7783 13.448 26.7819 13.8205C26.0184 13.8372 25.2574 13.8427 24.4988 13.8372C24.0407 13.834 23.8192 13.5344 24.3881 13.3554C25.1201 13.1265 25.8542 12.9059 26.5905 12.6936Z" fill="#D26B01"/>
<path d="M12.3902 14.7428C12.3603 14.932 12.2909 15.1135 12.1861 15.2769C12.0814 15.4403 11.9432 15.5825 11.7795 15.6952C11.6158 15.8079 11.4298 15.889 11.2321 15.9338C11.0344 15.9786 10.8289 15.9864 10.6273 15.9565C10.4257 15.9267 10.232 15.8598 10.0572 15.7598C9.88243 15.6599 9.73 15.5287 9.60862 15.3737C9.48724 15.2188 9.3993 15.0432 9.34981 14.857C9.30032 14.6707 9.29024 14.4774 9.32017 14.2882C9.35009 14.099 9.41943 13.9175 9.52422 13.754C9.62901 13.5906 9.76721 13.4485 9.93091 13.3358C10.0946 13.2231 10.2806 13.142 10.4783 13.0972C10.676 13.0523 10.8815 13.0446 11.0831 13.0745C11.2847 13.1043 11.4784 13.1711 11.6532 13.2711C11.828 13.3711 11.9804 13.5023 12.1018 13.6572C12.2231 13.8121 12.3111 13.9877 12.3606 14.174C12.4101 14.3603 12.4201 14.5535 12.3902 14.7428ZM11.7026 14.2678C11.7026 14.1748 11.6644 14.0856 11.5965 14.0199C11.5285 13.9541 11.4363 13.9172 11.3402 13.9172C11.2926 13.9172 11.2455 13.9262 11.2015 13.9439C11.1575 13.9615 11.1176 13.9873 11.0839 14.0199C11.0503 14.0524 11.0236 14.0911 11.0054 14.1336C10.9872 14.1762 10.9778 14.2218 10.9778 14.2678C10.9778 14.3139 10.9872 14.3595 11.0054 14.402C11.0236 14.4446 11.0503 14.4832 11.0839 14.5158C11.1176 14.5484 11.1575 14.5742 11.2015 14.5918C11.2455 14.6094 11.2926 14.6185 11.3402 14.6185C11.4363 14.6185 11.5285 14.5816 11.5965 14.5158C11.6644 14.45 11.7026 14.3608 11.7026 14.2678Z" fill="#1C181B"/>
<path d="M22.6903 14.6529C22.6745 14.8435 22.6183 15.029 22.525 15.1989C22.4317 15.3689 22.3031 15.5199 22.1466 15.6433C21.9901 15.7667 21.8087 15.8602 21.6127 15.9183C21.4168 15.9764 21.2101 15.9981 21.0046 15.9821C20.5895 15.9498 20.2042 15.7659 19.9333 15.471C19.6624 15.176 19.5283 14.7941 19.5603 14.4092C19.5761 14.2187 19.6323 14.0332 19.7256 13.8632C19.8188 13.6933 19.9474 13.5423 20.104 13.4189C20.2605 13.2955 20.4419 13.202 20.6378 13.1439C20.8338 13.0857 21.0404 13.0641 21.2459 13.0801C21.661 13.1124 22.0464 13.2962 22.3172 13.5912C22.5881 13.8862 22.7223 14.2681 22.6903 14.6529ZM21.7888 14.273C21.7888 14.1803 21.7507 14.0914 21.683 14.0258C21.6152 13.9602 21.5233 13.9234 21.4275 13.9234C21.3316 13.9234 21.2397 13.9602 21.172 14.0258C21.1042 14.0914 21.0661 14.1803 21.0661 14.273C21.0661 14.3658 21.1042 14.4547 21.172 14.5203C21.2397 14.5858 21.3316 14.6227 21.4275 14.6227C21.5233 14.6227 21.6152 14.5858 21.683 14.5203C21.7507 14.4547 21.7888 14.3658 21.7888 14.273Z" fill="#1C181B"/>
<path d="M5.25235 13.3699C5.90261 13.4053 6.55322 13.4281 7.20419 13.4385C7.41712 13.4417 7.5322 13.5946 7.30744 13.7195C6.64929 14.0837 5.9449 14.3355 5.19427 14.4749C5.13691 14.1024 5.15628 13.7341 5.25235 13.3699Z" fill="#CD680C"/>
<path d="M11.3402 14.6186C11.5403 14.6186 11.7026 14.4616 11.7026 14.2679C11.7026 14.0742 11.5403 13.9172 11.3402 13.9172C11.14 13.9172 10.9778 14.0742 10.9778 14.2679C10.9778 14.4616 11.14 14.6186 11.3402 14.6186Z" fill="#F8F6F5"/>
<path d="M21.4275 14.6228C21.6271 14.6228 21.7888 14.4663 21.7888 14.2732C21.7888 14.0801 21.6271 13.9236 21.4275 13.9236C21.2279 13.9236 21.0662 14.0801 21.0662 14.2732C21.0662 14.4663 21.2279 14.6228 21.4275 14.6228Z" fill="#F8F6F5"/>
<path d="M15.0116 14.2024C15.7049 14.2551 16.3383 14.4719 16.9118 14.8527L16.9989 14.9766C17.0074 14.9884 17.0132 15.0018 17.0159 15.0159C17.0187 15.0301 17.0184 15.0447 17.0151 15.0588L16.8849 15.6071C16.2454 15.519 15.621 15.3716 15.0116 15.1649C14.9162 14.8465 14.9162 14.5257 15.0116 14.2024Z" fill="#D26B01"/>
<path d="M15.0116 15.1648C15.621 15.3715 16.2454 15.5189 16.8849 15.607L16.8086 16.3312C16.2716 16.291 15.7188 16.2948 15.1503 16.3427L15.0116 15.1648Z" fill="#FFD381"/>
<path d="M26.7518 15.3989C26.7425 15.4801 26.7482 15.5595 26.769 15.6372C26.7725 15.6508 26.7789 15.6636 26.7878 15.6748C26.7967 15.6859 26.8079 15.6952 26.8207 15.702C26.8335 15.7089 26.8476 15.7131 26.8622 15.7145C26.8768 15.7158 26.8916 15.7143 26.9056 15.71C26.9981 15.6816 27.0952 15.6736 27.197 15.6861C27.3547 15.7055 27.3737 15.7659 27.254 15.8671C27.1293 15.974 26.9991 16.0333 26.8636 16.0451C26.8464 15.6934 26.812 15.6948 26.7604 16.0492C26.7296 16.1734 26.6564 16.2615 26.541 16.3135C26.1001 16.1939 25.3032 16.0742 24.9817 15.7537C24.9686 15.7404 24.9594 15.7241 24.9548 15.7063C24.9502 15.6885 24.9505 15.6699 24.9556 15.6523C24.9607 15.6347 24.9705 15.6188 24.9839 15.6061C24.9973 15.5934 25.014 15.5844 25.0322 15.58C25.5886 15.4419 26.1617 15.3816 26.7518 15.3989Z" fill="#CD680C"/>
<path d="M5.57496 16.5176C5.33335 16.3366 5.23979 16.0945 5.29428 15.7913C6.0105 15.7653 6.71057 15.6446 7.40744 15.7549C7.42461 15.7577 7.44085 15.7644 7.45473 15.7746C7.46862 15.7848 7.47974 15.7981 7.48715 15.8133C7.49455 15.8286 7.49801 15.8453 7.49724 15.8622C7.49647 15.879 7.49149 15.8954 7.48272 15.91C7.15902 16.4458 6.14707 16.5884 5.57496 16.5176Z" fill="#C96901"/>
<path d="M26.8636 16.0452L26.7604 16.0494C26.812 15.6949 26.8464 15.6935 26.8636 16.0452Z" fill="#FBC063"/>
<path d="M26.3216 16.6737C25.5258 16.827 24.7401 17.0177 23.9644 17.246L23.9601 17.2075C23.9582 17.1918 23.9621 17.1759 23.9712 17.1628C23.9802 17.1496 23.9938 17.14 24.0095 17.1357L26.5679 16.4177L27.6218 16.2678C27.6785 16.2595 27.6896 16.2776 27.6552 16.322C27.6218 16.3646 26.3528 16.6643 26.3216 16.6737Z" fill="#D26B01"/>
<path d="M16.8086 16.3313C17.17 16.3625 17.3876 16.5415 17.4614 16.8682C17.4656 16.8879 17.4642 16.9084 17.4571 16.9275C17.2556 17.4367 16.8671 17.7232 16.2914 17.787C16.266 17.7895 16.2424 17.801 16.225 17.8194C16.2076 17.8378 16.1976 17.8617 16.1967 17.8869C16.1774 18.4196 16.058 19.5143 16.8205 19.6475C17.3668 19.7425 17.6693 19.5056 17.7281 18.9368C17.7389 18.8383 17.7847 18.8189 17.8657 18.8785C17.8787 18.8882 17.8909 18.8993 17.9023 18.9118C18.0142 19.0367 17.8722 19.3811 17.7916 19.4779C17.451 19.8886 17.0083 19.9756 16.4634 19.7391C16.3767 19.7016 16.2777 19.5962 16.1666 19.4227C16.1014 19.3201 16.0394 19.3221 15.9806 19.429C15.7504 19.848 15.3823 19.985 14.8761 19.84C14.6191 19.7672 14.0631 19.2594 14.2449 18.9378C14.2671 18.8976 14.2997 18.8778 14.3427 18.8785C14.3702 18.8785 14.3967 18.8888 14.4165 18.9072C14.4364 18.9256 14.4481 18.9508 14.4492 18.9774C14.4933 19.8379 15.7451 19.9763 15.9053 19.0481C15.9612 18.7235 15.9648 18.344 15.916 17.9098C15.9136 17.8879 15.904 17.8674 15.8888 17.8512C15.8735 17.8349 15.8533 17.8237 15.8311 17.8193C15.2289 17.6954 14.6352 17.427 14.5686 16.7558C14.5665 16.7322 14.5725 16.7088 14.5858 16.6892C14.7234 16.4853 14.9116 16.3698 15.1504 16.3427C15.7189 16.2949 16.2716 16.291 16.8086 16.3313Z" fill="#15131D"/>
<path d="M5.44053 16.5489C6.79984 16.8437 7.64905 17.0182 7.98816 17.0723C8.09928 17.0903 8.16417 17.1309 8.18281 17.194L8.1742 17.2461C7.40565 17.108 6.64354 16.9412 5.88789 16.7456C5.75669 16.7112 5.704 16.7497 5.59754 16.808L4.18015 16.4105C4.16265 16.4058 4.14724 16.3959 4.13606 16.3824C4.09807 16.3359 4.12746 16.3241 4.22424 16.347C4.62429 16.4421 5.02973 16.5093 5.44053 16.5489Z" fill="#B24312"/>
<path d="M10.2486 20.736C9.85074 20.531 9.43456 20.5248 9.07 20.2376C8.22617 19.7104 7.92756 18.9646 8.17418 18.0004C8.50756 16.732 9.98624 16.2731 11.1369 16.7236C12.4554 17.2387 12.8178 18.7132 12.022 19.8214C11.6348 20.3604 10.8982 20.6184 10.2486 20.736Z" fill="#F69C80"/>
<path d="M23.8912 18.4468C23.8998 18.8359 23.8966 19.0805 23.688 19.4457C23.5919 19.6136 23.5199 19.7908 23.4718 19.9774C23.3019 20.01 23.2137 20.1127 23.2073 20.2854C22.6617 20.4935 22.0971 20.6177 21.5135 20.6579C19.8725 20.4498 18.8562 18.7028 19.9606 17.3563C21.2006 15.8433 23.6934 16.4958 23.8912 18.4468Z" fill="#F69C80"/>
<path d="M26.3216 16.6736L26.3528 16.8515C25.8861 16.991 25.409 17.0898 24.9214 17.1481C24.8311 17.1592 24.8221 17.1911 24.8946 17.2438C24.972 17.3 24.9071 17.3406 24.6999 17.3655C24.5709 17.3808 24.5476 17.437 24.63 17.5341C24.6702 17.582 24.6798 17.6319 24.6591 17.684C24.6042 17.6912 23.7514 17.5705 24.1396 17.814C24.1585 17.8256 24.1806 17.8313 24.2031 17.8307C24.8118 17.8036 25.4029 17.8761 25.9764 18.0481C25.3957 18.9805 24.6003 19.6863 23.5901 20.1657C23.56 20.1802 23.5474 20.2128 23.5525 20.2635L23.5256 20.1074L23.4718 19.9773C23.5198 19.7907 23.5919 19.6135 23.688 19.4456C23.8966 19.0804 23.8998 18.8358 23.8912 18.4467C23.9923 18.0568 24.0077 17.6652 23.9375 17.2719L23.9643 17.2459C24.7401 17.0177 25.5258 16.8269 26.3216 16.6736Z" fill="#FFD376"/>
<path d="M8.1742 17.2459C8.18926 17.4179 8.14804 17.6108 8.05054 17.8244C7.98817 17.9618 8.02938 18.0204 8.1742 18.0003C7.92757 18.9645 8.22619 19.7102 9.07002 20.2374C8.9166 20.2319 8.78431 20.1792 8.67319 20.0793C8.66175 20.0689 8.64801 20.0611 8.63295 20.0564C8.6179 20.0517 8.6019 20.0503 8.58609 20.0522L8.52801 20.0595C8.46994 20.0144 8.40004 19.995 8.31831 20.0012C8.29662 20.0032 8.27445 19.9985 8.25485 19.9877C7.36084 19.4785 6.61809 18.806 6.02662 17.9701C6.59873 17.9132 7.19057 17.8348 7.80211 17.7349C7.92471 17.7152 8.12366 17.5695 7.80319 17.5539C7.46408 17.5372 7.12676 17.5535 6.79123 17.6028C6.77126 17.6057 6.753 17.6153 6.73963 17.63C6.72626 17.6446 6.71864 17.6634 6.71811 17.6829C6.71596 17.7838 6.19224 17.7797 6.08577 17.7922L6.03522 17.557C6.05744 17.5521 6.0639 17.5327 6.05458 17.4987C6.05023 17.4827 6.04189 17.4678 6.03028 17.4555C6.01867 17.4432 6.00414 17.4338 5.98791 17.428L5.75884 17.3458C5.83197 17.3 5.85097 17.216 5.81584 17.0939C6.1951 17.0655 6.5654 17.1116 6.92673 17.2323C6.93527 17.2352 6.9445 17.2359 6.95354 17.2342C6.96258 17.2326 6.97111 17.2287 6.97835 17.223L6.99987 17.2063C7.03858 17.1765 7.03392 17.1567 6.98589 17.147C6.85791 17.1189 5.68894 16.8057 5.67819 16.8515L5.59753 16.8078C5.704 16.7495 5.75669 16.711 5.88789 16.7454C6.64354 16.941 7.40564 17.1078 8.1742 17.2459Z" fill="#FFD376"/>
<path d="M5.81588 17.0939L5.67822 16.8515C5.68898 16.8057 6.85795 17.1189 6.98592 17.147C7.03395 17.1567 7.03861 17.1765 6.9999 17.2063L6.97838 17.223C6.97115 17.2287 6.96261 17.2326 6.95357 17.2342C6.94454 17.2358 6.9353 17.2352 6.92677 17.2323C6.56543 17.1116 6.19514 17.0655 5.81588 17.0939Z" fill="#D97211"/>
<path d="M26.3528 16.8516C26.451 16.9986 26.4148 17.0798 26.2442 17.095C25.9072 17.1089 25.6215 17.1471 25.3871 17.2095C25.0286 17.3052 25.0351 17.3597 25.4064 17.3729C25.6989 17.384 25.9875 17.3576 26.2721 17.2938L27.3873 17.3271C27.398 17.3273 27.4082 17.3313 27.4161 17.3384C27.424 17.3455 27.4291 17.3551 27.4304 17.3656C27.44 17.4624 26.4872 17.4613 26.1603 17.4655C25.8169 17.6389 25.4778 17.6451 25.143 17.4842C24.9781 17.3871 24.8659 17.4176 24.8064 17.5758C24.8221 17.6271 24.8268 17.6719 24.8203 17.71L24.659 17.684C24.6798 17.632 24.6701 17.582 24.63 17.5342C24.5475 17.437 24.5709 17.3809 24.6999 17.3656C24.9071 17.3406 24.972 17.3 24.8945 17.2438C24.8221 17.1911 24.8311 17.1592 24.9214 17.1481C25.4089 17.0898 25.8861 16.991 26.3528 16.8516Z" fill="#D97211"/>
<path d="M26.2442 17.095C26.1116 17.1706 26.1209 17.2368 26.2722 17.2937C25.9876 17.3575 25.699 17.3839 25.4065 17.3728C25.0351 17.3596 25.0287 17.3052 25.3871 17.2094C25.6216 17.147 25.9073 17.1088 26.2442 17.095Z" fill="#FEDB89"/>
<path d="M5.75887 17.3459L5.98793 17.4281C6.00417 17.4339 6.0187 17.4433 6.03031 17.4556C6.04192 17.468 6.05026 17.4828 6.05461 17.4988C6.06393 17.5328 6.05747 17.5522 6.03525 17.5571C5.52909 17.4378 5.01577 17.3878 4.49527 17.4073C4.18448 17.4187 4.4415 17.3178 4.47699 17.3199C4.90428 17.3414 5.33158 17.35 5.75887 17.3459Z" fill="#E57A03"/>
<path d="M25.143 17.4841C25.0885 17.6173 24.9763 17.6478 24.8064 17.5757C24.8659 17.4175 24.9781 17.387 25.143 17.4841Z" fill="#FFDD97"/>
<path d="M25.143 17.4843C25.4778 17.6452 25.8169 17.639 26.1603 17.4656L25.8958 17.8402L24.8204 17.7101C24.8268 17.672 24.8222 17.6272 24.8064 17.5759C24.9763 17.648 25.0885 17.6175 25.143 17.4843Z" fill="#E6C781"/>
<path d="M6.02658 17.9701C5.21357 18.2004 4.70348 18.3073 4.49628 18.2906C4.24786 18.2708 4.44251 18.1803 4.50596 18.172C5.04653 18.0971 5.57312 17.9705 6.08573 17.7922C6.1922 17.7797 6.71592 17.7839 6.71807 17.6829C6.7186 17.6634 6.72622 17.6447 6.73959 17.63C6.75296 17.6154 6.77122 17.6057 6.79119 17.6028C7.12672 17.5536 7.46404 17.5373 7.80315 17.5539C8.12362 17.5695 7.92467 17.7152 7.80207 17.735C7.19053 17.8349 6.5987 17.9133 6.02658 17.9701Z" fill="#D26B01"/>
<path d="M24.6591 17.684L24.8204 17.71L25.8958 17.8401L27.4594 18.1928C27.6078 18.2261 27.6068 18.2542 27.4562 18.2771C27.4304 18.2806 27.4021 18.2792 27.3712 18.2729C26.8292 18.1605 26.3643 18.0856 25.9764 18.0482C25.4029 17.8761 24.8118 17.8036 24.2031 17.8307C24.1806 17.8314 24.1586 17.8256 24.1396 17.814C23.7514 17.5706 24.6042 17.6913 24.6591 17.684Z" fill="#D26B01"/>
<path d="M23.4718 19.9773L23.5256 20.1074C23.4862 20.287 23.3801 20.3463 23.2073 20.2853C23.2137 20.1126 23.3019 20.0099 23.4718 19.9773Z" fill="#9D3D05"/>
<path d="M9.07002 20.2376C9.43458 20.5248 9.85076 20.531 10.2487 20.736C10.2099 20.8227 10.2476 20.8466 10.3616 20.8078L10.0153 21.2178C9.89915 21.3114 9.83893 21.4366 9.83463 21.5934C9.83416 21.6086 9.83027 21.6234 9.82324 21.637C9.8162 21.6506 9.80618 21.6625 9.79388 21.6719C9.78159 21.6813 9.76731 21.688 9.75206 21.6915C9.7368 21.695 9.72094 21.6953 9.70557 21.6922L8.0387 21.3666C8.16129 20.9302 8.3244 20.4946 8.52801 20.0596L8.58609 20.0523C8.6019 20.0504 8.6179 20.0519 8.63295 20.0565C8.64801 20.0612 8.66174 20.069 8.67319 20.0794C8.78431 20.1793 8.91659 20.232 9.07002 20.2376Z" fill="#FBC063"/>
<path d="M23.5256 20.1074L23.5525 20.2635L23.6912 20.7536C23.2438 20.866 22.8732 21.0921 22.5793 21.432C22.3842 21.6582 22.1358 21.8219 21.834 21.9232C20.8167 22.2631 19.7843 22.5513 18.7368 22.7879C18.7222 22.7912 18.7085 22.7973 18.6965 22.8059C18.6844 22.8145 18.6744 22.8253 18.6669 22.8378L18.6056 22.9429C16.8262 21.9239 15.0611 21.9402 13.3103 22.9918C12.6551 22.9079 12.0012 22.7868 11.3488 22.6287C11.3223 22.6222 11.2993 22.6063 11.2846 22.5841C11.2698 22.5618 11.2643 22.535 11.2692 22.509C11.2857 22.4209 11.2771 22.3387 11.2434 22.2624C11.9478 22.149 12.6049 21.9866 12.9372 21.3082C15.1955 21.5579 17.4431 21.5094 19.68 21.1625C19.7058 21.7588 20.2392 21.9294 20.7607 21.7994C21.2977 21.6648 21.715 21.3734 22.0125 20.9253C22.0219 20.9111 22.0277 20.8948 22.0292 20.878C22.0307 20.8612 22.0279 20.8442 22.0211 20.8287C22.0144 20.8131 22.0038 20.7994 21.9903 20.7886C21.9768 20.7779 21.9608 20.7705 21.9437 20.7671C21.7996 20.7387 21.6562 20.7429 21.5135 20.7796C21.6318 20.7193 21.6318 20.6787 21.5135 20.6579C22.0971 20.6176 22.6617 20.4935 23.2073 20.2854C23.3801 20.3464 23.4862 20.2871 23.5256 20.1074Z" fill="#FCC46E"/>
<path d="M19.6799 21.1625L21.5135 20.7796C21.6562 20.7429 21.7996 20.7387 21.9437 20.7671C21.9608 20.7705 21.9768 20.7779 21.9903 20.7886C22.0037 20.7994 22.0144 20.8131 22.0211 20.8287C22.0279 20.8443 22.0307 20.8612 22.0292 20.878C22.0276 20.8949 22.0219 20.9111 22.0125 20.9253C21.715 21.3734 21.2977 21.6648 20.7607 21.7994C20.2391 21.9294 19.7057 21.7588 19.6799 21.1625Z" fill="#C96901"/>
<path d="M23.6912 20.7537C23.8453 21.0402 23.9425 21.345 23.9826 21.6683C23.5288 21.6954 23.061 21.6166 22.5792 21.4321C22.8732 21.0922 23.2438 20.866 23.6912 20.7537Z" fill="#C96901"/>
<path d="M10.3615 20.8079L12.9371 21.3084C12.6048 21.9868 11.9477 22.1491 11.2434 22.2625C10.4411 22.4655 9.88512 22.0253 10.0152 21.2178L10.3615 20.8079Z" fill="#C96901"/>
<path d="M10.0153 21.2178C9.88519 22.0252 10.4412 22.4654 11.2434 22.2625C11.2771 22.3388 11.2857 22.421 11.2692 22.5091C11.2643 22.5351 11.2698 22.5619 11.2846 22.5841C11.2994 22.6064 11.3223 22.6223 11.3488 22.6288C12.0012 22.7869 12.6551 22.908 13.3104 22.9919C11.907 24.3758 11.5263 26.0938 11.5661 27.9855L7.8516 27.9636C7.39886 27.1062 7.40532 26.3924 7.34509 25.5225L7.45694 25.4143C8.37318 25.2561 8.9901 25.1261 9.30771 25.0241C10.1713 24.7463 7.52576 24.3519 7.48382 24.3477L7.59136 23.3592C8.06669 23.2864 9.34965 23.0481 9.17436 22.5414C9.16757 22.5221 9.15512 22.5052 9.13852 22.4927C9.12192 22.4801 9.10188 22.4725 9.0808 22.4706L7.80645 22.3707C7.83871 22.0398 7.91613 21.7051 8.03872 21.3666L9.7056 21.6923C9.72096 21.6953 9.73683 21.6951 9.75208 21.6915C9.76734 21.688 9.78161 21.6813 9.79391 21.6719C9.8062 21.6625 9.81622 21.6506 9.82326 21.637C9.8303 21.6235 9.83419 21.6086 9.83466 21.5934C9.83896 21.4366 9.89917 21.3114 10.0153 21.2178ZM10.3767 24.1979C11.0595 24.5735 11.123 23.8327 11.166 23.4248C11.1687 23.3974 11.1602 23.37 11.1423 23.3486C11.1244 23.3272 11.0986 23.3135 11.0703 23.3103C10.8531 23.2874 10.6373 23.3179 10.4229 23.4019C9.97876 23.5736 9.96477 23.9711 10.3767 24.1979ZM9.81852 27.0511C9.84407 27.0611 9.87248 27.0615 9.8981 27.0521C10.3763 26.8724 10.5975 26.5377 10.5616 26.048C10.5604 26.0268 10.5523 26.0064 10.5384 25.9898C10.5245 25.9732 10.5055 25.9612 10.4842 25.9554C9.72066 25.7421 8.68397 26.5984 9.81852 27.0511Z" fill="#FFD381"/>
<path d="M22.5792 21.4321C23.061 21.6167 23.5288 21.6954 23.9826 21.6683L24.1751 22.5226C23.4331 22.6204 22.8413 22.9205 22.3996 23.4227C22.3036 23.5316 22.3297 23.5885 22.4781 23.5933L24.4096 23.6589C24.4977 23.8642 24.5318 24.0685 24.5117 24.2718C24.1109 24.3772 23.7238 24.5666 23.3503 24.8399C23.2069 24.9447 23.2245 25.0068 23.403 25.0262L24.5741 25.1542C24.5719 25.4094 24.644 25.5489 24.7902 25.5725C24.6691 25.7202 24.6078 25.8933 24.6064 26.0917C24.6021 26.7459 24.4723 27.3764 24.2171 27.9834L20.4628 28.0001C20.3531 26.0792 20.2864 24.2655 18.6056 22.943L18.6669 22.8379C18.6743 22.8254 18.6844 22.8146 18.6964 22.806C18.7084 22.7974 18.7222 22.7912 18.7368 22.788C19.7842 22.5514 20.8166 22.2632 21.834 21.9233C22.1358 21.822 22.3842 21.6583 22.5792 21.4321ZM21.4898 23.4112C21.2296 23.269 21.1109 23.32 21.1339 23.5642L21.1919 24.1958C21.2156 24.4511 21.3382 24.4962 21.5597 24.3311C22.0157 23.9926 21.9924 23.686 21.4898 23.4112ZM21.3533 26.9814C21.4941 27.0771 21.6264 27.1655 21.7996 27.1135C22.1444 27.0102 22.4455 26.8353 22.7029 26.5891C22.7145 26.578 22.7233 26.5645 22.7286 26.5496C22.734 26.5346 22.7358 26.5187 22.7338 26.503C22.7318 26.4872 22.7262 26.4721 22.7173 26.4587C22.7084 26.4453 22.6965 26.434 22.6825 26.4257C22.395 26.2558 22.0867 26.1333 21.7576 26.0584C21.5404 26.0091 21.4221 26.0563 21.4027 26.1999L21.3081 26.8825C21.3054 26.9013 21.3083 26.9205 21.3162 26.938C21.3242 26.9554 21.337 26.9704 21.3533 26.9814Z" fill="#FFD381"/>
<path d="M18.6056 22.9429C20.2864 24.2655 20.3531 26.0791 20.4628 28C16.2953 27.9833 13.7419 27.9809 12.8027 27.9927C12.1288 28.0017 11.7166 27.9993 11.566 27.9854C11.5262 26.0937 11.9069 24.3758 13.3103 22.9918C15.0611 21.9402 16.8262 21.9239 18.6056 22.9429Z" fill="#FEF9DA"/>
<path d="M7.80639 22.3706L9.08074 22.4705C9.10182 22.4724 9.12186 22.48 9.13846 22.4926C9.15506 22.5052 9.16752 22.5221 9.1743 22.5413C9.34959 23.048 8.06664 23.2863 7.59131 23.3591C7.61353 23.0192 7.68523 22.6897 7.80639 22.3706Z" fill="#D26B01"/>
<path d="M24.1751 22.5225C24.2992 22.8804 24.3773 23.2592 24.4096 23.6587L22.4781 23.5932C22.3297 23.5883 22.3036 23.5314 22.3996 23.4225C22.8413 22.9203 23.4331 22.6203 24.1751 22.5225Z" fill="#CD680C"/>
<path d="M10.3767 24.1979C9.96477 23.9711 9.97876 23.5736 10.4229 23.4019C10.6373 23.318 10.8531 23.2874 11.0703 23.3103C11.0986 23.3135 11.1244 23.3272 11.1423 23.3486C11.1602 23.37 11.1687 23.3974 11.166 23.4248C11.123 23.8327 11.0595 24.5736 10.3767 24.1979Z" fill="#D26B01"/>
<path d="M21.4899 23.4113C21.9924 23.686 22.0157 23.9926 21.5598 24.3311C21.3382 24.4962 21.2156 24.4511 21.192 24.1958L21.1339 23.5642C21.1109 23.32 21.2296 23.2691 21.4899 23.4113Z" fill="#D26B01"/>
<path d="M24.5118 24.2717L24.5741 25.1541L23.403 25.0261C23.2245 25.0067 23.2069 24.9446 23.3503 24.8399C23.7238 24.5665 24.111 24.3772 24.5118 24.2717Z" fill="#CD680C"/>
<path d="M7.48379 24.3477C7.52574 24.3518 10.1712 24.7462 9.30768 25.024C8.99007 25.126 8.37315 25.2561 7.45691 25.4142L7.48379 24.3477Z" fill="#CD680C"/>
<path d="M7.34508 25.5224C7.4053 26.3923 7.39884 27.1061 7.85159 27.9635C6.84071 27.9885 5.77929 28.0904 5.6696 26.9333C5.58572 26.0426 6.39872 25.3299 7.34508 25.5224Z" fill="#D87504"/>
<path d="M24.217 27.9833C24.4723 27.3763 24.602 26.7457 24.6063 26.0915C24.6078 25.8931 24.6691 25.7201 24.7902 25.5723C25.7839 25.4579 26.3413 25.8158 26.4625 26.6462C26.4998 26.9049 26.4682 27.1331 26.3679 27.3308C25.9323 28.1862 25.0053 27.9396 24.217 27.9833Z" fill="#D87504"/>
<path d="M9.8185 27.0511C8.68395 26.5985 9.72063 25.7421 10.4842 25.9554C10.5055 25.9612 10.5245 25.9733 10.5383 25.9899C10.5522 26.0065 10.5604 26.0268 10.5616 26.048C10.5975 26.5378 10.3763 26.8725 9.89808 27.0521C9.87246 27.0615 9.84404 27.0611 9.8185 27.0511Z" fill="#D26B01"/>
<path d="M21.3533 26.9814C21.337 26.9704 21.3242 26.9554 21.3162 26.938C21.3083 26.9205 21.3054 26.9013 21.3081 26.8825L21.4027 26.1999C21.4221 26.0563 21.5404 26.0092 21.7576 26.0584C22.0867 26.1333 22.395 26.2558 22.6825 26.4257C22.6965 26.4341 22.7084 26.4454 22.7173 26.4587C22.7262 26.4721 22.7318 26.4873 22.7338 26.503C22.7358 26.5187 22.734 26.5347 22.7287 26.5496C22.7233 26.5645 22.7145 26.578 22.7029 26.5891C22.4455 26.8354 22.1444 27.0102 21.7996 27.1135C21.6264 27.1656 21.4941 27.0771 21.3533 26.9814Z" fill="#D26B01"/>
</g>
<defs>
<clipPath id="clip0_55889_43546">
<rect width="24" height="24" fill="white" transform="translate(4 4)"/>
</clipPath>
</defs>
</svg>
