<svg width="32" height="32" viewBox="0 0 32 32" fill="none" xmlns="http://www.w3.org/2000/svg">
<path d="M0 16C0 7.16344 7.16344 0 16 0C24.8366 0 32 7.16344 32 16C32 24.8366 24.8366 32 16 32C7.16344 32 0 24.8366 0 16Z" fill="#D8FFC2"/>
<g clip-path="url(#clip0_55889_43138)">
<path d="M19.5945 9.65993C19.26 9.92462 18.8858 10.1164 18.4717 10.2352C18.455 10.24 18.4372 10.2407 18.4201 10.237C18.403 10.2334 18.3872 10.2256 18.3743 10.2144C18.3615 10.2032 18.3519 10.1891 18.3466 10.1734C18.3414 10.1577 18.3406 10.141 18.3443 10.1249L18.4336 9.73066C18.4372 9.715 18.4365 9.69874 18.4315 9.68342C18.4265 9.6681 18.4175 9.65422 18.4053 9.64309C18.393 9.63195 18.378 9.62393 18.3615 9.61978C18.345 9.61564 18.3277 9.6155 18.3112 9.61938C17.8898 9.71934 17.4617 9.74417 17.0269 9.69388C15.2761 9.48923 13.7811 9.1469 12.0503 9.6439C12.0261 9.65075 12.0056 9.66582 11.9928 9.68609C11.9799 9.70636 11.9758 9.73035 11.981 9.75329L12.0603 10.1013C12.0864 10.2176 12.0409 10.2531 11.9238 10.2079L11.0309 9.86269C10.4054 8.7769 10.5713 7.81056 11.5285 6.96368C11.5398 6.95364 11.5535 6.94618 11.5684 6.9419C11.5832 6.93762 11.5989 6.93663 11.6142 6.939C11.6295 6.94138 11.6439 6.94707 11.6564 6.95561C11.6689 6.96414 11.679 6.9753 11.6861 6.98819C11.8078 7.20887 11.9493 7.41886 12.1105 7.61817C12.1312 7.64457 12.1509 7.65023 12.1697 7.63515C12.1747 7.63158 12.1785 7.62661 12.1804 7.62088C12.1824 7.61516 12.1825 7.60895 12.1807 7.60308C12.0489 7.16046 12.1208 6.75871 12.3964 6.39783C12.4807 6.28843 12.5402 6.29912 12.575 6.42989C12.6446 6.68767 12.754 6.92972 12.9031 7.15606C12.9265 7.1919 12.9503 7.20133 12.9744 7.18435C12.978 7.18174 12.9809 7.17819 12.9826 7.17405C12.9844 7.16991 12.985 7.16534 12.9844 7.16078C12.869 6.39783 13.454 5.69618 13.9336 5.02093C14.1249 4.75184 14.26 4.43654 14.3389 4.07503C14.3423 4.05997 14.3495 4.0459 14.36 4.03406C14.3704 4.02222 14.3838 4.01296 14.3989 4.0071C14.4141 4.00124 14.4305 3.99896 14.4468 4.00044C14.4631 4.00192 14.4788 4.00714 14.4924 4.01562C15.0048 4.33186 15.4399 4.72323 15.7978 5.18974C16.2125 5.73044 16.3603 6.32961 16.2413 6.98725C16.2408 6.98988 16.2406 6.99261 16.2407 6.99522C16.2408 6.99784 16.2412 7.00027 16.2419 7.0023C16.2426 7.00433 16.2435 7.0059 16.2446 7.00689C16.2458 7.00788 16.247 7.00826 16.2483 7.008L16.2674 7.00234C16.2726 6.99986 16.2771 6.99594 16.2804 6.99102C16.4838 6.62637 16.6145 6.24128 16.6727 5.83575C16.6888 5.72447 16.743 5.70404 16.8353 5.77445C17.1048 5.98067 17.3249 6.20544 17.4955 6.44875C17.8687 6.98191 17.9166 7.55309 17.639 8.16232C17.6377 8.1652 17.6372 8.16841 17.6376 8.17168C17.6379 8.17495 17.6391 8.17821 17.641 8.18118C17.6564 8.20508 17.6764 8.19847 17.7012 8.16138C18.0089 7.71373 18.1895 7.2554 18.243 6.78638C18.2446 6.77028 18.2507 6.75487 18.2607 6.74168C18.2706 6.72849 18.2841 6.71795 18.2998 6.71111C18.3155 6.70427 18.3328 6.70135 18.3501 6.70264C18.3674 6.70393 18.3841 6.70938 18.3985 6.71847C18.7911 6.9687 19.1246 7.27174 19.3988 7.6276C19.8845 8.25757 19.9497 8.93502 19.5945 9.65993Z" fill="#542215"/>
<path d="M11.0308 9.86261L11.9238 10.2078C12.0409 10.253 12.0864 10.2175 12.0603 10.1012L11.981 9.75321C11.9757 9.73027 11.9799 9.70628 11.9927 9.68601C12.0056 9.66574 12.0261 9.65067 12.0502 9.64382C13.781 9.14682 15.276 9.48915 17.0269 9.6938C17.4617 9.74409 17.8898 9.71926 18.3112 9.6193C18.3277 9.61542 18.345 9.61556 18.3615 9.6197C18.3779 9.62385 18.393 9.63187 18.4052 9.643C18.4175 9.65414 18.4265 9.66802 18.4315 9.68334C18.4364 9.69866 18.4372 9.71492 18.4336 9.73058L18.3443 10.1248C18.3405 10.1409 18.3413 10.1576 18.3466 10.1733C18.3519 10.189 18.3614 10.2032 18.3743 10.2143C18.3872 10.2255 18.403 10.2333 18.4201 10.2369C18.4372 10.2406 18.455 10.2399 18.4717 10.2351C18.8858 10.1163 19.26 9.92454 19.5945 9.65985C19.8366 9.42156 19.9801 9.21503 20.0249 9.04025C20.2637 8.09717 20.7473 6.86929 21.5811 6.2959C23.2226 5.16703 25.5113 6.05636 26.1434 7.78218C26.931 9.93051 24.541 11.4385 23.0249 12.54C23.0061 12.5537 22.9931 12.5732 22.9881 12.595C22.9832 12.6167 22.9866 12.6394 22.9979 12.6588C23.8377 14.1451 24.6313 16.5434 24.236 18.2117C23.8678 19.7659 22.455 21.0079 20.964 21.6294C20.9349 21.6181 20.9239 21.6077 20.9209 21.5766C20.7273 19.6961 19.1078 18.2682 17.2757 17.7128C14.4764 16.865 11.4061 17.5194 9.75055 19.8517C9.34787 20.42 9.18098 21.0415 9.24987 21.7161C7.22811 20.8457 5.60268 19.2245 5.80536 16.9828C5.94716 15.4104 6.42877 13.9376 7.25019 12.5645C7.26196 12.5448 7.2658 12.5218 7.26101 12.4996C7.25622 12.4775 7.24312 12.4577 7.2241 12.4438C6.22576 11.7195 4.59029 10.6171 4.15283 9.45237C3.59797 7.97363 4.61939 6.43076 6.15954 5.94979C7.9726 5.38394 9.15957 6.22516 9.86694 7.72183C9.99269 7.98652 10.1733 8.46183 10.4087 9.14776C10.4964 9.40427 10.7037 9.64256 11.0308 9.86261ZM6.83881 10.6953L7.78297 11.6507C7.88264 11.7513 7.97996 11.7459 8.07495 11.6346C8.53047 11.1009 9.07696 10.6699 9.71443 10.3417C9.7331 10.3319 9.74801 10.3169 9.75702 10.2987C9.76604 10.2806 9.76869 10.2603 9.7646 10.2408C9.62948 9.59949 9.41509 8.97423 9.12144 8.36501C7.91641 5.74608 3.84781 8.21034 6.83881 10.6953ZM21.26 8.32822C20.9844 8.90413 20.7537 9.52342 20.5677 10.1861C20.5176 10.3266 20.5868 10.4237 20.7182 10.5001C21.1457 10.7497 21.5316 11.0452 21.8761 11.3866C22.0296 11.5385 22.0607 11.7846 22.3938 11.7978L23.4504 10.7378C24.2952 10.0229 24.9775 9.0742 24.3112 8.03493C24.1728 7.81865 23.9755 7.64544 23.7193 7.51529C22.7045 7.001 21.8848 7.27198 21.26 8.32822ZM8.98198 15.3683C9.48566 14.8364 9.93818 14.5327 10.7138 14.8769C10.7193 14.8796 10.7255 14.8809 10.7318 14.8807C10.7381 14.8805 10.7443 14.8789 10.7499 14.876C10.9285 14.7902 10.3315 14.512 10.2101 14.5091C9.58667 14.4934 9.15857 14.7682 8.92579 15.3334C8.9249 15.3357 8.92481 15.3383 8.92552 15.3409C8.92623 15.3436 8.92771 15.3462 8.9298 15.3485L8.95087 15.3683C8.95285 15.3703 8.95525 15.3719 8.95793 15.3731C8.96061 15.3742 8.9635 15.3747 8.96642 15.3747C8.96935 15.3747 8.97225 15.3742 8.97493 15.3731C8.9776 15.3719 8.98 15.3703 8.98198 15.3683ZM19.9296 14.7468C20.2246 14.804 20.4754 14.9691 20.6821 15.2419C20.7463 15.3268 20.8657 15.3381 20.8005 15.1985C20.5356 14.6299 19.768 14.263 19.1761 14.66C19.1399 14.6846 19.1159 14.7132 19.1038 14.7459C19.0644 14.854 19.1005 14.8854 19.2122 14.8402C19.469 14.7352 19.7082 14.704 19.9296 14.7468ZM11.4954 17.2535C11.4954 16.9521 11.368 16.6631 11.1413 16.4499C10.9145 16.2368 10.607 16.1171 10.2863 16.1171C9.96568 16.1171 9.65816 16.2368 9.43142 16.4499C9.20468 16.6631 9.0773 16.9521 9.0773 17.2535C9.0773 17.5549 9.20468 17.8439 9.43142 18.0571C9.65816 18.2702 9.96568 18.3899 10.2863 18.3899C10.607 18.3899 10.9145 18.2702 11.1413 18.0571C11.368 17.8439 11.4954 17.5549 11.4954 17.2535ZM20.8547 17.2544C20.8547 16.949 20.7256 16.6562 20.4959 16.4402C20.2661 16.2243 19.9545 16.1029 19.6296 16.1029C19.3047 16.1029 18.9931 16.2243 18.7633 16.4402C18.5336 16.6562 18.4045 16.949 18.4045 17.2544C18.4045 17.4057 18.4362 17.5554 18.4977 17.6951C18.5593 17.8348 18.6495 17.9617 18.7633 18.0687C18.8771 18.1756 19.0121 18.2604 19.1608 18.3183C19.3094 18.3762 19.4687 18.4059 19.6296 18.4059C19.7905 18.4059 19.9498 18.3762 20.0984 18.3183C20.247 18.2604 20.3821 18.1756 20.4959 18.0687C20.6096 17.9617 20.6999 17.8348 20.7614 17.6951C20.823 17.5554 20.8547 17.4057 20.8547 17.2544Z" fill="#9DBA7B"/>
<path d="M9.12147 8.36504C8.57431 8.35812 8.09605 8.50147 7.68668 8.79508C7.49336 8.9334 7.33918 9.1239 7.22413 9.36659C7.02479 9.78594 6.89637 10.2289 6.83884 10.6954C3.84784 8.21037 7.91644 5.74612 9.12147 8.36504Z" fill="#F7B6B9"/>
<path d="M23.4503 10.7378C23.5306 9.26849 22.8005 8.4653 21.26 8.32824C21.8848 7.272 22.7045 7.00102 23.7192 7.51531C23.9754 7.64546 24.1727 7.81867 24.3112 8.03495C24.9774 9.07422 24.2952 10.0229 23.4503 10.7378Z" fill="#F7B6B9"/>
<path d="M9.12144 8.36498C9.41509 8.97421 9.62947 9.59947 9.76459 10.2408C9.76868 10.2603 9.76603 10.2806 9.75702 10.2987C9.74801 10.3168 9.7331 10.3319 9.71442 10.3417C9.07696 10.6699 8.53046 11.1008 8.07494 11.6346C7.97996 11.7459 7.88263 11.7513 7.78296 11.6507L6.83881 10.6953C6.89633 10.2288 7.02476 9.78589 7.22409 9.36653C7.33915 9.12385 7.49333 8.93335 7.68664 8.79503C8.09601 8.50142 8.57428 8.35807 9.12144 8.36498Z" fill="#F59DA5"/>
<path d="M21.2601 8.32837C22.8006 8.46543 23.5307 9.26862 23.4504 10.7379L22.3939 11.7979C22.1671 11.5603 21.9527 11.3129 21.7507 11.0557C21.651 10.9294 21.2567 10.6395 20.5677 10.1862C20.7537 9.52356 20.9845 8.90427 21.2601 8.32837Z" fill="#F59DA5"/>
<path d="M20.5677 10.1863C21.2567 10.6396 21.651 10.9294 21.7507 11.0558C21.9527 11.3129 22.1671 11.5603 22.3938 11.798C22.0607 11.7848 22.0296 11.5386 21.8761 11.3868C21.5316 11.0454 21.1456 10.7499 20.7182 10.5003C20.5868 10.4239 20.5175 10.3268 20.5677 10.1863Z" fill="#FC7D8C"/>
<path d="M10.7138 14.877C9.93817 14.5328 9.48566 14.8364 8.98198 15.3683C8.98 15.3704 8.9776 15.372 8.97492 15.3731C8.97225 15.3742 8.96935 15.3748 8.96642 15.3748C8.9635 15.3748 8.9606 15.3742 8.95793 15.3731C8.95525 15.372 8.95285 15.3704 8.95087 15.3683L8.9298 15.3485C8.9277 15.3462 8.92622 15.3436 8.92552 15.341C8.92481 15.3383 8.9249 15.3357 8.92579 15.3334C9.15857 14.7682 9.58667 14.4935 10.2101 14.5092C10.3315 14.512 10.9285 14.7902 10.7499 14.876C10.7443 14.879 10.7381 14.8806 10.7318 14.8807C10.7255 14.8809 10.7193 14.8796 10.7138 14.877Z" fill="#010101"/>
<path d="M19.9296 14.7468C19.7082 14.7041 19.4691 14.7352 19.2122 14.8402C19.1005 14.8854 19.0644 14.854 19.1038 14.7459C19.1159 14.7132 19.14 14.6846 19.1761 14.6601C19.7681 14.263 20.5356 14.6299 20.8005 15.1985C20.8657 15.3381 20.7463 15.3268 20.6821 15.2419C20.4754 14.9691 20.2246 14.804 19.9296 14.7468Z" fill="#15131D"/>
<path d="M11.4954 17.2536C11.4954 17.555 11.368 17.844 11.1413 18.0572C10.9146 18.2703 10.607 18.39 10.2864 18.39C9.96572 18.39 9.65819 18.2703 9.43145 18.0572C9.20471 17.844 9.07733 17.555 9.07733 17.2536C9.07733 16.9522 9.20471 16.6632 9.43145 16.45C9.65819 16.2369 9.96572 16.1172 10.2864 16.1172C10.607 16.1172 10.9146 16.2369 11.1413 16.45C11.368 16.6632 11.4954 16.9522 11.4954 17.2536ZM10.1673 16.9351C10.1992 16.9474 10.2338 16.9529 10.2689 16.9513C10.304 16.9498 10.339 16.9413 10.3719 16.9262C10.4048 16.9111 10.435 16.8898 10.4607 16.8634C10.4864 16.8371 10.5072 16.8062 10.5217 16.7726C10.5512 16.7048 10.5538 16.6299 10.529 16.5644C10.5042 16.4989 10.454 16.4482 10.3894 16.4234C10.3575 16.4112 10.3229 16.4056 10.2878 16.4072C10.2527 16.4087 10.2177 16.4173 10.1848 16.4323C10.1519 16.4474 10.1217 16.4688 10.096 16.4951C10.0703 16.5215 10.0495 16.5523 10.035 16.5859C10.0055 16.6538 10.0029 16.7287 10.0277 16.7941C10.0525 16.8596 10.1027 16.9103 10.1673 16.9351Z" fill="#040A15"/>
<path d="M20.8547 17.2545C20.8547 17.4057 20.823 17.5555 20.7614 17.6952C20.6999 17.8349 20.6096 17.9618 20.4959 18.0688C20.3821 18.1757 20.247 18.2605 20.0984 18.3184C19.9498 18.3762 19.7905 18.406 19.6296 18.406C19.4687 18.406 19.3094 18.3762 19.1608 18.3184C19.0121 18.2605 18.8771 18.1757 18.7633 18.0688C18.6495 17.9618 18.5593 17.8349 18.4977 17.6952C18.4362 17.5555 18.4045 17.4057 18.4045 17.2545C18.4045 16.9491 18.5336 16.6562 18.7633 16.4403C18.9931 16.2243 19.3047 16.103 19.6296 16.103C19.9545 16.103 20.2661 16.2243 20.4959 16.4403C20.7256 16.6562 20.8547 16.9491 20.8547 17.2545ZM19.5907 16.9709C19.6269 16.9733 19.6632 16.9683 19.6977 16.9562C19.7322 16.9441 19.7641 16.9251 19.7917 16.9002C19.8193 16.8754 19.842 16.8452 19.8584 16.8115C19.8749 16.7777 19.8849 16.741 19.8877 16.7034C19.8935 16.6276 19.8701 16.5529 19.8226 16.4958C19.775 16.4387 19.7073 16.4039 19.6343 16.3989C19.5982 16.3965 19.5618 16.4015 19.5274 16.4136C19.4929 16.4257 19.4609 16.4448 19.4333 16.4696C19.4058 16.4944 19.3831 16.5246 19.3666 16.5583C19.3501 16.5921 19.3402 16.6288 19.3373 16.6664C19.3315 16.7422 19.355 16.8169 19.4025 16.874C19.45 16.9311 19.5177 16.9659 19.5907 16.9709Z" fill="#040A15"/>
<path d="M10.0349 16.586C9.9736 16.7273 10.0328 16.8836 10.1673 16.9352C10.3017 16.9867 10.4604 16.914 10.5217 16.7727C10.5831 16.6314 10.5238 16.475 10.3894 16.4235C10.255 16.3719 10.0963 16.4447 10.0349 16.586Z" fill="#F8F6F5"/>
<path d="M19.5907 16.971C19.5177 16.966 19.45 16.9312 19.4025 16.8741C19.355 16.817 19.3315 16.7423 19.3373 16.6665C19.3402 16.6289 19.3501 16.5922 19.3666 16.5584C19.3831 16.5247 19.4057 16.4945 19.4333 16.4697C19.4609 16.4448 19.4929 16.4258 19.5273 16.4137C19.5618 16.4016 19.5982 16.3966 19.6343 16.399C19.7073 16.404 19.775 16.4388 19.8225 16.4959C19.8701 16.553 19.8935 16.6277 19.8877 16.7035C19.8849 16.7411 19.8749 16.7778 19.8584 16.8116C19.842 16.8453 19.8193 16.8755 19.7917 16.9003C19.7641 16.9251 19.7322 16.9442 19.6977 16.9563C19.6632 16.9684 19.6268 16.9734 19.5907 16.971ZM19.6055 16.6935C20.0841 16.5869 19.3667 16.5831 19.5583 16.6869C19.5731 16.6947 19.59 16.6971 19.6055 16.6935Z" fill="#F8F6F5"/>
<path d="M19.5583 16.6867C19.3667 16.583 20.0841 16.5867 19.6055 16.6933C19.59 16.6969 19.5731 16.6945 19.5583 16.6867Z" fill="#B4A3A3"/>
<path d="M20.9641 21.6295L20.9601 21.7672C20.8497 21.7439 20.7507 21.7741 20.6631 21.8577C19.9085 22.1312 19.1393 22.3616 18.3554 22.549C17.8908 22.5962 17.35 22.7046 16.9747 22.7489C15.4443 22.9325 13.9145 22.913 12.3854 22.6905L11.4503 22.4896L9.42549 21.8577L9.2499 21.7163C9.181 21.0417 9.34789 20.4202 9.75057 19.8518C11.4061 17.5196 14.4764 16.8651 17.2757 17.7129C19.1079 18.2684 20.7273 19.6962 20.9209 21.5767C20.9239 21.6078 20.935 21.6182 20.9641 21.6295ZM13.7198 18.673C13.778 19.1256 14.3369 19.4067 14.7021 19.6255C14.7144 19.6331 14.7248 19.6432 14.7326 19.6549C14.7404 19.6666 14.7454 19.6797 14.7473 19.6934C14.7884 20.0084 14.8556 20.6449 14.4724 20.8015C14.0028 20.9932 13.6586 20.8864 13.4399 20.4808C13.4327 20.4676 13.4224 20.4562 13.4099 20.4474C13.3974 20.4385 13.3829 20.4326 13.3677 20.4299C13.2466 20.4104 13.1928 20.4639 13.2061 20.5902C13.2292 20.8147 13.4861 21.0014 13.7158 21.0759C14.1734 21.2262 14.5697 21.1341 14.9048 20.7996C14.914 20.7904 14.925 20.7831 14.9372 20.778C14.9494 20.7728 14.9625 20.7701 14.9759 20.7698C14.9893 20.7695 15.0026 20.7718 15.015 20.7764C15.0274 20.7811 15.0387 20.788 15.0483 20.7968C15.3934 21.1155 15.7971 21.2205 16.2593 21.1118C16.5072 21.0542 17.1242 20.4535 16.6717 20.445C16.6536 20.4447 16.6357 20.4492 16.62 20.458C16.6042 20.4668 16.5912 20.4796 16.5824 20.495C16.3624 20.8785 16.0312 20.9822 15.5891 20.8062C15.3476 20.7106 15.2269 20.5909 15.2269 20.4469L15.2279 19.7047C15.2279 19.6875 15.2329 19.6707 15.2423 19.6561C15.2516 19.6415 15.2651 19.6296 15.2811 19.6217C15.7306 19.3954 16.2333 19.1143 16.2985 18.7022C16.451 17.7421 14.7142 17.96 14.1904 18.0958C13.8386 18.187 13.6817 18.3794 13.7198 18.673Z" fill="#F6F2DD"/>
<path d="M21.1145 26.2505L21.0915 26.2363C21.085 26.2326 21.0802 26.2269 21.0778 26.2202C21.0754 26.2134 21.0756 26.2061 21.0784 26.1995C21.2998 25.6777 21.4647 25.1408 21.5731 24.5888C24.241 25.1433 25.3326 21.7812 25.5413 20.0111C25.5567 19.8822 25.536 19.7524 25.4791 19.6216C24.5069 17.3761 27.9203 17.4761 27.9986 18.9133C28.0276 19.466 27.6072 19.9073 27.0554 20.0611C27.0363 20.0664 27.0193 20.0769 27.0064 20.0911C26.9936 20.1054 26.9855 20.1228 26.9832 20.1412C26.8216 21.5719 26.5658 22.9186 25.8795 24.1201C24.9443 25.7563 23.0942 26.7522 21.1145 26.2505Z" fill="#3C2522"/>
<path d="M14.7021 19.6255C14.3369 19.4067 13.778 19.1257 13.7198 18.673C13.6817 18.3794 13.8385 18.187 14.1904 18.0958C14.7141 17.96 16.4509 17.7422 16.2984 18.7022C16.2332 19.1144 15.7305 19.3954 15.281 19.6217C15.265 19.6296 15.2516 19.6415 15.2422 19.6562C15.2329 19.6708 15.2279 19.6876 15.2279 19.7047L15.2269 20.4469C15.2269 20.5909 15.3476 20.7107 15.5891 20.8062C16.0312 20.9823 16.3623 20.8785 16.5824 20.495C16.5912 20.4796 16.6042 20.4669 16.62 20.458C16.6357 20.4492 16.6536 20.4447 16.6717 20.445C17.1242 20.4535 16.5071 21.0543 16.2593 21.1118C15.7971 21.2206 15.3934 21.1156 15.0483 20.7968C15.0387 20.788 15.0274 20.7811 15.015 20.7764C15.0025 20.7718 14.9893 20.7696 14.9759 20.7698C14.9625 20.7701 14.9493 20.7729 14.9371 20.778C14.9249 20.7831 14.9139 20.7905 14.9048 20.7996C14.5697 21.1341 14.1733 21.2262 13.7158 21.0759C13.486 21.0014 13.2292 20.8147 13.2061 20.5903C13.1927 20.4639 13.2466 20.4105 13.3676 20.4299C13.3829 20.4326 13.3974 20.4386 13.4099 20.4474C13.4224 20.4562 13.4327 20.4677 13.4399 20.4809C13.6586 20.8864 14.0028 20.9933 14.4723 20.8015C14.8556 20.645 14.7884 20.0084 14.7473 19.6934C14.7454 19.6798 14.7403 19.6666 14.7326 19.6549C14.7248 19.6432 14.7144 19.6332 14.7021 19.6255Z" fill="#171C26"/>
<path d="M20.96 21.7671C21.239 22.1726 21.4239 22.6112 21.5149 23.0827C21.353 23.133 21.2252 23.2239 21.1316 23.3553C21.1217 23.3688 21.1083 23.3799 21.0925 23.3873C19.9918 23.8919 19.6025 24.0248 19.1169 25.0858C19.1122 25.0961 19.1051 25.1054 19.0963 25.1129C19.0875 25.1204 19.077 25.1259 19.0657 25.1292C19.0195 25.1418 18.9764 25.1292 18.9362 25.0915L18.6272 23.4882C18.5871 23.1978 18.5145 22.9148 18.4095 22.6395C18.6075 22.5527 18.7948 22.5052 18.9714 22.4971C18.9845 22.4964 18.9977 22.4982 19.0102 22.5024C19.0226 22.5066 19.034 22.513 19.0438 22.5213C19.0536 22.5296 19.0616 22.5397 19.0672 22.5509C19.0728 22.5621 19.0761 22.5743 19.0767 22.5866L19.1369 23.6825C19.1377 23.699 19.1431 23.7149 19.1526 23.7288C19.162 23.7427 19.1751 23.754 19.1906 23.7616C19.2062 23.7692 19.2236 23.7729 19.2411 23.7723C19.2586 23.7716 19.2756 23.7667 19.2904 23.7579C19.4416 23.668 19.5777 23.5583 19.6988 23.4288C19.9426 23.1695 20.1102 22.7526 20.2777 22.4141C20.2862 22.398 20.2994 22.3844 20.3159 22.3745C20.5219 22.2525 20.6376 22.0802 20.663 21.8577C20.7506 21.774 20.8496 21.7439 20.96 21.7671Z" fill="#84A26F"/>
<path d="M9.42547 21.8577L11.4502 22.4895L11.2867 23.426C11.2834 23.4439 11.2747 23.4606 11.2616 23.4741C11.0656 23.6772 10.9359 23.912 10.8723 24.1786C10.8685 24.1946 10.8603 24.2094 10.8486 24.2216C10.8368 24.2337 10.8219 24.2427 10.8052 24.2478C10.7886 24.2528 10.7709 24.2537 10.7538 24.2503C10.7367 24.247 10.7208 24.2395 10.7078 24.2286C10.572 24.116 10.4258 24.0195 10.2693 23.939C9.7917 23.6938 9.54487 23.5448 9.17865 23.3468C9.03885 23.1946 8.95891 23.0132 8.93884 22.8026C9.03249 22.4606 9.1947 22.1456 9.42547 21.8577Z" fill="#71885F"/>
<path d="M20.6631 21.8577C20.6376 22.0802 20.5219 22.2525 20.3159 22.3745C20.2995 22.3844 20.2863 22.3981 20.2778 22.4141C20.1102 22.7526 19.9427 23.1695 19.6988 23.4288C19.5778 23.5583 19.4416 23.6681 19.2905 23.758C19.2756 23.7667 19.2586 23.7717 19.2411 23.7723C19.2236 23.7729 19.2062 23.7693 19.1907 23.7616C19.1752 23.754 19.162 23.7427 19.1526 23.7288C19.1432 23.7149 19.1378 23.699 19.137 23.6825L19.0768 22.5867C19.0761 22.5743 19.0729 22.5621 19.0672 22.5509C19.0616 22.5397 19.0536 22.5296 19.0439 22.5213C19.0341 22.513 19.0226 22.5066 19.0102 22.5024C18.9978 22.4982 18.9846 22.4964 18.9714 22.4971C18.7948 22.5052 18.6075 22.5527 18.4095 22.6395L18.3553 22.5489C19.1393 22.3616 19.9085 22.1312 20.6631 21.8577Z" fill="#71885F"/>
<path d="M11.4503 22.4895L12.3854 22.6904L11.7623 23.4646C11.5757 23.5973 11.4489 23.7689 11.382 23.9796C11.1061 24.5369 11.0178 24.8783 10.9887 25.2848C10.465 24.6749 9.8606 24.1383 9.17565 23.6749C9.16033 23.6648 9.14835 23.6507 9.14108 23.6344C9.13381 23.6181 9.13153 23.6001 9.13451 23.5825L9.17866 23.3468C9.54488 23.5448 9.79171 23.6938 10.2693 23.939C10.4258 24.0195 10.572 24.116 10.7078 24.2285C10.7208 24.2394 10.7367 24.2469 10.7538 24.2503C10.7709 24.2537 10.7886 24.2528 10.8052 24.2478C10.8219 24.2427 10.8368 24.2337 10.8486 24.2215C10.8603 24.2094 10.8685 24.1946 10.8723 24.1786C10.9359 23.912 11.0656 23.6771 11.2616 23.4741C11.2747 23.4606 11.2834 23.4439 11.2867 23.426L11.4503 22.4895Z" fill="#84A26F"/>
<path d="M18.3553 22.5488L18.4095 22.6394C18.5145 22.9147 18.5871 23.1977 18.6272 23.4881C18.076 23.5611 17.5249 23.6349 16.9737 23.7098C15.2178 23.9474 13.4807 23.8657 11.7623 23.4646L12.3854 22.6903C13.9145 22.9129 15.4442 22.9323 16.9747 22.7488C17.35 22.7044 17.8908 22.596 18.3553 22.5488Z" fill="#E2C9A5"/>
<path d="M8.93885 22.8027C8.95892 23.0134 9.03885 23.1947 9.17865 23.3469L9.13451 23.5827C9.13153 23.6002 9.13381 23.6182 9.14108 23.6345C9.14835 23.6509 9.16033 23.6649 9.17564 23.6751C9.8606 24.1384 10.465 24.6751 10.9887 25.2849L12.2389 27.1428L12.2559 27.3314L11.9068 27.7652C11.8956 27.7793 11.8803 27.7902 11.8626 27.7963L11.5325 27.917L11.2566 27.9406C11.2339 27.8205 11.1994 27.7039 11.1533 27.5907C11.0737 27.3958 11.0222 27.4021 10.9987 27.6096C10.9834 27.7404 10.9439 27.8664 10.8803 27.9878H10.5041C10.2165 27.9381 10.0532 27.7825 10.0144 27.5209C10.0133 27.5132 10.0103 27.5058 10.0055 27.4995C10.0006 27.4931 9.99426 27.4879 9.98686 27.4844C9.97945 27.4809 9.97124 27.4791 9.96294 27.4792C9.95463 27.4793 9.94648 27.4814 9.9392 27.4851C9.881 27.5153 9.87565 27.5819 9.92314 27.685L9.80575 27.7322C9.1917 27.5615 9.66026 26.4694 9.1927 26.3232C8.68366 25.2727 8.55958 24.1784 8.82046 23.0404C8.83584 22.9737 8.87531 22.8945 8.93885 22.8027Z" fill="#9DBA7B"/>
<path d="M21.5149 23.0828C21.6246 23.5857 21.644 24.0878 21.5731 24.5889C21.4647 25.1409 21.2998 25.6778 21.0784 26.1996C21.0756 26.2062 21.0754 26.2135 21.0778 26.2202C21.0802 26.227 21.085 26.2327 21.0915 26.2364L21.1145 26.2506L21.0894 26.2902C20.5145 26.2336 20.9229 27.7199 20.2577 27.7557L20.1363 27.7991L19.9878 27.3568C19.9865 27.3527 19.9847 27.3488 19.9826 27.3452C19.9805 27.3417 19.9781 27.3387 19.9756 27.3363C19.9731 27.3339 19.9704 27.3322 19.9679 27.3314C19.9653 27.3305 19.9628 27.3305 19.9607 27.3313L19.9426 27.3379C19.9398 27.339 19.9361 27.3463 19.9322 27.3584C19.9284 27.3705 19.9246 27.3866 19.9215 27.4039L19.8463 27.8113C19.8432 27.8283 19.8353 27.8442 19.8232 27.8572C19.8112 27.8702 19.7955 27.8798 19.7781 27.8849C19.156 28.071 18.8727 27.8651 18.9282 27.2672C18.9291 27.2596 18.928 27.2519 18.9248 27.2446C18.9217 27.2374 18.9166 27.2309 18.9102 27.2257C18.8827 27.2049 18.8633 27.2144 18.852 27.254C18.7831 27.4916 18.8182 27.7205 18.9573 27.9406L18.6312 27.917L18.1667 27.751C18.1453 27.7437 18.1271 27.7293 18.1155 27.7104C18.0794 27.6526 18.0255 27.6218 17.954 27.618L17.95 27.237C18.1847 26.4995 18.7316 25.9733 18.9322 25.2773L18.9362 25.0915C18.9764 25.1292 19.0195 25.1418 19.0657 25.1292C19.077 25.126 19.0875 25.1204 19.0963 25.1129C19.1051 25.1054 19.1122 25.0962 19.1169 25.0859C19.6025 24.0249 19.9918 23.8919 21.0925 23.3874C21.1083 23.3799 21.1217 23.3689 21.1316 23.3553C21.2252 23.2239 21.353 23.1331 21.5149 23.0828Z" fill="#9DBA7B"/>
<path d="M11.7623 23.4646C13.4807 23.8657 15.2178 23.9475 16.9737 23.7098C17.5249 23.635 18.0761 23.5611 18.6272 23.4882L18.9363 25.0914L18.9323 25.2772C18.6132 24.6972 18.4557 24.0606 17.5777 24.1474C15.548 24.3483 13.5663 24.3568 11.382 23.9795C11.4489 23.7689 11.5757 23.5973 11.7623 23.4646Z" fill="#EEE0C0"/>
<path d="M11.382 23.9795C13.5663 24.3567 15.548 24.3482 17.5777 24.1474C18.4557 24.0606 18.6132 24.6972 18.9323 25.2772C18.7316 25.9732 18.1848 26.4994 17.95 27.2369C15.87 27.5264 14.2627 27.5151 12.2389 27.1426L10.9887 25.2847C11.0178 24.8782 11.1061 24.5369 11.382 23.9795Z" fill="#F6F2DD"/>
<path d="M21.0895 26.2901C21.6614 26.607 21.8039 27.2559 21.2831 27.6736C21.0764 27.8396 20.5015 28.0141 20.2577 27.7557C20.9229 27.7199 20.5145 26.2336 21.0895 26.2901Z" fill="#133639"/>
<path d="M9.19271 26.3232C9.66027 26.4694 9.19171 27.5615 9.80576 27.7322C9.78302 27.8007 9.73452 27.8422 9.66027 27.8567C8.4733 28.0925 8.09203 26.6826 9.19271 26.3232Z" fill="#133639"/>
<path d="M12.2389 27.1426C14.2626 27.5151 15.87 27.5264 17.95 27.2369L17.954 27.6179C17.9426 27.7015 17.9761 27.7917 18.0543 27.8885L12.1345 27.8838C12.2496 27.6845 12.29 27.5003 12.2559 27.3312L12.2389 27.1426Z" fill="#EBD7B6"/>
<path d="M20.1363 27.7989C19.771 28.0058 19.3781 28.0529 18.9573 27.9404C18.8182 27.7203 18.7831 27.4915 18.852 27.2538C18.8633 27.2142 18.8827 27.2048 18.9102 27.2255C18.9167 27.2307 18.9217 27.2372 18.9248 27.2445C18.928 27.2517 18.9292 27.2595 18.9282 27.267C18.8727 27.8649 19.156 28.0709 19.7781 27.8848C19.7956 27.8796 19.8112 27.87 19.8232 27.857C19.8353 27.844 19.8433 27.8282 19.8463 27.8112L19.9216 27.4038C19.9246 27.3865 19.9284 27.3703 19.9322 27.3582C19.9361 27.3461 19.9398 27.3389 19.9426 27.3378L19.9607 27.3312C19.9629 27.3303 19.9653 27.3304 19.9679 27.3312C19.9704 27.3321 19.9731 27.3337 19.9756 27.3361C19.9782 27.3385 19.9805 27.3416 19.9826 27.3451C19.9847 27.3486 19.9865 27.3525 19.9878 27.3566L20.1363 27.7989Z" fill="#618448"/>
<path d="M12.256 27.3313C12.2901 27.5004 12.2496 27.6846 12.1345 27.8839L11.5325 27.917L11.8626 27.7962C11.8803 27.7901 11.8956 27.7793 11.9068 27.7651L12.256 27.3313Z" fill="#618448"/>
<path d="M11.2566 27.9405L10.8803 27.9876C10.9439 27.8663 10.9833 27.7402 10.9987 27.6094C11.0221 27.402 11.0736 27.3957 11.1532 27.5906C11.1994 27.7038 11.2338 27.8204 11.2566 27.9405Z" fill="#618448"/>
<path d="M10.5041 27.9876C10.2285 28.007 10.0348 27.9061 9.92313 27.6848C9.87563 27.5817 9.88098 27.5151 9.93918 27.4849C9.94647 27.4812 9.95462 27.4791 9.96292 27.479C9.97122 27.4789 9.97943 27.4807 9.98684 27.4842C9.99425 27.4877 10.0006 27.4929 10.0054 27.4993C10.0102 27.5056 10.0133 27.513 10.0144 27.5207C10.0532 27.7823 10.2164 27.9379 10.5041 27.9876Z" fill="#133639"/>
<path d="M17.954 27.6179C18.0256 27.6217 18.0794 27.6525 18.1155 27.7103C18.1272 27.7292 18.1453 27.7436 18.1667 27.7509L18.6313 27.9169L18.0543 27.8886C17.9761 27.7918 17.9426 27.7015 17.954 27.6179Z" fill="#618448"/>
</g>
<defs>
<clipPath id="clip0_55889_43138">
<rect width="24" height="24" fill="white" transform="translate(4 4)"/>
</clipPath>
</defs>
</svg>
