<svg width="32" height="32" viewBox="0 0 32 32" fill="none" xmlns="http://www.w3.org/2000/svg">
<path d="M0 16C0 7.16344 7.16344 0 16 0C24.8366 0 32 7.16344 32 16C32 24.8366 24.8366 32 16 32C7.16344 32 0 24.8366 0 16Z" fill="#FFF3D6"/>
<g clip-path="url(#clip0_55889_43174)">
<path d="M21.8594 9.77021L22.6701 11.0154L23.1269 11.7938C23.711 12.8484 24.2299 13.9311 24.6838 15.042C24.6912 15.0593 24.704 15.0738 24.7204 15.0833L24.7657 15.11C24.7771 15.4329 25.1493 16.0796 25.3062 16.3776C25.6697 17.5676 25.7813 18.471 24.9471 19.4922C24.5013 19.9854 23.9835 20.3921 23.3937 20.7124L21.2736 21.6003L20.6251 21.7837L20.1674 21.7553L20.2982 21.5469C20.4894 21.3488 20.6271 21.116 20.7114 20.8485C20.8241 20.8692 20.9046 20.9266 20.9528 21.0207C20.9624 21.0395 20.9787 21.0541 20.9986 21.0618C21.0186 21.0694 21.0408 21.0695 21.0609 21.0621C21.6002 20.8657 22.1198 20.6295 22.6196 20.3534C23.554 19.8384 24.8276 18.7508 24.8895 17.6184C24.9186 17.0897 24.8134 16.5377 24.574 15.9625C23.7423 13.9673 22.9046 12.0272 21.6066 10.2731C21.5995 10.2636 21.5944 10.2527 21.5917 10.2411C21.589 10.2296 21.5887 10.2176 21.5909 10.2059C21.6493 9.90971 21.2335 9.70648 20.9929 9.69271C20.9789 9.69189 20.9654 9.68779 20.9534 9.68075C20.9414 9.6737 20.9313 9.66392 20.9241 9.65223C20.838 9.51675 20.7093 9.47025 20.5379 9.51273C20.3461 9.29975 20.1282 9.11805 19.8841 8.96764C19.1693 8.14183 17.1695 8.12805 16.1688 8.14441C15.9904 8.14786 15.9459 8.06749 16.0354 7.9033L16.5593 6.94143C16.6076 6.85302 16.5808 6.81083 16.4791 6.81485C15.0495 6.86996 13.7707 7.3209 12.6427 8.16767C11.8262 8.78021 11.1883 9.44786 10.7292 10.1706C10.5514 10.3695 10.3317 10.5719 10.2001 10.813C10.1606 10.8859 10.1144 10.9588 10.0615 11.0317C9.23074 12.2881 8.74693 13.4747 8.0356 15.054C7.632 15.9487 6.80211 17.1026 7.24495 18.117C7.96761 19.7721 9.39201 20.4068 10.9759 21.0414C10.992 21.0478 11.0096 21.0493 11.0265 21.0458C11.0434 21.0422 11.0589 21.0338 11.0709 21.0216C11.1151 20.9768 11.1761 20.9559 11.254 20.9587C11.3394 21.1717 11.4632 21.3393 11.6254 21.4616C11.6382 21.5753 11.6742 21.666 11.7335 21.7337L11.2714 21.7647L10.7179 21.5865C9.28391 21.1129 7.76537 20.3353 6.85703 19.1719C6.16924 18.2918 6.19714 17.3575 6.56849 16.3586L7.17172 15.2039C7.17471 15.1982 7.17634 15.1919 7.17649 15.1854C7.17664 15.1788 7.17531 15.1722 7.1726 15.166C7.1662 15.1511 7.15371 15.1396 7.13511 15.1315C7.21008 15.1361 7.25861 15.1186 7.28069 15.079C7.83162 14.1008 8.41045 12.797 9.04942 11.6621L9.38329 11.1024L10.1121 9.8744C10.1266 9.87842 10.1417 9.86952 10.1574 9.84771C10.9257 8.7937 11.8372 7.87919 12.892 7.10418C13.5231 6.6409 14.1324 6.15121 14.72 5.63511C15.2657 5.15633 15.746 4.63076 16.1609 4.0584C16.222 3.97516 16.2725 3.9809 16.3126 4.07562C16.5323 4.59115 16.5218 5.09232 16.2812 5.57914C16.2214 5.70142 16.2565 5.74132 16.3867 5.69884C16.6703 5.60698 16.9568 5.52719 17.2462 5.45944C17.9152 5.30215 18.5721 5.27861 19.2172 5.38883C19.2305 5.39103 19.243 5.39623 19.2539 5.40402C19.2648 5.41181 19.2737 5.42198 19.28 5.43374C19.2862 5.44549 19.2896 5.45851 19.2899 5.47179C19.2902 5.48506 19.2874 5.49822 19.2817 5.51025C19.1039 5.88053 18.8534 6.18967 18.5303 6.43767C18.4513 6.49795 18.4606 6.53843 18.5582 6.55909C18.8464 6.62052 19.1205 6.72127 19.3802 6.86135C20.1186 7.26091 20.972 8.0118 21.1882 8.82556C21.271 9.13728 21.6554 9.51101 21.8594 9.77021Z" fill="#8EB8B9"/>
<path d="M19.8841 8.96776C18.8947 8.69306 18.2374 9.42932 18.6759 10.3128C18.9798 10.9265 19.4607 11.3419 20.1186 11.5589C20.5135 11.6889 21.0295 11.6743 21.3137 11.3548C21.7548 10.8571 20.945 9.89691 20.5379 9.51285C20.7093 9.47037 20.838 9.51687 20.9241 9.65235C20.9313 9.66403 20.9414 9.67382 20.9534 9.68086C20.9654 9.68791 20.9789 9.69201 20.9929 9.69282C21.2335 9.7066 21.6493 9.90982 21.5909 10.206C21.5887 10.2177 21.589 10.2297 21.5917 10.2413C21.5944 10.2528 21.5995 10.2637 21.6066 10.2732C22.9046 12.0273 23.7423 13.9674 24.574 15.9626C24.8134 16.5379 24.9186 17.0898 24.8895 17.6186C24.8276 18.7509 23.554 19.8385 22.6196 20.3535C22.1198 20.6296 21.6002 20.8658 21.0609 21.0622C21.0408 21.0696 21.0186 21.0695 20.9986 21.0619C20.9787 21.0543 20.9624 21.0396 20.9528 21.0208C20.9046 20.9267 20.8241 20.8693 20.7114 20.8486C21.3277 19.0446 19.4683 18.1395 18.1842 17.5066C17.7338 17.2844 17.4505 16.9371 17.3343 16.4647C16.888 14.6434 17.8259 12.9039 17.6795 11.1912C17.6394 10.7253 17.4851 10.3619 17.1835 10.0261C17.0527 9.88026 17.0129 9.9015 17.0641 10.0898C17.178 10.5066 17.1422 10.9618 16.9568 11.4555C16.3928 12.9573 15.9308 14.212 16.011 15.8119C16.0279 16.1541 16.0735 16.5654 16.1479 17.0459C15.6841 17.0123 15.1375 17.0726 14.7862 17.405C13.7256 17.6111 12.8182 17.9636 12.0638 18.4625C11.1683 19.0549 10.8983 19.887 11.254 20.9588C11.1761 20.956 11.1151 20.9769 11.0709 21.0217C11.0589 21.0339 11.0434 21.0424 11.0265 21.0459C11.0096 21.0494 10.992 21.0479 10.9759 21.0415C9.39201 20.4069 7.96761 19.7722 7.24495 18.1172C6.80211 17.1028 7.63199 15.9489 8.0356 15.0542C8.74693 13.4749 9.23074 12.2882 10.0615 11.0319C10.287 11.5566 10.6854 11.7159 11.2566 11.5098C11.4318 11.4461 11.9531 11.5821 12.2129 11.5606C12.9626 11.4986 15.6824 11.1567 15.4479 9.92274C15.3241 9.26829 14.1752 9.18907 13.6382 9.24332C12.6078 9.34895 11.6381 9.65809 10.7292 10.1707C11.1883 9.44798 11.8262 8.78032 12.6427 8.16778C13.7707 7.32101 15.0495 6.87007 16.4791 6.81496C16.5808 6.81094 16.6076 6.85314 16.5593 6.94154L16.0354 7.90342C15.9459 8.0676 15.9904 8.14797 16.1688 8.14453C17.1695 8.12817 19.1693 8.14194 19.8841 8.96776ZM12.8754 15.9075C12.8754 15.7295 12.8399 15.5533 12.771 15.3888C12.702 15.2244 12.601 15.075 12.4735 14.9491C12.3461 14.8232 12.1949 14.7234 12.0284 14.6553C11.8619 14.5872 11.6835 14.5521 11.5033 14.5521C11.3231 14.5521 11.1447 14.5872 10.9782 14.6553C10.8118 14.7234 10.6605 14.8232 10.5331 14.9491C10.4057 15.075 10.3046 15.2244 10.2357 15.3888C10.1667 15.5533 10.1312 15.7295 10.1312 15.9075C10.1312 16.267 10.2758 16.6117 10.5331 16.8659C10.7904 17.1201 11.1394 17.2629 11.5033 17.2629C11.8672 17.2629 12.2162 17.1201 12.4735 16.8659C12.7309 16.6117 12.8754 16.267 12.8754 15.9075ZM21.6842 16.1271C21.6842 15.9521 21.6493 15.7787 21.5815 15.617C21.5137 15.4553 21.4143 15.3083 21.289 15.1845C21.1637 15.0607 21.0149 14.9626 20.8512 14.8956C20.6874 14.8286 20.512 14.7941 20.3348 14.7941C19.9769 14.7941 19.6336 14.9345 19.3806 15.1845C19.1275 15.4345 18.9853 15.7736 18.9853 16.1271C18.9853 16.3022 19.0202 16.4755 19.0881 16.6372C19.1559 16.799 19.2553 16.9459 19.3806 17.0697C19.5059 17.1935 19.6546 17.2917 19.8184 17.3586C19.9821 17.4256 20.1576 17.4601 20.3348 17.4601C20.512 17.4601 20.6874 17.4256 20.8512 17.3586C21.0149 17.2917 21.1637 17.1935 21.289 17.0697C21.4143 16.9459 21.5137 16.799 21.5815 16.6372C21.6493 16.4755 21.6842 16.3022 21.6842 16.1271Z" fill="#9AC0C1"/>
<path d="M19.8841 8.96754C20.1282 9.11795 20.3461 9.29965 20.5379 9.51263C20.945 9.89669 21.7548 10.8568 21.3137 11.3546C21.0295 11.674 20.5135 11.6887 20.1186 11.5586C19.4607 11.3416 18.9798 10.9263 18.6759 10.3126C18.2374 9.4291 18.8947 8.69284 19.8841 8.96754Z" fill="#ACC9C9"/>
<path d="M10.112 9.87448L9.38327 11.1024C7.27632 9.45856 4.44059 11.7181 5.75864 14.0535C5.9481 14.3893 6.21078 14.6531 6.54668 14.8449C6.72684 14.9717 6.92298 15.0673 7.1351 15.1316C7.15369 15.1397 7.16619 15.1511 7.17258 15.1661C7.17529 15.1723 7.17662 15.1789 7.17647 15.1854C7.17632 15.192 7.17469 15.1983 7.17171 15.2039L6.56848 16.3587C4.62366 15.65 3.57323 13.759 4.16426 11.7741C4.94184 9.16147 7.92575 8.24955 10.112 9.87448Z" fill="#416976"/>
<path d="M25.3062 16.3774C25.1493 16.0795 24.7771 15.4328 24.7657 15.1099L25.2487 14.9557C26.4996 14.3504 26.9738 12.8951 26.2163 11.7119C25.4169 10.4659 23.9149 10.2136 22.6701 11.0153L21.8594 9.77008C23.4311 8.86504 25.2208 8.7953 26.6443 9.97847C28.9648 11.9065 28.1681 15.4845 25.3062 16.3774Z" fill="#416976"/>
<path d="M10.0615 11.0318C10.1144 10.9589 10.1606 10.886 10.2001 10.813C10.3317 10.5719 10.5514 10.3696 10.7292 10.1707C11.6382 9.658 12.6078 9.34886 13.6382 9.24323C14.1752 9.18898 15.3241 9.2682 15.4479 9.92265C15.6824 11.1566 12.9626 11.4985 12.2129 11.5605C11.9531 11.582 11.4318 11.446 11.2566 11.5097C10.6854 11.7158 10.287 11.5565 10.0615 11.0318Z" fill="#ACC9C9"/>
<path d="M20.7113 20.8484C20.6271 21.1159 20.4893 21.3487 20.2981 21.5468C20.1889 21.5169 20.109 21.5078 20.0584 21.5192C17.3169 22.1539 14.3591 22.0626 11.6254 21.4615C11.4632 21.3393 11.3394 21.1716 11.254 20.9586C10.8983 19.8868 11.1683 19.0547 12.0638 18.4623C12.8182 17.9634 13.7256 17.6109 14.7862 17.4048C14.4593 18.1368 15.182 18.7559 15.8558 18.8455C15.8749 18.8482 15.8926 18.857 15.9061 18.8703C15.9196 18.8837 15.9283 18.901 15.9308 18.9195C15.9805 19.2993 15.8933 19.8926 15.3476 19.7488C15.3363 19.7458 15.3257 19.7406 15.3165 19.7335C15.3072 19.7264 15.2994 19.7176 15.2936 19.7074C15.1791 19.5013 15.0661 19.5197 14.9545 19.7626C14.946 19.7816 14.9446 19.803 14.9505 19.8228C14.9564 19.8427 14.9693 19.8598 14.9867 19.8711C15.4598 20.1713 15.812 20.1248 16.0433 19.7316C16.0845 19.6609 16.1249 19.6615 16.1644 19.7333C16.2946 19.9692 16.4878 20.0766 16.7441 20.0553C16.8563 20.0461 16.9493 20.0154 17.0231 19.9632C17.1277 19.888 17.1512 19.7933 17.0937 19.679C17.0878 19.6676 17.0795 19.6575 17.0692 19.6497C17.0589 19.6418 17.047 19.6363 17.0343 19.6336C17.0216 19.6308 17.0084 19.631 16.9958 19.6339C16.9831 19.6369 16.9713 19.6426 16.9612 19.6506C16.6997 19.8567 16.4745 19.8047 16.2856 19.4947C16.2316 19.4063 16.2191 19.2091 16.2481 18.9032C16.2497 18.8849 16.257 18.8676 16.2691 18.8539C16.2812 18.8401 16.2973 18.8305 16.3152 18.8265C16.7075 18.7381 16.9981 18.5309 17.187 18.2048C17.6516 17.4014 16.7755 17.1112 16.1479 17.0457C16.0735 16.5652 16.0279 16.1539 16.011 15.8117C15.9308 14.2118 16.3928 12.9571 16.9568 11.4553C17.1422 10.9616 17.178 10.5064 17.064 10.0896C17.0129 9.9013 17.0527 9.88006 17.1835 10.0259C17.4851 10.3617 17.6394 10.7251 17.6795 11.191C17.8259 12.9037 16.888 14.6432 17.3343 16.4645C17.4505 16.9369 17.7338 17.2843 18.1842 17.5064C19.4683 18.1393 21.3277 19.0444 20.7113 20.8484Z" fill="#FEFEFE"/>
<path d="M9.38328 11.1023L9.04941 11.662C8.55688 11.6129 8.12712 11.5363 7.6468 11.7034C6.40285 12.1382 5.85366 13.4325 6.70621 14.5192C6.71526 14.5307 6.72113 14.5445 6.72327 14.5591C6.72541 14.5737 6.72374 14.5887 6.71842 14.6027C6.68297 14.6946 6.62572 14.7753 6.54669 14.8447C6.21078 14.653 5.9481 14.3892 5.75865 14.0533C4.4406 11.718 7.27632 9.45842 9.38328 11.1023Z" fill="#F7B4BB"/>
<path d="M25.2487 14.9559L25.1964 14.8448C25.19 14.831 25.1874 14.8157 25.189 14.8004C25.1905 14.7851 25.1961 14.7705 25.2051 14.7578C25.4649 14.4022 25.6758 14.1025 25.7177 13.7012C25.7717 13.1691 25.4744 12.5284 25.0987 12.1727C24.5536 11.6595 23.8963 11.5332 23.1269 11.7939L22.6701 11.0154C23.9149 10.2137 25.4169 10.466 26.2163 11.712C26.9738 12.8952 26.4996 14.3505 25.2487 14.9559Z" fill="#F7B4BB"/>
<path d="M9.0494 11.662C8.41042 12.7969 7.8316 14.1007 7.28067 15.0789C7.25858 15.1185 7.21006 15.136 7.13509 15.1314C6.92297 15.0671 6.72683 14.9716 6.54668 14.8447C6.62571 14.7752 6.68296 14.6946 6.71841 14.6027C6.72373 14.5887 6.7254 14.5737 6.72326 14.559C6.72112 14.5444 6.71525 14.5307 6.7062 14.5192C5.85366 13.4324 6.40284 12.1382 7.64679 11.7033C8.12711 11.5363 8.55687 11.6129 9.0494 11.662Z" fill="#F79EB1"/>
<path d="M25.2487 14.9558L24.7657 15.11L24.7204 15.0833C24.704 15.0737 24.6912 15.0592 24.6838 15.0419C24.2299 13.9311 23.7109 12.8484 23.1269 11.7938C23.8963 11.5331 24.5536 11.6594 25.0987 12.1727C25.4744 12.5283 25.7717 13.169 25.7177 13.7012C25.6758 14.1024 25.4649 14.4021 25.2051 14.7578C25.1961 14.7704 25.1905 14.7851 25.189 14.8003C25.1874 14.8156 25.19 14.8309 25.1964 14.8447L25.2487 14.9558Z" fill="#F79EB1"/>
<path d="M12.8754 15.9074C12.8754 16.2669 12.7309 16.6116 12.4735 16.8658C12.2162 17.12 11.8672 17.2628 11.5033 17.2628C11.1394 17.2628 10.7904 17.12 10.5331 16.8658C10.2758 16.6116 10.1312 16.2669 10.1312 15.9074C10.1312 15.7294 10.1667 15.5532 10.2357 15.3887C10.3046 15.2243 10.4057 15.0749 10.5331 14.949C10.6605 14.8231 10.8118 14.7233 10.9782 14.6552C11.1447 14.5871 11.3231 14.552 11.5033 14.552C11.6835 14.552 11.8619 14.5871 12.0284 14.6552C12.1949 14.7233 12.3461 14.8231 12.4735 14.949C12.6009 15.0749 12.702 15.2243 12.771 15.3887C12.8399 15.5532 12.8754 15.7294 12.8754 15.9074ZM12.3402 16.232C12.0447 16.8822 11.2244 16.995 10.7894 16.4198C10.6272 16.2051 10.5459 15.9525 10.5453 15.662C10.5444 15.5776 10.5104 15.4433 10.4015 15.4846C10.3876 15.4899 10.3753 15.4985 10.3657 15.5098C10.3561 15.5211 10.3495 15.5347 10.3465 15.5492C10.2724 15.9384 10.4616 16.4637 10.7545 16.7057C11.2653 17.1282 11.7875 17.0969 12.321 16.6118C12.8737 16.1098 12.4273 14.7363 11.6193 14.7931C11.4719 14.8034 11.3638 14.7724 11.2226 14.7621C11.2111 14.7613 11.1995 14.7627 11.1886 14.7664C11.1776 14.77 11.1675 14.7758 11.1588 14.7833C11.1502 14.7908 11.1431 14.8 11.138 14.8103C11.133 14.8205 11.13 14.8317 11.1294 14.8431C11.123 14.9435 11.1703 15.0064 11.2714 15.0316C11.2847 15.0351 11.2969 15.0416 11.3072 15.0508C11.3175 15.0599 11.3255 15.0713 11.3307 15.0842C11.3702 15.1841 11.4336 15.2475 11.5208 15.2745C12.0203 15.4321 12.64 15.5733 12.3402 16.232ZM11.2566 15.3838C11.2566 15.3041 11.2246 15.2277 11.1675 15.1713C11.1105 15.115 11.0331 15.0833 10.9524 15.0833C10.9124 15.0833 10.8729 15.0911 10.836 15.1062C10.7991 15.1213 10.7655 15.1434 10.7373 15.1713C10.709 15.1992 10.6866 15.2324 10.6713 15.2688C10.656 15.3053 10.6482 15.3444 10.6482 15.3838C10.6482 15.4233 10.656 15.4624 10.6713 15.4989C10.6866 15.5353 10.709 15.5684 10.7373 15.5964C10.7655 15.6243 10.7991 15.6464 10.836 15.6615C10.8729 15.6766 10.9124 15.6844 10.9524 15.6844C11.0331 15.6844 11.1105 15.6527 11.1675 15.5964C11.2246 15.54 11.2566 15.4635 11.2566 15.3838Z" fill="#180E1C"/>
<path d="M10.7894 16.4198C11.2244 16.9951 12.0447 16.8823 12.3402 16.2321C12.64 15.5734 12.0202 15.4321 11.5207 15.2746C11.4336 15.2476 11.3702 15.1841 11.3307 15.0842C11.3255 15.0714 11.3175 15.06 11.3072 15.0508C11.2969 15.0417 11.2846 15.0352 11.2714 15.0317C11.1703 15.0065 11.1229 14.9436 11.1293 14.8431C11.13 14.8317 11.133 14.8206 11.138 14.8103C11.1431 14.8001 11.1502 14.7909 11.1588 14.7834C11.1675 14.7758 11.1776 14.7701 11.1886 14.7665C11.1995 14.7628 11.2111 14.7614 11.2226 14.7622C11.3638 14.7725 11.4719 14.8035 11.6192 14.7932C12.4273 14.7363 12.8737 16.1098 12.321 16.6119C11.7875 17.097 11.2653 17.1283 10.7545 16.7057C10.4616 16.4638 10.2724 15.9385 10.3465 15.5492C10.3495 15.5347 10.356 15.5212 10.3657 15.5099C10.3753 15.4986 10.3876 15.4899 10.4014 15.4847C10.5104 15.4433 10.5444 15.5777 10.5453 15.6621C10.5459 15.9525 10.6272 16.2051 10.7894 16.4198Z" fill="#28192F"/>
<path d="M21.6842 16.127C21.6842 16.302 21.6493 16.4754 21.5815 16.6371C21.5137 16.7988 21.4143 16.9458 21.289 17.0695C21.1637 17.1933 21.0149 17.2915 20.8512 17.3585C20.6875 17.4255 20.512 17.46 20.3348 17.46C20.1576 17.46 19.9821 17.4255 19.8184 17.3585C19.6547 17.2915 19.5059 17.1933 19.3806 17.0695C19.2553 16.9458 19.1559 16.7988 19.0881 16.6371C19.0203 16.4754 18.9854 16.302 18.9854 16.127C18.9854 15.7734 19.1275 15.4344 19.3806 15.1844C19.6337 14.9344 19.9769 14.7939 20.3348 14.7939C20.512 14.7939 20.6875 14.8284 20.8512 14.8954C21.0149 14.9624 21.1637 15.0606 21.289 15.1844C21.4143 15.3082 21.5137 15.4551 21.5815 15.6168C21.6493 15.7786 21.6842 15.9519 21.6842 16.127ZM21.2344 15.7153C21.2344 15.6823 21.2278 15.6496 21.215 15.6191C21.2022 15.5886 21.1835 15.5609 21.1598 15.5375C21.1362 15.5142 21.1082 15.4957 21.0773 15.483C21.0464 15.4704 21.0133 15.4639 20.9799 15.4639C20.9123 15.4639 20.8476 15.4904 20.7999 15.5375C20.7521 15.5847 20.7253 15.6487 20.7253 15.7153C20.7253 15.782 20.7521 15.846 20.7999 15.8931C20.8476 15.9403 20.9123 15.9668 20.9799 15.9668C21.0133 15.9668 21.0464 15.9603 21.0773 15.9477C21.1082 15.935 21.1362 15.9165 21.1598 15.8931C21.1835 15.8698 21.2022 15.8421 21.215 15.8116C21.2278 15.7811 21.2344 15.7484 21.2344 15.7153Z" fill="#180E1C"/>
<path d="M10.9524 15.6843C11.1204 15.6843 11.2566 15.5498 11.2566 15.3838C11.2566 15.2178 11.1204 15.0833 10.9524 15.0833C10.7844 15.0833 10.6482 15.2178 10.6482 15.3838C10.6482 15.5498 10.7844 15.6843 10.9524 15.6843Z" fill="#F4F3F3"/>
<path d="M20.9798 15.9668C21.1204 15.9668 21.2344 15.8542 21.2344 15.7153C21.2344 15.5764 21.1204 15.4639 20.9798 15.4639C20.8392 15.4639 20.7253 15.5764 20.7253 15.7153C20.7253 15.8542 20.8392 15.9668 20.9798 15.9668Z" fill="#E4E9EB"/>
<path d="M16.1479 17.0458C16.7755 17.1112 17.6516 17.4014 17.187 18.2049C16.9981 18.5309 16.7075 18.7382 16.3153 18.8266C16.2974 18.8306 16.2812 18.8401 16.2691 18.8539C16.257 18.8677 16.2497 18.885 16.2481 18.9032C16.2191 19.2092 16.2316 19.4064 16.2856 19.4948C16.4745 19.8048 16.6997 19.8568 16.9612 19.6507C16.9713 19.6426 16.9832 19.6369 16.9958 19.634C17.0085 19.631 17.0216 19.6309 17.0343 19.6336C17.047 19.6364 17.059 19.6419 17.0692 19.6497C17.0795 19.6576 17.0879 19.6676 17.0937 19.6791C17.1512 19.7933 17.1277 19.8881 17.0231 19.9633C16.9493 20.0155 16.8563 20.0462 16.7442 20.0554C16.4879 20.0766 16.2946 19.9693 16.1645 19.7333C16.1249 19.6616 16.0845 19.661 16.0433 19.7316C15.812 20.1249 15.4598 20.1714 14.9868 19.8711C14.9693 19.8599 14.9564 19.8428 14.9505 19.8229C14.9446 19.803 14.946 19.7817 14.9545 19.7626C15.0661 19.5198 15.1791 19.5014 15.2936 19.7075C15.2994 19.7176 15.3072 19.7265 15.3165 19.7336C15.3258 19.7407 15.3364 19.7459 15.3477 19.7488C15.8933 19.8926 15.9805 19.2993 15.9308 18.9196C15.9283 18.901 15.9197 18.8838 15.9061 18.8704C15.8926 18.857 15.875 18.8483 15.8559 18.8455C15.182 18.756 14.4594 18.1368 14.7863 17.4049C15.1376 17.0725 15.6841 17.0122 16.1479 17.0458ZM16.2189 17.5517C16.2177 17.5322 16.2101 17.5133 16.1964 17.496C16.1828 17.4787 16.1635 17.4634 16.1395 17.451C16.1156 17.4386 16.0874 17.4293 16.0568 17.4236C16.0261 17.418 15.9935 17.4161 15.9609 17.4181C15.9282 17.42 15.8961 17.4258 15.8663 17.4351C15.8366 17.4444 15.8098 17.457 15.7876 17.4722C15.7653 17.4875 15.748 17.505 15.7366 17.5238C15.7252 17.5425 15.72 17.5623 15.7212 17.5818C15.7224 17.6013 15.7301 17.6203 15.7437 17.6376C15.7573 17.6548 15.7766 17.6701 15.8006 17.6825C15.8246 17.695 15.8527 17.7042 15.8833 17.7099C15.914 17.7155 15.9466 17.7174 15.9793 17.7155C16.0119 17.7135 16.0441 17.7077 16.0738 17.6984C16.1035 17.6891 16.1303 17.6765 16.1525 17.6613C16.1748 17.6461 16.1921 17.6286 16.2035 17.6098C16.2149 17.591 16.2201 17.5713 16.2189 17.5517Z" fill="#2B1A26"/>
<path d="M15.9792 17.7155C16.1167 17.7072 16.224 17.6339 16.2189 17.5517C16.2138 17.4696 16.0983 17.4098 15.9608 17.4181C15.8234 17.4264 15.7161 17.4997 15.7212 17.5818C15.7263 17.6639 15.8418 17.7238 15.9792 17.7155Z" fill="#B38F8E"/>
<path d="M24.9471 19.4922C26.2186 20.5674 26.7393 21.9114 26.5092 23.5239C26.3587 24.578 25.8136 25.4221 24.8738 26.0565C23.8391 26.605 22.9883 26.7531 21.7958 26.7342C21.7723 26.7342 21.7498 26.7432 21.733 26.7592C21.4645 27.0187 21.1257 27.1556 20.7166 27.1699C20.8903 26.8439 21.0353 26.504 21.1516 26.1504C21.3067 25.9104 21.3573 25.9652 21.3033 26.3148C21.2999 26.337 21.3055 26.3598 21.3189 26.3786L21.5151 26.6455C21.5276 26.6624 21.5461 26.6742 21.5669 26.6787C21.5878 26.6831 21.6096 26.6799 21.6284 26.6696L21.7243 26.6171C21.7423 26.6071 21.7633 26.6037 21.7836 26.6076C21.8783 26.6266 21.9419 26.6019 21.9745 26.5336C22.1494 26.1696 22.2799 25.7029 22.3659 25.1334L22.3824 25.3185C22.3842 25.341 22.395 25.3619 22.4125 25.3766C22.43 25.3913 22.4527 25.3986 22.4757 25.3969C23.3736 25.3337 24.0634 24.9666 24.5452 24.2955C25.4439 23.0452 24.9941 21.1851 23.3937 20.7124C23.9835 20.3921 24.5013 19.9853 24.9471 19.4922ZM24.5295 20.9535C24.71 21.2635 25.0029 21.5701 25.2278 21.8603C25.2359 21.8709 25.2464 21.8795 25.2585 21.8853C25.2707 21.8912 25.284 21.8941 25.2975 21.8939C25.6102 21.8921 25.883 21.7865 26.116 21.577C26.1283 21.5657 26.137 21.5511 26.1411 21.5351C26.1453 21.5191 26.1448 21.5023 26.1396 21.4865C25.9536 20.928 25.6444 20.4503 25.2121 20.0536C25.2018 20.0444 25.1895 20.0377 25.1761 20.0341C25.1627 20.0304 25.1486 20.03 25.135 20.0328C25.1214 20.0355 25.1087 20.0414 25.0978 20.05C25.087 20.0586 25.0783 20.0696 25.0726 20.0821C24.9436 20.3697 24.7669 20.6257 24.5426 20.8502C24.5293 20.8636 24.5208 20.881 24.5184 20.8997C24.5161 20.9183 24.52 20.9372 24.5295 20.9535ZM25.3489 23.6015C25.6906 23.7794 26.0103 23.7547 26.3078 23.5274C26.3186 23.5194 26.3273 23.509 26.3332 23.4968C26.3391 23.4847 26.3421 23.4713 26.3418 23.4576C26.3322 22.9625 26.4281 22.2633 26.1771 22.0738C26.1641 22.064 26.1485 22.0581 26.1321 22.0567C26.1158 22.0554 26.0993 22.0586 26.0847 22.0661C25.851 22.1838 25.6055 22.2679 25.3481 22.3184C25.3261 22.3227 25.3066 22.3354 25.2938 22.3539C25.281 22.3723 25.2757 22.3951 25.2792 22.4174C25.3396 22.782 25.3478 23.1479 25.3036 23.5153C25.3015 23.5325 25.3047 23.5499 25.3128 23.5653C25.3209 23.5807 25.3335 23.5933 25.3489 23.6015ZM24.7535 24.9835L25.3097 25.2746C25.441 25.3429 25.5393 25.3053 25.6043 25.1618L25.9835 24.3274C25.9893 24.315 25.9919 24.3015 25.9912 24.2879C25.9906 24.2743 25.9866 24.261 25.9797 24.2492C25.9728 24.2374 25.9632 24.2273 25.9516 24.2197C25.94 24.2122 25.9267 24.2075 25.9129 24.206C25.6224 24.1761 25.3568 24.0831 25.1162 23.927C25.1053 23.92 25.0931 23.9155 25.0803 23.9137C25.0676 23.912 25.0546 23.9131 25.0423 23.9169C25.03 23.9206 25.0188 23.9271 25.0094 23.9357C25 23.9443 24.9927 23.9548 24.988 23.9666L24.7047 24.6641C24.6391 24.8254 24.6553 24.9319 24.7535 24.9835ZM24.1599 26.159C24.1753 26.1506 24.1925 26.1467 24.2096 26.1478C24.3084 26.1552 24.3938 26.1234 24.4659 26.0522C24.4728 26.0459 24.4807 26.0404 24.4894 26.0358L24.7841 25.8903C24.7952 25.8849 24.805 25.8772 24.8128 25.8677C24.8207 25.8583 24.8264 25.8473 24.8296 25.8355C24.8328 25.8236 24.8335 25.8113 24.8315 25.7992C24.8295 25.7871 24.8249 25.7756 24.818 25.7654L24.3822 25.1213C24.3756 25.1117 24.3672 25.1035 24.3574 25.0972C24.3475 25.0908 24.3365 25.0865 24.3249 25.0845C24.3134 25.0825 24.3015 25.0828 24.2901 25.0855C24.2787 25.0881 24.2679 25.093 24.2584 25.0998C24.087 25.2249 23.9161 25.3515 23.7458 25.4796C23.6976 25.5157 23.6476 25.5398 23.5959 25.5519C23.5564 25.5616 23.5157 25.5697 23.4738 25.576C23.4619 25.578 23.4505 25.5824 23.4404 25.589C23.4302 25.5956 23.4216 25.6041 23.415 25.6142C23.4083 25.6242 23.4039 25.6355 23.4018 25.6473C23.3998 25.6591 23.4003 25.6712 23.4032 25.6828C23.4631 25.9159 23.5689 26.1285 23.7205 26.3209C23.7336 26.3371 23.7521 26.3482 23.7727 26.3522C23.7934 26.3561 23.8147 26.3526 23.833 26.3424L24.1599 26.159ZM22.7547 26.5344L23.2071 26.5112C23.2198 26.5106 23.2323 26.5073 23.2436 26.5014C23.2549 26.4956 23.2648 26.4874 23.2725 26.4773C23.2802 26.4673 23.2856 26.4558 23.2883 26.4435C23.291 26.4311 23.291 26.4184 23.2882 26.4061L23.1339 25.7293C23.1286 25.7075 23.1152 25.6886 23.0964 25.6764C23.0775 25.6642 23.0548 25.6597 23.0328 25.6638C22.6213 25.7387 22.6152 26.1366 22.664 26.4612C22.667 26.4823 22.678 26.5015 22.6948 26.5151C22.7116 26.5286 22.7329 26.5355 22.7547 26.5344Z" fill="#2D4150"/>
<path d="M25.2278 21.8603C25.0028 21.5701 24.7099 21.2635 24.5295 20.9535C24.52 20.9373 24.5161 20.9184 24.5184 20.8997C24.5208 20.881 24.5293 20.8637 24.5426 20.8502C24.7669 20.6257 24.9436 20.3697 25.0726 20.0821C25.0783 20.0696 25.087 20.0586 25.0978 20.05C25.1087 20.0415 25.1214 20.0356 25.135 20.0328C25.1486 20.03 25.1627 20.0305 25.1761 20.0341C25.1895 20.0377 25.2018 20.0444 25.2121 20.0537C25.6444 20.4504 25.9536 20.928 26.1396 21.4866C26.1448 21.5023 26.1453 21.5192 26.1411 21.5352C26.137 21.5512 26.1283 21.5657 26.116 21.577C25.883 21.7865 25.6101 21.8922 25.2975 21.8939C25.284 21.8941 25.2707 21.8912 25.2585 21.8854C25.2464 21.8795 25.2359 21.8709 25.2278 21.8603Z" fill="#44727F"/>
<path d="M23.3937 20.7124C24.9941 21.1852 25.444 23.0452 24.5452 24.2955C24.0634 24.9666 23.3736 25.3337 22.4757 25.3969C22.4527 25.3986 22.43 25.3913 22.4125 25.3766C22.395 25.3619 22.3842 25.341 22.3825 25.3185L22.3659 25.1334C22.4292 24.3521 22.2994 23.5992 21.9762 22.8747C21.8228 22.4131 21.5886 21.9883 21.2736 21.6002L23.3937 20.7124Z" fill="#FEFEFE"/>
<path d="M11.6254 21.4617C14.3591 22.0627 17.3169 22.154 20.0584 21.5194C20.109 21.5079 20.1889 21.5171 20.2982 21.5469L20.1674 21.7553C19.7873 21.9379 19.3872 22.0665 18.967 22.1411C16.9214 22.4132 14.883 22.3943 12.8519 22.0843C12.459 22.0073 12.0862 21.8905 11.7335 21.7338C11.6742 21.666 11.6382 21.5753 11.6254 21.4617Z" fill="#E4E9EB"/>
<path d="M10.7179 21.5864L11.2715 21.7647L10.9524 22.6628C10.8379 22.9671 10.7537 23.2846 10.6996 23.6152L10.1365 23.0004C10.1264 22.9893 10.1135 22.9811 10.0992 22.9764C10.0848 22.9717 10.0694 22.9708 10.0545 22.9737C10.0086 22.9823 9.96533 22.978 9.92465 22.9608C10.0909 22.4665 10.3553 22.0084 10.7179 21.5864Z" fill="#2A4A59"/>
<path d="M21.2736 21.6003C21.5886 21.9884 21.8228 22.4132 21.9762 22.8748L21.1786 23.4879L21.0792 23.1581L20.9302 22.638L20.6251 21.7838L21.2736 21.6003Z" fill="#2A4A59"/>
<path d="M11.7335 21.7336C12.0862 21.8904 12.459 22.0072 12.8519 22.0841L12.6924 23.0899L12.6523 23.1149L12.6479 23.089C12.6469 23.0829 12.6439 23.0773 12.6393 23.0731C12.6348 23.0689 12.6289 23.0663 12.6226 23.0658C12.049 22.9992 11.4923 22.8649 10.9524 22.6628L11.2714 21.7646L11.7335 21.7336Z" fill="#6E9BA0"/>
<path d="M20.1674 21.7554L20.6251 21.7838L20.9302 22.638C20.4589 22.8148 19.978 22.9618 19.4875 23.0789C19.4125 23.097 19.3061 23.0634 19.2486 23.1581L19.1867 23.047C19.1518 22.7382 19.0786 22.4362 18.967 22.1412C19.3872 22.0665 19.7873 21.9379 20.1674 21.7554Z" fill="#6E9BA0"/>
<path d="M25.3489 23.6014C25.3335 23.5932 25.3209 23.5806 25.3128 23.5653C25.3047 23.5499 25.3015 23.5325 25.3036 23.5153C25.3478 23.1479 25.3396 22.7819 25.2792 22.4174C25.2758 22.395 25.281 22.3723 25.2938 22.3538C25.3066 22.3354 25.3261 22.3227 25.3481 22.3184C25.6055 22.2678 25.8511 22.1837 26.0847 22.066C26.0993 22.0586 26.1158 22.0553 26.1321 22.0567C26.1485 22.0581 26.1641 22.064 26.1771 22.0738C26.4281 22.2632 26.3322 22.9625 26.3418 23.4576C26.3421 23.4712 26.3391 23.4847 26.3332 23.4968C26.3273 23.5089 26.3186 23.5194 26.3078 23.5274C26.0103 23.7547 25.6907 23.7794 25.3489 23.6014Z" fill="#44727F"/>
<path d="M12.8519 22.0842C14.883 22.3942 16.9214 22.4132 18.967 22.1411C19.0786 22.4361 19.1518 22.7381 19.1867 23.047C19.1571 23.1202 19.13 23.1658 19.0429 23.1796C16.9926 23.5068 14.9411 23.5131 12.8885 23.1985C12.8083 23.1865 12.7429 23.1503 12.6924 23.09L12.8519 22.0842Z" fill="#2A4A59"/>
<path d="M20.9302 22.6379L21.0792 23.1581C20.5027 23.2643 19.9364 23.4104 19.3802 23.5964C19.364 23.6018 19.3496 23.6118 19.3391 23.6253C19.3286 23.6388 19.3222 23.6551 19.3209 23.6721L19.2739 24.324L19.2486 23.1581C19.3061 23.0633 19.4125 23.0969 19.4874 23.0788C19.9779 22.9617 20.4588 22.8148 20.9302 22.6379Z" fill="#82ABAE"/>
<path d="M10.9524 22.6628C11.4923 22.8649 12.049 22.9993 12.6226 23.0658C12.6289 23.0664 12.6348 23.0689 12.6394 23.0731C12.6439 23.0774 12.647 23.083 12.6479 23.0891L12.6523 23.1149C12.5233 24.3119 12.6383 25.7904 13.7384 26.5198C13.9 26.6926 13.9726 26.8995 13.9564 27.1407C13.9535 27.1826 13.968 27.2173 14 27.2449C13.975 27.254 13.9407 27.2566 13.8971 27.2526C13.0733 28.0069 11.9706 27.7056 11.1921 27.0761C10.5819 25.9825 10.5279 24.8311 10.6996 23.6152C10.7537 23.2846 10.8379 22.9671 10.9524 22.6628Z" fill="#8EB8B9"/>
<path d="M21.9762 22.8748C22.2994 23.5992 22.4292 24.3521 22.3659 25.1335C22.2799 25.703 22.1494 26.1697 21.9745 26.5337C21.9419 26.602 21.8783 26.6267 21.7836 26.6077C21.7633 26.6038 21.7423 26.6072 21.7243 26.6172L21.6284 26.6697C21.6097 26.68 21.5878 26.6832 21.5669 26.6788C21.5461 26.6743 21.5276 26.6625 21.5151 26.6456L21.319 26.3786C21.3055 26.3599 21.2999 26.337 21.3033 26.3149C21.3573 25.9653 21.3067 25.9105 21.1516 26.1505C21.3718 25.2583 21.3808 24.3708 21.1786 23.4879L21.9762 22.8748Z" fill="#3A6371"/>
<path d="M9.92463 22.9609C9.96531 22.9782 10.0086 22.9825 10.0545 22.9739C10.0694 22.971 10.0848 22.9719 10.0992 22.9766C10.1135 22.9813 10.1264 22.9895 10.1365 23.0005L10.6996 23.6154C10.5279 24.8313 10.5819 25.9826 11.1921 27.0762L11.1668 27.1158C10.3248 27.0513 9.83397 26.4269 9.64132 25.6519C9.47976 24.7271 9.5742 23.8301 9.92463 22.9609Z" fill="#3A6371"/>
<path d="M19.1867 23.0469L19.2486 23.158L19.2739 24.3239C19.2024 25.0981 19.0228 25.8688 18.3402 26.3441C18.3124 26.2965 18.2667 26.2898 18.2034 26.3243C17.1207 26.9087 15.9683 27.0502 14.7461 26.7488C14.4593 26.6782 14.1551 26.5542 13.8613 26.4457C13.8434 26.439 13.8236 26.4384 13.8052 26.444C13.7867 26.4497 13.7706 26.4611 13.7593 26.4767C13.7506 26.4888 13.7436 26.5031 13.7384 26.5198C12.6383 25.7904 12.5232 24.3119 12.6522 23.1149L12.6923 23.0899C12.7429 23.1502 12.8083 23.1864 12.8885 23.1984C14.9411 23.513 16.9926 23.5067 19.0429 23.1795C19.13 23.1657 19.1571 23.1201 19.1867 23.0469Z" fill="#3A6371"/>
<path d="M21.0792 23.158L21.1786 23.4878C21.3808 24.3707 21.3718 25.2582 21.1516 26.1503C21.0353 26.504 20.8903 26.8438 20.7166 27.1699L20.476 27.399C20.3409 27.2913 20.2798 27.4188 20.1805 27.4627C19.5607 27.7426 18.9269 27.7959 18.3725 27.4205C18.3603 27.4119 18.3507 27.4007 18.3437 27.3869C18.2089 27.1165 18.1328 26.8407 18.1154 26.5594L18.3403 26.3441C19.0228 25.8688 19.2024 25.0981 19.2739 24.3239L19.321 23.672C19.3222 23.655 19.3286 23.6387 19.3391 23.6252C19.3496 23.6117 19.364 23.6017 19.3802 23.5963C19.9364 23.4103 20.5027 23.2642 21.0792 23.158Z" fill="#8EB8B9"/>
<path d="M24.7535 24.9837C24.6553 24.932 24.6391 24.8255 24.7047 24.6642L24.988 23.9667C24.9927 23.955 25 23.9444 25.0094 23.9358C25.0188 23.9272 25.03 23.9208 25.0423 23.917C25.0546 23.9132 25.0676 23.9122 25.0803 23.9139C25.0931 23.9156 25.1053 23.9202 25.1162 23.9271C25.3568 24.0833 25.6224 24.1763 25.9129 24.2061C25.9267 24.2077 25.94 24.2124 25.9516 24.2199C25.9632 24.2274 25.9728 24.2375 25.9797 24.2494C25.9866 24.2612 25.9906 24.2745 25.9912 24.288C25.9919 24.3016 25.9893 24.3152 25.9835 24.3275L25.6043 25.162C25.5393 25.3055 25.441 25.3431 25.3097 25.2748L24.7535 24.9837Z" fill="#44727F"/>
<path d="M24.1599 26.159L23.833 26.3424C23.8147 26.3527 23.7933 26.3561 23.7727 26.3522C23.7521 26.3482 23.7336 26.3371 23.7205 26.3209C23.5688 26.1286 23.4631 25.9159 23.4032 25.6828C23.4003 25.6712 23.3998 25.6591 23.4018 25.6473C23.4038 25.6355 23.4083 25.6242 23.4149 25.6142C23.4216 25.6042 23.4302 25.5956 23.4404 25.589C23.4505 25.5825 23.4619 25.578 23.4738 25.576C23.5157 25.5697 23.5564 25.5617 23.5959 25.5519C23.6476 25.5399 23.6976 25.5157 23.7458 25.4796C23.9161 25.3516 24.0869 25.225 24.2584 25.0998C24.2679 25.093 24.2786 25.0881 24.2901 25.0855C24.3015 25.0829 24.3134 25.0825 24.3249 25.0846C24.3365 25.0866 24.3475 25.0909 24.3573 25.0972C24.3672 25.1035 24.3756 25.1117 24.3822 25.1214L24.818 25.7655C24.8249 25.7757 24.8295 25.7872 24.8315 25.7992C24.8335 25.8113 24.8328 25.8237 24.8296 25.8355C24.8264 25.8473 24.8207 25.8583 24.8128 25.8678C24.8049 25.8772 24.7951 25.8849 24.784 25.8903L24.4894 26.0359C24.4807 26.0405 24.4728 26.0459 24.4659 26.0522C24.3938 26.1234 24.3084 26.1553 24.2096 26.1478C24.1925 26.1467 24.1752 26.1506 24.1599 26.159Z" fill="#44727F"/>
<path d="M22.7547 26.5344C22.7329 26.5355 22.7116 26.5286 22.6948 26.5151C22.678 26.5015 22.667 26.4823 22.664 26.4612C22.6152 26.1366 22.6213 25.7387 23.0328 25.6638C23.0548 25.6597 23.0776 25.6642 23.0964 25.6764C23.1152 25.6886 23.1286 25.7075 23.1339 25.7293L23.2882 26.4061C23.291 26.4184 23.2911 26.4311 23.2883 26.4435C23.2856 26.4558 23.2802 26.4673 23.2725 26.4773C23.2648 26.4874 23.2549 26.4956 23.2436 26.5014C23.2323 26.5073 23.2199 26.5106 23.2071 26.5112L22.7547 26.5344Z" fill="#416976"/>
<path d="M18.3403 26.3442L18.1154 26.5595C17.9573 26.7725 17.8884 27.0056 17.9088 27.2587C17.8408 27.2966 17.7925 27.319 17.7641 27.3259C16.5811 27.6152 15.1585 27.6712 14 27.245C13.968 27.2174 13.9535 27.1827 13.9564 27.1408C13.9726 26.8996 13.9 26.6927 13.7384 26.5199C13.7437 26.5032 13.7506 26.4889 13.7594 26.4768C13.7706 26.4613 13.7868 26.4498 13.8052 26.4442C13.8236 26.4386 13.8434 26.4391 13.8613 26.4458C14.1551 26.5543 14.4594 26.6783 14.7461 26.7489C15.9683 27.0503 17.1207 26.9088 18.2034 26.3244C18.2668 26.29 18.3124 26.2966 18.3403 26.3442Z" fill="#2A4A59"/>
<path d="M18.1154 26.5596C18.1328 26.8409 18.2089 27.1167 18.3437 27.3871C18.3507 27.4009 18.3603 27.4121 18.3725 27.4207C18.9269 27.7961 19.5607 27.7427 20.1805 27.4629C20.2798 27.419 20.3409 27.2915 20.476 27.3992L20.2084 27.6592C19.647 28.0152 19.0449 28.0924 18.4021 27.8909C18.1552 27.7387 17.9907 27.528 17.9088 27.2588C17.8884 27.0056 17.9573 26.7726 18.1154 26.5596Z" fill="#82ABAE"/>
<path d="M11.1921 27.0762C11.9706 27.7057 13.0733 28.007 13.8971 27.2527C13.8291 27.53 13.6745 27.7355 13.4333 27.8693C12.8249 28.0851 12.2513 28.0237 11.7125 27.685C11.4969 27.5185 11.315 27.3288 11.1668 27.1158L11.1921 27.0762Z" fill="#82ABAE"/>
</g>
<defs>
<clipPath id="clip0_55889_43174">
<rect width="24" height="24" fill="white" transform="translate(4 4)"/>
</clipPath>
</defs>
</svg>
