<svg width="32" height="32" viewBox="0 0 32 32" fill="none" xmlns="http://www.w3.org/2000/svg">
<path d="M0 16C0 7.16344 7.16344 0 16 0C24.8366 0 32 7.16344 32 16C32 24.8366 24.8366 32 16 32C7.16344 32 0 24.8366 0 16Z" fill="#E7EEFF"/>
<g clip-path="url(#clip0_55889_43237)">
<path d="M19.3257 9.34466C17.7133 10.562 16.4813 12.0824 15.6295 13.9059C15.6241 13.9175 15.6159 13.9277 15.6055 13.9355C15.5952 13.9434 15.5831 13.9487 15.5703 13.9511C15.5574 13.9534 15.5442 13.9527 15.5317 13.949C15.5191 13.9453 15.5077 13.9387 15.4984 13.9297C14.7389 13.1934 14.0103 12.4395 13.3127 11.6682C12.8013 11.0351 12.3567 10.3684 11.9789 9.66808C11.5397 8.81623 11.3155 7.93392 11.3062 7.02114C11.2943 5.88693 11.6882 4.93019 12.4878 4.15091C12.6355 4.00682 12.671 4.0296 12.5945 4.21925C12.4561 4.56148 12.3532 4.91429 12.2859 5.27771C12.0538 6.52847 12.3217 7.9159 12.8412 9.07448C12.8518 9.09673 12.8518 9.15395 12.8787 9.14123C12.8847 9.13846 12.8894 9.13354 12.8919 9.12748C12.8943 9.12142 12.8942 9.11468 12.8917 9.10865C12.819 8.92324 12.7764 8.732 12.7639 8.53493C12.6287 6.46728 13.8201 4.51327 15.9699 4.06668C16.2467 4.00947 16.5266 3.98907 16.8094 4.00549C17.0027 4.01662 17.0138 4.06642 16.8428 4.15489C16.4172 4.37527 16.0076 4.64465 15.614 4.96303C14.0872 6.1979 13.3502 8.03272 13.9031 9.93825C13.9202 9.99626 14.1075 10.7011 14.167 10.6471C14.1699 10.6445 14.172 10.6411 14.173 10.6374C14.174 10.6338 14.1739 10.6299 14.1727 10.6264C13.2907 7.69182 14.9471 5.20381 18.2255 5.73303C18.9698 5.85302 20.061 6.35524 21.1197 6.52767C22.0781 6.68342 23.0968 6.3465 23.8989 5.83952C23.9212 5.82521 23.9429 5.81859 23.9641 5.81965C24.197 5.82839 23.3884 6.45218 23.2475 6.55151C22.1487 7.32072 21.0485 8.08887 19.947 8.85596C19.7299 9.00694 19.5228 9.16984 19.3257 9.34466ZM14.7671 8.98628C15.4226 6.83996 18.1702 7.30801 19.8379 7.41051C20.7141 7.46455 21.5442 7.30589 22.3281 6.93453C22.3392 6.92928 22.3485 6.92123 22.3551 6.91127C22.3617 6.90131 22.3653 6.88984 22.3656 6.87811C22.3664 6.78911 22.276 6.77639 22.2019 6.79547C21.1514 7.06405 19.7044 6.50622 18.7141 6.24876C17.2443 5.86574 15.7679 5.98096 14.8143 7.27145C14.4788 7.72493 14.2725 8.2372 14.1955 8.80828C14.1767 8.94734 14.1686 10.9125 14.5155 10.6804C14.5245 10.6746 14.5318 10.6665 14.5368 10.6571C14.5418 10.6476 14.5442 10.6371 14.544 10.6264C14.5299 10.068 14.6042 9.52133 14.7671 8.98628Z" fill="#596665"/>
<path d="M19.8379 7.41063C18.1702 7.30813 15.4226 6.84008 14.7671 8.9864C14.6042 9.52146 14.5299 10.0682 14.544 10.6265C14.5442 10.6372 14.5418 10.6478 14.5368 10.6572C14.5318 10.6666 14.5245 10.6747 14.5155 10.6806C14.1686 10.9126 14.1767 8.94746 14.1954 8.8084C14.2725 8.23732 14.4788 7.72505 14.8143 7.27157C15.7679 5.98108 17.2443 5.86586 18.7141 6.24888C19.7043 6.50634 21.1514 7.06417 22.2019 6.79559C22.276 6.77652 22.3664 6.78923 22.3656 6.87823C22.3653 6.88996 22.3617 6.90143 22.3551 6.91139C22.3485 6.92135 22.3392 6.9294 22.3281 6.93465C21.5442 7.30601 20.7141 7.46467 19.8379 7.41063Z" fill="#5F7171"/>
<path d="M19.3257 9.34473C20.0749 9.57305 20.7917 9.90468 21.4763 10.3396L19.8184 11.6158C19.7288 11.6847 19.7407 11.7225 19.8542 11.7294C20.0806 11.7432 20.3061 11.7747 20.5309 11.824C21.3973 12.0136 22.226 12.3042 23.017 12.6957C23.1636 12.768 23.267 12.9905 23.482 12.8181C23.8077 13.9475 24.0021 15.0995 24.0651 16.274C24.066 16.2923 24.0735 16.3098 24.0863 16.3234C24.099 16.337 24.1163 16.3459 24.1351 16.3487C26.9176 16.7174 28.0284 13.2186 25.8899 11.7453C25.0338 11.1552 24.1079 11.1827 23.1123 11.828C23.0368 11.7681 22.9749 11.6979 22.9266 11.6174C22.798 11.4052 22.6571 11.2662 22.5252 11.0762C23.6636 10.1282 25.1848 10.0003 26.4274 10.8458C28.3093 12.1252 28.5487 14.8698 26.8932 16.475C26.1913 17.1557 25.2963 17.4588 24.2084 17.3841C24.1968 17.3833 24.1852 17.3849 24.1743 17.3888C24.1634 17.3927 24.1535 17.3989 24.1452 17.4069C24.137 17.4149 24.1305 17.4245 24.1264 17.4351C24.1223 17.4457 24.1205 17.457 24.1212 17.4683C24.1994 18.6867 24.0387 19.8716 23.6392 21.0227C23.5398 21.1912 23.441 21.3591 23.3428 21.5265C22.7939 22.4602 21.7744 23.1666 20.7573 23.5513C20.5515 23.6291 20.3433 23.7067 20.1327 23.7841C20.1204 23.7885 20.1072 23.7901 20.0942 23.7886C20.0812 23.7871 20.0688 23.7826 20.0579 23.7756C20.0471 23.7685 20.0382 23.759 20.0319 23.7479C20.0257 23.7368 20.0222 23.7244 20.0219 23.7118L20.0211 23.6649C20.9017 23.0641 21.2581 22.2822 21.0903 21.3191C20.8314 19.8316 19.3102 18.9447 17.9242 18.6189C17.9202 18.0444 17.9707 17.4365 17.9641 16.9017C17.9462 15.3771 17.9544 14.4291 17.9886 14.0577C18.0163 13.7658 18.0456 13.479 18.0765 13.1971C18.0874 13.0954 18.0472 13.0695 17.956 13.1193C17.1715 13.5473 16.5141 14.1197 15.9837 14.8365C15.9737 14.8499 15.9682 14.8663 15.9682 14.8833L15.9788 18.3019C14.5529 18.4497 12.8982 18.7016 11.7989 19.6949C10.8754 20.5285 10.4194 21.7768 11.1295 22.9084C11.3461 23.2533 11.7194 23.5754 12.2492 23.8747C10.4924 23.5192 9.21151 22.5635 8.40642 21.0076C8.39951 20.9936 8.39669 20.9782 8.39828 20.9631C8.40533 20.8995 8.37873 20.8609 8.31847 20.8471V20.8074C8.40208 20.7427 8.43736 20.6627 8.42433 20.5674C8.0872 18.1477 8.43737 15.1646 10.2745 13.3425C11.0893 12.5341 12.1021 11.976 13.3127 11.6682C14.0103 12.4396 14.7389 13.1934 15.4984 13.9298C15.5077 13.9387 15.5191 13.9453 15.5316 13.949C15.5442 13.9528 15.5574 13.9535 15.5703 13.9511C15.5831 13.9488 15.5952 13.9435 15.6055 13.9356C15.6158 13.9277 15.624 13.9176 15.6295 13.9059C16.4812 12.0825 17.7133 10.5621 19.3257 9.34473ZM10.8298 15.0017C11.2614 15.3307 11.7549 15.171 12.4202 15.0804C12.6281 15.0518 12.7812 14.9959 12.8795 14.9128C13.1295 14.7014 13.1987 14.3144 13.0472 14.0236C12.8298 13.604 11.8152 13.716 11.4023 13.836C10.8478 13.9973 10.6002 14.4201 10.803 14.966C10.8083 14.98 10.8176 14.9924 10.8298 15.0017ZM13.0269 17.6542C13.0269 17.3619 12.9079 17.0816 12.6961 16.8749C12.4843 16.6682 12.197 16.5521 11.8974 16.5521C11.5979 16.5521 11.3106 16.6682 11.0988 16.8749C10.8869 17.0816 10.768 17.3619 10.768 17.6542C10.768 17.9466 10.8869 18.2269 11.0988 18.4336C11.3106 18.6403 11.5979 18.7564 11.8974 18.7564C12.197 18.7564 12.4843 18.6403 12.6961 18.4336C12.9079 18.2269 13.0269 17.9466 13.0269 17.6542ZM21.2972 17.6884C21.2972 17.3955 21.1779 17.1145 20.9656 16.9074C20.7534 16.7002 20.4655 16.5839 20.1653 16.5839C19.8651 16.5839 19.5771 16.7002 19.3649 16.9074C19.1526 17.1145 19.0333 17.3955 19.0333 17.6884C19.0333 17.9814 19.1526 18.2623 19.3649 18.4694C19.5771 18.6766 19.8651 18.793 20.1653 18.793C20.4655 18.793 20.7534 18.6766 20.9656 18.4694C21.1779 18.2623 21.2972 17.9814 21.2972 17.6884Z" fill="#ABCCCB"/>
<path d="M11.9789 9.66797C12.3567 10.3683 12.8013 11.035 13.3127 11.6681C12.1021 11.9759 11.0894 12.534 10.2745 13.3424C8.43738 15.1645 8.08721 18.1475 8.42434 20.5672C8.43737 20.6626 8.40209 20.7426 8.31848 20.8072C8.02424 19.6735 7.88634 18.5213 7.9048 17.3505C7.94769 16.9998 7.95448 16.6489 7.92516 16.2976C8.11653 14.7497 8.26148 13.2653 8.93411 11.8294L9.56358 11.0697C10.2889 10.4706 11.094 10.0033 11.9789 9.66797Z" fill="#BBDBD9"/>
<path d="M9.56357 11.0699L8.9341 11.8296C6.6882 10.1807 4.14018 12.7466 5.27372 15.0081C5.77697 16.011 6.78592 16.5013 7.92515 16.2978C7.95447 16.6491 7.94768 17 7.9048 17.3507C6.87929 17.4863 5.98544 17.2199 5.22323 16.5513C3.34459 14.9009 3.66298 11.7676 5.95042 10.6217C7.17272 10.0091 8.51554 10.1982 9.56357 11.0699Z" fill="#ABCCCB"/>
<path d="M21.4763 10.3396C21.8325 10.5499 22.1821 10.7955 22.5252 11.0762C22.6571 11.2661 22.798 11.4052 22.9267 11.6174C22.975 11.6979 23.0368 11.7681 23.1123 11.828L23.482 12.8181C23.267 12.9905 23.1636 12.768 23.017 12.6957C22.2261 12.3042 21.3973 12.0136 20.5309 11.824C20.3062 11.7747 20.0806 11.7432 19.8542 11.7294C19.7407 11.7225 19.7288 11.6847 19.8184 11.6158L21.4763 10.3396Z" fill="#BBDBD9"/>
<path d="M8.93411 11.8296C8.26148 13.2655 8.11653 14.7499 7.92516 16.2979C6.78592 16.5013 5.77698 16.011 5.27373 15.0082C4.14019 12.7466 6.6882 10.1807 8.93411 11.8296Z" fill="#A78D71"/>
<path d="M23.482 12.8181L23.1123 11.828C24.108 11.1828 25.0338 11.1552 25.89 11.7454C28.0284 13.2186 26.9176 16.7174 24.1351 16.3487C24.1163 16.346 24.0991 16.3371 24.0863 16.3234C24.0735 16.3098 24.066 16.2924 24.0651 16.274C24.0021 15.0995 23.8077 13.9476 23.482 12.8181Z" fill="#A78D71"/>
<path d="M17.9242 18.619C17.2918 18.4722 16.6433 18.3665 15.9788 18.3019L15.9682 14.8834C15.9682 14.8663 15.9737 14.8499 15.9837 14.8365C16.5141 14.1197 17.1715 13.5473 17.956 13.1193C18.0472 13.0695 18.0874 13.0954 18.0765 13.1972C18.0456 13.479 18.0163 13.7658 17.9886 14.0577C17.9544 14.4291 17.9462 15.3771 17.9641 16.9017C17.9707 17.4365 17.9202 18.0444 17.9242 18.619Z" fill="#BBDBD9"/>
<path d="M10.8299 15.0016C10.8176 14.9923 10.8083 14.9799 10.803 14.9659C10.6002 14.42 10.8478 13.9972 11.4023 13.8359C11.8152 13.7159 12.8298 13.6039 13.0473 14.0234C13.1987 14.3143 13.1295 14.7013 12.8795 14.9126C12.7813 14.9958 12.6282 15.0517 12.4202 15.0803C11.7549 15.1709 11.2615 15.3306 10.8299 15.0016Z" fill="#97BCBA"/>
<path d="M13.0269 17.6542C13.0269 17.9465 12.9079 18.2268 12.6961 18.4335C12.4843 18.6402 12.197 18.7563 11.8974 18.7563C11.5979 18.7563 11.3106 18.6402 11.0988 18.4335C10.8869 18.2268 10.7679 17.9465 10.7679 17.6542C10.7679 17.3619 10.8869 17.0815 11.0988 16.8748C11.3106 16.6681 11.5979 16.552 11.8974 16.552C12.197 16.552 12.4843 16.6681 12.6961 16.8748C12.9079 17.0815 13.0269 17.3619 13.0269 17.6542ZM12.2305 17.3744C12.2305 17.2828 12.1931 17.1949 12.1267 17.13C12.0603 17.0652 11.9702 17.0288 11.8762 17.0288C11.7823 17.0288 11.6922 17.0652 11.6258 17.13C11.5593 17.1949 11.522 17.2828 11.522 17.3744C11.522 17.4661 11.5593 17.554 11.6258 17.6189C11.6922 17.6837 11.7823 17.7201 11.8762 17.7201C11.9702 17.7201 12.0603 17.6837 12.1267 17.6189C12.1931 17.554 12.2305 17.4661 12.2305 17.3744ZM12.3441 18.3649C12.3444 18.3581 12.3318 18.3507 12.3071 18.3434C12.2824 18.3361 12.2461 18.3289 12.2002 18.3222C12.1543 18.3155 12.0998 18.3095 12.0397 18.3045C11.9796 18.2995 11.9151 18.2956 11.8499 18.2931C11.7847 18.2905 11.7201 18.2894 11.6598 18.2896C11.5995 18.2899 11.5446 18.2916 11.4983 18.2947C11.452 18.2977 11.4152 18.3021 11.39 18.3075C11.3648 18.3128 11.3517 18.3192 11.3514 18.326C11.3511 18.3329 11.3637 18.3402 11.3883 18.3476C11.413 18.3549 11.4494 18.3621 11.4952 18.3688C11.5411 18.3755 11.5957 18.3815 11.6558 18.3865C11.7159 18.3915 11.7804 18.3953 11.8456 18.3979C11.9108 18.4005 11.9754 18.4016 12.0357 18.4014C12.096 18.4011 12.1509 18.3994 12.1972 18.3963C12.2435 18.3932 12.2803 18.3889 12.3055 18.3835C12.3307 18.3781 12.3438 18.3718 12.3441 18.3649Z" fill="black"/>
<path d="M21.2972 17.6883C21.2972 17.9812 21.1779 18.2622 20.9656 18.4693C20.7534 18.6765 20.4655 18.7928 20.1653 18.7928C19.8651 18.7928 19.5772 18.6765 19.3649 18.4693C19.1526 18.2622 19.0334 17.9812 19.0334 17.6883C19.0334 17.3953 19.1526 17.1144 19.3649 16.9073C19.5772 16.7001 19.8651 16.5837 20.1653 16.5837C20.4655 16.5837 20.7534 16.7001 20.9656 16.9073C21.1779 17.1144 21.2972 17.3953 21.2972 17.6883ZM20.5382 17.4165C20.5382 17.3718 20.5292 17.3274 20.5116 17.2861C20.4941 17.2447 20.4683 17.2071 20.4359 17.1755C20.4035 17.1438 20.365 17.1187 20.3226 17.1016C20.2802 17.0844 20.2348 17.0756 20.1889 17.0756C20.143 17.0756 20.0976 17.0844 20.0552 17.1016C20.0128 17.1187 19.9743 17.1438 19.9419 17.1755C19.9094 17.2071 19.8837 17.2447 19.8661 17.2861C19.8486 17.3274 19.8395 17.3718 19.8395 17.4165C19.8395 17.5069 19.8763 17.5936 19.9419 17.6576C20.0074 17.7215 20.0962 17.7574 20.1889 17.7574C20.2815 17.7574 20.3704 17.7215 20.4359 17.6576C20.5014 17.5936 20.5382 17.5069 20.5382 17.4165ZM20.6228 18.3886C20.6231 18.3758 20.5682 18.3624 20.4704 18.3515C20.3725 18.3406 20.2397 18.333 20.1011 18.3304C20.0324 18.3291 19.9644 18.3291 19.901 18.3303C19.8375 18.3316 19.7798 18.334 19.7312 18.3376C19.6826 18.3412 19.6439 18.3458 19.6176 18.3512C19.5912 18.3566 19.5775 18.3627 19.5774 18.369C19.5772 18.3819 19.632 18.3952 19.7299 18.4062C19.8277 18.4171 19.9605 18.4247 20.0992 18.4273C20.1678 18.4286 20.2358 18.4286 20.2993 18.4274C20.3627 18.4261 20.4204 18.4236 20.4691 18.42C20.5177 18.4164 20.5563 18.4118 20.5827 18.4064C20.6091 18.401 20.6227 18.395 20.6228 18.3886Z" fill="black"/>
<path d="M11.8763 17.7201C12.0719 17.7201 12.2305 17.5654 12.2305 17.3745C12.2305 17.1836 12.0719 17.0288 11.8763 17.0288C11.6806 17.0288 11.522 17.1836 11.522 17.3745C11.522 17.5654 11.6806 17.7201 11.8763 17.7201Z" fill="#FEFEFE"/>
<path d="M20.1889 17.7575C20.3818 17.7575 20.5382 17.6049 20.5382 17.4166C20.5382 17.2283 20.3818 17.0757 20.1889 17.0757C19.9959 17.0757 19.8395 17.2283 19.8395 17.4166C19.8395 17.6049 19.9959 17.7575 20.1889 17.7575Z" fill="#FEFEFE"/>
<path d="M11.8456 18.3979C12.1197 18.4087 12.3429 18.3939 12.3441 18.365C12.3453 18.336 12.124 18.3039 11.8499 18.2931C11.5758 18.2824 11.3526 18.2971 11.3514 18.3261C11.3502 18.355 11.5715 18.3872 11.8456 18.3979Z" fill="#D5DEDD"/>
<path d="M15.9788 18.3018C16.6433 18.3664 17.2918 18.4721 17.9242 18.6188C19.3102 18.9446 20.8314 19.8314 21.0903 21.319C21.2581 22.2821 20.9017 23.064 20.0211 23.6648C19.3599 24.0382 18.5732 24.1368 17.8013 24.1956C16.4837 24.2957 15.1675 24.2854 13.8526 24.1646C13.5101 24.1333 12.9756 24.0367 12.2492 23.8745C11.7194 23.5752 11.3461 23.2531 11.1295 22.9083C10.4194 21.7767 10.8754 20.5283 11.7989 19.6948C12.8982 18.7015 14.5529 18.4496 15.9788 18.3018ZM15.9682 21.0393C16.0225 21.1627 16.0874 21.2809 16.1628 21.3937C16.583 22.023 17.3998 21.9658 17.8721 21.4144C17.991 21.2761 18.1474 20.8819 17.9812 20.727C17.9155 20.665 17.8496 20.67 17.7834 20.7421C17.7717 20.755 17.7646 20.7711 17.763 20.7882C17.7261 21.1754 17.5372 21.4157 17.1962 21.5089C16.3396 21.7433 16.0765 20.5704 16.1164 19.9983C16.1176 19.9816 16.124 19.9658 16.1348 19.9529C16.1456 19.9401 16.1603 19.9309 16.1767 19.9268C16.3716 19.877 16.5464 19.7922 16.7011 19.6725C17.2264 19.2672 17.1026 18.6951 16.4723 18.5155C15.9389 18.3629 14.8607 18.39 14.7801 19.1266C14.7345 19.543 15.2883 19.841 15.6327 19.9125C15.649 19.916 15.6638 19.9243 15.6751 19.9362C15.6865 19.9481 15.6938 19.9631 15.6962 19.9792C15.7641 20.4417 15.668 20.8512 15.408 21.2077C15.0945 21.6376 14.5318 21.6369 14.2174 21.1982C14.1384 21.0878 14.1319 20.9121 14.1034 20.7771C14.101 20.7663 14.0964 20.7561 14.0899 20.7471C14.0833 20.7382 14.075 20.7306 14.0654 20.7249C14.0557 20.7193 14.045 20.7156 14.0339 20.7142C14.0228 20.7128 14.0116 20.7136 14.0008 20.7167L13.8925 20.7477C13.8768 20.7521 13.8629 20.761 13.8524 20.7732C13.842 20.7854 13.8355 20.8003 13.8339 20.816C13.7476 21.6249 14.658 22.0596 15.3208 21.7123C15.5803 21.5757 15.7554 21.354 15.8461 21.0472C15.8797 20.9328 15.9204 20.9302 15.9682 21.0393Z" fill="#FEFEFE"/>
<path d="M20.0992 18.4273C20.3878 18.4327 20.6223 18.4154 20.6228 18.3886C20.6233 18.3618 20.3897 18.3358 20.1011 18.3304C19.8124 18.3249 19.5779 18.3423 19.5774 18.369C19.5769 18.3958 19.8105 18.4219 20.0992 18.4273Z" fill="#EFF0F0"/>
<path d="M15.9682 21.0392C15.9205 20.9301 15.8797 20.9327 15.8461 21.0472C15.7554 21.3539 15.5804 21.5756 15.3209 21.7123C14.658 22.0595 13.7476 21.6249 13.8339 20.8159C13.8355 20.8002 13.842 20.7853 13.8524 20.7731C13.8629 20.761 13.8768 20.7521 13.8925 20.7476L14.0008 20.7166C14.0116 20.7135 14.0228 20.7127 14.0339 20.7141C14.0451 20.7155 14.0558 20.7192 14.0654 20.7249C14.075 20.7305 14.0834 20.7381 14.0899 20.7471C14.0965 20.756 14.1011 20.7662 14.1034 20.777C14.1319 20.9121 14.1385 21.0877 14.2174 21.1981C14.5318 21.6368 15.0945 21.6376 15.408 21.2077C15.668 20.8512 15.7641 20.4417 15.6963 19.9792C15.6938 19.9631 15.6865 19.9481 15.6751 19.9362C15.6638 19.9242 15.649 19.916 15.6327 19.9124C15.2883 19.8409 14.7345 19.5429 14.7801 19.1265C14.8608 18.3899 15.9389 18.3629 16.4723 18.5155C17.1026 18.695 17.2264 19.2672 16.7011 19.6724C16.5464 19.7922 16.3716 19.8769 16.1767 19.9267C16.1603 19.9309 16.1456 19.94 16.1348 19.9529C16.124 19.9657 16.1176 19.9816 16.1165 19.9982C16.0765 20.5704 16.3396 21.7433 17.1962 21.5089C17.5372 21.4156 17.7261 21.1754 17.763 20.7881C17.7646 20.7711 17.7717 20.7549 17.7834 20.742C17.8496 20.67 17.9156 20.6649 17.9812 20.7269C18.1474 20.8819 17.991 21.276 17.8721 21.4143C17.3998 21.9658 16.5831 22.023 16.1629 21.3936C16.0874 21.2808 16.0225 21.1627 15.9682 21.0392Z" fill="black"/>
<path d="M8.31847 20.8469C8.37873 20.8607 8.40533 20.8994 8.39827 20.9629C8.39669 20.978 8.39951 20.9934 8.40641 21.0074C9.21151 22.5633 10.4924 23.519 12.2492 23.8745C12.9756 24.0366 13.5101 24.1333 13.8526 24.1645C15.1675 24.2853 16.4837 24.2957 17.8013 24.1955C18.5732 24.1367 19.3599 24.0382 20.0211 23.6647L20.0219 23.7116C20.0222 23.7242 20.0257 23.7366 20.0319 23.7477C20.0382 23.7588 20.0471 23.7683 20.0579 23.7754C20.0688 23.7825 20.0812 23.7869 20.0942 23.7884C20.1072 23.7899 20.1204 23.7883 20.1327 23.7839C20.3433 23.7066 20.5515 23.629 20.7573 23.5511C21.7744 23.1665 22.7939 22.46 23.3427 21.5263C23.441 21.3589 23.5398 21.191 23.6392 21.0225C23.6973 21.5232 23.7257 22.0611 23.7247 22.6364C23.7214 23.9397 22.4771 24.7446 21.3224 25.1268L21.2263 24.5738L21.184 24.1971C21.1827 24.1848 21.1784 24.1729 21.1716 24.1625C21.1647 24.152 21.1555 24.1433 21.1446 24.137C21.1336 24.1306 21.1214 24.1269 21.1087 24.126C21.096 24.1251 21.0833 24.1272 21.0716 24.132C20.4609 24.3862 19.8308 24.5817 19.1815 24.7184C19.1712 24.7205 19.1613 24.7245 19.1525 24.7304C19.1437 24.7362 19.1362 24.7437 19.1304 24.7524C19.1246 24.7611 19.1206 24.7709 19.1186 24.7811C19.1166 24.7914 19.1167 24.8019 19.1188 24.8122L19.2654 25.5035C19.2817 25.6577 19.4454 27.0109 19.311 27.0173C19.3043 27.0177 19.2975 27.0168 19.2911 27.0147C19.2847 27.0126 19.2788 27.0093 19.2738 27.0049C19.2687 27.0005 19.2646 26.9953 19.2616 26.9893C19.2586 26.9834 19.2569 26.977 19.2565 26.9704C19.2228 26.5084 19.1259 26.0637 18.9658 25.6362C18.8767 25.3586 18.7339 25.1144 18.5374 24.9035C18.5282 24.8936 18.5166 24.886 18.5036 24.8816C18.4907 24.8771 18.4768 24.8759 18.4633 24.8781C16.813 25.1488 15.1588 25.1692 13.5008 24.9393C13.4833 24.9367 13.4653 24.9399 13.4497 24.9482C13.4341 24.9565 13.4218 24.9696 13.4145 24.9854L13.1197 25.6314C12.8315 26.0319 12.9349 26.5262 12.7622 26.9569C12.6927 27.1301 12.6691 27.1005 12.6914 26.8679C12.7326 26.4372 12.7747 26.0062 12.8176 25.575L12.9617 24.9028C12.966 24.8831 12.9624 24.8626 12.9517 24.8454C12.9409 24.8281 12.9239 24.8154 12.9039 24.8098L10.8844 24.2504C10.8641 24.2447 10.8423 24.247 10.8237 24.2568C10.8052 24.2666 10.7913 24.2831 10.7851 24.3028C10.7432 24.431 10.7386 24.5481 10.7712 24.654L10.6711 25.1817C9.69061 24.8145 8.39176 24.089 8.24518 22.9384C8.18058 22.4298 8.20501 21.7327 8.31847 20.8469Z" fill="#93B7B6"/>
<path d="M21.2263 24.5739C20.5901 24.9162 19.9364 25.2261 19.2654 25.5037L19.1189 24.8123C19.1167 24.8021 19.1166 24.7915 19.1186 24.7813C19.1206 24.771 19.1246 24.7613 19.1304 24.7525C19.1362 24.7438 19.1437 24.7364 19.1525 24.7305C19.1613 24.7247 19.1712 24.7206 19.1815 24.7186C19.8308 24.5819 20.4609 24.3864 21.0716 24.1321C21.0833 24.1273 21.096 24.1253 21.1087 24.1262C21.1214 24.127 21.1337 24.1308 21.1446 24.1371C21.1555 24.1435 21.1647 24.1522 21.1716 24.1626C21.1784 24.1731 21.1827 24.1849 21.184 24.1973L21.2263 24.5739Z" fill="#A5C7C6"/>
<path d="M12.8176 25.575L10.7712 24.6541C10.7386 24.5481 10.7433 24.431 10.7851 24.3028C10.7913 24.2831 10.8052 24.2666 10.8237 24.2568C10.8423 24.247 10.8641 24.2447 10.8844 24.2504L12.9039 24.8098C12.9239 24.8154 12.9409 24.8281 12.9517 24.8454C12.9624 24.8626 12.966 24.8831 12.9618 24.9028L12.8176 25.575Z" fill="#A5C7C6"/>
<path d="M21.2263 24.574L21.3224 25.127C21.4071 25.7413 21.5708 26.737 21.3371 27.29C21.1229 27.797 20.5521 28.1284 19.9951 27.9305C19.6878 27.8219 19.4739 27.61 19.3534 27.2948C19.3235 27.2175 19.2853 27.213 19.2386 27.2813C19.1593 27.3963 19.0616 27.4898 18.9454 27.5618C18.7337 27.6929 18.4731 27.6596 18.2247 27.6627C16.5271 27.6866 14.829 27.686 13.1303 27.6611C13.119 27.6609 13.1078 27.6584 13.0974 27.6539C13.0871 27.6494 13.0778 27.643 13.0701 27.6349L12.7769 27.3131C12.7682 27.3037 12.7573 27.2964 12.7451 27.2919C12.733 27.2875 12.7199 27.2859 12.7069 27.2874C12.694 27.2889 12.6817 27.2933 12.6709 27.3004C12.6601 27.3075 12.6512 27.317 12.645 27.3282C12.4837 27.6127 12.2533 27.8134 11.9536 27.9305C11.1743 28.2357 10.5839 27.4792 10.5571 26.7854C10.5457 26.4904 10.5837 25.9558 10.6711 25.1819L10.7712 24.6542L12.8176 25.5752C12.7747 26.0064 12.7327 26.4374 12.6914 26.8681C12.6691 27.1007 12.6928 27.1303 12.7622 26.9571C12.9349 26.5264 12.8315 26.0321 13.1197 25.6316C14.9373 26.1108 17.1433 26.118 18.9658 25.6364C19.1259 26.0639 19.2228 26.5086 19.2565 26.9706C19.2569 26.9772 19.2586 26.9836 19.2616 26.9895C19.2646 26.9955 19.2687 27.0007 19.2738 27.0051C19.2789 27.0095 19.2847 27.0128 19.2911 27.0149C19.2975 27.017 19.3043 27.0179 19.311 27.0175C19.4454 27.0111 19.2817 25.6579 19.2654 25.5037C19.9364 25.2261 20.5901 24.9162 21.2263 24.574Z" fill="#ABCCCB"/>
<path d="M18.9658 25.6364C17.1433 26.1179 14.9373 26.1108 13.1198 25.6316L13.4145 24.9855C13.4218 24.9697 13.4342 24.9567 13.4498 24.9483C13.4653 24.94 13.4833 24.9369 13.5009 24.9395C15.1588 25.1694 16.813 25.149 18.4633 24.8783C18.4768 24.8761 18.4907 24.8773 18.5036 24.8817C18.5166 24.8861 18.5282 24.8937 18.5375 24.9037C18.734 25.1145 18.8768 25.3588 18.9658 25.6364Z" fill="#A5C7C6"/>
</g>
<defs>
<clipPath id="clip0_55889_43237">
<rect width="24" height="24" fill="white" transform="translate(4 4)"/>
</clipPath>
</defs>
</svg>
