<svg width="32" height="32" viewBox="0 0 32 32" fill="none" xmlns="http://www.w3.org/2000/svg">
<path d="M0 16C0 7.16344 7.16344 0 16 0C24.8366 0 32 7.16344 32 16C32 24.8366 24.8366 32 16 32C7.16344 32 0 24.8366 0 16Z" fill="#D8FFC2"/>
<g clip-path="url(#clip0_55889_43262)">
<path d="M21.965 6.73176L21.9746 6.39978C21.9752 6.37657 21.9685 6.35381 21.9555 6.33523C21.5542 5.75871 21.0459 5.32461 20.4306 5.03293C20.6962 4.22552 21.5055 3.70809 22.2345 4.17941C23.2071 4.80751 22.8144 6.20101 21.965 6.73176Z" fill="#1C181B"/>
<path d="M20.4306 5.03289C21.0459 5.32457 21.5542 5.75867 21.9555 6.33519C21.9685 6.35376 21.9752 6.37653 21.9746 6.39974L21.9651 6.73172L21.624 6.75119C21.6127 6.75176 21.6019 6.75561 21.5926 6.7623C21.5833 6.76899 21.576 6.77826 21.5714 6.7891C21.5593 6.81574 21.5711 6.8359 21.6068 6.84956C22.1791 7.06883 22.46 7.61905 21.9182 8.12215L21.4271 8.64881C21.4121 8.66492 21.3924 8.67518 21.3713 8.67797C21.3502 8.68075 21.3288 8.6759 21.3106 8.66418L21.0383 8.48794C20.8899 8.39231 20.8434 8.43261 20.8988 8.60884C20.9243 8.69081 20.9513 8.77245 20.98 8.85373C21.0278 8.98693 20.9962 9.07607 20.8844 9.1396C20.2908 9.55833 19.6452 9.84967 18.9478 10.0136C18.9294 10.0179 18.9103 10.0163 18.8928 10.009C18.8753 10.0017 18.8602 9.98907 18.8494 9.97263L18.3974 9.2851C18.2516 9.06378 18.1939 9.08769 18.2245 9.35682C18.2713 9.77077 18.0468 10.239 17.6293 10.3333C16.7254 10.5362 15.7719 10.6222 14.7687 10.5915C14.397 10.5802 14.505 9.92037 14.504 9.65397C14.5021 9.38551 14.4419 9.36947 14.3235 9.60581L13.9509 10.3497C13.9417 10.3685 13.9273 10.3837 13.9096 10.3933C13.892 10.4029 13.872 10.4062 13.8524 10.403C13.4531 10.3374 13.0769 10.2025 12.7241 9.99824C12.7054 9.98718 12.6908 9.96983 12.6823 9.94889C12.6738 9.92795 12.6721 9.90459 12.6772 9.88246C12.7002 9.78409 12.9515 9.09452 12.8368 9.08837C12.8287 9.08775 12.8205 9.08908 12.8127 9.09226C12.805 9.09544 12.7979 9.1004 12.7919 9.10681L12.3247 9.58942C12.2209 9.69734 12.1075 9.70213 11.9846 9.60376C11.6259 9.31687 11.3361 9.00572 11.1151 8.67033C11.0501 8.56855 11.0107 8.45515 10.9966 8.33015C10.9942 8.30826 10.9989 8.28586 11.01 8.26662C11.0138 8.25842 11.4505 7.43769 11.2135 7.64365C11.0587 7.77821 10.8919 7.89126 10.7129 7.9828C10.5762 7.72664 10.1922 7.04219 10.3985 6.77476C10.5278 6.75222 10.5855 6.68152 10.5715 6.56266C10.57 6.54933 10.5709 6.53576 10.5744 6.52275C10.5778 6.50974 10.5837 6.49753 10.5915 6.48684C11.0107 5.91305 11.5304 5.46528 12.1508 5.14355C14.6913 3.95088 17.8643 3.79821 20.4306 5.03289Z" fill="#2A2C34"/>
<path d="M12.1508 5.14361C11.5304 5.46535 11.0106 5.91311 10.5915 6.48691C10.5837 6.4976 10.5778 6.5098 10.5744 6.52282C10.5709 6.53583 10.57 6.5494 10.5715 6.56273C10.5855 6.68159 10.5278 6.75229 10.3985 6.77483L10.4262 6.67441C10.4316 6.65478 10.4315 6.63394 10.4259 6.61458C10.4203 6.59523 10.4094 6.57823 10.3947 6.5658C9.43067 5.73482 9.95138 4.07083 11.2708 4.30957C11.6849 4.38403 11.9782 4.66204 12.1508 5.14361Z" fill="#1C181B"/>
<path d="M10.7129 7.98287C10.8919 7.89134 11.0587 7.77829 11.2135 7.64372C11.4505 7.43777 11.0138 8.2585 11.01 8.2667C10.9989 8.28593 10.9942 8.30833 10.9966 8.33022C11.0107 8.45523 11.0501 8.56862 11.1151 8.6704L11.031 8.8036C11.0199 8.82127 11.0142 8.84221 11.0148 8.86352C11.0153 8.88482 11.022 8.90542 11.0339 8.92245C11.0594 8.95934 11.0734 9.00136 11.0759 9.04849C11.0759 9.05532 11.0877 9.08571 11.1113 9.13968C11.1323 9.18681 11.1626 9.20526 11.2021 9.19501C11.215 9.19189 11.2284 9.19233 11.2411 9.19627C11.2538 9.20021 11.2653 9.20753 11.2747 9.21755C11.4237 9.38149 11.4295 9.569 11.5451 9.73191C12.3553 10.8785 13.2381 10.7863 14.4018 11.4266C14.5388 11.5025 14.6837 11.5544 14.8365 11.5824C16.1124 11.8153 17.3277 11.6548 18.4825 11.1008C18.6812 11.0055 18.9487 10.5813 19.1656 10.7094C19.1813 10.7181 19.1987 10.7224 19.2163 10.7217C19.8335 10.693 20.6465 10.0823 21.0985 9.694C21.2389 9.5731 21.2647 9.40506 21.1625 9.25341C21.1539 9.24045 21.1425 9.22987 21.1292 9.22256C21.1159 9.21525 21.1011 9.21142 21.086 9.2114C21.009 9.21072 20.9418 9.18681 20.8844 9.13968C20.9962 9.07615 21.0278 8.98701 20.98 8.85381C20.9513 8.77252 20.9243 8.69089 20.8988 8.60892C20.8434 8.43268 20.8899 8.39238 21.0383 8.48801L21.3106 8.66425C21.3288 8.67597 21.3502 8.68083 21.3713 8.67804C21.3924 8.67526 21.4121 8.66499 21.4271 8.64888L21.9182 8.12222L23.0523 8.7452C23.0737 8.75671 23.0982 8.75942 23.1211 8.75279C23.144 8.74617 23.1638 8.73069 23.1765 8.70934C23.5192 8.14374 23.9756 7.76018 24.5457 7.55867C27.0308 6.68057 29.0811 9.95426 27.369 12.0629C26.8582 12.6934 26.1693 12.9667 25.3024 12.8826C25.2876 12.8812 25.2727 12.8835 25.2589 12.8894C25.2451 12.8952 25.2328 12.9045 25.2229 12.9164C25.2129 12.9283 25.2057 12.9426 25.2018 12.9581C25.1978 12.9736 25.1973 12.9898 25.2002 13.0056C25.4435 14.2857 25.4196 15.5207 25.1285 16.7107C24.9043 17.628 24.4756 18.4758 23.8425 19.2538C23.3418 19.2975 22.8412 19.3426 22.3405 19.389C21.5886 19.4577 20.786 19.6483 19.9997 19.7538C20.8348 17.8244 19.3491 16.3326 17.6407 16.2147C16.9309 15.9227 15.8655 16.0426 15.1509 16.1256C13.3269 16.2895 11.7342 17.7076 12.7241 19.8296C12.6801 19.9249 12.6037 19.8307 12.5464 19.8143C11.932 19.6401 9.1966 19.0458 8.83927 19.5202C8.48639 19.2367 8.20326 18.8972 7.98988 18.5017C7.05164 16.7653 6.77042 14.9141 7.14622 12.9482C7.1492 12.9323 7.14863 12.9159 7.14455 12.9003C7.14046 12.8847 7.13298 12.8704 7.12272 12.8585C7.11247 12.8466 7.09971 12.8374 7.08553 12.8319C7.07135 12.8263 7.05613 12.8244 7.04113 12.8263C5.98824 12.9708 5.11879 12.5496 4.63725 11.5281C3.71143 9.5649 5.23345 7.18366 7.2819 7.44289C8.0488 7.53989 8.66569 7.9453 9.13258 8.65912C9.1457 8.67945 9.16538 8.6939 9.1879 8.69975C9.21042 8.7056 9.23424 8.70245 9.25488 8.69089C9.73069 8.42243 10.2167 8.18643 10.7129 7.98287ZM5.87263 11.7617C6.25608 12.0951 6.69176 12.2177 7.17967 12.1295C7.19789 12.1262 7.2148 12.1172 7.22837 12.1038C7.24193 12.0903 7.25156 12.0729 7.2561 12.0537C7.4405 11.2617 7.73382 10.485 8.22205 9.85385C8.35071 9.68717 8.47396 9.5164 8.5918 9.34153C8.6051 9.32146 8.61135 9.29702 8.60942 9.27261C8.6075 9.24819 8.59752 9.2254 8.58129 9.20833C8.3023 8.9146 8.10931 8.73085 8.0023 8.65708C6.14207 7.37322 4.13278 10.2494 5.87263 11.7617ZM27.0805 10.8067C27.4836 9.33333 26.0037 7.92856 24.6498 8.46137C24.2626 8.6137 23.9358 8.8924 23.6695 9.29747C23.6571 9.31647 23.6509 9.33939 23.6521 9.36247C23.6534 9.38556 23.6619 9.40745 23.6762 9.42453C24.3298 10.2108 24.7893 11.1135 25.0549 12.1326C25.0602 12.153 25.0713 12.1711 25.0867 12.1845C25.1021 12.1979 25.1211 12.2059 25.1409 12.2074C26.0601 12.2709 26.8187 11.7638 27.0805 10.8067ZM13.293 14.3285C13.2145 13.9807 13.0083 13.6811 12.7196 13.4956C12.4309 13.3101 12.0834 13.254 11.7537 13.3396C11.5904 13.3819 11.4363 13.4578 11.3003 13.5629C11.1643 13.6679 11.049 13.8001 10.961 13.9518C10.8731 14.1036 10.8141 14.2719 10.7875 14.4473C10.7609 14.6226 10.7672 14.8015 10.8061 14.9738C10.8845 15.3216 11.0908 15.6213 11.3795 15.8067C11.6682 15.9922 12.0156 16.0483 12.3454 15.9628C12.5087 15.9204 12.6627 15.8445 12.7987 15.7395C12.9347 15.6344 13.05 15.5022 13.138 15.3505C13.226 15.1987 13.285 15.0304 13.3116 14.855C13.3382 14.6797 13.3318 14.5008 13.293 14.3285ZM21.8284 14.6829C21.8284 14.3275 21.6968 13.9866 21.4624 13.7352C21.228 13.4839 20.9102 13.3427 20.5787 13.3427C20.2473 13.3427 19.9294 13.4839 19.695 13.7352C19.4607 13.9866 19.329 14.3275 19.329 14.6829C19.329 15.0384 19.4607 15.3793 19.695 15.6306C19.9294 15.8819 20.2473 16.0231 20.5787 16.0231C20.9102 16.0231 21.228 15.8819 21.4624 15.6306C21.6968 15.3793 21.8284 15.0384 21.8284 14.6829ZM21.8418 16.8377C22.2673 17.1164 22.6781 17.1021 23.0743 16.7947C23.0851 16.7863 23.0941 16.7755 23.1007 16.7632C23.1073 16.7508 23.1113 16.7371 23.1125 16.723C23.189 15.9709 22.0577 16.4043 21.8208 16.681C21.8113 16.6921 21.8041 16.7054 21.8 16.7199C21.7958 16.7344 21.7947 16.7497 21.7967 16.7647C21.7987 16.7797 21.8038 16.794 21.8116 16.8066C21.8194 16.8192 21.8297 16.8299 21.8418 16.8377ZM9.38959 17.057C9.79533 17.2585 10.1848 17.208 10.5581 16.9053C10.5697 16.8959 10.5792 16.8838 10.5857 16.8698C10.5923 16.8559 10.5958 16.8405 10.596 16.8249C10.5962 16.8093 10.5931 16.7938 10.5868 16.7797C10.5806 16.7656 10.5714 16.7532 10.56 16.7435C10.2237 16.4572 9.87017 16.377 9.49947 16.5027C9.26252 16.5826 9.07429 16.9012 9.38959 17.057Z" fill="#F4B794"/>
<path d="M5.87261 11.7618C4.13276 10.2494 6.14205 7.37327 8.00228 8.65713C8.10929 8.7309 8.30229 8.91465 8.58127 9.20838C8.5975 9.22545 8.60748 9.24824 8.6094 9.27265C8.61133 9.29707 8.60508 9.32151 8.59178 9.34158C8.47394 9.51645 8.35069 9.68722 8.22203 9.85389C7.7338 10.4851 7.44048 11.2617 7.25608 12.0538C7.25155 12.073 7.24191 12.0904 7.22835 12.1038C7.21478 12.1173 7.19787 12.1262 7.17966 12.1296C6.69175 12.2177 6.25606 12.0951 5.87261 11.7618Z" fill="#F7A191"/>
<path d="M24.6498 8.46125C26.0037 7.92844 27.4836 9.33321 27.0804 10.8066C26.8186 11.7636 26.06 12.2708 25.1409 12.2073C25.121 12.2058 25.1021 12.1978 25.0867 12.1844C25.0713 12.171 25.0602 12.1529 25.0549 12.1325C24.7893 11.1133 24.3297 10.2106 23.6762 9.4244C23.6618 9.40732 23.6533 9.38544 23.6521 9.36235C23.6509 9.33927 23.6571 9.31635 23.6695 9.29735C23.9358 8.89228 24.2625 8.61358 24.6498 8.46125Z" fill="#F7A191"/>
<path d="M11.1151 8.67041C11.3361 9.00581 11.6259 9.31695 11.9845 9.60385C12.1075 9.70221 12.2209 9.69743 12.3247 9.5895L12.7919 9.1069C12.7979 9.10049 12.805 9.09553 12.8127 9.09234C12.8205 9.08916 12.8287 9.08783 12.8368 9.08845C12.9515 9.0946 12.7002 9.78418 12.6772 9.88254C12.672 9.90468 12.6738 9.92804 12.6823 9.94898C12.6908 9.96992 12.7054 9.98726 12.7241 9.99833C13.0769 10.2026 13.4531 10.3375 13.8524 10.4031C13.872 10.4063 13.892 10.4029 13.9096 10.3934C13.9273 10.3838 13.9417 10.3686 13.9508 10.3498L14.3235 9.6059C14.4419 9.36955 14.5021 9.3856 14.504 9.65405C14.505 9.92046 14.397 10.5803 14.7687 10.5916C15.7719 10.6223 16.7254 10.5363 17.6293 10.3334C18.0468 10.2391 18.2713 9.77086 18.2245 9.35691C18.1939 9.08777 18.2516 9.06387 18.3974 9.28519L18.8494 9.97271C18.8602 9.98916 18.8753 10.0018 18.8928 10.0091C18.9103 10.0164 18.9294 10.018 18.9478 10.0137C19.6452 9.84976 20.2908 9.55842 20.8844 9.13969C20.9418 9.18682 21.009 9.21073 21.086 9.21141C21.1011 9.21144 21.1159 9.21526 21.1292 9.22257C21.1425 9.22988 21.1539 9.24046 21.1625 9.25342C21.2647 9.40507 21.2389 9.57311 21.0985 9.69401C20.6465 10.0823 19.8335 10.693 19.2163 10.7217C19.1987 10.7224 19.1813 10.7182 19.1656 10.7094C18.9487 10.5813 18.6812 11.0055 18.4825 11.1008C17.3277 11.6548 16.1123 11.8153 14.8365 11.5824C14.6837 11.5544 14.5388 11.5025 14.4018 11.4267C13.2381 10.7863 12.3553 10.8785 11.545 9.73192C11.4294 9.56901 11.4237 9.3815 11.2747 9.21756C11.2653 9.20754 11.2537 9.20022 11.2411 9.19628C11.2284 9.19234 11.2149 9.1919 11.202 9.19502C11.1626 9.20527 11.1323 9.18682 11.1113 9.13969C11.0877 9.08572 11.0759 9.05533 11.0759 9.0485C11.0734 9.00137 11.0594 8.95935 11.0339 8.92246C11.0219 8.90543 11.0153 8.88483 11.0147 8.86353C11.0142 8.84223 11.0199 8.82128 11.031 8.80361L11.1151 8.67041Z" fill="#F1B08B"/>
<path d="M13.293 14.3286C13.3318 14.5009 13.3381 14.6798 13.3116 14.8551C13.285 15.0304 13.226 15.1988 13.138 15.3506C13.05 15.5023 12.9347 15.6345 12.7987 15.7395C12.6627 15.8446 12.5087 15.9205 12.3454 15.9628C12.0156 16.0484 11.6682 15.9923 11.3795 15.8068C11.0908 15.6213 10.8845 15.3217 10.8061 14.9738C10.7672 14.8016 10.7609 14.6227 10.7875 14.4474C10.8141 14.272 10.873 14.1037 10.961 13.9519C11.049 13.8002 11.1643 13.668 11.3003 13.5629C11.4363 13.4579 11.5903 13.382 11.7536 13.3396C12.0834 13.2541 12.4309 13.3102 12.7196 13.4957C13.0082 13.6811 13.2145 13.9808 13.293 14.3286ZM12.7911 14.7543C12.8655 14.7272 12.9256 14.6659 12.9583 14.5839C12.9909 14.502 12.9934 14.4061 12.9653 14.3173C12.9371 14.2286 12.8805 14.1542 12.808 14.1107C12.7355 14.0671 12.653 14.0579 12.5787 14.085C12.5043 14.1122 12.4442 14.1735 12.4115 14.2554C12.3788 14.3374 12.3763 14.4333 12.4045 14.522C12.4327 14.6108 12.4892 14.6851 12.5617 14.7287C12.6342 14.7722 12.7167 14.7814 12.7911 14.7543Z" fill="#1C181B"/>
<path d="M21.8284 14.683C21.8284 15.0384 21.6967 15.3793 21.4624 15.6307C21.228 15.882 20.9101 16.0232 20.5787 16.0232C20.2473 16.0232 19.9294 15.882 19.695 15.6307C19.4606 15.3793 19.329 15.0384 19.329 14.683C19.329 14.3275 19.4606 13.9867 19.695 13.7353C19.9294 13.484 20.2473 13.3428 20.5787 13.3428C20.9101 13.3428 21.228 13.484 21.4624 13.7353C21.6967 13.9867 21.8284 14.3275 21.8284 14.683ZM21.1485 14.7478C21.2218 14.7167 21.2796 14.6529 21.3091 14.5705C21.3386 14.4882 21.3375 14.3939 21.3059 14.3085C21.2903 14.2662 21.2677 14.2274 21.2394 14.1942C21.2111 14.161 21.1776 14.1342 21.1409 14.1152C21.1043 14.0962 21.065 14.0854 21.0255 14.0834C20.9861 14.0815 20.9471 14.0884 20.9108 14.1038C20.8375 14.1349 20.7798 14.1987 20.7502 14.2811C20.7207 14.3635 20.7219 14.4577 20.7534 14.5431C20.769 14.5854 20.7916 14.6242 20.8199 14.6574C20.8482 14.6906 20.8817 14.7174 20.9184 14.7364C20.9551 14.7555 20.9943 14.7662 21.0338 14.7682C21.0733 14.7701 21.1123 14.7632 21.1485 14.7478Z" fill="#1C181B"/>
<path d="M12.4045 14.522C12.4632 14.7068 12.6363 14.8108 12.7911 14.7543C12.946 14.6978 13.0239 14.5021 12.9653 14.3173C12.9066 14.1325 12.7335 14.0285 12.5787 14.085C12.4238 14.1416 12.3458 14.3372 12.4045 14.522Z" fill="#F8F6F5"/>
<path d="M20.7534 14.5429C20.819 14.7208 20.9959 14.8124 21.1485 14.7476C21.3011 14.6829 21.3716 14.4862 21.3059 14.3083C21.2403 14.1305 21.0633 14.0388 20.9108 14.1036C20.7582 14.1684 20.6877 14.3651 20.7534 14.5429Z" fill="#FEFEFE"/>
<path d="M17.6407 16.2147C17.8834 17.0314 17.2079 17.5232 16.5573 17.6011C16.5345 17.604 16.5134 17.6156 16.498 17.6336C16.4825 17.6517 16.4737 17.675 16.4732 17.6994C16.4579 18.1841 16.3757 18.9946 16.6413 19.3634C16.9194 19.7528 17.6684 19.7405 17.7993 19.1503C17.8114 19.0956 17.8299 18.9495 17.8548 18.7118C17.8562 18.6979 17.8603 18.6846 17.8668 18.6725C17.8733 18.6605 17.8821 18.65 17.8926 18.6416C17.903 18.6333 17.915 18.6273 17.9277 18.624C17.9404 18.6208 17.9536 18.6203 17.9665 18.6226C18.0512 18.6383 18.0911 18.7121 18.086 18.8439C18.064 19.4905 17.6694 19.93 17.0627 19.8573C16.813 19.8272 16.598 19.6995 16.4178 19.4741C16.4084 19.4626 16.3969 19.4534 16.3839 19.4472C16.3709 19.441 16.3569 19.4379 16.3427 19.4382C16.3286 19.4385 16.3147 19.4421 16.302 19.4489C16.2894 19.4556 16.2784 19.4653 16.2697 19.4772C16.0939 19.7183 15.8751 19.8552 15.6133 19.888C14.9588 19.97 14.5365 19.4106 14.5938 18.723C14.5958 18.7012 14.604 18.6807 14.6174 18.6643C14.6308 18.6479 14.6486 18.6365 14.6684 18.6318L14.7075 18.6226C14.7203 18.6197 14.7335 18.6195 14.7463 18.6223C14.7591 18.625 14.7713 18.6305 14.782 18.6385C14.7928 18.6465 14.8019 18.6567 14.8088 18.6686C14.8157 18.6805 14.8203 18.6938 14.8222 18.7077C14.8375 18.8156 14.8524 18.9242 14.8671 19.0335C14.9818 19.9188 16.1235 19.7907 16.1952 19.014C16.2098 18.8535 16.2117 18.4228 16.2009 17.722C16.2007 17.6991 16.1934 17.677 16.1802 17.6592C16.1671 17.6414 16.1488 17.6289 16.1283 17.6236C15.7958 17.5382 15.5604 17.4474 15.4222 17.351C15.0859 17.1164 14.7171 16.4781 15.1509 16.1256C15.8655 16.0426 16.9308 15.9227 17.6407 16.2147Z" fill="#1C181B"/>
<path d="M15.1509 16.1255C14.7171 16.478 15.0859 17.1163 15.4222 17.3509C15.5604 17.4473 15.7958 17.5381 16.1283 17.6235C16.1488 17.6288 16.1671 17.6413 16.1802 17.6591C16.1934 17.6769 16.2007 17.699 16.2009 17.7219C16.2117 18.4227 16.2098 18.8534 16.1952 19.0139C16.1235 19.7906 14.9817 19.9187 14.8671 19.0334C14.8524 18.9241 14.8375 18.8155 14.8222 18.7076C14.8203 18.6937 14.8157 18.6804 14.8088 18.6685C14.8019 18.6566 14.7928 18.6464 14.782 18.6384C14.7713 18.6304 14.7591 18.6249 14.7463 18.6222C14.7335 18.6194 14.7203 18.6196 14.7075 18.6225L14.6684 18.6317C14.6486 18.6364 14.6308 18.6478 14.6174 18.6642C14.604 18.6806 14.5957 18.7011 14.5938 18.7229C14.5365 19.4105 14.9588 19.9699 15.6133 19.8879C15.8751 19.8551 16.0939 19.7182 16.2697 19.4771C16.2784 19.4652 16.2894 19.4555 16.302 19.4488C16.3147 19.442 16.3286 19.4384 16.3427 19.4381C16.3569 19.4378 16.3709 19.4409 16.3839 19.4471C16.3969 19.4533 16.4084 19.4625 16.4178 19.474C16.598 19.6994 16.813 19.8271 17.0627 19.8572C17.6694 19.9299 18.064 19.4904 18.086 18.8438C18.091 18.712 18.0512 18.6382 17.9665 18.6225C17.9536 18.6202 17.9404 18.6207 17.9277 18.6239C17.915 18.6272 17.903 18.6332 17.8925 18.6415C17.8821 18.6499 17.8733 18.6604 17.8668 18.6724C17.8603 18.6845 17.8562 18.6978 17.8547 18.7117C17.8299 18.9494 17.8114 19.0955 17.7993 19.1502C17.6684 19.7404 16.9194 19.7527 16.6413 19.3633C16.3757 18.9945 16.4579 18.184 16.4732 17.6993C16.4737 17.6749 16.4825 17.6516 16.498 17.6335C16.5134 17.6155 16.5345 17.6039 16.5573 17.601C17.2079 17.5231 17.8834 17.0313 17.6407 16.2146C19.349 16.3325 20.8347 17.8243 19.9997 19.7537L18.5436 20.2056C18.3016 20.1318 18.1089 20.0153 17.9656 19.8562C17.9524 19.8414 17.9353 19.8313 17.9165 19.8273C17.8977 19.8233 17.8782 19.8255 17.8605 19.8336C17.5656 19.9648 17.2589 20.0382 16.9404 20.0539C16.9205 20.0546 16.9014 20.0621 16.8859 20.0754C16.5983 20.3162 15.4537 20.2035 14.9856 20.1707C14.8849 20.1632 14.7193 20.209 14.4887 20.308C13.8531 20.2083 13.2648 20.0488 12.724 19.8295C11.7342 17.7075 13.3269 16.2894 15.1509 16.1255Z" fill="#FEF9DA"/>
<path d="M21.8418 16.8377C21.8297 16.8299 21.8194 16.8193 21.8116 16.8066C21.8038 16.794 21.7987 16.7797 21.7967 16.7647C21.7947 16.7497 21.7958 16.7344 21.8 16.7199C21.8041 16.7055 21.8112 16.6922 21.8208 16.681C22.0577 16.4043 23.1889 15.9709 23.1125 16.723C23.1113 16.7371 23.1073 16.7508 23.1007 16.7632C23.0941 16.7756 23.0851 16.7863 23.0743 16.7947C22.6781 17.1021 22.2673 17.1164 21.8418 16.8377Z" fill="#F7A191"/>
<path d="M9.38957 17.0569C9.07428 16.9012 9.2625 16.5825 9.49945 16.5026C9.87016 16.3769 10.2237 16.4572 10.56 16.7434C10.5714 16.7531 10.5806 16.7655 10.5868 16.7796C10.593 16.7937 10.5962 16.8092 10.596 16.8248C10.5958 16.8405 10.5923 16.8558 10.5857 16.8698C10.5792 16.8837 10.5697 16.8959 10.5581 16.9053C10.1848 17.2079 9.79531 17.2584 9.38957 17.0569Z" fill="#F7A191"/>
<path d="M23.8425 19.2537L23.8463 21.4679C23.7998 22.1892 23.8046 22.915 23.8606 23.6452C23.7584 23.8594 23.8205 24.8584 23.83 25.4967L23.7823 26.9753C23.1593 25.6392 21.8504 25.5613 20.6484 25.7765C19.6615 25.9537 19.35 26.9999 19.5946 27.9333L18.5436 27.9589V20.2055L19.9997 19.7537C20.786 19.6481 21.5886 19.4576 22.3405 19.3889C22.8412 19.3425 23.3418 19.2974 23.8425 19.2537ZM19.2468 21.599C19.2533 21.6106 19.2623 21.6203 19.2732 21.6271C19.2841 21.6339 19.2963 21.6376 19.3089 21.638C19.7637 21.6533 23.1803 21.7005 23.1985 21.5509C23.199 21.5461 23.1987 21.5412 23.1974 21.5366C23.1961 21.532 23.1939 21.5278 23.191 21.5242C23.1881 21.5206 23.1846 21.5178 23.1806 21.5158C23.1766 21.5139 23.1723 21.5129 23.1679 21.513C21.9806 21.4979 20.7933 21.5034 19.6061 21.5294C19.4981 21.5324 19.3997 21.5027 19.2984 21.472C19.1971 21.4406 19.1742 21.473 19.2296 21.5693L19.2468 21.599ZM22.2153 22.6678C22.2152 22.6463 22.2071 22.6258 22.1928 22.6107C22.1786 22.5957 22.1593 22.5873 22.1393 22.5874L19.8482 22.6046C19.8282 22.6047 19.8091 22.6134 19.795 22.6287C19.781 22.644 19.7731 22.6646 19.7733 22.6861L19.7733 22.6902C19.7734 22.7117 19.7815 22.7322 19.7958 22.7473C19.81 22.7623 19.8293 22.7707 19.8493 22.7706L22.1404 22.7534C22.1604 22.7533 22.1796 22.7446 22.1936 22.7293C22.2077 22.714 22.2155 22.6934 22.2153 22.6719L22.2153 22.6678ZM19.2544 23.8963C20.6589 23.9577 21.8131 23.9656 22.717 23.9198C22.8023 23.9157 22.8208 23.8846 22.7724 23.8266C22.7633 23.8163 22.7524 23.808 22.7403 23.8024C22.7281 23.7967 22.715 23.7938 22.7017 23.7938L19.2019 23.7846C19.1925 23.7846 19.1832 23.7875 19.1753 23.7929C19.1673 23.7984 19.161 23.8061 19.157 23.8153C19.1353 23.8659 19.1678 23.8928 19.2544 23.8963ZM23.0593 25.0999C23.0598 25.0792 23.0527 25.0592 23.0395 25.0442C23.0262 25.0292 23.008 25.0205 22.9887 25.0199L19.392 24.9121C19.3727 24.9115 19.354 24.9192 19.34 24.9334C19.326 24.9476 19.3179 24.9672 19.3173 24.9878L19.3172 24.9919C19.3167 25.0125 19.3238 25.0326 19.3371 25.0476C19.3503 25.0626 19.3685 25.0713 19.3878 25.0719L22.9846 25.1797C23.0038 25.1802 23.0225 25.1726 23.0365 25.1584C23.0505 25.1442 23.0586 25.1246 23.0592 25.104L23.0593 25.0999Z" fill="#B0D1AB"/>
<path d="M12.7241 19.8297C13.2648 20.0489 13.8531 20.2084 14.4888 20.3082C14.555 22.8561 14.577 25.4064 14.5547 27.9591L9.03512 28.0001C9.01437 28 8.99419 27.9929 8.97752 27.9799C8.96085 27.9668 8.94856 27.9484 8.94245 27.9273L8.89181 27.748L8.89563 25.6834L8.89754 23.9927L8.86601 21.9691C8.91633 21.1453 8.90742 20.329 8.83926 19.5202C9.1966 19.0458 11.932 19.6401 12.5464 19.8143C12.6037 19.8307 12.6801 19.9249 12.7241 19.8297ZM13.689 21.5318C13.689 21.5283 13.6883 21.5248 13.6871 21.5216C13.6858 21.5183 13.684 21.5154 13.6817 21.5129C13.6794 21.5105 13.6766 21.5085 13.6736 21.5072C13.6706 21.5058 13.6674 21.5052 13.6641 21.5052L10.6296 21.5108C10.6264 21.5108 10.6232 21.5115 10.6201 21.5129C10.6171 21.5142 10.6144 21.5162 10.6121 21.5187C10.6098 21.5212 10.608 21.5241 10.6067 21.5273C10.6055 21.5306 10.6048 21.534 10.6049 21.5375L10.605 21.6052C10.605 21.6087 10.6056 21.6121 10.6069 21.6153C10.6081 21.6186 10.61 21.6215 10.6123 21.624C10.6146 21.6264 10.6173 21.6284 10.6203 21.6297C10.6234 21.6311 10.6266 21.6318 10.6299 21.6317L13.6643 21.6261C13.6676 21.6261 13.6708 21.6254 13.6738 21.624C13.6768 21.6227 13.6796 21.6207 13.6819 21.6182C13.6842 21.6158 13.686 21.6128 13.6872 21.6096C13.6885 21.6063 13.6891 21.6029 13.6891 21.5994L13.689 21.5318ZM13.5868 22.8061C13.5867 22.7844 13.4105 22.7642 13.0969 22.75C12.7833 22.7358 12.358 22.7287 11.9145 22.7304C11.695 22.7312 11.4776 22.7341 11.2747 22.739C11.0719 22.7439 10.8876 22.7506 10.7323 22.7588C10.5771 22.767 10.454 22.7765 10.37 22.7868C10.286 22.797 10.2428 22.8078 10.2428 22.8186C10.2429 22.8404 10.4191 22.8605 10.7327 22.8747C11.0463 22.8889 11.4716 22.896 11.9151 22.8943C12.1347 22.8935 12.3521 22.8906 12.5549 22.8857C12.7578 22.8808 12.9421 22.8741 13.0973 22.8659C13.2525 22.8577 13.3757 22.8482 13.4596 22.8379C13.5436 22.8277 13.5869 22.8169 13.5868 22.8061ZM10.3689 24.046C11.3747 24.1164 12.3795 24.1017 13.3833 24.002C13.4445 23.9958 13.4527 23.9733 13.4082 23.9343C13.3909 23.9191 13.3693 23.9107 13.347 23.9108C12.875 23.9138 10.2705 23.8226 10.1215 23.9302C9.95138 24.0522 10.3641 24.045 10.3689 24.046ZM13.557 25.1981C13.5569 25.1873 13.5548 25.1767 13.5508 25.1668C13.5468 25.1569 13.5411 25.148 13.5339 25.1405C13.5267 25.133 13.5182 25.1271 13.5088 25.1231C13.4995 25.1191 13.4895 25.1171 13.4795 25.1173L9.99059 25.1695C9.97032 25.1698 9.95099 25.1787 9.93686 25.1943C9.92273 25.2099 9.91495 25.2309 9.91524 25.2526L9.91528 25.2567C9.91542 25.2675 9.91753 25.2781 9.9215 25.288C9.92547 25.2979 9.93123 25.3068 9.93842 25.3143C9.94562 25.3219 9.95411 25.3278 9.96344 25.3317C9.97277 25.3357 9.98274 25.3377 9.99277 25.3375L13.4817 25.2853C13.502 25.285 13.5213 25.2761 13.5354 25.2605C13.5496 25.2449 13.5573 25.2239 13.557 25.2022L13.557 25.1981ZM12.6916 26.6117C12.7757 26.4949 10.902 26.4426 10.9508 26.6547C10.953 26.664 10.958 26.6722 10.9651 26.678C10.9723 26.6838 10.981 26.6868 10.9899 26.6865L12.6543 26.6322C12.6615 26.6319 12.6685 26.6299 12.675 26.6263C12.6814 26.6228 12.6871 26.6178 12.6916 26.6117Z" fill="#B0D1AB"/>
<path d="M18.5436 20.2056V27.959C18.0856 28.0205 17.6347 28.0113 17.1907 27.9314C16.7092 27.8023 16.2193 27.7507 15.7212 27.7766C15.7035 27.7775 15.6862 27.7838 15.6715 27.7949C15.6568 27.8059 15.6453 27.8213 15.6381 27.8391C15.6267 27.8678 15.6238 27.8993 15.6295 27.9334C15.2735 28.0092 14.9152 28.0178 14.5547 27.959C14.577 25.4063 14.555 22.856 14.4887 20.3081C14.7193 20.2091 14.8849 20.1633 14.9856 20.1708C15.4537 20.2036 16.5983 20.3163 16.8859 20.0755C16.9014 20.0622 16.9205 20.0547 16.9404 20.054C17.2589 20.0383 17.5656 19.9649 17.8605 19.8337C17.8782 19.8256 17.8977 19.8234 17.9165 19.8274C17.9353 19.8314 17.9524 19.8415 17.9656 19.8563C18.1089 20.0154 18.3016 20.1319 18.5436 20.2056ZM17.1534 21.1828C17.1534 21.1751 17.1519 21.1675 17.1492 21.1605C17.1464 21.1534 17.1424 21.147 17.1373 21.1416C17.1322 21.1362 17.1262 21.1319 17.1195 21.129C17.1129 21.1261 17.1058 21.1247 17.0987 21.1247L15.6197 21.133C15.6125 21.133 15.6055 21.1346 15.5989 21.1376C15.5923 21.1405 15.5863 21.1449 15.5813 21.1503C15.5762 21.1558 15.5722 21.1622 15.5695 21.1693C15.5668 21.1764 15.5655 21.184 15.5655 21.1917L15.5655 21.1958C15.5656 21.2035 15.567 21.2111 15.5698 21.2181C15.5726 21.2252 15.5766 21.2316 15.5817 21.237C15.5868 21.2424 15.5928 21.2467 15.5994 21.2496C15.606 21.2525 15.6131 21.2539 15.6203 21.2539L17.0993 21.2456C17.1064 21.2456 17.1135 21.244 17.1201 21.241C17.1267 21.2381 17.1327 21.2337 17.1377 21.2283C17.1427 21.2228 17.1467 21.2164 17.1494 21.2093C17.1521 21.2022 17.1535 21.1946 17.1534 21.1869L17.1534 21.1828ZM17.1773 21.678C17.1773 21.6626 17.1716 21.6477 17.1614 21.6367C17.1512 21.6258 17.1373 21.6196 17.1229 21.6196H15.6018C15.5874 21.6196 15.5735 21.6258 15.5633 21.6367C15.5531 21.6477 15.5474 21.6626 15.5474 21.678V21.6801C15.5474 21.6956 15.5531 21.7104 15.5633 21.7214C15.5735 21.7323 15.5874 21.7385 15.6018 21.7385H17.1229C17.1373 21.7385 17.1512 21.7323 17.1614 21.7214C17.1716 21.7104 17.1773 21.6956 17.1773 21.6801V21.678ZM17.1515 22.2029C17.1515 22.1951 17.15 22.1873 17.1471 22.1801C17.1443 22.173 17.1402 22.1664 17.135 22.1609C17.1298 22.1555 17.1237 22.1511 17.1169 22.1482C17.1102 22.1453 17.103 22.1438 17.0957 22.1438L15.6186 22.1549C15.6039 22.155 15.5899 22.1614 15.5796 22.1726C15.5692 22.1838 15.5635 22.199 15.5636 22.2147L15.5636 22.2188C15.5637 22.2266 15.5652 22.2344 15.568 22.2416C15.5708 22.2487 15.5749 22.2553 15.5801 22.2607C15.5853 22.2662 15.5915 22.2706 15.5982 22.2735C15.6049 22.2764 15.6122 22.2779 15.6194 22.2779L17.0965 22.2668C17.1112 22.2667 17.1253 22.2603 17.1356 22.2491C17.1459 22.2379 17.1516 22.2227 17.1515 22.207L17.1515 22.2029ZM17.1478 22.7237C17.148 22.7126 17.144 22.7018 17.1367 22.6939C17.1295 22.6859 17.1196 22.6813 17.1092 22.6811L15.6074 22.6586C15.597 22.6585 15.587 22.6628 15.5795 22.6705C15.5721 22.6783 15.5678 22.6889 15.5677 22.7001L15.5673 22.7287C15.5672 22.7399 15.5712 22.7506 15.5784 22.7586C15.5856 22.7666 15.5955 22.7712 15.6059 22.7713L17.1077 22.7938C17.1181 22.794 17.1281 22.7897 17.1356 22.7819C17.143 22.7742 17.1473 22.7636 17.1474 22.7524L17.1478 22.7237ZM17.1729 23.1136C17.1728 23.1087 17.1718 23.1037 17.1699 23.0992C17.1681 23.0946 17.1654 23.0905 17.162 23.0871C17.1587 23.0836 17.1547 23.0809 17.1504 23.0791C17.1461 23.0773 17.1414 23.0764 17.1368 23.0765L15.5721 23.1117C15.5628 23.1119 15.5539 23.1161 15.5474 23.1233C15.5409 23.1306 15.5374 23.1403 15.5375 23.1504L15.5384 23.1954C15.5385 23.2004 15.5395 23.2053 15.5414 23.2099C15.5433 23.2144 15.5459 23.2186 15.5493 23.222C15.5526 23.2255 15.5566 23.2282 15.5609 23.23C15.5652 23.2318 15.5699 23.2327 15.5745 23.2326L17.1392 23.1974C17.1486 23.1972 17.1574 23.193 17.1639 23.1857C17.1704 23.1785 17.174 23.1688 17.1738 23.1587L17.1729 23.1136ZM17.1955 23.6325C17.1954 23.6159 17.1057 23.6002 16.946 23.5887C16.7864 23.5773 16.5698 23.5711 16.3441 23.5716C16.2323 23.5718 16.1216 23.5736 16.0183 23.5769C15.915 23.5803 15.8212 23.585 15.7421 23.591C15.6631 23.5969 15.6004 23.604 15.5576 23.6116C15.5149 23.6193 15.4929 23.6275 15.4929 23.6357C15.4929 23.6522 15.5827 23.668 15.7423 23.6794C15.902 23.6908 16.1185 23.697 16.3443 23.6966C16.4561 23.6964 16.5668 23.6945 16.6701 23.6912C16.7734 23.6879 16.8672 23.6831 16.9462 23.6771C17.0253 23.6712 17.088 23.6642 17.1307 23.6565C17.1735 23.6488 17.1955 23.6407 17.1955 23.6325ZM17.1736 24.2153C17.1737 24.208 17.171 24.201 17.1662 24.1957C17.1615 24.1905 17.1549 24.1875 17.1481 24.1874L15.5984 24.1729C15.595 24.1729 15.5917 24.1736 15.5885 24.1749C15.5854 24.1763 15.5825 24.1783 15.5801 24.1809C15.5777 24.1834 15.5758 24.1865 15.5745 24.1898C15.5731 24.1931 15.5724 24.1967 15.5724 24.2004L15.5721 24.2413C15.572 24.2487 15.5747 24.2557 15.5795 24.261C15.5843 24.2662 15.5908 24.2692 15.5976 24.2693L17.1473 24.2838C17.1507 24.2838 17.154 24.2831 17.1572 24.2817C17.1603 24.2804 17.1632 24.2784 17.1656 24.2758C17.168 24.2733 17.1699 24.2702 17.1713 24.2669C17.1726 24.2636 17.1733 24.26 17.1733 24.2563L17.1736 24.2153ZM17.248 25.0726C17.2479 25.0647 17.2465 25.057 17.2436 25.0498C17.2408 25.0426 17.2367 25.0361 17.2315 25.0306C17.2263 25.0252 17.2202 25.0208 17.2134 25.0179C17.2067 25.015 17.1995 25.0135 17.1922 25.0135L15.6368 25.0252C15.6295 25.0252 15.6223 25.0268 15.6156 25.0299C15.6089 25.0329 15.6028 25.0373 15.5977 25.0429C15.5926 25.0484 15.5886 25.055 15.5858 25.0623C15.5831 25.0695 15.5817 25.0772 15.5818 25.085L15.5818 25.0912C15.5818 25.099 15.5833 25.1067 15.5862 25.1139C15.589 25.1211 15.5931 25.1276 15.5983 25.1331C15.6035 25.1386 15.6096 25.1429 15.6164 25.1458C15.6231 25.1488 15.6303 25.1502 15.6376 25.1502L17.193 25.1385C17.2003 25.1385 17.2075 25.1369 17.2142 25.1339C17.2209 25.1308 17.227 25.1264 17.2321 25.1208C17.2372 25.1153 17.2412 25.1087 17.244 25.1015C17.2467 25.0942 17.2481 25.0865 17.248 25.0787L17.248 25.0726ZM17.2239 25.5772C17.2239 25.5703 17.2225 25.5635 17.22 25.5572C17.2175 25.5509 17.2139 25.5452 17.2093 25.5404C17.2048 25.5356 17.1994 25.5318 17.1934 25.5292C17.1875 25.5266 17.1812 25.5253 17.1748 25.5254L15.6117 25.54C15.6053 25.5401 15.599 25.5415 15.5931 25.5442C15.5872 25.5468 15.5819 25.5507 15.5774 25.5556C15.5729 25.5605 15.5694 25.5663 15.567 25.5727C15.5646 25.5791 15.5634 25.5859 15.5634 25.5927L15.5638 25.6419C15.5639 25.6488 15.5652 25.6556 15.5677 25.6619C15.5702 25.6682 15.5738 25.6739 15.5784 25.6787C15.583 25.6835 15.5884 25.6873 15.5943 25.6899C15.6002 25.6925 15.6066 25.6938 15.613 25.6937L17.176 25.6791C17.1824 25.679 17.1887 25.6776 17.1946 25.6749C17.2005 25.6722 17.2059 25.6683 17.2103 25.6635C17.2148 25.6586 17.2184 25.6528 17.2208 25.6464C17.2232 25.64 17.2244 25.6332 17.2243 25.6264L17.2239 25.5772ZM17.2194 26.2567C17.2194 26.2452 17.2172 26.2339 17.2131 26.2233C17.209 26.2128 17.203 26.2032 17.1955 26.1951C17.1879 26.187 17.179 26.1806 17.1691 26.1763C17.1592 26.1719 17.1487 26.1697 17.138 26.1697L15.7106 26.1724C15.6999 26.1724 15.6894 26.1747 15.6795 26.1791C15.6697 26.1835 15.6607 26.1899 15.6532 26.198C15.6457 26.2061 15.6397 26.2157 15.6356 26.2263C15.6316 26.2369 15.6295 26.2482 15.6295 26.2596V26.2637C15.6295 26.2752 15.6317 26.2865 15.6358 26.297C15.6399 26.3076 15.6459 26.3172 15.6534 26.3253C15.661 26.3333 15.6699 26.3397 15.6798 26.3441C15.6897 26.3484 15.7002 26.3507 15.7109 26.3507L17.1383 26.348C17.149 26.348 17.1595 26.3457 17.1694 26.3413C17.1792 26.3369 17.1882 26.3305 17.1957 26.3224C17.2032 26.3143 17.2092 26.3047 17.2132 26.2941C17.2173 26.2835 17.2194 26.2722 17.2194 26.2607V26.2567ZM17.2003 26.8719C17.2003 26.8488 17.1917 26.8266 17.1765 26.8103C17.1612 26.794 17.1406 26.7848 17.119 26.7848H15.7318C15.7102 26.7848 15.6896 26.794 15.6743 26.8103C15.6591 26.8266 15.6505 26.8488 15.6505 26.8719V26.876C15.6505 26.8991 15.6591 26.9212 15.6743 26.9376C15.6896 26.9539 15.7102 26.9631 15.7318 26.9631H17.119C17.1406 26.9631 17.1612 26.9539 17.1765 26.9376C17.1917 26.9212 17.2003 26.8991 17.2003 26.876V26.8719ZM17.1773 27.4098C17.1773 27.3992 17.1734 27.3891 17.1664 27.3816C17.1594 27.3741 17.15 27.3699 17.1401 27.3699H15.6954C15.6906 27.3699 15.6857 27.3709 15.6812 27.3729C15.6767 27.3749 15.6726 27.3779 15.6691 27.3816C15.6656 27.3853 15.6629 27.3897 15.661 27.3945C15.6592 27.3994 15.6582 27.4046 15.6582 27.4098V27.4365C15.6582 27.4417 15.6592 27.4469 15.661 27.4517C15.6629 27.4566 15.6656 27.461 15.6691 27.4647C15.6726 27.4684 15.6767 27.4714 15.6812 27.4734C15.6857 27.4754 15.6906 27.4764 15.6954 27.4764H17.1401C17.15 27.4764 17.1594 27.4722 17.1664 27.4647C17.1734 27.4572 17.1773 27.4471 17.1773 27.4365V27.4098Z" fill="#DCE7D9"/>
<path d="M27.4808 21.6361C27.3967 21.5794 27.3234 21.546 27.261 21.5357C26.1814 21.3554 25.461 21.8503 24.6441 22.5255C24.6899 22.059 24.7387 21.5917 24.7903 21.1238C24.8122 20.9168 24.9001 20.8492 24.9928 20.6843C25.9368 20.2983 26.9104 20.2351 27.9136 20.4947C27.9273 20.4981 27.9401 20.5048 27.951 20.5142C27.962 20.5236 27.9709 20.5356 27.977 20.5493C27.9831 20.5629 27.9864 20.5779 27.9865 20.5931C27.9866 20.6083 27.9835 20.6233 27.9776 20.6371L27.5859 21.5316C27.5795 21.5453 27.5709 21.5572 27.5601 21.5675L27.4808 21.6361Z" fill="#92BAB9"/>
<path d="M7.7596 21.0786L7.8456 22.6371C6.64175 21.7907 5.90701 21.0817 4.36302 21.6616C4.20633 21.4171 4.08658 21.1425 4.00378 20.8378C3.99997 20.8239 3.99903 20.8092 4.00101 20.7948C4.003 20.7804 4.00787 20.7666 4.0153 20.7544C4.02273 20.7422 4.03255 20.7317 4.04407 20.7239C4.0556 20.716 4.06858 20.7108 4.08213 20.7087C4.31653 20.6725 4.6831 20.6308 5.18184 20.5837C6.13345 20.4935 6.99271 20.6585 7.7596 21.0786Z" fill="#92BAB9"/>
<path d="M24.9928 20.6841C24.9001 20.849 24.8122 20.9167 24.7903 21.1236C24.7387 21.5916 24.6899 22.0588 24.6441 22.5253L23.8606 23.6453C23.8046 22.915 23.7998 22.1893 23.8463 21.4679C24.2106 21.1359 24.5928 20.8747 24.9928 20.6841Z" fill="#709697"/>
<path d="M7.75961 21.0786C8.18128 21.3232 8.55007 21.62 8.866 21.969L8.89754 23.9927L8.22874 23.1217L7.8456 22.6371L7.75961 21.0786Z" fill="#709697"/>
<path d="M17.0987 21.1247L15.6197 21.133C15.5896 21.1332 15.5654 21.1594 15.5655 21.1917L15.5656 21.1958C15.5657 21.2281 15.5902 21.2541 15.6203 21.2539L17.0993 21.2456C17.1294 21.2454 17.1536 21.2191 17.1535 21.1869L17.1534 21.1828C17.1533 21.1505 17.1288 21.1245 17.0987 21.1247Z" fill="#9D3D05"/>
<path d="M7.84561 22.6372L8.22874 23.1218C8.16313 23.1403 8.10134 23.1389 8.04338 23.1177C8.02844 23.1121 8.01242 23.1105 7.99676 23.1131C7.98111 23.1156 7.96631 23.1223 7.9537 23.1325C7.9411 23.1426 7.93109 23.156 7.92456 23.1713C7.91803 23.1866 7.91519 23.2034 7.91631 23.2202L8.02905 25.1219C6.38187 24.4662 5.15987 23.3128 4.36304 21.6617C5.90702 21.0818 6.64176 21.7909 7.84561 22.6372Z" fill="#F8EFC7"/>
<path d="M19.2468 21.5991L19.2296 21.5694C19.1742 21.4731 19.1971 21.4406 19.2984 21.472C19.3997 21.5028 19.4981 21.5325 19.6061 21.5294C20.7933 21.5035 21.9806 21.498 23.1679 21.513C23.1723 21.513 23.1766 21.5139 23.1806 21.5159C23.1846 21.5178 23.1881 21.5207 23.191 21.5243C23.1939 21.5279 23.1961 21.5321 23.1974 21.5367C23.1987 21.5413 23.199 21.5462 23.1985 21.5509C23.1803 21.7005 19.7637 21.6534 19.3089 21.638C19.2963 21.6377 19.2841 21.6339 19.2732 21.6271C19.2623 21.6203 19.2533 21.6107 19.2468 21.5991Z" fill="#EAF0DE"/>
<path d="M27.4808 21.6361L27.4741 21.6976C27.4722 21.7112 27.468 21.7242 27.4617 21.7365C26.6304 23.2898 25.3157 24.6547 23.83 25.4969C23.8205 24.8586 23.7584 23.8595 23.8606 23.6454L24.6441 22.5255C25.461 21.8502 26.1814 21.3554 27.261 21.5357C27.3234 21.5459 27.3967 21.5794 27.4808 21.6361Z" fill="#F8EFC7"/>
<path d="M13.6641 21.505L10.6296 21.5107C10.6159 21.5107 10.6048 21.5227 10.6048 21.5374L10.605 21.605C10.605 21.6197 10.6161 21.6316 10.6298 21.6316L13.6643 21.6259C13.678 21.6259 13.6891 21.6139 13.6891 21.5992L13.689 21.5316C13.689 21.5169 13.6778 21.505 13.6641 21.505Z" fill="#FEFEFE"/>
<path d="M17.1229 21.6196H15.6018C15.5717 21.6196 15.5474 21.6458 15.5474 21.678V21.6801C15.5474 21.7123 15.5717 21.7385 15.6018 21.7385H17.1229C17.153 21.7385 17.1773 21.7123 17.1773 21.6801V21.678C17.1773 21.6458 17.153 21.6196 17.1229 21.6196Z" fill="#9D3D05"/>
<path d="M17.0957 22.1438L15.6186 22.1549C15.588 22.1551 15.5634 22.1819 15.5636 22.2147L15.5636 22.2188C15.5639 22.2516 15.5888 22.278 15.6194 22.2778L17.0965 22.2668C17.1271 22.2665 17.1518 22.2397 17.1515 22.2069L17.1515 22.2028C17.1513 22.17 17.1263 22.1436 17.0957 22.1438Z" fill="#9D3D05"/>
<path d="M22.1393 22.5875L19.8482 22.6047C19.8065 22.605 19.773 22.6415 19.7733 22.6862L19.7733 22.6903C19.7736 22.735 19.8076 22.771 19.8493 22.7706L22.1404 22.7535C22.1821 22.7532 22.2156 22.7167 22.2153 22.672L22.2153 22.6679C22.215 22.6232 22.181 22.5872 22.1393 22.5875Z" fill="#EAF0DE"/>
<path d="M17.1092 22.681L15.6074 22.6585C15.5858 22.6582 15.568 22.6768 15.5677 22.7L15.5673 22.7287C15.567 22.7519 15.5843 22.7709 15.6059 22.7712L17.1077 22.7937C17.1294 22.7941 17.1472 22.7755 17.1475 22.7523L17.1478 22.7236C17.1481 22.7004 17.1308 22.6814 17.1092 22.681Z" fill="#B24312"/>
<path d="M11.9151 22.8943C12.8385 22.8908 13.5869 22.8513 13.5868 22.806C13.5866 22.7608 12.8379 22.7269 11.9145 22.7303C10.9911 22.7338 10.2426 22.7733 10.2428 22.8185C10.2429 22.8638 10.9916 22.8977 11.9151 22.8943Z" fill="#F8F6F5"/>
<path d="M8.22874 23.1218L8.89755 23.9927L8.89564 25.6834L8.63576 25.5973C8.49117 25.3937 8.28893 25.2353 8.02905 25.1219L7.91631 23.2202C7.9152 23.2034 7.91803 23.1865 7.92456 23.1712C7.93109 23.1559 7.9411 23.1426 7.95371 23.1324C7.96631 23.1222 7.98111 23.1156 7.99677 23.113C8.01242 23.1104 8.02844 23.112 8.04338 23.1177C8.10135 23.1389 8.16314 23.1402 8.22874 23.1218Z" fill="#EEE0C0"/>
<path d="M17.1368 23.0766L15.5721 23.1118C15.5526 23.1122 15.5371 23.1295 15.5375 23.1505L15.5384 23.1955C15.5388 23.2165 15.555 23.2331 15.5745 23.2326L17.1392 23.1975C17.1587 23.197 17.1742 23.1797 17.1738 23.1588L17.1729 23.1137C17.1725 23.0928 17.1563 23.0762 17.1368 23.0766Z" fill="#B24312"/>
<path d="M16.3443 23.6967C16.8144 23.6958 17.1955 23.6671 17.1955 23.6326C17.1954 23.598 16.8142 23.5708 16.3441 23.5716C15.8739 23.5725 15.4928 23.6012 15.4929 23.6357C15.493 23.6703 15.8741 23.6975 16.3443 23.6967Z" fill="#9D3D05"/>
<path d="M19.2545 23.8964C19.1678 23.8929 19.1354 23.866 19.157 23.8154C19.161 23.8062 19.1673 23.7985 19.1753 23.793C19.1833 23.7876 19.1925 23.7847 19.2019 23.7847L22.7017 23.7939C22.715 23.7939 22.7281 23.7968 22.7403 23.8025C22.7524 23.8081 22.7634 23.8163 22.7724 23.8267C22.8208 23.8847 22.8023 23.9158 22.717 23.9199C21.8131 23.9657 20.6589 23.9578 19.2545 23.8964Z" fill="#EAF0DE"/>
<path d="M10.3689 24.0459C10.3641 24.0448 9.95136 24.052 10.1214 23.9301C10.2705 23.8225 12.875 23.9137 13.347 23.9106C13.3692 23.9106 13.3908 23.9189 13.4081 23.9342C13.4527 23.9731 13.4444 23.9956 13.3833 24.0018C12.3794 24.1015 11.3746 24.1162 10.3689 24.0459Z" fill="#EAF0DE"/>
<path d="M17.1481 24.1874L15.5984 24.1728C15.5842 24.1727 15.5725 24.185 15.5724 24.2003L15.5721 24.2413C15.5719 24.2565 15.5834 24.269 15.5976 24.2692L17.1473 24.2837C17.1615 24.2838 17.1732 24.2715 17.1733 24.2562L17.1737 24.2153C17.1738 24.2 17.1623 24.1875 17.1481 24.1874Z" fill="#B14B18"/>
<path d="M22.9887 25.0201L19.392 24.9123C19.3519 24.9111 19.3185 24.945 19.3173 24.988L19.3172 24.9921C19.3161 25.0351 19.3477 25.0709 19.3878 25.0721L22.9846 25.1799C23.0246 25.1811 23.0581 25.1472 23.0592 25.1042L23.0593 25.1001C23.0604 25.0571 23.0288 25.0213 22.9887 25.0201Z" fill="#EAF0DE"/>
<path d="M17.1922 25.0136L15.6368 25.0252C15.6062 25.0254 15.5816 25.0522 15.5818 25.0851L15.5818 25.0912C15.582 25.124 15.607 25.1505 15.6376 25.1502L17.193 25.1386C17.2236 25.1383 17.2483 25.1116 17.2481 25.0787L17.248 25.0726C17.2478 25.0398 17.2228 25.0133 17.1922 25.0136Z" fill="#B24312"/>
<path d="M13.4795 25.1173L9.99058 25.1695C9.94837 25.1701 9.91463 25.2074 9.91522 25.2526L9.91527 25.2567C9.91586 25.302 9.95056 25.3382 9.99277 25.3375L13.4817 25.2853C13.5239 25.2847 13.5576 25.2474 13.557 25.2022L13.557 25.1981C13.5564 25.1528 13.5217 25.1166 13.4795 25.1173Z" fill="#EAF0DE"/>
<path d="M17.1748 25.5254L15.6117 25.5401C15.5848 25.5403 15.5632 25.5639 15.5634 25.5928L15.5638 25.642C15.5641 25.6708 15.5861 25.694 15.613 25.6938L17.176 25.6791C17.2029 25.6789 17.2246 25.6553 17.2243 25.6264L17.2239 25.5772C17.2237 25.5484 17.2017 25.5252 17.1748 25.5254Z" fill="#B24312"/>
<path d="M8.63575 25.5972L8.89563 25.6832L8.8918 27.7479C8.6625 27.0498 8.57715 26.3329 8.63575 25.5972Z" fill="#527176"/>
<path d="M23.7823 26.9753L23.8453 27.8422C23.8463 27.8564 23.8445 27.8706 23.8401 27.884C23.8357 27.8974 23.8288 27.9097 23.8198 27.92C23.8109 27.9304 23.8 27.9387 23.788 27.9443C23.7759 27.95 23.7629 27.9529 23.7498 27.9528L19.5946 27.9334C19.35 26.9999 19.6615 25.9538 20.6484 25.7765C21.8504 25.5613 23.1593 25.6392 23.7823 26.9753Z" fill="#4C6B71"/>
<path d="M17.138 26.1698L15.7106 26.1725C15.6658 26.1725 15.6295 26.2116 15.6295 26.2597L15.6295 26.2638C15.6296 26.3119 15.666 26.3508 15.7109 26.3507L17.1383 26.3481C17.1832 26.348 17.2195 26.3089 17.2194 26.2608L17.2194 26.2567C17.2193 26.2086 17.1829 26.1697 17.138 26.1698Z" fill="#C2541A"/>
<path d="M10.9508 26.6546C10.902 26.4425 12.7756 26.4948 12.6916 26.6116C12.687 26.6177 12.6814 26.6227 12.6749 26.6263C12.6685 26.6298 12.6615 26.6318 12.6543 26.6321L10.9899 26.6864C10.981 26.6867 10.9723 26.6837 10.9651 26.6779C10.958 26.6722 10.9529 26.6639 10.9508 26.6546Z" fill="#FEFEFE"/>
<path d="M17.119 26.7847H15.7318C15.6869 26.7847 15.6505 26.8237 15.6505 26.8718V26.8759C15.6505 26.924 15.6869 26.963 15.7318 26.963H17.119C17.1639 26.963 17.2003 26.924 17.2003 26.8759V26.8718C17.2003 26.8237 17.1639 26.7847 17.119 26.7847Z" fill="#C2541A"/>
<path d="M17.1401 27.3699H15.6955C15.6749 27.3699 15.6582 27.3878 15.6582 27.4098V27.4365C15.6582 27.4585 15.6749 27.4764 15.6955 27.4764H17.1401C17.1607 27.4764 17.1773 27.4585 17.1773 27.4365V27.4098C17.1773 27.3878 17.1607 27.3699 17.1401 27.3699Z" fill="#A44116"/>
<path d="M17.1907 27.9313C16.6633 27.9941 16.1429 27.9948 15.6295 27.9333C15.6238 27.8992 15.6267 27.8677 15.6381 27.839C15.6453 27.8212 15.6569 27.8058 15.6716 27.7948C15.6863 27.7837 15.7035 27.7774 15.7213 27.7765C16.2194 27.7506 16.7092 27.8022 17.1907 27.9313Z" fill="#E18B40"/>
</g>
<defs>
<clipPath id="clip0_55889_43262">
<rect width="24" height="24" fill="white" transform="translate(4 4)"/>
</clipPath>
</defs>
</svg>
