<svg width="32" height="32" viewBox="0 0 32 32" fill="none" xmlns="http://www.w3.org/2000/svg">
<path d="M0 16C0 7.16344 7.16344 0 16 0C24.8366 0 32 7.16344 32 16C32 24.8366 24.8366 32 16 32C7.16344 32 0 24.8366 0 16Z" fill="#FFF3D6"/>
<g clip-path="url(#clip0_55889_43313)">
<path d="M10.3983 6.20332C10.8593 6.90198 11.1313 7.32311 11.2143 7.46671C11.3188 7.64552 11.3899 7.87576 11.4277 8.15744C11.4522 8.33556 11.5778 8.40494 11.7123 8.24546C12.3014 7.55163 12.1336 6.29962 11.5 5.66896C11.9713 5.48601 12.466 5.33931 12.984 5.22884C13.2878 5.79703 13.5839 6.36659 13.8722 6.93754C14.0067 7.20368 14.249 7.53817 14.518 7.60134C14.9516 7.7042 15.3836 7.62308 15.8142 7.35798C15.8277 7.3496 15.839 7.33858 15.8474 7.32569C15.8558 7.31281 15.8611 7.29836 15.8629 7.28337C15.8647 7.26838 15.863 7.2532 15.8578 7.2389C15.8527 7.22459 15.8442 7.21151 15.8331 7.20057C15.5485 6.91959 15.351 6.65482 15.2406 6.40629C15.0375 5.94788 14.8278 5.47255 14.6114 4.98031C15.5289 4.84845 16.4478 4.84845 17.3682 4.98031C17.2104 5.32136 17.0444 5.7777 16.8702 6.34933C16.6761 6.98655 16.8573 7.48156 17.4138 7.83434C17.7128 8.02489 17.844 7.82606 17.8996 7.57545C18.0826 6.75735 18.3635 5.96617 18.7422 5.20192C19.3618 5.33171 19.9491 5.51604 20.5041 5.75492C19.9127 6.74078 19.6738 7.54024 20.3719 8.51367C20.4867 8.67384 20.6338 8.75082 20.8132 8.74461C20.8295 8.74414 20.8455 8.74026 20.86 8.73325C20.8745 8.72624 20.8872 8.71628 20.8971 8.70409C20.907 8.69189 20.9139 8.67777 20.9172 8.66275C20.9206 8.64773 20.9204 8.63218 20.9165 8.61723C20.7809 8.09668 20.8758 7.60789 21.2011 7.15086C21.4079 6.85952 21.5676 6.64067 21.6802 6.49431C21.6961 6.47371 21.7031 6.44823 21.6998 6.42279C21.6965 6.39735 21.6832 6.37376 21.6625 6.35658L21.5557 6.26856C21.7002 5.42457 22.6696 4.5609 23.4922 4.25437C24.5356 3.86638 25.5446 3.96372 26.5191 4.5464C28.938 5.99413 28.2744 9.61967 25.3953 10.1561L24.8828 9.27482C24.8693 9.25152 24.8467 9.23391 24.8198 9.22563C24.7929 9.21734 24.7638 9.21901 24.7383 9.23029C23.8142 9.63416 22.8752 10.0052 21.9215 10.3435C21.5628 10.4706 21.5813 10.57 21.977 10.6418C23.2947 10.8813 24.4989 10.8893 25.5898 10.6656C25.8196 11.1026 25.9756 11.5614 26.0578 12.0419C25.1492 12.144 24.2748 12.3608 23.4344 12.6922C23.4186 12.6986 23.4059 12.7101 23.3985 12.7246C23.3912 12.739 23.3897 12.7555 23.3944 12.7709C23.4233 12.8693 24.2681 12.9759 24.4938 12.9956C25.1341 13.0515 25.7573 13.1824 26.3635 13.3881C26.4799 14.4727 26.4851 15.5642 26.3791 16.6626C25.3438 16.9187 24.337 17.2283 23.3588 17.5915C23.3408 17.5981 23.325 17.609 23.313 17.623C23.3009 17.637 23.2929 17.6538 23.2899 17.6715C23.2869 17.6893 23.2889 17.7075 23.2957 17.7243C23.3025 17.7412 23.3139 17.7561 23.3288 17.7675C23.8279 18.1507 25.4642 17.9829 26.1134 17.9446C26.0897 18.2194 26.0093 18.4783 25.8722 18.7213C25.1452 18.7199 24.4908 18.9184 23.909 19.3167C23.894 19.3271 23.8821 19.3407 23.8742 19.3565C23.8664 19.3722 23.8629 19.3895 23.8641 19.4068C23.8653 19.4242 23.8712 19.4409 23.8812 19.4556C23.8912 19.4702 23.905 19.4823 23.9213 19.4907L25.0818 20.0872C24.7083 20.5656 24.426 20.8891 24.2348 21.0575C24.008 21.2584 23.8483 21.4276 23.7556 21.565C23.5496 21.6402 23.3614 21.7641 23.1909 21.9367C23.1005 22.0279 23.1205 22.0852 23.251 22.1086C23.5437 22.1611 23.8031 22.2919 24.0291 22.5011C24.1254 22.8042 24.1825 23.1135 24.2003 23.429L23.0409 23.6454C22.7733 23.6951 22.7385 23.8101 22.9364 23.9903C23.3907 24.4038 23.9179 24.749 24.5182 25.0258C24.6309 25.5602 24.6624 26.108 24.6127 26.6693C23.6222 26.6331 22.5451 26.9955 22.3061 27.9969L7.43696 28C7.41102 28 7.38594 27.9916 7.36604 27.9762C7.34615 27.9609 7.33269 27.9396 7.32802 27.9161L7.25688 27.5692C7.82677 27.3165 8.43372 27.2309 9.07772 27.3124C9.14553 27.3217 9.4001 27.2834 9.19556 27.1653C8.58268 26.8119 7.91645 26.6293 7.19686 26.6175L7.19241 26.0179C7.51255 25.8471 7.517 25.5726 7.62372 25.3251C7.73933 25.0579 7.81602 24.7852 7.85382 24.507L9.46679 23.8173C9.60834 23.7573 9.60945 23.6951 9.47013 23.6309C9.23891 23.5246 8.9799 23.4701 8.6931 23.4673C8.30403 23.4632 7.91496 23.459 7.52589 23.4549L7.62483 22.7963C7.96202 22.5988 8.31774 22.448 8.69199 22.3437C8.8202 22.3085 8.83391 22.2498 8.73312 22.1677L8.44744 21.9316C8.37852 21.7279 8.22881 21.6143 7.99834 21.5909C7.9887 21.5087 7.96794 21.4517 7.93608 21.42C7.55071 21.0451 7.21019 20.6388 6.9145 20.2011C7.35396 19.9091 7.83011 19.6809 8.34294 19.5166C8.52006 19.46 8.52339 19.3961 8.35294 19.325C7.66595 19.0371 6.92858 18.8877 6.14081 18.8766C6.01335 18.6391 5.92997 18.3889 5.8907 18.1258C6.78444 18.0813 7.88161 18.1362 8.70755 17.781C8.88319 17.7057 8.87874 17.6415 8.69421 17.5884L5.59945 16.6978C5.53942 15.5711 5.59945 14.4679 5.77953 13.3881L8.68754 13.1209C8.71334 13.1183 8.73734 13.1073 8.75536 13.0899C9.41567 12.4592 6.41538 11.8492 6.10857 11.8047C6.19454 11.3083 6.37054 10.8423 6.63659 10.4067C7.71376 10.7515 8.75646 10.88 9.73136 10.4264C9.85956 10.367 9.86031 10.3059 9.73358 10.2431L7.47143 9.11638C7.45756 9.10955 7.44542 9.10003 7.43581 9.08846C7.42619 9.07689 7.41933 9.06353 7.41565 9.04925C7.41198 9.03497 7.41158 9.02009 7.41449 9.0056C7.41739 8.99112 7.42354 8.97734 7.43252 8.96518C7.96017 8.25962 8.53489 7.5896 9.15665 6.95514C9.17199 6.93938 9.18181 6.91963 9.18478 6.89854C9.18776 6.87745 9.18376 6.85601 9.17332 6.83709C7.46475 3.77594 3.62853 7.06077 6.30199 8.78292C6.55693 8.94654 6.84224 9.05148 7.15794 9.09774C7.1757 9.10034 7.19254 9.10689 7.20701 9.11681C7.22148 9.12673 7.23314 9.13973 7.24101 9.1547C7.24888 9.16967 7.25272 9.18616 7.25219 9.20275C7.25167 9.21934 7.24679 9.23555 7.23799 9.24997L6.66438 10.2079C5.61797 9.94138 4.86244 9.40047 4.39778 8.58513C2.83483 5.84087 6.1875 2.75487 9.0744 4.51741C9.72877 4.91645 10.1701 5.47842 10.3983 6.20332ZM24.8895 9.11431C26.209 8.93101 27.2995 7.82398 26.7292 6.58234C26.4736 6.02416 25.8922 5.62029 25.2552 5.5478C24.0958 5.41525 23.4555 6.00035 22.913 6.88058C22.9009 6.90015 22.8959 6.92289 22.8989 6.94533C22.9019 6.96777 22.9127 6.98867 22.9297 7.00485C23.6063 7.64759 24.2236 8.33659 24.7817 9.07185C24.7937 9.08748 24.8102 9.09971 24.8292 9.10721C24.8482 9.1147 24.8691 9.11715 24.8895 9.11431ZM12.3392 9.97797C13.4987 9.63209 14.6236 9.66109 15.8687 9.8071C16.0791 9.83196 16.1102 9.77362 15.962 9.63209C14.7815 8.50539 13.0351 8.16054 12.0502 9.65591C11.8735 9.92412 11.9802 10.0846 12.3392 9.97797ZM17.4183 10.6428C17.7369 10.7367 18.0615 10.7854 18.392 10.7888C19.1331 10.7971 19.8664 10.871 20.592 11.0104C20.611 11.014 20.6307 11.0129 20.6492 11.0072C20.6676 11.0015 20.6841 10.9914 20.6971 10.9779C20.71 10.9643 20.7189 10.9479 20.7229 10.9302C20.7269 10.9125 20.7258 10.8941 20.7198 10.8768C20.3563 9.85163 19.3836 9.54096 18.3531 9.93033C17.9974 10.065 17.6736 10.2427 17.3816 10.4637C17.2749 10.5444 17.2871 10.6041 17.4183 10.6428ZM13.9333 12.89C14.737 12.3784 15.5507 12.5483 16.4145 12.7916C17.074 12.9773 17.7039 12.9166 18.3042 12.6094C18.5021 12.5079 18.4891 12.4433 18.2653 12.4157C18.0215 12.386 17.7514 12.337 17.4549 12.2687C16.9169 12.1454 16.31 11.7954 15.8631 11.7043C14.9438 11.5168 14.1101 12.0015 13.7899 12.7999C13.7299 12.949 13.8488 12.9438 13.9333 12.89ZM10.2883 12.6725C10.3057 12.682 10.3257 12.687 10.3461 12.687L12.3159 12.6767C12.3345 12.6765 12.3527 12.6721 12.369 12.6637C12.3853 12.6553 12.399 12.6432 12.4089 12.6286C12.4189 12.6139 12.4248 12.5972 12.426 12.5799C12.4272 12.5626 12.4237 12.5453 12.4159 12.5296C12.3374 12.3715 12.2181 12.2407 12.058 12.1371C11.4451 11.7402 10.8196 11.7298 10.1816 12.1061C9.88514 12.2814 9.92071 12.4702 10.2883 12.6725ZM19.5904 13.2038C19.7623 13.2404 19.9368 13.2393 20.114 13.2007C20.7594 13.0612 21.4123 13.0112 22.0726 13.0505C22.2149 13.0595 22.249 13.0074 22.1749 12.8941C21.837 12.3764 21.2689 12.1589 20.652 12.4136C20.254 12.5786 19.8861 12.7809 19.5481 13.0205C19.4222 13.1095 19.4362 13.1706 19.5904 13.2038ZM19.0568 16.4907C20.8569 16.6488 22.6551 16.636 24.4515 16.4524C24.4792 16.4495 24.5048 16.4371 24.5231 16.4175C24.5414 16.3979 24.5512 16.3727 24.5505 16.3467C24.5178 15.2545 24.0762 14.4213 23.2254 13.8469C21.7614 12.8589 19.9105 13.56 19.2758 15.0295C19.0838 15.4727 18.9771 15.9239 18.9556 16.383C18.9544 16.4094 18.9642 16.4353 18.983 16.4554C19.0018 16.4754 19.0282 16.488 19.0568 16.4907ZM7.52923 16.4234C8.86467 16.5683 10.1208 16.617 11.2976 16.5694C11.809 16.5487 12.3255 16.5331 12.8472 16.5228C12.8758 16.5223 12.903 16.5115 12.9233 16.4928C12.9436 16.4741 12.9553 16.4489 12.9562 16.4223C12.9895 15.3695 12.6057 14.5414 11.8045 13.938C11.0642 13.3819 10.1204 13.2556 9.25669 13.6014C8.04391 14.0871 7.5737 15.1258 7.43141 16.3084C7.42827 16.3357 7.43676 16.363 7.45506 16.3845C7.47336 16.406 7.5 16.42 7.52923 16.4234ZM14.2279 14.7478C15.2261 15.1103 16.2229 15.0937 17.2182 14.6981C17.3493 14.6456 17.3541 14.5845 17.2326 14.5148C16.1121 13.8686 15.3028 13.9794 14.2123 14.5614C14.0782 14.6332 14.0834 14.6953 14.2279 14.7478ZM11.5555 23.4891C12.138 24.595 13.4764 24.6282 14.5013 24.0327L16.9469 24.0586C17.2582 24.5764 18.163 25.2485 18.8211 24.7887C19.1057 24.5899 19.3614 24.3838 19.6915 24.2378C20.1529 24.0338 20.9165 23.8173 20.9165 23.2001L22.5773 22.3416C22.5934 22.3333 22.6071 22.3216 22.6171 22.3073C22.6272 22.293 22.6334 22.2768 22.6351 22.2598C22.7985 20.4155 22.6262 18.828 20.8432 17.7106C20.1895 17.3012 19.4462 17.0254 18.6133 16.8832C15.7831 16.3985 10.5362 16.4534 9.51571 19.7703C9.25336 20.6205 9.38786 21.6851 9.49235 22.555C9.49407 22.5713 9.49993 22.587 9.50941 22.6007C9.51889 22.6144 9.53173 22.6257 9.54684 22.6337C10.1871 22.9782 10.8567 23.2633 11.5555 23.4891ZM18.5232 26.5098C19.0109 26.6962 19.4951 26.6869 19.9761 26.4819C20.3107 26.3389 20.742 26.077 21.1178 26.1028C21.7573 26.1484 22.2931 26.1636 22.7252 26.1484C22.9423 26.1408 23.1239 26.0545 23.2699 25.8895C23.2803 25.8776 23.2878 25.8637 23.2918 25.8488C23.2958 25.8338 23.2961 25.8182 23.2928 25.8032C23.2895 25.7881 23.2826 25.7739 23.2727 25.7616C23.2628 25.7493 23.25 25.7392 23.2354 25.7321C22.7063 25.4746 22.1786 25.2143 21.6524 24.9513C20.9177 24.5857 20.4241 24.8643 19.8349 25.3717C19.4184 25.7314 18.9757 26.0497 18.5065 26.3265C18.3857 26.3976 18.3913 26.4587 18.5232 26.5098ZM8.94544 25.9123C9.27893 26.0014 9.63872 26.0635 10.0248 26.0987C11.2032 26.2064 12.0813 26.8909 13.1152 27.1022C13.2493 27.1291 13.2919 27.0828 13.243 26.9634C12.8684 26.0469 12.1358 24.7359 10.8352 24.9637C10.1304 25.0873 9.48902 25.3424 8.91098 25.729C8.78647 25.8118 8.79797 25.8729 8.94544 25.9123ZM14.1556 27.067C14.6433 27.3431 15.1661 27.4933 15.7241 27.5174C16.4193 27.5471 17.0966 27.4046 17.7562 27.0897C17.9385 27.0027 17.9296 26.9382 17.7295 26.8961L15.7063 26.4756C15.6846 26.4709 15.6622 26.4724 15.6419 26.4798C15.1691 26.6503 14.6855 26.7829 14.1912 26.8774C14.0059 26.9127 13.9941 26.9758 14.1556 27.067Z" fill="#FBAD29"/>
<path d="M14.6114 4.98022C14.8278 5.47247 15.0375 5.94779 15.2406 6.4062C15.351 6.65474 15.5485 6.9195 15.8331 7.20049C15.8442 7.21143 15.8527 7.22451 15.8578 7.23881C15.863 7.25311 15.8647 7.26829 15.8629 7.28328C15.8611 7.29828 15.8558 7.31272 15.8474 7.32561C15.839 7.3385 15.8277 7.34951 15.8142 7.35789C15.3836 7.623 14.9516 7.70412 14.518 7.60125C14.249 7.53808 14.0067 7.20359 13.8722 6.93745C13.5839 6.36651 13.2878 5.79694 12.984 5.22876C13.5064 5.09759 14.0489 5.01474 14.6114 4.98022Z" fill="#2A2C34"/>
<path d="M17.3683 4.98022L18.7422 5.20184C18.3635 5.96609 18.0827 6.75726 17.8996 7.57536C17.844 7.82597 17.7129 8.0248 17.4138 7.83426C16.8573 7.48147 16.6761 6.98647 16.8703 6.34925C17.0444 5.77761 17.2104 5.32127 17.3683 4.98022Z" fill="#2A2C34"/>
<path d="M26.7293 6.5823C27.2995 7.82395 26.209 8.93097 24.8895 9.11427C24.8691 9.11711 24.8482 9.11466 24.8292 9.10717C24.8102 9.09967 24.7937 9.08744 24.7817 9.07181C24.2236 8.33655 23.6063 7.64755 22.9297 7.00481C22.9127 6.98863 22.9019 6.96773 22.8989 6.94529C22.8959 6.92285 22.9009 6.90011 22.913 6.88054C23.4555 6.00031 24.0958 5.41521 25.2552 5.54776C25.8922 5.62025 26.4736 6.02412 26.7293 6.5823Z" fill="#2A2C34"/>
<path d="M6.63659 10.4068L6.66438 10.2079L7.23798 9.25005C7.24679 9.23563 7.25166 9.21942 7.25219 9.20283C7.25272 9.18624 7.24888 9.16975 7.24101 9.15478C7.23314 9.13981 7.22147 9.12681 7.207 9.11689C7.19253 9.10697 7.17569 9.10042 7.15794 9.09782C6.84223 9.05156 6.55692 8.94662 6.30199 8.783C3.62853 7.06085 7.46475 3.77602 9.17332 6.83716C9.18375 6.85609 9.18776 6.87753 9.18478 6.89862C9.1818 6.91971 9.17199 6.93946 9.15665 6.95522C8.53488 7.58968 7.96017 8.2597 7.43252 8.96526C7.42354 8.97742 7.41739 8.9912 7.41448 9.00568C7.41158 9.02017 7.41198 9.03505 7.41565 9.04933C7.41933 9.06361 7.42619 9.07697 7.4358 9.08854C7.44541 9.10011 7.45756 9.10962 7.47142 9.11646L9.73358 10.2432C9.8603 10.306 9.85956 10.3671 9.73135 10.4265C8.75646 10.88 7.71376 10.7516 6.63659 10.4068Z" fill="#2A2C34"/>
<path d="M11.5 5.66895C12.1336 6.29961 12.3015 7.55161 11.7123 8.24544C11.5778 8.40492 11.4522 8.33554 11.4277 8.15742C11.3899 7.87575 11.3188 7.64551 11.2143 7.4667C11.1313 7.3231 10.8593 6.90196 10.3983 6.2033L11.5 5.66895Z" fill="#2A2C34"/>
<path d="M20.5042 5.75488L21.5557 6.26852L21.6625 6.35655C21.6832 6.37373 21.6966 6.39732 21.6998 6.42276C21.7031 6.4482 21.6961 6.47368 21.6802 6.49428C21.5676 6.64064 21.4079 6.85949 21.2011 7.15083C20.8758 7.60786 20.7809 8.09665 20.9166 8.6172C20.9204 8.63214 20.9206 8.64769 20.9172 8.66272C20.9139 8.67774 20.907 8.69186 20.8971 8.70405C20.8872 8.71625 20.8745 8.72621 20.86 8.73322C20.8455 8.74023 20.8295 8.74411 20.8132 8.74457C20.6338 8.75079 20.4867 8.67381 20.3719 8.51364C19.6738 7.5402 19.9128 6.74075 20.5042 5.75488Z" fill="#2A2C34"/>
<path d="M15.8687 9.80702C14.6236 9.661 13.4987 9.632 12.3392 9.97788C11.9802 10.0845 11.8735 9.92403 12.0502 9.65582C13.0351 8.16046 14.7815 8.5053 15.962 9.632C16.1102 9.77353 16.0791 9.83187 15.8687 9.80702Z" fill="#2A2C34"/>
<path d="M25.3953 10.1561L25.5898 10.6656C24.4989 10.8893 23.2947 10.8814 21.977 10.6418C21.5813 10.57 21.5628 10.4706 21.9215 10.3436C22.8752 10.0053 23.8142 9.63419 24.7383 9.23032C24.7638 9.21904 24.7929 9.21737 24.8198 9.22566C24.8467 9.23394 24.8692 9.25155 24.8828 9.27485L25.3953 10.1561Z" fill="#2A2C34"/>
<path d="M17.4183 10.6429C17.2871 10.6042 17.2749 10.5445 17.3816 10.4638C17.6736 10.2428 17.9974 10.0651 18.3532 9.93043C19.3836 9.54106 20.3563 9.85173 20.7198 10.8769C20.7258 10.8942 20.7269 10.9126 20.7229 10.9303C20.7189 10.948 20.71 10.9644 20.6971 10.978C20.6842 10.9915 20.6676 11.0016 20.6492 11.0073C20.6307 11.013 20.611 11.0141 20.592 11.0105C19.8665 10.8711 19.1331 10.7972 18.3921 10.7889C18.0615 10.7855 17.7369 10.7368 17.4183 10.6429Z" fill="#2A2C34"/>
<path d="M16.4145 12.7916C15.5507 12.5483 14.737 12.3785 13.9333 12.89C13.8488 12.9439 13.7299 12.9491 13.7899 12.7999C14.1101 12.0015 14.9438 11.5169 15.8631 11.7043C16.31 11.7954 16.9169 12.1455 17.4549 12.2687C17.7514 12.337 18.0215 12.386 18.2653 12.4157C18.4891 12.4434 18.5021 12.5079 18.3042 12.6094C17.704 12.9166 17.074 12.9774 16.4145 12.7916Z" fill="#2A2C34"/>
<path d="M6.10858 11.8047C6.41539 11.8492 9.41567 12.4592 8.75537 13.0898C8.73735 13.1072 8.71335 13.1182 8.68755 13.1209L5.77954 13.3881C5.83735 12.851 5.94702 12.3232 6.10858 11.8047Z" fill="#2A2C34"/>
<path d="M10.2883 12.6726C9.9207 12.4704 9.88514 12.2815 10.1816 12.1062C10.8196 11.7299 11.4451 11.7403 12.058 12.1372C12.2181 12.2408 12.3374 12.3716 12.4159 12.5297C12.4237 12.5454 12.4272 12.5627 12.426 12.58C12.4248 12.5973 12.4189 12.614 12.4089 12.6287C12.399 12.6433 12.3853 12.6554 12.369 12.6638C12.3527 12.6722 12.3345 12.6766 12.3159 12.6768L10.3461 12.6871C10.3257 12.6871 10.3057 12.6821 10.2883 12.6726Z" fill="#2A2C34"/>
<path d="M26.0578 12.0417C26.2253 12.4767 26.3272 12.9254 26.3635 13.388C25.7573 13.1823 25.1341 13.0514 24.4938 12.9955C24.2681 12.9758 23.4233 12.8692 23.3944 12.7708C23.3897 12.7554 23.3912 12.7389 23.3986 12.7245C23.4059 12.71 23.4187 12.6985 23.4344 12.6921C24.2748 12.3607 25.1493 12.1439 26.0578 12.0417Z" fill="#2A2C34"/>
<path d="M19.5904 13.2037C19.4363 13.1706 19.4222 13.1095 19.5482 13.0205C19.8861 12.7809 20.254 12.5786 20.652 12.4136C21.2689 12.1589 21.837 12.3763 22.1749 12.8941C22.249 13.0073 22.2149 13.0595 22.0727 13.0505C21.4123 13.0111 20.7595 13.0612 20.114 13.2006C19.9368 13.2393 19.7623 13.2403 19.5904 13.2037Z" fill="#2A2C34"/>
<path d="M19.0568 16.4907C19.0282 16.4881 19.0018 16.4755 18.983 16.4554C18.9642 16.4354 18.9544 16.4095 18.9556 16.383C18.9771 15.9239 19.0839 15.4728 19.2758 15.0295C19.9105 13.5601 21.7614 12.859 23.2254 13.8469C24.0762 14.4213 24.5179 15.2546 24.5505 16.3468C24.5512 16.3727 24.5414 16.398 24.5231 16.4176C24.5048 16.4371 24.4792 16.4496 24.4515 16.4524C22.6551 16.6361 20.8569 16.6488 19.0568 16.4907ZM22.2527 14.9819C22.2527 14.8666 22.2035 14.7559 22.116 14.6744C22.0284 14.5928 21.9097 14.547 21.7859 14.547C21.662 14.547 21.5433 14.5928 21.4557 14.6744C21.3682 14.7559 21.319 14.8666 21.319 14.9819C21.319 15.0973 21.3682 15.2079 21.4557 15.2895C21.5433 15.371 21.662 15.4169 21.7859 15.4169C21.9097 15.4169 22.0284 15.371 22.116 15.2895C22.2035 15.2079 22.2527 15.0973 22.2527 14.9819Z" fill="#2A2C34"/>
<path d="M7.52925 16.4233C7.50002 16.4199 7.47338 16.4059 7.45508 16.3844C7.43678 16.3629 7.42829 16.3356 7.43143 16.3083C7.57371 15.1257 8.04392 14.087 9.25671 13.6013C10.1204 13.2554 11.0642 13.3818 11.8046 13.9379C12.6057 14.5413 12.9896 15.3694 12.9562 16.4222C12.9554 16.4488 12.9436 16.474 12.9233 16.4927C12.903 16.5114 12.8758 16.5221 12.8473 16.5227C12.3255 16.533 11.809 16.5486 11.2977 16.5693C10.1208 16.6169 8.86468 16.5682 7.52925 16.4233ZM10.8341 14.9993C10.8341 14.8815 10.7839 14.7685 10.6944 14.6852C10.605 14.6019 10.4837 14.5551 10.3572 14.5551C10.2307 14.5551 10.1094 14.6019 10.02 14.6852C9.93058 14.7685 9.88034 14.8815 9.88034 14.9993C9.88034 15.1172 9.93058 15.2302 10.02 15.3135C10.1094 15.3968 10.2307 15.4436 10.3572 15.4436C10.4837 15.4436 10.605 15.3968 10.6944 15.3135C10.7839 15.2302 10.8341 15.1172 10.8341 14.9993Z" fill="#2A2C34"/>
<path d="M14.2279 14.7478C14.0834 14.6954 14.0782 14.6332 14.2123 14.5614C15.3028 13.9794 16.1121 13.8686 17.2326 14.5148C17.3542 14.5846 17.3493 14.6457 17.2182 14.6981C16.2229 15.0937 15.2261 15.1103 14.2279 14.7478Z" fill="#2A2C34"/>
<path d="M10.3572 15.4437C10.6206 15.4437 10.8341 15.2448 10.8341 14.9994C10.8341 14.7541 10.6206 14.5552 10.3572 14.5552C10.0938 14.5552 9.88034 14.7541 9.88034 14.9994C9.88034 15.2448 10.0938 15.4437 10.3572 15.4437Z" fill="#FEFEFE"/>
<path d="M21.7859 15.4168C22.0437 15.4168 22.2527 15.222 22.2527 14.9818C22.2527 14.7416 22.0437 14.5469 21.7859 14.5469C21.528 14.5469 21.319 14.7416 21.319 14.9818C21.319 15.222 21.528 15.4168 21.7859 15.4168Z" fill="#FEFEFE"/>
<path d="M20.9165 23.2001C19.6293 23.6274 18.3061 23.9136 16.9469 24.0586L14.5013 24.0327C13.5009 23.936 12.5189 23.7548 11.5555 23.489C10.8567 23.2633 10.1871 22.9781 9.54683 22.6336C9.53172 22.6257 9.51888 22.6144 9.5094 22.6007C9.49992 22.587 9.49406 22.5713 9.49234 22.5549C9.38785 21.685 9.25335 20.6205 9.5157 19.7703C10.5362 16.4533 15.783 16.3985 18.6132 16.8831C19.4462 17.0253 20.1895 17.3011 20.8432 17.7105C22.6262 18.8279 22.7985 20.4154 22.6351 22.2598C22.6334 22.2767 22.6272 22.293 22.6171 22.3072C22.6071 22.3215 22.5934 22.3333 22.5773 22.3416L20.9165 23.2001ZM15.8631 19.6574C16.0283 20.5287 15.6493 20.9474 14.7259 20.9135C14.2757 20.898 14.2056 20.4796 14.1256 20.1503C14.1206 20.1306 14.1095 20.1126 14.0937 20.0987C14.0779 20.0847 14.0581 20.0753 14.0367 20.0716C13.8888 20.0468 13.8255 20.1617 13.8333 20.2881C13.8636 20.7451 14.0978 21.0313 14.5358 21.1465C15.1457 21.3067 15.6311 21.1524 15.992 20.6837C16.0024 20.6702 16.0161 20.6593 16.0319 20.6519C16.0477 20.6444 16.0652 20.6405 16.0829 20.6406C16.1006 20.6407 16.1181 20.6448 16.1338 20.6524C16.1495 20.6601 16.163 20.6712 16.1732 20.6847C16.5015 21.1169 16.9536 21.2829 17.5294 21.1828C18.043 21.0937 18.3205 20.8024 18.362 20.3088C18.372 20.1928 18.3176 20.0561 18.173 20.0716C18.1507 20.0744 18.1298 20.0833 18.1129 20.0971C18.0961 20.111 18.0841 20.1291 18.0786 20.1493L17.9407 20.6495C17.9014 20.7951 17.7895 20.8776 17.605 20.897C16.612 21.0019 16.1703 20.5887 16.2799 19.6574C16.9981 19.5393 18.0874 19.209 18.372 18.5172C18.6433 17.8576 18.1675 17.6225 17.5617 17.5003C16.8947 17.3657 13.7699 17.1265 13.7054 18.1548C13.6454 19.1085 15.135 19.4855 15.8631 19.6574Z" fill="#FEF9DA"/>
<path d="M26.3791 16.6626C26.3346 17.0934 26.2461 17.5207 26.1134 17.9446C25.4642 17.983 23.8279 18.1507 23.3288 17.7676C23.3139 17.7561 23.3025 17.7412 23.2957 17.7244C23.2889 17.7075 23.2869 17.6893 23.2899 17.6716C23.2929 17.6538 23.3009 17.6371 23.313 17.623C23.3251 17.609 23.3409 17.5981 23.3588 17.5915C24.337 17.2284 25.3438 16.9187 26.3791 16.6626Z" fill="#2A2C34"/>
<path d="M5.59946 16.6978L8.69422 17.5883C8.87875 17.6415 8.8832 17.7057 8.70756 17.781C7.88162 18.1362 6.78445 18.0813 5.8907 18.1258C5.74026 17.6439 5.64318 17.1679 5.59946 16.6978Z" fill="#2A2C34"/>
<path d="M16.28 19.6575H15.8631C15.135 19.4856 13.6454 19.1086 13.7054 18.1549C13.7699 17.1266 16.8947 17.3658 17.5617 17.5004C18.1675 17.6226 18.6433 17.8577 18.372 18.5173C18.0875 19.2091 16.9981 19.5394 16.28 19.6575Z" fill="#374348"/>
<path d="M25.8722 18.7212C25.7136 19.2431 25.4501 19.6984 25.0818 20.0871L23.9213 19.4906C23.905 19.4822 23.8912 19.4701 23.8812 19.4555C23.8712 19.4408 23.8653 19.4241 23.8641 19.4068C23.8629 19.3894 23.8664 19.3721 23.8742 19.3564C23.8821 19.3406 23.8941 19.327 23.9091 19.3167C24.4908 18.9183 25.1452 18.7198 25.8722 18.7212Z" fill="#2A2C34"/>
<path d="M6.14081 18.8767C6.92858 18.8878 7.66595 19.0372 8.35293 19.3251C8.52338 19.3962 8.52005 19.4601 8.34293 19.5167C7.8301 19.681 7.35396 19.9092 6.9145 20.2012C6.58027 19.7987 6.32237 19.3572 6.14081 18.8767Z" fill="#2A2C34"/>
<path d="M15.8631 19.6575H16.28C16.1703 20.5888 16.612 21.002 17.605 20.8971C17.7896 20.8777 17.9015 20.7952 17.9407 20.6495L18.0786 20.1494C18.0842 20.1292 18.0961 20.1111 18.113 20.0972C18.1298 20.0834 18.1507 20.0745 18.1731 20.0717C18.3176 20.0562 18.372 20.1929 18.362 20.3088C18.3205 20.8025 18.043 21.0938 17.5294 21.1829C16.9536 21.283 16.5016 21.1169 16.1733 20.6848C16.1631 20.6712 16.1495 20.6602 16.1338 20.6525C16.1181 20.6448 16.1007 20.6408 16.0829 20.6407C16.0652 20.6406 16.0477 20.6444 16.0319 20.6519C16.0161 20.6594 16.0024 20.6703 15.9921 20.6837C15.6312 21.1525 15.1457 21.3068 14.5358 21.1466C14.0979 21.0313 13.8637 20.7452 13.8333 20.2881C13.8255 20.1618 13.8889 20.0468 14.0367 20.0717C14.0581 20.0754 14.0779 20.0848 14.0937 20.0987C14.1095 20.1127 14.1206 20.1307 14.1256 20.1504C14.2057 20.4797 14.2757 20.8981 14.7259 20.9136C15.6493 20.9474 16.0284 20.5287 15.8631 19.6575Z" fill="#0F0B0C"/>
<path d="M23.7556 21.5649C23.9009 21.8632 23.992 22.1752 24.0291 22.5011C23.8031 22.2919 23.5437 22.1611 23.251 22.1086C23.1205 22.0851 23.1005 22.0278 23.1909 21.9367C23.3614 21.7641 23.5496 21.6402 23.7556 21.5649Z" fill="#171C26"/>
<path d="M7.99835 21.5908C8.22882 21.6143 8.37853 21.7279 8.44745 21.9315L7.97501 21.6208L7.99835 21.5908Z" fill="#FFCE65"/>
<path d="M7.97501 21.6208L8.44745 21.9315L8.73314 22.1676C8.83392 22.2498 8.82021 22.3085 8.69201 22.3437C8.31776 22.4479 7.96204 22.5988 7.62485 22.7962L7.97501 21.6208Z" fill="#23222C"/>
<path d="M20.9165 23.2002C20.9165 23.8174 20.1529 24.0338 19.6915 24.2378C19.3614 24.3839 19.1057 24.5899 18.8211 24.7888C18.163 25.2486 17.2582 24.5765 16.9469 24.0587C18.3061 23.9137 19.6293 23.6275 20.9165 23.2002Z" fill="#2A2C34"/>
<path d="M24.2003 23.429C24.3782 23.9378 24.4841 24.47 24.5182 25.0258C23.9179 24.749 23.3907 24.4038 22.9364 23.9902C22.7385 23.81 22.7733 23.6951 23.0409 23.6454L24.2003 23.429Z" fill="#2A2C34"/>
<path d="M7.52589 23.4548C7.91496 23.459 8.30403 23.4631 8.6931 23.4673C8.9799 23.47 9.2389 23.5246 9.47012 23.6309C9.60945 23.6951 9.60833 23.7572 9.46678 23.8173L7.85381 24.507C7.6426 24.5194 7.46068 24.567 7.30801 24.6499C7.34136 24.2446 7.41398 23.8463 7.52589 23.4548Z" fill="#2A2C34"/>
<path d="M11.5555 23.489C12.519 23.7548 13.5009 23.936 14.5014 24.0327C13.4764 24.6281 12.138 24.595 11.5555 23.489Z" fill="#2A2C34"/>
<path d="M7.85383 24.5071C7.81603 24.7853 7.73933 25.058 7.62372 25.3252C7.51701 25.5727 7.51256 25.8471 7.19241 26.018C7.19019 25.5596 7.22873 25.1036 7.30803 24.65C7.46069 24.5671 7.64262 24.5195 7.85383 24.5071Z" fill="#F8A21F"/>
<path d="M18.5232 26.5099C18.3913 26.4588 18.3857 26.3977 18.5065 26.3266C18.9756 26.0498 19.4184 25.7315 19.8349 25.3718C20.4241 24.8644 20.9176 24.5858 21.6524 24.9514C22.1786 25.2144 22.7062 25.4747 23.2354 25.7322C23.25 25.7393 23.2628 25.7494 23.2727 25.7617C23.2826 25.774 23.2895 25.7882 23.2928 25.8033C23.2961 25.8183 23.2957 25.8339 23.2918 25.8488C23.2878 25.8638 23.2803 25.8777 23.2698 25.8896C23.1239 26.0546 22.9423 26.1409 22.7251 26.1485C22.2931 26.1637 21.7573 26.1485 21.1177 26.1029C20.742 26.077 20.3107 26.339 19.9761 26.4819C19.4951 26.687 19.0108 26.6963 18.5232 26.5099Z" fill="#2A2C34"/>
<path d="M8.94545 25.9122C8.79798 25.8729 8.78648 25.8118 8.91099 25.7289C9.48903 25.3423 10.1304 25.0872 10.8352 24.9636C12.1358 24.7358 12.8684 26.0468 13.243 26.9633C13.2919 27.0828 13.2493 27.129 13.1152 27.1021C12.0814 26.8908 11.2032 26.2063 10.0248 26.0986C9.63873 26.0634 9.27894 26.0013 8.94545 25.9122Z" fill="#2A2C34"/>
<path d="M14.1556 27.0669C13.9941 26.9758 14.0059 26.9126 14.1912 26.8774C14.6855 26.7828 15.1691 26.6503 15.6419 26.4798C15.6622 26.4723 15.6846 26.4709 15.7064 26.4756L17.7295 26.8961C17.9296 26.9382 17.9385 27.0027 17.7562 27.0897C17.0966 27.4045 16.4193 27.5471 15.7241 27.5174C15.1661 27.4932 14.6433 27.3431 14.1556 27.0669Z" fill="#2A2C34"/>
<path d="M7.19687 26.6174C7.91646 26.6292 8.58269 26.8118 9.19557 27.1652C9.40011 27.2833 9.14554 27.3216 9.07773 27.3123C8.43373 27.2308 7.82678 27.3164 7.25689 27.5691L7.19687 26.6174Z" fill="#2A2C34"/>
<path d="M24.6127 26.6692C24.6594 27.1131 24.6149 27.538 24.4793 27.944C23.8868 27.7172 23.1698 27.7462 22.5884 27.9854L22.3061 27.9968C22.5451 26.9954 23.6223 26.633 24.6127 26.6692Z" fill="#2A2C34"/>
<path d="M24.4793 27.9441C23.8375 27.9986 23.2072 28.0124 22.5884 27.9855C23.1698 27.7463 23.8868 27.7173 24.4793 27.9441Z" fill="#F18D02"/>
</g>
<defs>
<clipPath id="clip0_55889_43313">
<rect width="24" height="24" fill="white" transform="translate(4 4)"/>
</clipPath>
</defs>
</svg>
