<svg width="32" height="32" viewBox="0 0 32 32" fill="none" xmlns="http://www.w3.org/2000/svg">
<path d="M0 16C0 7.16344 7.16344 0 16 0C24.8366 0 32 7.16344 32 16C32 24.8366 24.8366 32 16 32C7.16344 32 0 24.8366 0 16Z" fill="#E7EEFF"/>
<g clip-path="url(#clip0_55889_43377)">
<path d="M18.6259 7.05017C18.1917 7.19257 18.1095 6.92401 17.7585 6.84182C15.5352 6.32573 12.9348 6.54554 10.8008 7.18493C10.3141 7.32638 9.8454 7.51051 9.39479 7.73734C9.38206 7.74375 9.36803 7.74748 9.35365 7.74826C9.33927 7.74905 9.32488 7.74688 9.31147 7.74189C9.29805 7.7369 9.28592 7.72922 9.2759 7.71936C9.26588 7.7095 9.2582 7.69771 9.25339 7.68477C8.94518 6.86922 8.34381 6.41748 7.44928 6.32955C8.32309 5.45092 9.28982 4.81982 10.3495 4.43625C13.2748 3.37539 16.4688 4.27187 18.0774 6.88005C18.0909 6.90146 18.1125 6.91691 18.1375 6.92306L18.6259 7.05017Z" fill="#23222C"/>
<path d="M7.44926 6.32959C8.3438 6.41752 8.94517 6.86926 9.25337 7.68481C9.25818 7.69775 9.26586 7.70955 9.27588 7.7194C9.2859 7.72926 9.29804 7.73694 9.31145 7.74193C9.32487 7.74692 9.33926 7.74909 9.35363 7.74831C9.36801 7.74752 9.38204 7.74379 9.39477 7.73738C9.84538 7.51055 10.314 7.32642 10.8008 7.18497L10.7416 7.54623C10.7388 7.56373 10.7311 7.58014 10.7193 7.59364C10.7074 7.60714 10.6919 7.6172 10.6744 7.62269C10.4671 7.68895 10.1924 7.74948 9.85006 7.80428C9.28145 7.89412 10.0958 8.16746 10.1639 8.19135C10.3231 8.24742 10.3244 8.30667 10.168 8.36911C9.9226 8.46724 9.66788 8.52904 9.4038 8.55453C9.37845 8.55694 9.35501 8.56846 9.33825 8.58674C9.32149 8.60502 9.31265 8.6287 9.31354 8.65297L9.34864 9.70714C9.34908 9.72034 9.34663 9.73348 9.34147 9.74574C9.3363 9.758 9.32853 9.7691 9.31863 9.77835C9.30874 9.7876 9.29694 9.7948 9.28398 9.79948C9.27102 9.80417 9.25719 9.80624 9.24334 9.80558L8.5223 9.7683C8.5096 9.76767 8.49723 9.76926 8.4852 9.77308C8.03994 9.91517 7.6164 10.1009 7.2146 10.3303C6.75028 10.595 6.52364 10.6868 5.9801 10.5482C5.97727 10.5475 5.97439 10.5469 5.97163 10.5466C5.96888 10.5462 5.9663 10.5461 5.96406 10.5462C5.96182 10.5463 5.95996 10.5466 5.95858 10.5471C5.9572 10.5476 5.95634 10.5483 5.95604 10.5491L5.95403 10.573C5.94935 10.6221 5.93598 10.6243 5.91392 10.5797C5.86177 10.4755 5.79057 10.7823 5.61106 10.7613L6.07036 10.1821C6.0785 10.1717 6.08437 10.1599 6.08762 10.1473C6.09088 10.1347 6.09144 10.1216 6.08929 10.1088C6.08714 10.0961 6.08231 10.0839 6.07509 10.073C6.06787 10.0621 6.05842 10.0527 6.04729 10.0455C5.48437 9.67655 5.17883 9.19996 5.1307 8.61569C5.02239 7.28723 6.0493 6.36591 7.44926 6.32959ZM8.44007 7.86258C8.01687 7.56312 7.61874 7.49176 7.24569 7.6485C6.49891 7.96198 6.24953 8.50483 6.49757 9.27706C6.50252 9.2926 6.51154 9.30668 6.52378 9.31798C6.53603 9.32927 6.55109 9.33741 6.56755 9.34162C6.58401 9.34583 6.60132 9.34597 6.61785 9.34203C6.63438 9.33809 6.64959 9.3302 6.66203 9.31911C7.21025 8.83551 7.80093 8.40257 8.43405 8.02027C8.44784 8.01197 8.4593 8.00059 8.46744 7.98712C8.47557 7.97364 8.48013 7.95848 8.48072 7.94294C8.48131 7.9274 8.47792 7.91197 8.47084 7.89796C8.46375 7.88396 8.45319 7.87181 8.44007 7.86258Z" fill="#372F35"/>
<path d="M23.7454 10.0147L23.0915 9.37058C23.4231 8.85385 23.4064 8.40084 23.0414 8.01154C22.4684 7.39987 21.848 7.37916 21.1801 7.94942C20.8565 7.95005 20.5808 7.84396 20.3528 7.63116C21.0267 6.18896 22.915 5.88313 24.0212 7.07779C24.8345 7.95611 24.7613 9.2903 23.7454 10.0147Z" fill="#2A2C34"/>
<path d="M18.6259 7.0502C19.2122 7.20248 19.7879 7.39617 20.3528 7.63128C20.5808 7.84409 20.8566 7.95017 21.1801 7.94954C21.8587 8.37388 22.4959 8.8476 23.0916 9.37071L23.7454 10.0149C23.8437 10.2296 23.9747 10.4306 24.1385 10.6179C24.0302 10.6351 24.0068 10.6823 24.0683 10.7594C24.8004 11.6807 25.3342 12.8387 25.6699 14.2335C25.6719 14.2398 25.6729 14.2465 25.6729 14.2535L25.707 16.4058C25.5873 16.8531 25.2901 17.2179 24.8154 17.5001C24.6256 17.6129 24.4481 17.668 24.2829 17.6655C24.2604 17.6652 24.2383 17.6721 24.2204 17.6851C24.2024 17.698 24.1895 17.7164 24.1837 17.7372C24.0834 18.1003 23.9129 18.4326 23.6722 18.734C23.2179 19.3017 22.7055 19.7384 22.0396 20.1227C19.2788 21.7168 16.1369 21.9882 13.008 21.6518C11.5238 21.4922 9.96238 21.1281 8.64766 20.438C7.39009 19.7776 6.4033 19.0666 6.04428 17.6521C6.04004 17.6351 6.04078 17.6173 6.04644 17.6007C6.05209 17.584 6.06245 17.569 6.07637 17.5575L6.42837 17.2631C6.43557 17.2572 6.44122 17.2498 6.44487 17.2415C6.44853 17.2332 6.45009 17.2242 6.44943 17.2153C6.44241 17.028 5.99514 17.2163 5.85776 17.1953C5.57596 17.1503 5.3423 17.1714 5.0956 17.0127C4.66538 16.7336 4.12685 16.4507 4.14089 15.84C4.15493 15.1997 4.17633 14.5597 4.20508 13.92C4.42704 12.7699 4.8957 11.717 5.61106 10.7613C5.79057 10.7823 5.86177 10.4755 5.91391 10.5797C5.93598 10.6243 5.94935 10.6221 5.95403 10.573L5.95603 10.5491C5.95633 10.5483 5.9572 10.5476 5.95858 10.5471C5.95995 10.5466 5.96182 10.5463 5.96406 10.5462C5.9663 10.5461 5.96888 10.5462 5.97163 10.5465C5.97439 10.5469 5.97727 10.5474 5.9801 10.5482C6.52364 10.6867 6.75028 10.595 7.2146 10.3303C7.6164 10.1009 8.03994 9.91515 8.4852 9.77307C8.49723 9.76924 8.5096 9.76765 8.5223 9.76829L9.24334 9.80556C9.25719 9.80623 9.27102 9.80415 9.28398 9.79947C9.29694 9.79478 9.30874 9.78759 9.31863 9.77834C9.32853 9.76909 9.3363 9.75798 9.34147 9.74573C9.34663 9.73347 9.34907 9.72032 9.34864 9.70712L9.31354 8.65295C9.31265 8.62869 9.32149 8.60501 9.33825 8.58673C9.35501 8.56844 9.37845 8.55693 9.4038 8.55451C9.66788 8.52903 9.9226 8.46722 10.168 8.3691C10.3244 8.30666 10.3231 8.24741 10.1639 8.19134C10.0958 8.16744 9.28145 7.8941 9.85006 7.80426C10.1924 7.74947 10.4671 7.68894 10.6744 7.62268C10.6919 7.61718 10.7074 7.60712 10.7193 7.59362C10.7311 7.58012 10.7388 7.56371 10.7416 7.54622L10.8008 7.18495C12.9348 6.54557 15.5352 6.32575 17.7585 6.84185C18.1094 6.92404 18.1917 7.1926 18.6259 7.0502ZM6.5798 11.2955C6.59987 11.3085 6.62404 11.3143 6.64799 11.3118C7.17281 11.2525 7.6271 11.0541 8.01085 10.7164C8.02209 10.7065 8.03082 10.6944 8.03638 10.681C8.04195 10.6676 8.04419 10.6532 8.04294 10.639L8.01486 10.2681C7.99614 10.0279 7.91191 10.0158 7.76215 10.2318C7.49272 10.6211 7.122 10.8667 6.65 10.9687C6.44843 11.0126 6.30302 11.1197 6.5798 11.2955ZM8.51929 19.4584C8.29967 19.7069 9.27042 20.0577 9.54921 20.1657C11.3664 20.87 13.1705 21.0755 15.2122 21.1004C15.7768 21.1071 16.3434 21.021 16.9171 20.9666C17.484 20.913 18.1773 20.7687 18.997 20.5336C20.1262 20.2096 21.9353 19.2262 22.5109 18.0573C22.6744 17.7247 23.3322 16.0751 22.9893 15.8783C23.1247 13.7384 21.486 11.7658 19.1434 11.7342C16.9742 11.7056 15.5783 13.3312 15.1912 15.2102C15.1638 15.3459 15.0959 15.7903 14.9876 16.5435C14.9468 16.5613 14.9067 16.5699 14.8673 16.5693C14.8571 16.5688 14.8472 16.5662 14.8383 16.5616C14.8294 16.5569 14.8218 16.5504 14.816 16.5425C14.8103 16.5346 14.8066 16.5256 14.8052 16.5161C14.8038 16.5066 14.8048 16.497 14.8081 16.488C14.8155 16.4683 14.8145 16.4476 14.8051 16.4259C14.7857 16.3807 14.7747 16.3491 14.772 16.3313L14.6817 15.7741C14.6806 15.7662 14.6774 15.7587 14.6725 15.7522C14.6675 15.7458 14.661 15.7406 14.6535 15.7371C14.646 15.7336 14.6377 15.7319 14.6293 15.7322C14.6209 15.7325 14.6128 15.7347 14.6055 15.7387C14.5975 15.7432 14.5898 15.7499 14.5825 15.7588C14.5002 15.3039 14.3826 14.8588 14.2295 14.4236C13.3349 11.8699 10.178 10.7976 7.96572 12.7158C5.86177 14.5412 6.45745 17.8977 8.51929 19.4584Z" fill="#3F353A"/>
<path d="M8.44005 7.86249C8.45317 7.87172 8.46373 7.88387 8.47082 7.89787C8.4779 7.91187 8.48129 7.92731 8.4807 7.94285C8.48011 7.95838 8.47555 7.97355 8.46742 7.98702C8.45928 8.0005 8.44782 8.01188 8.43403 8.02018C7.80091 8.40247 7.21023 8.83542 6.66201 9.31902C6.64957 9.33011 6.63436 9.338 6.61783 9.34194C6.6013 9.34587 6.58399 9.34573 6.56753 9.34152C6.55107 9.33732 6.53601 9.32918 6.52376 9.31789C6.51152 9.30659 6.5025 9.29251 6.49755 9.27696C6.24951 8.50474 6.49889 7.96188 7.24567 7.6484C7.61872 7.49167 8.01685 7.56303 8.44005 7.86249Z" fill="#ED99AE"/>
<path d="M23.0915 9.37074C22.4958 8.84763 21.8587 8.37391 21.1801 7.94957C21.848 7.37932 22.4684 7.40002 23.0414 8.01169C23.4064 8.40099 23.4231 8.85401 23.0915 9.37074Z" fill="#ED99AE"/>
<path d="M6.57981 11.2955C6.30302 11.1196 6.44844 11.0126 6.65001 10.9686C7.12201 10.8667 7.49273 10.6211 7.76216 10.2318C7.91191 10.0158 7.99615 10.0279 8.01487 10.2681L8.04295 10.6389C8.0442 10.6532 8.04195 10.6676 8.03639 10.681C8.03083 10.6944 8.0221 10.7065 8.01086 10.7163C7.62711 11.054 7.17282 11.2525 6.648 11.3117C6.62405 11.3142 6.59987 11.3085 6.57981 11.2955Z" fill="#372F35"/>
<path d="M24.1385 10.6179C26.8422 14.135 26.3799 18.9127 22.6613 21.6098C22.418 21.7862 22.1696 21.957 21.9162 22.122C21.8992 22.1333 21.8862 22.1493 21.8791 22.1679C21.8719 22.1866 21.8709 22.2069 21.8761 22.2262L22.1679 23.267C22.1718 23.2801 22.1784 23.2923 22.1874 23.3027C22.1965 23.3132 22.2077 23.3217 22.2204 23.3278C22.2331 23.3338 22.2469 23.3372 22.261 23.3378C22.2752 23.3384 22.2892 23.336 22.3023 23.331C22.7482 23.1603 23.1584 22.9379 23.5328 22.6639C23.5368 22.7442 23.5111 22.7955 23.4556 22.8178C23.4348 22.8265 23.4175 22.8416 23.4064 22.8608L23.2821 23.0835C23.2734 23.0981 23.2694 23.1141 23.2701 23.1313C23.2871 23.6741 23.1888 24.4062 23.591 24.8382C23.0775 25.2549 22.4828 25.5031 21.8069 25.5827C22.0302 24.9513 22.1482 24.3036 22.1609 23.6397C22.1616 23.5856 22.1091 23.4514 22.0035 23.2374C21.9968 23.224 21.9934 23.21 21.9934 23.1953C21.9941 23.1157 21.9797 23.0395 21.9503 22.9669C21.9022 22.8465 21.8614 22.8487 21.828 22.9736C21.8179 23.0118 21.8179 23.052 21.828 23.094L21.6354 22.4995C21.6277 22.4762 21.6111 22.4566 21.5889 22.4445C21.5668 22.4325 21.5408 22.4289 21.5161 22.4345C21.4512 22.4498 21.3907 22.4741 21.3346 22.5072C20.8372 22.8044 20.2425 23.0137 19.7009 23.2335L19.4001 23.3291C16.4317 24.1848 13.4673 24.1733 10.5069 23.2947L10.1329 23.1877C9.34529 22.9181 8.60887 22.5473 7.9236 22.0752C7.90889 22.0656 7.89251 22.0599 7.87446 22.058L7.72102 22.0427C7.72236 22.0217 7.71367 22.0051 7.69495 21.993C6.17665 20.9882 5.09659 19.6594 4.45477 18.0067C4.64264 18.2023 4.80242 18.416 4.93413 18.648C4.94051 18.6595 4.94934 18.6696 4.96006 18.6776C4.97078 18.6857 4.98317 18.6916 4.99644 18.6949C5.0097 18.6982 5.02358 18.6989 5.03719 18.6969C5.0508 18.6949 5.06385 18.6903 5.07553 18.6833C5.14974 18.6393 5.23164 18.6339 5.32123 18.6671C5.34205 18.6751 5.36506 18.6761 5.38641 18.6699L5.63812 18.5983C5.6606 18.5918 5.68475 18.593 5.70638 18.6017C5.728 18.6104 5.74573 18.6261 5.75646 18.646C6.47249 19.9802 8.02388 20.8557 9.43588 21.3966C10.0951 21.6496 10.5089 21.7996 10.6774 21.8468C12.4494 22.3457 14.8161 22.512 16.7987 22.3409C19.8183 22.08 23.1256 20.8337 24.8726 18.3459C25.0511 18.0917 25.3078 18.0143 25.384 17.6865C25.4843 17.257 25.592 16.8302 25.707 16.4058L25.6729 14.2535C25.6729 14.2465 25.6719 14.2398 25.6698 14.2334C25.3342 12.8387 24.8004 11.6807 24.0683 10.7594C24.0068 10.6823 24.0302 10.6351 24.1385 10.6179Z" fill="#23222C"/>
<path d="M14.5825 15.7588L14.6707 16.4594C14.6725 16.4732 14.6711 16.4872 14.6666 16.5004C14.6621 16.5137 14.6546 16.5258 14.6446 16.536C14.6347 16.5462 14.6226 16.5542 14.6091 16.5594C14.5955 16.5647 14.581 16.5671 14.5664 16.5664C14.3164 16.5556 14.1148 16.6215 13.9617 16.7643C13.4994 17.1943 13.9336 17.7821 14.436 17.958C14.5444 17.9956 14.6283 18.023 14.6878 18.0402C14.7093 18.0461 14.7281 18.0588 14.7411 18.0761C14.7542 18.0934 14.7609 18.1144 14.76 18.1357L14.7329 18.8181C14.7269 18.9774 14.6446 19.0889 14.4862 19.1526C14.0443 19.331 13.7147 19.2313 13.4974 18.8535C13.4905 18.8412 13.4809 18.8306 13.4693 18.8223C13.4576 18.814 13.4443 18.8084 13.4302 18.8057C13.2697 18.7742 13.2296 18.9252 13.2908 19.0389C13.4285 19.2912 13.6518 19.4371 13.9607 19.4766C14.3431 19.5244 14.656 19.4186 14.8994 19.1593C14.9091 19.1489 14.9212 19.1407 14.9347 19.1352C14.9483 19.1298 14.9629 19.1273 14.9776 19.1278C14.9923 19.1284 15.0068 19.132 15.02 19.1384C15.0331 19.1448 15.0447 19.1539 15.0538 19.1651C15.2958 19.4632 15.6261 19.5741 16.0446 19.4976C16.2763 19.4556 17.0254 18.9729 16.54 18.8162C16.5161 18.8085 16.4901 18.8096 16.467 18.8193C16.444 18.8291 16.4257 18.8467 16.4157 18.8688L16.2823 19.1603C16.2756 19.1752 16.2649 19.1882 16.2514 19.1981C16.2379 19.208 16.2219 19.2144 16.2051 19.2167C15.4188 19.3256 15.1631 19.1335 15.1661 18.4626C15.1661 18.3498 15.1614 18.2367 15.1521 18.1233C15.1499 18.0996 15.1572 18.0759 15.1724 18.057C15.1876 18.0381 15.2097 18.0252 15.2343 18.021C15.5719 17.9662 15.8206 17.8232 15.9804 17.5919C16.179 17.3052 16.1793 17.0478 15.9814 16.8197C15.7508 16.555 15.3316 16.5263 14.9876 16.5435C15.0959 15.7904 15.1638 15.346 15.1912 15.2102C15.5783 13.3313 16.9742 11.7056 19.1434 11.7343C21.486 11.7658 23.1246 13.7384 22.9893 15.8783C22.8579 18.3632 21.0558 19.8618 18.665 20.5031C17.0745 20.9303 15.6124 20.9742 14.0861 20.9408C12.2007 20.8997 10.0917 20.505 8.51929 19.4585C6.45745 17.8978 5.86176 14.5412 7.96572 12.7158C10.178 10.7976 13.3349 11.87 14.2295 14.4237C14.3826 14.8589 14.5002 15.3039 14.5825 15.7588ZM12.5096 15.5017C12.5096 15.3529 12.4788 15.2055 12.4191 15.068C12.3593 14.9304 12.2717 14.8055 12.1612 14.7002C12.0508 14.595 11.9197 14.5115 11.7754 14.4545C11.6311 14.3976 11.4764 14.3682 11.3202 14.3682C11.164 14.3682 11.0094 14.3976 10.8651 14.4545C10.7208 14.5115 10.5897 14.595 10.4792 14.7002C10.3688 14.8055 10.2812 14.9304 10.2214 15.068C10.1616 15.2055 10.1309 15.3529 10.1309 15.5017C10.1309 15.8024 10.2562 16.0907 10.4792 16.3032C10.7023 16.5158 11.0048 16.6352 11.3202 16.6352C11.6357 16.6352 11.9382 16.5158 12.1612 16.3032C12.3843 16.0907 12.5096 15.8024 12.5096 15.5017ZM18.8976 16.6077C19.1966 16.5265 19.4488 16.3328 19.5985 16.069C19.7483 15.8053 19.7834 15.4932 19.6962 15.2014C19.653 15.0569 19.5811 14.9218 19.4845 14.8036C19.388 14.6855 19.2687 14.5868 19.1334 14.5131C18.9982 14.4393 18.8497 14.392 18.6964 14.3739C18.5431 14.3557 18.3879 14.367 18.2399 14.4072C17.9409 14.4884 17.6887 14.6822 17.539 14.9459C17.3892 15.2097 17.3541 15.5218 17.4413 15.8136C17.4845 15.958 17.5564 16.0932 17.6529 16.2113C17.7495 16.3294 17.8688 16.4282 18.004 16.5019C18.1393 16.5756 18.2878 16.6229 18.4411 16.6411C18.5944 16.6593 18.7495 16.6479 18.8976 16.6077ZM11.3382 18.0974C11.3354 17.8401 11.1601 17.5951 10.851 17.4163C10.5419 17.2374 10.1243 17.1394 9.68998 17.1437C9.25567 17.1481 8.84028 17.2544 8.53518 17.4394C8.23008 17.6244 8.06026 17.8728 8.06309 18.1301C8.06592 18.3874 8.24115 18.6324 8.55025 18.8112C8.85935 18.99 9.27699 19.0881 9.7113 19.0838C10.1456 19.0794 10.561 18.9731 10.8661 18.7881C11.1712 18.6031 11.341 18.3547 11.3382 18.0974ZM21.4808 18.0742C21.4771 17.8188 21.3046 17.576 21.0012 17.3994C20.6979 17.2227 20.2886 17.1267 19.8633 17.1323C19.6528 17.1351 19.4446 17.1628 19.2508 17.2138C19.057 17.2648 18.8813 17.3381 18.7337 17.4295C18.5861 17.521 18.4696 17.6287 18.3907 17.7467C18.3119 17.8646 18.2722 17.9904 18.2741 18.1169C18.2778 18.3724 18.4503 18.6152 18.7537 18.7918C19.057 18.9685 19.4663 19.0645 19.8916 19.0589C20.1021 19.0561 20.3103 19.0284 20.5041 18.9774C20.6979 18.9264 20.8736 18.8531 21.0212 18.7616C21.1688 18.6702 21.2853 18.5624 21.3642 18.4445C21.4431 18.3266 21.4827 18.2007 21.4808 18.0742Z" fill="#F6F2DD"/>
<path d="M4.20506 13.9199C4.17632 14.5596 4.15492 15.1996 4.14088 15.84C4.12684 16.4507 4.66537 16.7336 5.09559 17.0127C5.34228 17.1713 5.57595 17.1503 5.85774 17.1952C5.99513 17.2162 6.4424 17.028 6.44942 17.2153C6.45008 17.2242 6.44852 17.2332 6.44486 17.2414C6.44121 17.2497 6.43556 17.2571 6.42836 17.2631L6.07636 17.5574C6.06244 17.569 6.05208 17.5839 6.04643 17.6006C6.04077 17.6173 6.04002 17.6351 6.04427 17.652C6.40329 19.0665 7.39008 19.7776 8.64764 20.438C9.96237 21.128 11.5238 21.4922 13.008 21.6518C16.1368 21.9882 19.2787 21.7168 22.0396 20.1226C22.7055 19.7384 23.2179 19.3016 23.6722 18.7339C23.9129 18.4326 24.0834 18.1003 24.1836 17.7371C24.1894 17.7163 24.2024 17.698 24.2204 17.685C24.2383 17.672 24.2604 17.6651 24.2829 17.6654C24.4481 17.668 24.6256 17.6129 24.8154 17.5001C25.2901 17.2178 25.5873 16.8531 25.707 16.4058C25.592 16.8301 25.4843 17.257 25.384 17.6864C25.3078 18.0143 25.0511 18.0917 24.8726 18.3459C23.1256 20.8337 19.8183 22.0799 16.7987 22.3408C14.8161 22.5119 12.4494 22.3456 10.6774 21.8467C10.5089 21.7996 10.0951 21.6495 9.43588 21.3966C8.02388 20.8556 6.47248 19.9802 5.75646 18.646C5.74573 18.6261 5.728 18.6104 5.70638 18.6017C5.68475 18.5929 5.6606 18.5917 5.63812 18.5982L5.38641 18.6699C5.36505 18.6761 5.34204 18.6751 5.32122 18.667C5.23164 18.6339 5.14974 18.6393 5.07553 18.6833C5.06385 18.6903 5.05079 18.6949 5.03719 18.6969C5.02358 18.6989 5.0097 18.6982 4.99643 18.6949C4.98316 18.6916 4.97078 18.6857 4.96006 18.6776C4.94934 18.6695 4.94051 18.6594 4.93413 18.6479C4.80242 18.416 4.64264 18.2022 4.45477 18.0066C3.948 16.6718 3.86477 15.3096 4.20506 13.9199Z" fill="#2A2C34"/>
<path d="M12.5096 15.5017C12.5096 15.8023 12.3843 16.0906 12.1612 16.3032C11.9382 16.5157 11.6357 16.6352 11.3202 16.6352C11.0048 16.6352 10.7023 16.5157 10.4792 16.3032C10.2562 16.0906 10.1309 15.8023 10.1309 15.5017C10.1309 15.3528 10.1616 15.2054 10.2214 15.0679C10.2812 14.9304 10.3688 14.8054 10.4792 14.7002C10.5897 14.5949 10.7208 14.5114 10.8651 14.4544C11.0094 14.3975 11.164 14.3682 11.3202 14.3682C11.4764 14.3682 11.6311 14.3975 11.7754 14.4544C11.9197 14.5114 12.0508 14.5949 12.1612 14.7002C12.2717 14.8054 12.3593 14.9304 12.4191 15.0679C12.4788 15.2054 12.5096 15.3528 12.5096 15.5017ZM11.2845 15.2952C11.3195 15.2955 11.3543 15.2884 11.3868 15.2742C11.4193 15.26 11.4489 15.239 11.4739 15.2125C11.4989 15.186 11.5188 15.1545 11.5326 15.1197C11.5463 15.0849 11.5535 15.0475 11.5539 15.0098C11.5546 14.9335 11.5271 14.8601 11.4776 14.8057C11.4281 14.7513 11.3605 14.7205 11.2898 14.7199C11.2547 14.7196 11.22 14.7267 11.1875 14.7409C11.155 14.7551 11.1254 14.7761 11.1004 14.8026C11.0754 14.8291 11.0554 14.8606 11.0417 14.8954C11.028 14.9302 11.0207 14.9676 11.0204 15.0053C11.0197 15.0816 11.0471 15.155 11.0967 15.2094C11.1462 15.2637 11.2138 15.2946 11.2845 15.2952Z" fill="#040A15"/>
<path d="M18.8976 16.6077C18.7495 16.6479 18.5944 16.6593 18.4411 16.6411C18.2878 16.623 18.1393 16.5757 18.004 16.5019C17.8688 16.4282 17.7495 16.3294 17.6529 16.2113C17.5564 16.0932 17.4845 15.9581 17.4413 15.8136C17.3541 15.5218 17.3892 15.2097 17.539 14.9459C17.6887 14.6822 17.9409 14.4884 18.2399 14.4073C18.3879 14.3671 18.5431 14.3557 18.6964 14.3739C18.8497 14.392 18.9982 14.4393 19.1334 14.5131C19.2687 14.5868 19.388 14.6856 19.4845 14.8037C19.5811 14.9218 19.653 15.0569 19.6962 15.2014C19.7834 15.4932 19.7483 15.8053 19.5985 16.0691C19.4488 16.3328 19.1966 16.5266 18.8976 16.6077ZM18.6424 15.2944C18.6772 15.2944 18.7116 15.2871 18.7438 15.2729C18.7759 15.2586 18.8052 15.2377 18.8298 15.2113C18.8544 15.1849 18.874 15.1535 18.8874 15.119C18.9007 15.0844 18.9076 15.0474 18.9077 15.01C18.9078 14.9726 18.901 14.9356 18.8878 14.901C18.8745 14.8664 18.8551 14.835 18.8305 14.8085C18.806 14.782 18.7768 14.761 18.7448 14.7466C18.7127 14.7322 18.6782 14.7248 18.6435 14.7248C18.6087 14.7247 18.5743 14.732 18.5421 14.7463C18.51 14.7605 18.4807 14.7815 18.4561 14.8079C18.4315 14.8343 18.4119 14.8656 18.3986 14.9002C18.3852 14.9347 18.3783 14.9717 18.3782 15.0091C18.3781 15.0465 18.3849 15.0836 18.3982 15.1181C18.4114 15.1527 18.4308 15.1842 18.4554 15.2106C18.4799 15.2371 18.5091 15.2582 18.5412 15.2725C18.5733 15.2869 18.6077 15.2943 18.6424 15.2944Z" fill="#040A15"/>
<path d="M11.0204 15.0054C11.0189 15.1643 11.1372 15.2941 11.2845 15.2953C11.4318 15.2965 11.5524 15.1687 11.5539 15.0098C11.5553 14.851 11.4371 14.7212 11.2898 14.7199C11.1425 14.7187 11.0218 14.8465 11.0204 15.0054Z" fill="#F8F6F5"/>
<path d="M18.6425 15.2942C18.6077 15.2942 18.5733 15.2867 18.5412 15.2724C18.5091 15.258 18.4799 15.237 18.4554 15.2105C18.4309 15.184 18.4114 15.1526 18.3982 15.118C18.3849 15.0834 18.3782 15.0464 18.3782 15.009C18.3783 14.9716 18.3852 14.9346 18.3986 14.9C18.412 14.8655 18.4315 14.8341 18.4561 14.8077C18.4808 14.7813 18.51 14.7604 18.5422 14.7461C18.5743 14.7319 18.6087 14.7246 18.6435 14.7246C18.6783 14.7247 18.7127 14.7321 18.7448 14.7465C18.7769 14.7608 18.806 14.7819 18.8306 14.8083C18.8551 14.8348 18.8745 14.8663 18.8878 14.9008C18.901 14.9354 18.9078 14.9725 18.9077 15.0099C18.9077 15.0473 18.9008 15.0843 18.8874 15.1188C18.874 15.1533 18.8545 15.1847 18.8298 15.2111C18.8052 15.2375 18.776 15.2585 18.7438 15.2727C18.7117 15.287 18.6772 15.2943 18.6425 15.2942ZM18.7062 15.0629L18.7162 15.0008C18.7179 14.9899 18.7172 14.9787 18.7141 14.9681C18.7109 14.9574 18.7055 14.9476 18.6981 14.9392C18.6907 14.9307 18.6815 14.924 18.6711 14.9193C18.6607 14.9146 18.6494 14.9121 18.638 14.9119C18.531 14.9107 18.5143 14.9683 18.5878 15.0849C18.6487 15.1811 18.6881 15.1738 18.7062 15.0629Z" fill="#FEFEFE"/>
<path d="M18.5878 15.0849C18.5142 14.9683 18.531 14.9106 18.6379 14.9119C18.6494 14.912 18.6607 14.9145 18.6711 14.9192C18.6814 14.9239 18.6906 14.9307 18.698 14.9391C18.7054 14.9475 18.7109 14.9574 18.714 14.968C18.7172 14.9787 18.7179 14.9898 18.7162 15.0008L18.7061 15.0629C18.6881 15.1738 18.6486 15.1811 18.5878 15.0849Z" fill="#948586"/>
<path d="M14.9876 16.5434C15.3316 16.5262 15.7508 16.5549 15.9814 16.8196C16.1793 17.0477 16.179 17.3052 15.9804 17.5919C15.8206 17.8232 15.5719 17.9662 15.2343 18.021C15.2097 18.0252 15.1876 18.038 15.1724 18.0569C15.1572 18.0759 15.1499 18.0995 15.1521 18.1233C15.1614 18.2367 15.1661 18.3498 15.1661 18.4625C15.1631 19.1335 15.4188 19.3256 16.2051 19.2166C16.2219 19.2143 16.2379 19.2079 16.2514 19.198C16.2649 19.1882 16.2756 19.1751 16.2823 19.1602L16.4157 18.8687C16.4257 18.8467 16.444 18.829 16.4671 18.8193C16.4901 18.8095 16.5162 18.8084 16.54 18.8162C17.0254 18.9729 16.2763 19.4555 16.0446 19.4976C15.6261 19.5741 15.2958 19.4632 15.0538 19.165C15.0447 19.1539 15.0331 19.1448 15.02 19.1384C15.0068 19.1319 14.9924 19.1283 14.9776 19.1278C14.9629 19.1272 14.9483 19.1297 14.9347 19.1352C14.9212 19.1406 14.9092 19.1489 14.8994 19.1593C14.656 19.4186 14.3431 19.5244 13.9607 19.4766C13.6518 19.4371 13.4285 19.2912 13.2908 19.0388C13.2296 18.9251 13.2698 18.7741 13.4302 18.8056C13.4443 18.8083 13.4577 18.814 13.4693 18.8223C13.4809 18.8305 13.4905 18.8412 13.4974 18.8534C13.7147 19.2313 14.0443 19.331 14.4862 19.1526C14.6447 19.0889 14.7269 18.9774 14.7329 18.8181L14.76 18.1357C14.7609 18.1144 14.7542 18.0934 14.7412 18.076C14.7281 18.0587 14.7093 18.0461 14.6878 18.0401C14.6283 18.0229 14.5444 17.9955 14.4361 17.9579C13.9336 17.7821 13.4994 17.1943 13.9617 16.7642C14.1148 16.6215 14.3164 16.5555 14.5664 16.5664C14.581 16.567 14.5956 16.5646 14.6091 16.5594C14.6226 16.5541 14.6347 16.5461 14.6447 16.5359C14.6546 16.5257 14.6621 16.5136 14.6666 16.5004C14.6711 16.4871 14.6725 16.4731 14.6707 16.4593L14.5825 15.7588C14.5898 15.7499 14.5975 15.7432 14.6055 15.7387C14.6128 15.7347 14.6209 15.7325 14.6293 15.7322C14.6377 15.7319 14.646 15.7336 14.6535 15.7371C14.661 15.7406 14.6675 15.7458 14.6725 15.7522C14.6774 15.7587 14.6806 15.7662 14.6818 15.7741L14.772 16.3313C14.7747 16.3491 14.7857 16.3806 14.8051 16.4259C14.8145 16.4475 14.8155 16.4683 14.8081 16.488C14.8048 16.497 14.8038 16.5066 14.8052 16.5161C14.8066 16.5255 14.8103 16.5346 14.8161 16.5425C14.8218 16.5504 14.8294 16.5569 14.8383 16.5615C14.8472 16.5662 14.8571 16.5688 14.8673 16.5692C14.9067 16.5699 14.9468 16.5613 14.9876 16.5434Z" fill="#040A15"/>
<path d="M22.9893 15.8782C23.3322 16.0751 22.6744 17.7246 22.5109 18.0572C21.9353 19.2261 20.1262 20.2095 18.997 20.5335C18.1773 20.7686 17.484 20.913 16.9171 20.9665C16.3435 21.0209 15.7769 21.107 15.2123 21.1003C13.1705 21.0754 11.3664 20.8699 9.54922 20.1656C9.27043 20.0576 8.29968 19.7068 8.5193 19.4583C10.0918 20.5049 12.2007 20.8996 14.0861 20.9407C15.6124 20.9741 17.0745 20.9302 18.665 20.5029C21.0558 19.8617 22.8579 18.3631 22.9893 15.8782Z" fill="#23222C"/>
<path d="M9.71129 19.0836C10.6157 19.0746 11.3441 18.633 11.3382 18.0972C11.3323 17.5615 10.5944 17.1345 9.68998 17.1436C8.78558 17.1526 8.0572 17.5942 8.06309 18.1299C8.06898 18.6656 8.8069 19.0926 9.71129 19.0836Z" fill="#F9BEBC"/>
<path d="M19.8916 19.0588C20.7771 19.047 21.4886 18.6062 21.4808 18.0742C21.473 17.5422 20.7489 17.1204 19.8633 17.1322C18.9778 17.144 18.2663 17.5848 18.2741 18.1168C18.2819 18.6489 19.006 19.0706 19.8916 19.0588Z" fill="#F9BEBC"/>
<path d="M7.72099 22.0427L7.87443 22.058C7.89248 22.0599 7.90886 22.0657 7.92356 22.0752C8.60884 22.5474 9.34526 22.9182 10.1328 23.1877C10.0192 23.526 9.97036 23.8666 9.98641 24.2094C9.89548 24.1374 9.81392 24.059 9.74171 23.9743C9.65814 23.8755 9.57558 23.8016 9.49401 23.7525C8.85687 23.3677 8.21873 22.9774 7.57959 22.5818L7.72099 22.0427Z" fill="#171C26"/>
<path d="M27.9955 25.3162C27.9928 25.2187 27.9681 25.1884 27.9213 25.2254C27.9048 25.2384 27.8844 25.2461 27.8631 25.2473C27.8418 25.2485 27.8207 25.2431 27.8029 25.232C27.5074 25.0498 27.1848 24.9367 26.8352 24.8928C26.8173 24.8904 26.8004 24.8835 26.7862 24.8727C26.7721 24.8619 26.7613 24.8477 26.755 24.8316C26.7021 24.6984 26.6243 24.5822 26.5213 24.4828C26.3435 24.0597 26.047 23.8147 25.6318 23.7478C24.8496 23.6216 24.1396 24.4264 23.591 24.8383C23.1889 24.4063 23.2871 23.6742 23.2701 23.1314C23.2694 23.1142 23.2734 23.0982 23.2821 23.0836L23.4065 22.8609C23.4175 22.8417 23.4348 22.8265 23.4556 22.8179C23.5111 22.7956 23.5368 22.7443 23.5328 22.664C24.4414 22.0036 25.4974 21.9453 26.4982 22.4824C27.5546 23.0495 28.0536 23.9941 27.9955 25.3162Z" fill="#2A2C34"/>
<path d="M21.828 23.094C21.9453 23.5451 21.0508 23.9723 20.6116 24.2017C20.3522 24.338 20.0185 24.6333 19.6107 25.0876C19.6054 25.0937 19.5986 25.0985 19.591 25.1014C19.5833 25.1044 19.5749 25.1055 19.5667 25.1047C19.5584 25.1038 19.5505 25.101 19.5437 25.0965C19.5368 25.0921 19.5313 25.086 19.5275 25.079C19.5148 25.0567 19.5128 25.0322 19.5215 25.0054L19.5546 24.9576C19.9276 24.5314 19.8313 23.7267 19.701 23.2335C20.2425 23.0137 20.8372 22.8044 21.3346 22.5071C21.3908 22.474 21.4513 22.4498 21.5161 22.4345C21.5408 22.4289 21.5668 22.4324 21.589 22.4445C21.6111 22.4565 21.6277 22.4762 21.6355 22.4995L21.828 23.094Z" fill="#171C26"/>
<path d="M7.57965 22.5818C8.21879 22.9775 8.85693 23.3677 9.49407 23.7526C9.57563 23.8016 9.6582 23.8755 9.74177 23.9743C9.81397 24.059 9.89554 24.1374 9.98646 24.2094L10.2031 24.7666C10.2011 24.8211 10.175 24.8392 10.1188 24.8316C9.28447 24.722 8.52566 24.4346 7.84239 23.9695C7.8254 23.9577 7.80538 23.9513 7.78523 23.9513C7.63547 23.9507 7.52583 24.0163 7.4563 24.1482C7.3861 23.6398 7.42722 23.1176 7.57965 22.5818Z" fill="#23222C"/>
<path d="M21.8069 25.5827C21.7541 25.8713 21.6344 26.1459 21.4479 26.4065C21.4342 26.4255 21.4283 26.4487 21.4313 26.4715C21.4342 26.4944 21.4458 26.5155 21.4639 26.5308C22.3294 27.2772 21.3145 28.1278 20.4079 27.8955C20.3883 27.8906 20.3677 27.8912 20.3488 27.8975C19.8524 28.0618 19.4974 27.9214 19.021 27.9347C18.7757 27.9411 18.5343 27.922 18.297 27.8774L18.1516 27.4894C18.2451 26.5483 18.6543 25.7601 19.379 25.1249L19.5214 25.0054C19.5127 25.0322 19.5147 25.0567 19.5274 25.079C19.5312 25.086 19.5368 25.0921 19.5436 25.0965C19.5505 25.101 19.5584 25.1038 19.5666 25.1047C19.5749 25.1055 19.5832 25.1044 19.5909 25.1014C19.5986 25.0985 19.6054 25.0937 19.6107 25.0876C20.0185 24.6333 20.3521 24.338 20.6115 24.2017C21.0508 23.9723 21.9453 23.5451 21.828 23.094C21.8179 23.0519 21.8179 23.0118 21.828 22.9735C21.8614 22.8487 21.9022 22.8464 21.9503 22.9668C21.9797 23.0395 21.9941 23.1156 21.9934 23.1953C21.9934 23.2099 21.9968 23.2239 22.0035 23.2373C22.1091 23.4514 22.1616 23.5855 22.1609 23.6397C22.1482 24.3036 22.0302 24.9513 21.8069 25.5827ZM20.6256 27.6165C20.4878 27.6955 20.4868 27.7423 20.6225 27.757C20.641 27.759 20.6596 27.7562 20.6764 27.7488C20.6932 27.7413 20.7076 27.7296 20.7178 27.7149C20.9084 27.4428 20.8936 27.1797 20.6737 26.9255C20.6651 26.9155 20.6546 26.9072 20.6427 26.9011C20.6309 26.8951 20.6179 26.8913 20.6045 26.8901C19.9266 26.8404 19.3974 26.8487 19.017 26.915C18.6132 26.9857 18.4731 27.2415 18.5968 27.6824C18.6006 27.6954 18.6072 27.7074 18.6162 27.7178C18.6252 27.7281 18.6363 27.7366 18.649 27.7426C18.8087 27.8197 18.9799 27.8462 19.1624 27.8219C19.1823 27.8194 19.2008 27.8112 19.2157 27.7984C19.2305 27.7856 19.241 27.7688 19.2456 27.7503C19.2858 27.5961 19.3122 27.44 19.3249 27.282C19.3329 27.1749 19.4803 27.0297 19.4833 27.2504C19.486 27.455 19.5231 27.6576 19.5946 27.8583C19.6004 27.8747 19.6109 27.8894 19.6248 27.9007C19.6388 27.912 19.6557 27.9194 19.6739 27.9223C19.9801 27.9682 20.1933 27.8535 20.3137 27.5782C20.3591 27.4737 20.4079 27.3705 20.4601 27.2686C20.5229 27.1437 20.5834 27.1447 20.6416 27.2715C20.6817 27.3581 20.6917 27.4514 20.6717 27.5515C20.6691 27.5648 20.6637 27.5774 20.6558 27.5886C20.6478 27.5998 20.6375 27.6093 20.6256 27.6165Z" fill="#2A2C34"/>
<path d="M10.5069 23.2948L10.3775 23.8701C10.3107 24.1352 10.2896 24.4108 10.3144 24.6968C10.3151 24.7062 10.3124 24.7156 10.3067 24.7231C10.301 24.7306 10.2927 24.7359 10.2833 24.7379C10.2572 24.7437 10.2445 24.7612 10.2452 24.7905L10.203 24.7666L9.98644 24.2094C9.97039 23.8666 10.0192 23.5261 10.1329 23.1877L10.5069 23.2948Z" fill="#645B59"/>
<path d="M19.7009 23.2336C19.8313 23.7268 19.9276 24.5315 19.5545 24.9578L19.5144 24.8049C19.5092 24.7862 19.5102 24.7665 19.5174 24.7485C19.6224 24.4828 19.617 24.2311 19.5014 23.9934C19.5201 23.7507 19.4863 23.5293 19.4001 23.3292L19.7009 23.2336Z" fill="#8F6863"/>
<path d="M10.5069 23.2947C13.4673 24.1733 16.4317 24.1848 19.4001 23.3291C19.4864 23.5292 19.5201 23.7506 19.5014 23.9933C17.4777 24.6279 15.2534 24.6719 13.0582 24.476C12.1001 24.3899 11.2066 24.188 10.3776 23.87L10.5069 23.2947Z" fill="#948586"/>
<path d="M10.3776 23.8701C11.2066 24.1881 12.1001 24.39 13.0582 24.4761C15.2534 24.672 17.4777 24.628 19.5014 23.9934C19.6171 24.2311 19.6224 24.4827 19.5175 24.7484C19.5103 24.7665 19.5092 24.7862 19.5145 24.8048L19.5546 24.9577L19.5215 25.0055L19.3791 25.125C19.3697 25.0778 19.3507 25.032 19.3219 24.9874C19.3103 24.9689 19.2924 24.9548 19.2713 24.9474C19.2502 24.9399 19.227 24.9395 19.2056 24.9463C17.5419 25.4624 15.6846 25.4786 13.8775 25.4079C12.6834 25.3614 11.5155 25.1728 10.3736 24.8421C10.3201 24.8268 10.294 24.8415 10.2953 24.8861L10.2452 24.7905C10.2445 24.7612 10.2572 24.7437 10.2833 24.7379C10.2927 24.7359 10.301 24.7306 10.3067 24.7231C10.3125 24.7155 10.3152 24.7062 10.3144 24.6968C10.2897 24.4107 10.3107 24.1352 10.3776 23.8701Z" fill="#A49696"/>
<path d="M10.2031 24.7664L10.2452 24.7903L10.2953 24.8859C11.0435 25.6983 11.6422 26.2382 11.7454 27.3937C11.7134 27.5689 11.6408 27.734 11.5278 27.8888L10.4949 27.9471C10.4802 27.9484 10.4665 27.9522 10.4538 27.9586C10.3756 27.9974 10.299 28.0089 10.2241 27.993C9.85108 27.9159 9.49173 27.9006 9.14608 27.9471C8.28464 28.0618 7.75314 27.301 8.36989 26.6272C8.38449 26.6114 8.39311 26.5914 8.39438 26.5703C8.39565 26.5492 8.3895 26.5282 8.37691 26.5106C7.86412 25.7938 7.55725 25.0063 7.4563 24.1481C7.52583 24.0162 7.63547 23.9505 7.78523 23.9512C7.80538 23.9512 7.82541 23.9575 7.84239 23.9693C8.52566 24.4345 9.28448 24.7218 10.1188 24.8314C10.175 24.8391 10.2011 24.8209 10.2031 24.7664ZM9.27746 27.4721C9.34431 27.3944 9.37774 27.2895 9.37774 27.1577C9.37707 27.1054 9.39011 27.1022 9.41685 27.1481L9.43891 27.1854C9.44477 27.1952 9.45285 27.2037 9.46256 27.2102C9.47228 27.2167 9.48339 27.2211 9.4951 27.223C9.5068 27.2249 9.51881 27.2244 9.53025 27.2213C9.54169 27.2183 9.55228 27.2129 9.56126 27.2054L9.59235 27.1796C9.64583 27.135 9.66856 27.1465 9.66054 27.214L9.60137 27.689C9.59858 27.7124 9.60502 27.7359 9.61945 27.7552C9.63388 27.7744 9.6553 27.7879 9.67959 27.7932L10.1559 27.8955C10.1695 27.8985 10.1836 27.8988 10.1973 27.8964C10.211 27.8939 10.224 27.8887 10.2354 27.8811C10.2468 27.8735 10.2565 27.8638 10.2637 27.8524C10.2709 27.841 10.2755 27.8284 10.2773 27.8152L10.3425 27.3364C10.3454 27.3135 10.3571 27.2924 10.3754 27.277C10.3937 27.2617 10.4173 27.2533 10.4418 27.2532H10.5922C10.6057 27.2532 10.6191 27.2558 10.6315 27.2608C10.6439 27.2659 10.6552 27.2733 10.6645 27.2826C10.6739 27.2918 10.6812 27.3028 10.686 27.3149C10.6908 27.3269 10.693 27.3397 10.6925 27.3526L10.6754 27.7741C10.6746 27.7889 10.6775 27.8036 10.6838 27.8171C10.6901 27.8307 10.6996 27.8426 10.7116 27.852C10.7236 27.8614 10.7377 27.8679 10.7528 27.8712C10.768 27.8744 10.7837 27.8742 10.7988 27.8706L11.1598 27.7875C11.1827 27.7821 11.203 27.7692 11.2169 27.751C11.2309 27.7328 11.2376 27.7106 11.236 27.6881L11.1959 27.1041C11.1872 26.9735 11.0973 26.9066 10.9261 26.9034L9.2233 26.8738C9.19619 26.8738 9.17038 26.8834 9.1511 26.9006C8.96858 27.07 8.90106 27.2762 8.94852 27.5189C8.95122 27.5321 8.95672 27.5445 8.96468 27.5555C8.97264 27.5665 8.98289 27.5758 8.99477 27.5828C9.00665 27.5899 9.01991 27.5944 9.0337 27.5962C9.04749 27.5981 9.06152 27.5971 9.07488 27.5935C9.16046 27.5705 9.22798 27.5301 9.27746 27.4721Z" fill="#2A2C34"/>
<path d="M26.5213 24.4827C26.6243 24.5821 26.7021 24.6983 26.755 24.8315C26.7613 24.8476 26.7721 24.8619 26.7862 24.8726C26.8004 24.8834 26.8173 24.8903 26.8352 24.8927C27.1848 24.9366 27.5074 25.0497 27.8029 25.232C27.8207 25.243 27.8418 25.2484 27.863 25.2472C27.8843 25.246 27.9047 25.2383 27.9213 25.2253C27.9681 25.1883 27.9928 25.2186 27.9955 25.3161C27.8932 27.0918 25.5696 26.8519 26.4862 25.123C26.6166 24.8783 26.6206 24.7187 26.5213 24.4827Z" fill="#23222C"/>
<path d="M19.3791 25.1249C18.6543 25.7602 18.2452 26.5483 18.1516 27.4894L18.0794 27.1578C18.0766 27.1454 18.0714 27.1336 18.0638 27.1231C18.0562 27.1127 18.0466 27.1038 18.0354 27.0969C18.0242 27.0901 18.0117 27.0854 17.9986 27.0832C17.9855 27.0811 17.972 27.0814 17.959 27.0842C17.4195 27.2001 16.9244 27.2744 16.4738 27.3069C15.0083 27.4133 13.5145 27.3543 11.9921 27.1301C11.966 27.1262 11.9392 27.1324 11.9178 27.1472C11.8964 27.1621 11.882 27.1844 11.8778 27.2094C11.8631 27.2979 11.819 27.3594 11.7454 27.3938C11.6421 26.2384 11.0435 25.6984 10.2953 24.886C10.294 24.8414 10.3201 24.8267 10.3736 24.842C11.5155 25.1727 12.6834 25.3613 13.8775 25.4078C15.6846 25.4786 17.5419 25.4623 19.2056 24.9462C19.227 24.9395 19.2502 24.9398 19.2713 24.9473C19.2924 24.9548 19.3103 24.9689 19.3219 24.9873C19.3506 25.0319 19.3697 25.0778 19.3791 25.1249Z" fill="#B4A3A3"/>
<path d="M9.27746 27.4721C9.22799 27.53 9.16047 27.5705 9.07489 27.5934C9.06153 27.5971 9.0475 27.5981 9.03371 27.5962C9.01992 27.5944 9.00666 27.5898 8.99478 27.5828C8.9829 27.5758 8.97265 27.5665 8.96469 27.5555C8.95673 27.5445 8.95123 27.532 8.94853 27.5189C8.90107 27.2761 8.96859 27.07 9.15111 26.9005C9.17039 26.8833 9.1962 26.8738 9.22331 26.8738L10.9261 26.9034C11.0973 26.9066 11.1872 26.9735 11.1959 27.1041L11.236 27.6881C11.2376 27.7105 11.2309 27.7328 11.2169 27.751C11.203 27.7692 11.1828 27.7821 11.1598 27.7875L10.7988 27.8706C10.7837 27.8742 10.768 27.8744 10.7528 27.8712C10.7377 27.8679 10.7236 27.8614 10.7116 27.852C10.6996 27.8426 10.6901 27.8306 10.6838 27.8171C10.6775 27.8036 10.6746 27.7888 10.6754 27.7741L10.6925 27.3526C10.693 27.3397 10.6908 27.3269 10.686 27.3149C10.6812 27.3028 10.6739 27.2918 10.6646 27.2825C10.6552 27.2733 10.644 27.2659 10.6315 27.2608C10.6191 27.2558 10.6057 27.2532 10.5922 27.2532H10.4418C10.4173 27.2532 10.3937 27.2617 10.3754 27.277C10.3571 27.2923 10.3454 27.3134 10.3425 27.3364L10.2773 27.8152C10.2756 27.8284 10.2709 27.841 10.2637 27.8524C10.2565 27.8637 10.2469 27.8735 10.2354 27.8811C10.224 27.8887 10.211 27.8939 10.1973 27.8963C10.1836 27.8988 10.1695 27.8985 10.156 27.8955L9.6796 27.7932C9.65531 27.7879 9.63389 27.7744 9.61946 27.7552C9.60503 27.7359 9.59859 27.7124 9.60138 27.689L9.66055 27.214C9.66857 27.1465 9.64584 27.135 9.59236 27.1796L9.56127 27.2054C9.55229 27.2128 9.5417 27.2183 9.53026 27.2213C9.51882 27.2243 9.50681 27.2249 9.49511 27.223C9.4834 27.2211 9.47229 27.2167 9.46257 27.2102C9.45286 27.2037 9.44478 27.1952 9.43892 27.1853L9.41686 27.1481C9.39012 27.1022 9.37708 27.1054 9.37775 27.1576C9.37775 27.2895 9.34432 27.3943 9.27746 27.4721Z" fill="#463D44"/>
<path d="M20.6717 27.5515C20.6918 27.4514 20.6817 27.3581 20.6416 27.2714C20.5835 27.1446 20.523 27.1437 20.4601 27.2686C20.408 27.3705 20.3592 27.4737 20.3137 27.5782C20.1934 27.8535 19.9801 27.9682 19.6739 27.9223C19.6558 27.9194 19.6388 27.9119 19.6249 27.9007C19.6109 27.8894 19.6005 27.8747 19.5947 27.8583C19.5231 27.6576 19.486 27.4549 19.4834 27.2504C19.4803 27.0296 19.3329 27.1749 19.3249 27.282C19.3122 27.44 19.2858 27.5961 19.2457 27.7503C19.241 27.7688 19.2306 27.7856 19.2157 27.7984C19.2009 27.8112 19.1823 27.8194 19.1624 27.8219C18.9799 27.8461 18.8088 27.8197 18.649 27.7426C18.6364 27.7366 18.6252 27.7281 18.6162 27.7178C18.6073 27.7074 18.6007 27.6953 18.5968 27.6824C18.4732 27.2415 18.6132 26.9857 19.017 26.915C19.3974 26.8487 19.9266 26.8404 20.6045 26.8901C20.6179 26.8913 20.6309 26.8951 20.6428 26.9011C20.6547 26.9072 20.6652 26.9155 20.6737 26.9255C20.8937 27.1797 20.9084 27.4428 20.7179 27.7149C20.7076 27.7296 20.6933 27.7413 20.6765 27.7488C20.6596 27.7562 20.641 27.759 20.6226 27.7569C20.4869 27.7423 20.4879 27.6955 20.6256 27.6165C20.6376 27.6093 20.6479 27.5998 20.6558 27.5886C20.6638 27.5774 20.6692 27.5648 20.6717 27.5515Z" fill="#463D44"/>
<path d="M18.1516 27.4894L18.297 27.8774L11.5278 27.8889C11.6408 27.7341 11.7134 27.569 11.7454 27.3938C11.819 27.3594 11.8631 27.2979 11.8778 27.2094C11.882 27.1844 11.8964 27.1621 11.9178 27.1472C11.9392 27.1324 11.966 27.1262 11.9921 27.13C13.5145 27.3543 15.0084 27.4132 16.4738 27.3068C16.9244 27.2743 17.4195 27.2001 17.959 27.0842C17.972 27.0814 17.9855 27.081 17.9986 27.0832C18.0117 27.0854 18.0242 27.0901 18.0354 27.0969C18.0466 27.1038 18.0563 27.1127 18.0638 27.1231C18.0714 27.1336 18.0767 27.1453 18.0794 27.1578L18.1516 27.4894Z" fill="#A49696"/>
</g>
<defs>
<clipPath id="clip0_55889_43377">
<rect width="24" height="24" fill="white" transform="translate(4 4)"/>
</clipPath>
</defs>
</svg>
