<svg width="32" height="32" viewBox="0 0 32 32" fill="none" xmlns="http://www.w3.org/2000/svg">
<path d="M0 16C0 7.16344 7.16344 0 16 0C24.8366 0 32 7.16344 32 16C32 24.8366 24.8366 32 16 32C7.16344 32 0 24.8366 0 16Z" fill="#D8FFC2"/>
<g clip-path="url(#clip0_55889_43413)">
<path d="M24.4135 22.397C24.1714 22.4695 23.9562 22.5931 23.7677 22.768C23.7538 22.7813 23.7364 22.7902 23.7178 22.7936C23.547 22.8264 23.4049 22.9118 23.2917 23.0498C23.2791 23.0658 23.262 23.0773 23.2428 23.0826C22.914 23.1843 22.6167 23.3421 22.3509 23.556C21.6545 23.8395 20.9395 24.0581 20.2058 24.2118C20.1804 24.217 20.158 24.2318 20.143 24.2531C20.1281 24.2744 20.1218 24.3007 20.1255 24.3265L20.1468 24.4782C20.2058 25.343 20.0512 25.9773 19.5457 26.5941C19.5274 26.6157 19.5244 26.6577 19.565 26.6587C19.5711 26.6587 19.577 26.6575 19.5825 26.655C19.5879 26.6525 19.5927 26.6489 19.5966 26.6444C19.8068 26.4066 20.0563 26.2355 20.3452 26.131C20.8395 26.1651 21.3195 26.2686 21.7854 26.4415C21.7985 26.4463 21.8105 26.4537 21.8207 26.4632C21.8308 26.4727 21.8389 26.4841 21.8443 26.4968C21.8918 26.6102 21.8708 26.6823 21.7813 26.713C21.7661 26.7181 21.7524 26.7269 21.7412 26.7384C21.73 26.75 21.7217 26.7641 21.717 26.7795C21.7122 26.795 21.7112 26.8114 21.7138 26.8275C21.7165 26.8435 21.7229 26.8587 21.7325 26.8718C21.8688 27.0563 21.8949 27.2633 21.8108 27.4928C21.7687 27.6069 21.6823 27.669 21.5514 27.6793C21.5348 27.6808 21.5181 27.6781 21.5026 27.6713C21.4872 27.6645 21.4735 27.6538 21.4629 27.6403C21.385 27.5392 21.2826 27.4644 21.1558 27.4159L21.1141 26.9866C21.0971 26.8158 20.9768 26.7465 20.753 26.7786L20.099 26.8718C19.962 26.8916 19.9431 26.9501 20.0421 27.0471C20.198 27.1994 20.2587 27.3869 20.2241 27.6096C20.2139 27.6742 20.2231 27.75 20.3055 27.7377C20.3145 27.7363 20.3232 27.733 20.3309 27.728C20.3386 27.7229 20.3451 27.7164 20.3501 27.7086C20.3551 27.7009 20.3584 27.6922 20.3599 27.6831C20.3613 27.6739 20.3608 27.6646 20.3584 27.6557C20.3319 27.5584 20.2709 26.961 20.4092 26.9846C20.418 26.986 20.4262 26.9903 20.4324 26.9967C20.4386 27.0032 20.4426 27.0115 20.4438 27.0204L20.5587 27.9242L17.9306 27.9324C17.7692 27.8504 17.5973 27.8019 17.4149 27.7869C17.3953 27.7853 17.3765 27.778 17.361 27.7658C17.3454 27.7536 17.3338 27.737 17.3274 27.7182C17.0376 26.8923 17.1881 24.9198 16.6297 24.4218C16.5382 24.3398 16.4087 24.2992 16.2412 24.2999C15.7998 24.3019 15.394 24.1861 15.1682 24.6913C14.8346 25.4414 14.8996 26.3954 14.979 27.1946C14.9953 27.3599 14.981 27.5269 14.9363 27.6957C14.9306 27.7165 14.9187 27.735 14.9023 27.7486C14.8859 27.7622 14.8657 27.7702 14.8447 27.7715C14.6949 27.7818 14.5623 27.8268 14.447 27.9068C13.5147 27.9566 12.5824 27.9566 11.65 27.9068C11.7531 27.7736 11.8921 27.7227 12.067 27.7541C12.0833 27.7573 12.1 27.7564 12.1156 27.7516C12.1313 27.7467 12.1453 27.7381 12.1565 27.7264C12.3871 27.4976 12.4325 27.2257 12.2928 26.9108C12.2859 26.8956 12.2754 26.8822 12.2623 26.8719C12.2492 26.8616 12.2339 26.8545 12.2176 26.8513L11.7517 26.7663C11.6175 26.7424 11.55 26.8244 11.5493 27.0122L11.5483 27.9324C11.3619 28.013 11.1669 28.0215 10.9635 27.958L10.9889 27.8637L11.1334 27.8719C11.1592 27.8731 11.1845 27.8642 11.2041 27.8471C11.2238 27.83 11.2363 27.8059 11.2391 27.7797L11.3236 26.9804C11.3262 26.954 11.3185 26.9276 11.3022 26.9068C11.2859 26.886 11.2622 26.8723 11.2361 26.8688C11.0232 26.8394 10.8408 26.906 10.6889 27.0686C10.5112 27.1977 10.4414 27.3859 10.4794 27.6332C10.4818 27.6486 10.4807 27.6644 10.4761 27.6794C10.4714 27.6943 10.4635 27.708 10.4527 27.7193C10.442 27.7306 10.4288 27.7393 10.4142 27.7446C10.3996 27.7499 10.3839 27.7518 10.3685 27.75L10.1458 27.7274C10.1273 27.7253 10.1098 27.7181 10.0951 27.7067C10.0804 27.6953 10.0691 27.6802 10.0624 27.6629C9.90234 27.2564 9.79995 26.8349 9.7552 26.3984C9.75331 26.3805 9.75618 26.3624 9.76352 26.346C9.77085 26.3296 9.78238 26.3155 9.7969 26.3052C10.2231 25.9978 11.2249 25.6248 11.8168 25.8072C11.8422 25.815 11.8637 25.8327 11.8768 25.8564L11.9277 25.9496C12.0443 26.1621 12.0847 26.1481 12.0487 25.9076C11.9816 25.4533 11.9579 25.0151 11.9775 24.5929C12.0192 24.3706 12.0223 24.2281 11.7751 24.1626C11.0205 23.9617 10.2766 23.7254 9.54364 23.4535C3.3404 20.7483 2.30907 13.0048 6.62154 8.1273C6.63731 8.10976 6.64645 8.08716 6.64738 8.0634C6.64831 8.03963 6.64097 8.0162 6.62662 7.99717C6.40286 7.69728 6.27403 7.51112 6.24013 7.43871C5.1254 5.04915 8.29567 3.23444 9.922 5.35758C9.93625 5.3764 9.95666 5.38957 9.97969 5.39481C10.0027 5.40005 10.0269 5.39703 10.0481 5.38627C12.083 4.35886 14.3036 3.90253 16.7101 4.0173C18.6175 4.10815 20.3475 4.58053 21.9003 5.43443C21.9208 5.44569 21.9445 5.4495 21.9675 5.44521C21.9905 5.44091 22.0113 5.42879 22.0264 5.41087C22.2603 5.13284 22.5 4.90911 22.7455 4.7397C24.0494 3.83593 25.7591 4.68027 25.991 6.23881C26.0866 6.88026 25.9032 7.46843 25.4408 8.00331C25.4247 8.02173 25.4158 8.04549 25.4158 8.07018C25.4158 8.09486 25.4247 8.1188 25.4408 8.13755C26.3894 9.24694 27.0824 10.4902 27.5197 11.8674C28.7138 15.6331 27.6824 20.03 24.4135 22.397ZM7.52472 7.27067C7.63388 7.35469 7.75424 7.34274 7.88578 7.2348L9.10527 6.24086C9.12362 6.22622 9.13629 6.20553 9.14112 6.18235C9.14594 6.15916 9.14262 6.13492 9.13172 6.1138C8.375 4.67002 6.32048 6.34025 7.52472 7.27067ZM22.9926 6.31669C23.4449 6.63707 23.8633 6.99912 24.2477 7.40285C24.2593 7.41513 24.2739 7.42429 24.29 7.42948C24.3062 7.43467 24.3235 7.43573 24.3403 7.43256C24.5613 7.39158 24.7227 7.25017 24.8244 7.00835C25.334 5.79615 23.6843 5.02661 22.9367 5.99596C22.8438 6.11756 22.8625 6.22447 22.9926 6.31669ZM10.3771 6.9682C10.3646 6.94184 10.3465 6.91851 10.3238 6.89952C10.3011 6.88054 10.2743 6.86627 10.2448 6.85755C10.2154 6.84883 10.1839 6.84581 10.1522 6.84868C10.1204 6.85155 10.0891 6.86024 10.0599 6.87426C10.001 6.90257 9.95448 6.95087 9.93064 7.00852C9.90679 7.06618 9.90756 7.12848 9.93275 7.1817C9.94523 7.20806 9.96333 7.2314 9.98602 7.25038C10.0087 7.26937 10.0356 7.28363 10.065 7.29235C10.0945 7.30108 10.126 7.30409 10.1577 7.30122C10.1894 7.29836 10.2208 7.28966 10.2499 7.27564C10.3088 7.24733 10.3553 7.19904 10.3792 7.14138C10.403 7.08372 10.4023 7.02143 10.3771 6.9682ZM7.9641 8.18878C5.86584 9.734 5.53732 12.7322 5.72243 15.1402C5.72311 15.1525 5.72582 15.1641 5.73057 15.1751C5.76854 15.2591 5.80447 15.3237 5.83838 15.3687C5.9489 15.5149 6.00959 15.4961 6.02044 15.3124C6.10249 13.9304 6.25844 12.6988 6.4883 11.6174C6.74664 10.3959 7.41182 9.47783 8.22956 8.43983C8.46858 8.13652 8.24075 7.98487 7.9641 8.18878ZM9.41555 8.68805C9.43342 8.70216 9.45429 8.71205 9.47698 8.71715C9.49967 8.72225 9.52374 8.72246 9.54779 8.71776C9.57185 8.71307 9.59543 8.70356 9.61719 8.68979C9.63895 8.67602 9.65847 8.65825 9.67463 8.63749C9.69078 8.61673 9.70325 8.5934 9.71134 8.56883C9.71942 8.54425 9.72296 8.51891 9.72175 8.49425C9.72054 8.46959 9.7146 8.4461 9.70427 8.42512C9.69395 8.40413 9.67943 8.38607 9.66156 8.37195C9.6437 8.35784 9.62282 8.34795 9.60013 8.34285C9.57744 8.33775 9.55338 8.33754 9.52933 8.34224C9.50527 8.34693 9.48168 8.35644 9.45992 8.37021C9.43816 8.38399 9.41865 8.40176 9.40249 8.42251C9.38634 8.44327 9.37386 8.4666 9.36577 8.49118C9.35769 8.51575 9.35415 8.54109 9.35536 8.56575C9.35658 8.59041 9.36252 8.6139 9.37284 8.63489C9.38317 8.65587 9.39768 8.67393 9.41555 8.68805ZM14.1968 10.7157C12.6366 9.5844 10.4285 9.34463 8.96085 10.6777C7.72305 11.7998 7.25621 13.7723 7.02329 15.3841C6.73545 17.3792 7.74441 19.0976 9.33107 20.2145C10.5302 21.0578 11.9816 21.3928 13.4798 21.5558C15.4855 21.7737 17.4064 21.7481 19.2426 21.4789C20.0516 21.3607 20.7099 21.2053 21.2178 21.0127C22.9886 20.3415 24.8092 18.8147 25.1255 16.8258C25.1994 16.3613 25.1706 15.7796 25.039 15.0808C24.622 12.8634 23.8267 10.1541 21.2443 9.81188C20.1133 9.66125 18.9822 10.0281 18.0445 10.6839C17.6865 9.95636 17.123 9.5663 16.3541 9.5137C15.3831 9.44743 14.664 9.84809 14.1968 10.7157ZM7.29587 20.2319C9.60874 22.2833 13.4177 22.6051 16.3541 22.5979C17.9719 22.5938 19.5474 22.3424 21.0805 21.8437C21.2768 21.7802 22.3529 21.3734 22.1525 21.1336C22.1456 21.1252 22.137 21.1183 22.1273 21.1134C22.1176 21.1084 22.107 21.1054 22.0961 21.1047C22.0852 21.1039 22.0742 21.1054 22.0638 21.1089C22.0534 21.1125 22.0438 21.1181 22.0356 21.1254C21.7701 21.3672 21.6643 21.2853 21.3683 21.3478C21.1337 21.3976 20.9049 21.4663 20.6818 21.5537C20.3635 21.6777 20.0227 21.691 19.6596 21.7843C18.552 22.0702 17.1037 22.1183 15.7733 22.1132C14.6464 22.1091 13.5673 21.9431 12.4729 21.7771C11.9596 21.6999 11.4541 21.5817 10.9564 21.4226C10.1542 21.1664 9.60738 20.9703 9.31581 20.8344C7.72373 20.0912 6.69918 18.882 6.24217 17.207C6.13334 16.8074 6.0835 16.3278 6.00824 15.8852C6.00504 15.8643 5.99527 15.8449 5.98029 15.8299C5.96532 15.8148 5.94591 15.8047 5.92483 15.8012C5.61564 15.7489 5.46714 15.8626 5.4885 16.1823C5.59122 17.661 6.16487 19.2297 7.29587 20.2319Z" fill="#C47A47"/>
<path d="M7.52471 7.27066C6.32047 6.34024 8.375 4.67001 9.13171 6.11379C9.14261 6.13491 9.14594 6.15915 9.14111 6.18234C9.13629 6.20552 9.12361 6.22621 9.10527 6.24085L7.88578 7.23479C7.75423 7.34272 7.63388 7.35468 7.52471 7.27066Z" fill="#BC602B"/>
<path d="M22.9926 6.31679C22.8624 6.22456 22.8438 6.11766 22.9367 5.99606C23.6842 5.02671 25.334 5.79625 24.8244 7.00845C24.7227 7.25027 24.5613 7.39168 24.3403 7.43266C24.3235 7.43583 24.3062 7.43477 24.29 7.42958C24.2738 7.42439 24.2593 7.41523 24.2477 7.40295C23.8633 6.99922 23.4449 6.63717 22.9926 6.31679Z" fill="#BC602B"/>
<path d="M10.25 7.27559C10.3727 7.21663 10.4296 7.07898 10.3771 6.96814C10.3246 6.8573 10.1826 6.81524 10.0599 6.8742C9.93723 6.93316 9.88031 7.07081 9.93279 7.18165C9.98526 7.29249 10.1273 7.33455 10.25 7.27559Z" fill="#CD8958"/>
<path d="M5.72244 15.1401C5.53733 12.7321 5.86585 9.73391 7.96411 8.18869C8.24076 7.98477 8.46859 8.13643 8.22957 8.43973C7.41183 9.47774 6.74665 10.3959 6.48831 11.6173C6.25845 12.6987 6.1025 13.9303 6.02045 15.3123C6.0096 15.496 5.94891 15.5148 5.83839 15.3686C5.80448 15.3236 5.76855 15.259 5.73058 15.175C5.72583 15.164 5.72312 15.1524 5.72244 15.1401Z" fill="#C98652"/>
<path d="M9.40247 8.42257C9.33454 8.50985 9.34038 8.62874 9.41553 8.6881C9.49068 8.74746 9.60667 8.72483 9.6746 8.63754C9.74254 8.55025 9.73669 8.43137 9.66154 8.37201C9.5864 8.31264 9.4704 8.33528 9.40247 8.42257Z" fill="#CD8958"/>
<path d="M18.0445 10.6838C17.3929 11.1743 16.9087 11.8134 16.5921 12.601C16.4273 13.0109 16.2897 13.431 16.1792 13.8614C16.1249 14.0711 16.072 14.0708 16.0205 13.8604C15.895 13.3453 15.7238 12.8486 15.5069 12.3705C15.2139 11.7256 14.7773 11.174 14.1968 10.7156C14.664 9.84803 15.3831 9.44738 16.3541 9.51364C17.123 9.56625 17.6865 9.95631 18.0445 10.6838Z" fill="#CD8958"/>
<path d="M14.1969 10.7155C14.7773 11.1739 15.2139 11.7255 15.5069 12.3704C15.7238 12.8486 15.8951 13.3452 16.0205 13.8603C16.072 14.0707 16.1249 14.071 16.1792 13.8613C16.2897 13.431 16.4273 13.0108 16.5921 12.601C16.9088 11.8133 17.3929 11.1743 18.0445 10.6838C18.9823 10.028 20.1133 9.66114 21.2443 9.81177C23.8267 10.154 24.622 12.8633 25.0391 15.0807C25.1706 15.7795 25.1994 16.3612 25.1255 16.8257C24.8092 18.8146 22.9886 20.3414 21.2178 21.0126C20.71 21.2052 20.0516 21.3606 19.2427 21.4788C17.4065 21.748 15.4855 21.7736 13.4798 21.5557C11.9816 21.3927 10.5302 21.0577 9.33109 20.2144C7.74443 19.0975 6.73548 17.3791 7.02331 15.384C7.25623 13.7722 7.72307 11.7997 8.96087 10.6776C10.4285 9.34452 12.6366 9.58429 14.1969 10.7155ZM20.379 15.6284C20.6867 15.5986 20.9697 15.4429 21.1657 15.1957C21.3617 14.9485 21.4546 14.63 21.424 14.3103C21.3935 13.9906 21.2419 13.6958 21.0027 13.4908C20.7635 13.2858 20.4563 13.1874 20.1486 13.2172C19.8409 13.2471 19.5579 13.4027 19.3619 13.6499C19.166 13.8971 19.073 14.2157 19.1036 14.5354C19.1341 14.8551 19.2857 15.1499 19.5249 15.3549C19.7641 15.5599 20.0713 15.6583 20.379 15.6284ZM11.682 15.6274C11.8332 15.6373 11.9848 15.616 12.1283 15.565C12.2718 15.5139 12.4044 15.434 12.5184 15.3297C12.6324 15.2255 12.7257 15.099 12.7928 14.9575C12.86 14.816 12.8998 14.6623 12.9099 14.505C12.92 14.3478 12.9002 14.1901 12.8517 14.0411C12.8032 13.892 12.7268 13.7545 12.6271 13.6363C12.5274 13.5182 12.4061 13.4217 12.2704 13.3525C12.1346 13.2832 11.9869 13.2425 11.8357 13.2326C11.6846 13.2228 11.5329 13.244 11.3894 13.2951C11.2459 13.3461 11.1134 13.4261 10.9994 13.5303C10.8854 13.6345 10.7921 13.761 10.7249 13.9025C10.6578 14.044 10.618 14.1978 10.6079 14.355C10.5978 14.5123 10.6176 14.6699 10.6661 14.819C10.7146 14.968 10.7909 15.1055 10.8907 15.2237C10.9904 15.3418 11.1116 15.4383 11.2474 15.5076C11.3832 15.5769 11.5309 15.6176 11.682 15.6274ZM16.2463 18.0861C16.5067 18.3887 16.8443 18.4963 17.2593 18.4089C17.4943 18.3597 17.895 18.1004 17.7597 17.8053C17.6994 17.6728 17.638 17.6725 17.5756 17.8043C17.2715 18.4478 16.3155 18.1875 16.3327 17.4569C16.3389 17.1946 16.347 17.0105 16.3572 16.9046C16.3593 16.8837 16.3679 16.8638 16.3817 16.8479C16.3955 16.8319 16.414 16.8206 16.4345 16.8155C16.9776 16.6802 17.4749 16.171 17.2034 15.592C16.9216 14.9946 14.565 14.9864 15.0136 16.1484C15.1519 16.5071 15.4421 16.7379 15.8842 16.8411C15.907 16.8463 15.9273 16.8592 15.9417 16.8776C15.9562 16.8961 15.9639 16.919 15.9635 16.9425C15.9493 17.5604 15.989 18.375 15.0512 18.0789C14.9176 18.0366 14.8302 17.9375 14.7888 17.7818C14.7853 17.7683 14.7791 17.7557 14.7707 17.7447C14.7622 17.7338 14.7516 17.7247 14.7395 17.718C14.7274 17.7112 14.7141 17.7071 14.7004 17.7057C14.6866 17.7044 14.6728 17.7058 14.6596 17.71C14.5708 17.7394 14.5233 17.8385 14.5172 18.0072C14.5166 18.0237 14.5199 18.04 14.5268 18.0548C14.5337 18.0696 14.544 18.0825 14.5569 18.0922C15.1516 18.5486 15.6645 18.5455 16.0958 18.083C16.1056 18.0726 16.1174 18.0643 16.1306 18.0587C16.1437 18.0532 16.1579 18.0505 16.1721 18.0507C16.1862 18.051 16.2002 18.0543 16.213 18.0604C16.2258 18.0665 16.2371 18.0753 16.2463 18.0861ZM8.84696 18.3105C9.59554 18.9745 10.693 19.2706 11.5829 18.747C11.8854 18.5694 12.0969 18.3306 12.2176 18.0308C12.6417 16.9784 11.763 15.9476 10.7337 15.8441C9.54773 15.7252 7.2013 16.8534 8.84696 18.3105ZM20.3269 18.5533C21.1273 19.2778 22.3661 18.9817 23.1625 18.3761C25.5486 16.5603 20.5893 14.4485 19.8285 17.003C19.6563 17.5802 19.8224 18.097 20.3269 18.5533ZM18.8124 16.1351C18.8416 16.0114 18.8172 15.9626 18.7392 15.9886C18.7296 15.9917 18.7208 15.9971 18.7136 16.0042C18.7064 16.0114 18.701 16.0202 18.6977 16.0298C18.6945 16.0394 18.6935 16.0497 18.6949 16.0598C18.6962 16.0699 18.6999 16.0795 18.7056 16.088C18.8168 16.2519 18.8229 16.4189 18.7239 16.589C18.7213 16.5934 18.7193 16.5981 18.7179 16.6028C18.7166 16.6076 18.7159 16.6122 18.716 16.6163C18.7161 16.6205 18.717 16.6242 18.7185 16.6271C18.72 16.6299 18.7222 16.632 18.7249 16.6331L18.7443 16.6392C18.7494 16.641 18.7555 16.6394 18.7614 16.6349C18.7672 16.6303 18.7724 16.6231 18.7758 16.6146C18.8287 16.4767 18.8406 16.3311 18.8114 16.1781C18.8087 16.1638 18.809 16.1494 18.8124 16.1351ZM18.3405 16.1033C18.4158 16.0323 18.3842 16.0067 18.2459 16.0265C18.1944 16.034 18.1889 16.0538 18.2296 16.0859L18.2561 16.1064C18.2682 16.1161 18.2834 16.1211 18.2988 16.1205C18.3143 16.12 18.3291 16.1139 18.3405 16.1033ZM18.4859 16.6351C18.41 16.5607 18.37 16.5562 18.3659 16.6218C18.3654 16.6305 18.3665 16.6392 18.3694 16.6475C18.3722 16.6557 18.3766 16.6633 18.3824 16.6698C18.3882 16.6763 18.3952 16.6815 18.403 16.6853C18.4108 16.689 18.4193 16.6911 18.428 16.6915L18.4615 16.6925C18.5198 16.6959 18.528 16.6768 18.4859 16.6351Z" fill="#F6F2DD"/>
<path d="M20.379 15.6286C20.0713 15.6585 19.764 15.5601 19.5249 15.3551C19.2857 15.1501 19.1341 14.8553 19.1036 14.5356C19.073 14.2158 19.1659 13.8973 19.3619 13.6501C19.5579 13.4029 19.8408 13.2473 20.1485 13.2174C20.4563 13.1876 20.7635 13.2859 21.0027 13.4909C21.2419 13.6959 21.3934 13.9907 21.424 14.3105C21.4545 14.6302 21.3616 14.9487 21.1656 15.1959C20.9697 15.4431 20.6867 15.5988 20.379 15.6286ZM20.1754 14.0692C20.2386 14.0915 20.3094 14.0833 20.3723 14.0464C20.4352 14.0096 20.4851 13.9471 20.511 13.8727C20.5368 13.7983 20.5366 13.7182 20.5102 13.6498C20.4838 13.5815 20.4336 13.5305 20.3704 13.5083C20.3073 13.486 20.2365 13.4942 20.1735 13.531C20.1106 13.5679 20.0607 13.6304 20.0349 13.7047C20.009 13.7791 20.0093 13.8593 20.0357 13.9276C20.062 13.996 20.1123 14.0469 20.1754 14.0692Z" fill="#040A15"/>
<path d="M11.682 15.6276C11.5309 15.6178 11.3832 15.5771 11.2474 15.5078C11.1116 15.4385 10.9904 15.342 10.8907 15.2239C10.7909 15.1057 10.7146 14.9682 10.6661 14.8192C10.6176 14.6701 10.5978 14.5125 10.6079 14.3552C10.618 14.198 10.6578 14.0442 10.7249 13.9027C10.7921 13.7612 10.8854 13.6347 10.9994 13.5305C11.1134 13.4263 11.2459 13.3463 11.3894 13.2953C11.5329 13.2442 11.6846 13.223 11.8358 13.2328C11.9869 13.2427 12.1346 13.2834 12.2704 13.3527C12.4061 13.4219 12.5274 13.5184 12.6271 13.6365C12.7268 13.7547 12.8032 13.8922 12.8517 14.0413C12.9002 14.1903 12.92 14.348 12.9099 14.5052C12.8998 14.6625 12.86 14.8162 12.7928 14.9577C12.7257 15.0992 12.6324 15.2257 12.5184 15.3299C12.4044 15.4342 12.2719 15.5141 12.1283 15.5652C11.9848 15.6163 11.8332 15.6375 11.682 15.6276ZM11.7622 14.1181C11.7932 14.1214 11.8248 14.1172 11.855 14.1056C11.8853 14.0941 11.9136 14.0754 11.9384 14.0508C11.9632 14.0262 11.984 13.996 11.9995 13.962C12.0151 13.928 12.0252 13.8909 12.0292 13.8528C12.0331 13.8146 12.031 13.7762 12.0227 13.7397C12.0145 13.7032 12.0004 13.6694 11.9813 13.6401C11.9621 13.6108 11.9382 13.5866 11.911 13.569C11.8838 13.5513 11.8538 13.5406 11.8228 13.5373C11.7917 13.534 11.7601 13.5382 11.7299 13.5498C11.6996 13.5613 11.6713 13.58 11.6465 13.6046C11.6217 13.6293 11.6009 13.6594 11.5854 13.6934C11.5698 13.7274 11.5597 13.7645 11.5558 13.8026C11.5518 13.8408 11.554 13.8792 11.5622 13.9157C11.5704 13.9522 11.5845 13.9861 11.6037 14.0154C11.6228 14.0446 11.6467 14.0688 11.6739 14.0864C11.7011 14.1041 11.7311 14.1149 11.7622 14.1181Z" fill="#040A15"/>
<path d="M20.0349 13.7048C19.9811 13.8597 20.044 14.0228 20.1755 14.0692C20.307 14.1156 20.4572 14.0276 20.511 13.8727C20.5649 13.7179 20.5019 13.5547 20.3705 13.5083C20.239 13.4619 20.0887 13.5499 20.0349 13.7048Z" fill="#EAF0DE"/>
<path d="M11.5558 13.8026C11.539 13.963 11.6314 14.1042 11.7622 14.1181C11.8929 14.1319 12.0124 14.0131 12.0291 13.8527C12.0459 13.6923 11.9535 13.551 11.8228 13.5372C11.692 13.5234 11.5725 13.6422 11.5558 13.8026Z" fill="#F8F6F5"/>
<path d="M16.0958 18.0832C15.6645 18.5457 15.1516 18.5488 14.5569 18.0924C14.544 18.0827 14.5337 18.0698 14.5268 18.055C14.5199 18.0402 14.5166 18.0239 14.5172 18.0074C14.5233 17.8386 14.5708 17.7396 14.6596 17.7102C14.6728 17.706 14.6866 17.7046 14.7004 17.7059C14.7141 17.7073 14.7274 17.7114 14.7395 17.7181C14.7516 17.7249 14.7622 17.734 14.7706 17.7449C14.7791 17.7559 14.7853 17.7685 14.7888 17.782C14.8301 17.9377 14.9176 18.0368 15.0512 18.0791C15.989 18.3752 15.9493 17.5606 15.9635 16.9427C15.9639 16.9192 15.9562 16.8963 15.9417 16.8778C15.9273 16.8594 15.907 16.8465 15.8842 16.8413C15.4421 16.7381 15.1519 16.5072 15.0136 16.1486C14.565 14.9866 16.9216 14.9948 17.2034 15.5922C17.4749 16.1711 16.9776 16.6804 16.4344 16.8157C16.4139 16.8208 16.3955 16.8321 16.3817 16.8481C16.3679 16.864 16.3593 16.8839 16.3571 16.9048C16.347 17.0107 16.3388 17.1948 16.3327 17.4571C16.3154 18.1877 17.2715 18.448 17.5756 17.8045C17.638 17.6726 17.6994 17.673 17.7597 17.8055C17.895 18.1006 17.4943 18.3599 17.2593 18.4091C16.8443 18.4965 16.5067 18.3889 16.2463 18.0863C16.2371 18.0754 16.2258 18.0667 16.213 18.0606C16.2002 18.0545 16.1862 18.0512 16.172 18.0509C16.1578 18.0506 16.1437 18.0534 16.1306 18.0589C16.1174 18.0645 16.1056 18.0728 16.0958 18.0832Z" fill="#040A15"/>
<path d="M7.29584 20.232C6.16483 19.2298 5.59119 17.661 5.48847 16.1824C5.46711 15.8627 5.61561 15.749 5.9248 15.8012C5.94588 15.8048 5.96529 15.8149 5.98026 15.83C5.99524 15.845 6.00501 15.8644 6.00821 15.8853C6.08347 16.3279 6.13331 16.8075 6.24213 17.2071C6.69915 18.8821 7.7237 20.0913 9.31578 20.8345C9.60735 20.9704 10.1542 21.1665 10.9564 21.4227C11.454 21.5818 11.9595 21.7 12.4728 21.7772C13.5672 21.9432 14.6464 22.1092 15.7733 22.1133C17.1037 22.1184 18.552 22.0703 19.6596 21.7844C20.0227 21.6911 20.3634 21.6778 20.6818 21.5538C20.9049 21.4664 21.1337 21.3977 21.3683 21.3479C21.6643 21.2854 21.7701 21.3673 22.0355 21.1255C22.0438 21.1182 22.0534 21.1126 22.0638 21.109C22.0742 21.1055 22.0851 21.104 22.096 21.1048C22.1069 21.1055 22.1175 21.1085 22.1272 21.1135C22.1369 21.1184 22.1455 21.1253 22.1525 21.1337C22.3529 21.3735 21.2768 21.7803 21.0805 21.8438C19.5474 22.3425 17.9719 22.5939 16.3541 22.598C13.4177 22.6051 9.60871 22.2834 7.29584 20.232Z" fill="#CD8958"/>
<path d="M8.84697 18.3107C7.20132 16.8536 9.54775 15.7254 10.7337 15.8443C11.763 15.9478 12.6417 16.9786 12.2176 18.031C12.0969 18.3309 11.8854 18.5696 11.583 18.7472C10.693 19.2708 9.59555 18.9747 8.84697 18.3107Z" fill="#F9BEBC"/>
<path d="M20.3268 18.5535C19.8223 18.0972 19.6562 17.5804 19.8284 17.0032C20.5892 14.4486 25.5486 16.5605 23.1625 18.3763C22.3661 18.9818 21.1273 19.278 20.3268 18.5535Z" fill="#F9BEBC"/>
<path d="M18.8114 16.1783C18.8405 16.3313 18.8287 16.4768 18.7758 16.6148C18.7724 16.6232 18.7672 16.6304 18.7613 16.635C18.7555 16.6396 18.7494 16.6411 18.7442 16.6394L18.7249 16.6332C18.7222 16.6321 18.72 16.6301 18.7185 16.6272C18.7169 16.6243 18.7161 16.6206 18.716 16.6165C18.7159 16.6123 18.7165 16.6077 18.7179 16.603C18.7193 16.5983 18.7213 16.5936 18.7239 16.5892C18.8229 16.4191 18.8168 16.252 18.7056 16.0881C18.6999 16.0797 18.6962 16.07 18.6948 16.0599C18.6934 16.0498 18.6944 16.0396 18.6977 16.0299C18.7009 16.0203 18.7064 16.0115 18.7136 16.0044C18.7208 15.9972 18.7295 15.9918 18.7392 15.9887C18.8171 15.9627 18.8415 16.0116 18.8124 16.1352C18.809 16.1496 18.8087 16.1639 18.8114 16.1783Z" fill="#221616"/>
<path d="M18.256 16.1064L18.2296 16.0859C18.1889 16.0538 18.1943 16.034 18.2458 16.0265C18.3842 16.0067 18.4157 16.0323 18.3404 16.1034C18.329 16.1139 18.3142 16.12 18.2988 16.1206C18.2833 16.1211 18.2681 16.1161 18.256 16.1064Z" fill="#1D1212"/>
<path d="M18.4615 16.6927L18.428 16.6917C18.4193 16.6913 18.4108 16.6892 18.403 16.6854C18.3952 16.6817 18.3882 16.6764 18.3824 16.67C18.3766 16.6635 18.3722 16.6559 18.3694 16.6476C18.3665 16.6394 18.3654 16.6307 18.3659 16.622C18.37 16.5564 18.41 16.5609 18.4859 16.6353C18.528 16.677 18.5198 16.6961 18.4615 16.6927Z" fill="#0F0B0C"/>
<path d="M24.4135 22.397C24.1728 22.5971 23.9084 22.7747 23.6202 22.9298C23.5131 22.9879 23.512 23.0476 23.6171 23.1091C23.885 23.2669 24.1647 23.3807 24.4562 23.4503C24.0521 23.809 23.6982 24.2383 23.3944 24.7384C23.3872 24.7502 23.3824 24.7634 23.3804 24.7771C23.3784 24.7908 23.3792 24.8048 23.3827 24.8182C23.3862 24.8316 23.3924 24.8442 23.4009 24.8551C23.4094 24.8661 23.42 24.8751 23.432 24.8818L23.6731 25.0161C23.3619 24.9484 23.0713 24.834 22.8014 24.6728C22.714 24.6202 22.6729 24.6451 22.6784 24.7476C22.7068 25.2729 22.6323 25.789 22.4546 26.2959C22.3895 26.0691 22.4082 25.8625 22.5106 25.676C22.5675 25.5714 22.5367 25.5209 22.418 25.5243C21.7467 25.5434 21.0988 25.6763 20.4743 25.9229C20.4502 25.9321 20.4305 25.9505 20.4194 25.9741L20.3452 26.1309C20.0563 26.2354 19.8068 26.4066 19.5966 26.6443C19.5927 26.6488 19.5879 26.6524 19.5825 26.6549C19.577 26.6574 19.5711 26.6587 19.5651 26.6586C19.5244 26.6576 19.5274 26.6156 19.5457 26.5941C20.0512 25.9772 20.2058 25.3429 20.1468 24.4781C20.8073 24.5293 21.4436 24.4262 22.0559 24.1686C22.0762 24.1602 22.0932 24.1453 22.1043 24.1263C22.1155 24.1072 22.1203 24.0851 22.1179 24.0631C22.1098 23.9904 22.0152 23.7086 22.1759 23.7127C22.1959 23.7131 22.2149 23.7212 22.2294 23.7352C22.2439 23.7492 22.2527 23.7682 22.2542 23.7885C22.261 23.878 22.2936 23.9169 22.3519 23.9053C22.3628 23.9032 22.3732 23.8988 22.3824 23.8924C22.3916 23.8861 22.3993 23.8779 22.4052 23.8684C22.4112 23.8589 22.4151 23.8482 22.4167 23.8371C22.4184 23.826 22.4178 23.8147 22.4149 23.8039L22.3509 23.5559C22.6167 23.3421 22.914 23.1843 23.2429 23.0825C23.262 23.0772 23.2791 23.0657 23.2917 23.0497C23.4049 22.9117 23.547 22.8263 23.7178 22.7935C23.7364 22.7902 23.7538 22.7813 23.7677 22.7679C23.9562 22.593 24.1715 22.4694 24.4135 22.397ZM23.8104 23.3089C23.7926 23.3002 23.7727 23.2969 23.7532 23.2994C23.7336 23.302 23.7153 23.3103 23.7005 23.3233L22.6662 24.2066C22.6478 24.2222 22.6357 24.2441 22.6319 24.2681C22.6282 24.2922 22.6331 24.3169 22.6458 24.3377C23.1839 25.2333 23.789 24.0016 24.083 23.5733C24.0914 23.5612 24.0971 23.5474 24.0996 23.5328C24.1022 23.5183 24.1017 23.5034 24.098 23.489C24.0944 23.4747 24.0877 23.4614 24.0784 23.4499C24.0691 23.4385 24.0575 23.4292 24.0443 23.4227L23.8104 23.3089Z" fill="#A96334"/>
<path d="M27.301 23.2669C27.5397 23.4541 27.5607 23.6628 27.3641 23.893C27.1145 23.7557 26.9762 23.5402 26.9491 23.2464C27.1105 23.1576 27.2278 23.1644 27.301 23.2669Z" fill="#372F35"/>
<path d="M26.9491 23.2466C26.9762 23.5403 27.1145 23.7558 27.364 23.8932L27.363 24.1217C26.3412 25.1832 25.1112 25.4814 23.673 25.0162L23.432 24.882C23.4199 24.8753 23.4093 24.8662 23.4008 24.8553C23.3924 24.8443 23.3862 24.8318 23.3826 24.8184C23.3791 24.805 23.3784 24.791 23.3804 24.7772C23.3824 24.7635 23.3871 24.7503 23.3943 24.7385C23.6981 24.2385 24.0521 23.8091 24.4562 23.4505C25.3241 23.65 26.1551 23.582 26.9491 23.2466ZM25.0955 23.8174C25.0971 23.8141 25.098 23.8106 25.0981 23.8069C25.0983 23.8033 25.0978 23.7997 25.0966 23.7963C25.0954 23.7928 25.0935 23.7897 25.0911 23.787C25.0886 23.7843 25.0857 23.7821 25.0825 23.7806L25.0677 23.7736C25.0612 23.7704 25.0536 23.7701 25.0467 23.7725C25.0399 23.775 25.0343 23.7801 25.0312 23.7868L24.5044 24.9096C24.5028 24.9129 24.5019 24.9164 24.5018 24.92C24.5016 24.9237 24.5021 24.9273 24.5033 24.9307C24.5046 24.9341 24.5064 24.9373 24.5089 24.94C24.5113 24.9427 24.5142 24.9449 24.5175 24.9464L24.5322 24.9534C24.5388 24.9565 24.5463 24.9569 24.5532 24.9544C24.56 24.952 24.5656 24.9468 24.5687 24.9402L25.0955 23.8174Z" fill="#C47A47"/>
<path d="M27.301 23.2671C27.7801 23.3378 27.5421 23.8788 27.3631 24.1217L27.3641 23.8932C27.5607 23.663 27.5397 23.4543 27.301 23.2671Z" fill="#0F0B0C"/>
<path d="M23.8104 23.3089L24.0443 23.4227C24.0575 23.4292 24.0691 23.4385 24.0784 23.4499C24.0877 23.4614 24.0944 23.4747 24.098 23.489C24.1017 23.5033 24.1023 23.5183 24.0997 23.5328C24.0971 23.5474 24.0914 23.5612 24.083 23.5733C23.789 24.0016 23.1839 25.2333 22.6458 24.3377C22.6331 24.3168 22.6282 24.2921 22.632 24.2681C22.6357 24.244 22.6478 24.2222 22.6662 24.2065L23.7006 23.3233C23.7153 23.3103 23.7336 23.302 23.7532 23.2994C23.7727 23.2969 23.7926 23.3002 23.8104 23.3089Z" fill="#C47A47"/>
<path d="M9.54364 23.4534C10.2766 23.7253 11.0205 23.9616 11.7751 24.1624C12.0223 24.228 12.0192 24.3705 11.9775 24.5928C11.0676 24.547 10.1695 24.4268 9.28326 24.2321C9.31988 23.9643 9.40667 23.7048 9.54364 23.4534Z" fill="#9F592D"/>
<path d="M22.3509 23.5559L22.4149 23.8039C22.4178 23.8147 22.4184 23.8261 22.4167 23.8371C22.4151 23.8482 22.4111 23.8589 22.4052 23.8684C22.3993 23.8779 22.3915 23.8861 22.3824 23.8924C22.3732 23.8988 22.3628 23.9032 22.3519 23.9053C22.2936 23.9169 22.261 23.878 22.2542 23.7885C22.2527 23.7682 22.2439 23.7492 22.2294 23.7352C22.2149 23.7212 22.1959 23.7132 22.1759 23.7127C22.0152 23.7086 22.1098 23.9904 22.1179 24.0631C22.1203 24.0851 22.1155 24.1073 22.1043 24.1263C22.0931 24.1453 22.0762 24.1602 22.0559 24.1687C21.4436 24.4262 20.8072 24.5294 20.1468 24.4781L20.1255 24.3265C20.1218 24.3006 20.1281 24.2744 20.143 24.253C20.158 24.2317 20.1804 24.2169 20.2058 24.2117C20.9395 24.058 21.6545 23.8394 22.3509 23.5559Z" fill="#9F592D"/>
<path d="M25.0825 23.7805L25.0678 23.7735C25.0541 23.767 25.0377 23.7729 25.0312 23.7867L24.5044 24.9095C24.4979 24.9233 24.5038 24.9398 24.5175 24.9464L24.5322 24.9534C24.5459 24.9599 24.5623 24.954 24.5688 24.9402L25.0956 23.8174C25.1021 23.8036 25.0962 23.7871 25.0825 23.7805Z" fill="#9F592D"/>
<path d="M11.9775 24.5929C11.9579 25.015 11.9816 25.4533 12.0487 25.9075C12.0847 26.148 12.0443 26.162 11.9277 25.9495L11.8768 25.8563C11.8637 25.8326 11.8422 25.815 11.8168 25.8071C11.2249 25.6247 10.2231 25.9977 9.79689 26.3051C9.78236 26.3154 9.77084 26.3295 9.7635 26.3459C9.75617 26.3623 9.7533 26.3804 9.75519 26.3984C9.79994 26.8349 9.90233 27.2564 10.0623 27.6628C10.0691 27.6801 10.0804 27.6953 10.0951 27.7066C10.1097 27.718 10.1273 27.7252 10.1458 27.7274L10.3685 27.7499C10.3839 27.7517 10.3996 27.7498 10.4142 27.7445C10.4288 27.7392 10.442 27.7305 10.4527 27.7192C10.4634 27.7079 10.4714 27.6943 10.4761 27.6793C10.4807 27.6644 10.4818 27.6486 10.4794 27.6331C10.4414 27.3858 10.5112 27.1976 10.6889 27.0685L10.7641 27.7028C10.7663 27.7197 10.7726 27.7359 10.7826 27.7499C10.7925 27.7638 10.8057 27.7751 10.8211 27.7827L10.9889 27.8637L10.9635 27.9579C10.6855 27.8999 10.4034 27.8749 10.1173 27.8831C9.33004 27.9067 9.0361 27.2386 9.43582 26.5664C9.44345 26.5533 9.44814 26.5386 9.44954 26.5233C9.45095 26.5081 9.44904 26.4928 9.44396 26.4783C9.18223 25.7603 9.12866 25.0116 9.28325 24.2322C10.1695 24.4269 11.0676 24.5471 11.9775 24.5929Z" fill="#A96334"/>
<path d="M17.9306 27.9324L14.447 27.9067C14.5623 27.8268 14.6949 27.7817 14.8447 27.7715C14.8657 27.7702 14.8858 27.7622 14.9023 27.7486C14.9187 27.735 14.9306 27.7165 14.9362 27.6957C14.981 27.5269 14.9952 27.3599 14.979 27.1946C14.8996 26.3953 14.8345 25.4414 15.1681 24.6913C15.3939 24.1861 15.7998 24.3019 16.2412 24.2999C16.4087 24.2992 16.5382 24.3398 16.6297 24.4218C17.1881 24.9198 17.0376 26.8923 17.3274 27.7182C17.3337 27.737 17.3454 27.7535 17.3609 27.7657C17.3765 27.7779 17.3952 27.7853 17.4149 27.7868C17.5973 27.8019 17.7692 27.8504 17.9306 27.9324Z" fill="#9F592D"/>
<path d="M22.4546 26.2959C23.2978 27.1505 22.6123 28.127 21.5463 27.8483C21.5301 27.8435 21.5135 27.8432 21.4965 27.8473L20.9564 27.9836C21.1259 27.8592 21.1924 27.67 21.1558 27.4159C21.2826 27.4644 21.385 27.5392 21.4629 27.6403C21.4735 27.6538 21.4872 27.6644 21.5026 27.6712C21.5181 27.678 21.5348 27.6808 21.5514 27.6792C21.6823 27.669 21.7687 27.6068 21.8108 27.4927C21.8949 27.2632 21.8688 27.0562 21.7325 26.8718C21.7229 26.8587 21.7165 26.8435 21.7138 26.8274C21.7112 26.8114 21.7122 26.795 21.717 26.7795C21.7217 26.764 21.73 26.7499 21.7412 26.7384C21.7524 26.7268 21.7661 26.7181 21.7813 26.713C21.8708 26.6822 21.8918 26.6102 21.8443 26.4968C21.8389 26.4841 21.8308 26.4727 21.8207 26.4632C21.8105 26.4536 21.7985 26.4462 21.7854 26.4414C21.3195 26.2686 20.8395 26.1651 20.3452 26.1309L20.4194 25.9742C20.4305 25.9505 20.4502 25.9322 20.4743 25.9229C21.0988 25.6763 21.7467 25.5435 22.418 25.5243C22.5366 25.5209 22.5675 25.5715 22.5105 25.676C22.4082 25.8625 22.3895 26.0691 22.4546 26.2959Z" fill="#B2693A"/>
<path d="M11.65 27.9067L11.5483 27.9323L11.5494 27.0122C11.55 26.8243 11.6175 26.7423 11.7518 26.7663L12.2176 26.8513C12.2339 26.8545 12.2493 26.8615 12.2623 26.8719C12.2754 26.8822 12.2859 26.8955 12.2929 26.9107C12.4325 27.2257 12.3871 27.4975 12.1566 27.7264C12.1453 27.7381 12.1313 27.7467 12.1156 27.7515C12.1 27.7564 12.0833 27.7572 12.0671 27.754C11.8921 27.7226 11.7531 27.7735 11.65 27.9067Z" fill="#C98652"/>
<path d="M21.1558 27.416C21.1924 27.6701 21.1259 27.8593 20.9564 27.9836C20.8127 27.9939 20.6801 27.9741 20.5587 27.9242L20.4438 27.0204C20.4426 27.0115 20.4386 27.0032 20.4324 26.9968C20.4261 26.9903 20.418 26.986 20.4092 26.9846C20.2709 26.961 20.3319 27.5584 20.3584 27.6557C20.3607 27.6647 20.3613 27.674 20.3598 27.6831C20.3584 27.6922 20.3551 27.7009 20.3501 27.7087C20.3451 27.7164 20.3386 27.723 20.3309 27.728C20.3232 27.733 20.3145 27.7363 20.3055 27.7377C20.2231 27.75 20.2139 27.6742 20.2241 27.6096C20.2587 27.3869 20.198 27.1994 20.042 27.0471C19.943 26.9501 19.962 26.8917 20.099 26.8719L20.753 26.7786C20.9767 26.7465 21.0971 26.8158 21.114 26.9866L21.1558 27.416Z" fill="#C98652"/>
<path d="M10.9889 27.8638L10.8211 27.7828C10.8058 27.7752 10.7925 27.7639 10.7826 27.75C10.7727 27.736 10.7663 27.7198 10.7642 27.7029L10.6889 27.0686C10.8408 26.906 11.0232 26.8394 11.2361 26.8688C11.2622 26.8724 11.2859 26.886 11.3022 26.9069C11.3185 26.9277 11.3262 26.9541 11.3236 26.9805L11.2392 27.7797C11.2363 27.8059 11.2238 27.83 11.2042 27.8471C11.1845 27.8643 11.1592 27.8731 11.1334 27.872L10.9889 27.8638Z" fill="#CD8958"/>
</g>
<defs>
<clipPath id="clip0_55889_43413">
<rect width="24" height="24" fill="white" transform="translate(4 4)"/>
</clipPath>
</defs>
</svg>
