<svg width="32" height="32" viewBox="0 0 32 32" fill="none" xmlns="http://www.w3.org/2000/svg">
<path d="M0 16C0 7.16344 7.16344 0 16 0C24.8366 0 32 7.16344 32 16C32 24.8366 24.8366 32 16 32C7.16344 32 0 24.8366 0 16Z" fill="#E7EEFF"/>
<g clip-path="url(#clip0_55889_43470)">
<path d="M19.2164 4.54183C19.2953 4.69048 19.4085 4.80535 19.5558 4.88643C19.577 4.89798 19.5938 4.91526 19.6041 4.93598C19.6143 4.95671 19.6175 4.97988 19.6132 5.00242C19.2713 6.78699 18.9103 8.5678 18.5301 10.3449C18.4756 10.5994 18.432 10.8505 18.3994 11.0982C18.3669 11.3468 18.3339 11.5994 18.3005 11.8562C17.1047 12.3929 16.4982 13.2736 16.4811 14.4981C16.4805 14.5271 16.468 14.5548 16.4462 14.5755C16.4244 14.5962 16.395 14.6084 16.3638 14.6096L15.7557 14.6321C15.7394 14.6329 15.723 14.6305 15.7076 14.6252C15.6922 14.6199 15.6782 14.6117 15.6663 14.6012C15.6544 14.5906 15.645 14.578 15.6385 14.5639C15.632 14.5499 15.6287 14.5348 15.6287 14.5195C15.6324 12.7041 14.1744 11.7086 12.3793 11.4406C11.9951 11.2259 11.6373 11.173 11.306 11.2818C10.8627 11.4282 10.3645 11.5138 9.98229 11.6951C8.65006 12.3291 7.81603 13.56 7.81481 14.9688C7.81481 14.9876 7.80993 15.0056 7.80016 15.0229C7.64508 15.2864 7.53762 15.2211 7.55472 14.997C7.64345 13.7972 7.72486 12.5972 7.79894 11.3967C7.81848 11.0746 7.9353 10.5986 8.1494 9.96873C8.21534 9.77391 8.0456 9.84373 7.99676 9.94733C7.06952 11.9384 6.77402 14.0101 7.11023 16.1625C7.33003 17.2324 7.66869 18.2639 8.1262 19.2572C8.19702 19.4118 8.25808 19.4085 8.30936 19.247C8.31913 19.2155 8.33216 19.1783 8.34844 19.1356C8.35821 19.1108 8.37612 19.1051 8.40217 19.1187C8.41045 19.1226 8.41729 19.1288 8.42184 19.1364C8.4264 19.144 8.42848 19.1527 8.42781 19.1615C8.37042 20.1232 9.04814 20.7842 9.80157 21.577C9.47512 22.3676 9.23253 23.1762 9.07378 24.0028L8.88695 23.7764C8.75344 23.615 8.68018 23.6356 8.66715 23.8383L8.6525 24.0827C8.64436 24.2171 8.58045 24.2456 8.46078 24.1683C7.8258 23.7599 7.39882 23.2253 7.17983 22.5647C7.08866 22.2929 7.02516 22.2981 6.98934 22.5804L6.95393 22.8496C6.93195 23.0208 6.86071 23.0406 6.74023 22.9093C5.81218 21.9002 4.96717 20.8845 5.33106 19.4543C5.3506 19.3762 5.32903 19.3375 5.26634 19.3383C5.25338 19.3385 5.24081 19.3424 5.23033 19.3495C5.21986 19.3565 5.21197 19.3664 5.20773 19.3777L4.90612 20.1964C4.82064 20.4269 4.74289 20.4246 4.67288 20.1896C4.58659 19.8998 4.50966 19.6055 4.44209 19.3067C4.24671 18.4373 4.26503 17.747 4.65945 16.9846C4.76772 16.7744 4.86867 16.5766 4.96229 16.3911C5.37421 15.5683 5.30339 15.5311 4.74981 16.2796C4.5064 16.6092 4.28213 16.9467 4.07698 17.2921C4.02081 17.3855 3.99883 17.2448 4.00005 17.2234C4.05541 16.1595 4.37208 15.1689 4.95008 14.2515C4.95984 14.2357 4.97694 14.1411 4.90612 14.2177C4.72946 14.4099 4.55688 14.5979 4.38836 14.7819C4.21659 14.9703 4.14495 14.9422 4.17345 14.6974C4.26299 13.9301 4.47181 13.1914 4.79988 12.4812C5.23052 11.5487 5.91842 10.8404 6.86356 10.3561C6.88166 10.347 6.89695 10.3337 6.90798 10.3176C6.91902 10.3015 6.92545 10.2831 6.92667 10.2641C6.92789 10.2451 6.92386 10.2261 6.91496 10.2089C6.90606 10.1917 6.89258 10.1769 6.87577 10.1658C6.74227 10.0787 6.61039 9.99238 6.48013 9.90679C5.05143 8.96421 4.81697 6.95516 6.25423 5.90785C7.43627 5.04522 8.97365 5.51257 10.0543 6.33015C10.0668 6.33963 10.0812 6.34675 10.0967 6.35109C10.1121 6.35543 10.1283 6.35691 10.1444 6.35545C10.1604 6.35398 10.1759 6.3496 10.19 6.34255C10.2041 6.3355 10.2165 6.32592 10.2265 6.31439C12.3586 3.90331 16.1526 3.49452 19.2164 4.54183ZM9.00418 8.0205L9.39494 7.33918C9.40299 7.32506 9.40769 7.30953 9.40875 7.29361C9.4098 7.27769 9.40717 7.26175 9.40104 7.24684C9.31638 7.03737 9.13606 6.89435 8.86009 6.81778C8.61179 6.62633 8.30692 6.55613 7.94547 6.60718C7.02719 6.73781 6.52409 7.41576 6.64865 8.25361C6.76018 9.00062 7.28037 9.43231 8.20923 9.54868C8.23584 9.55194 8.26288 9.54711 8.28624 9.53491C8.3096 9.52272 8.32801 9.50383 8.33867 9.48111L9.00418 8.0205ZM11.9666 10.462C11.9833 10.4724 12.0025 10.4789 12.0226 10.481C12.0426 10.4831 12.0628 10.4806 12.0815 10.4738C12.1002 10.467 12.1168 10.4562 12.1297 10.4421C12.1427 10.4281 12.1517 10.4113 12.1559 10.3933C12.2202 10.117 12.1347 9.90717 11.8994 9.76377C11.8836 9.754 11.8654 9.74778 11.8466 9.74563C11.8277 9.74348 11.8086 9.74545 11.7908 9.75138C11.2486 9.93157 11.7468 10.3235 11.9666 10.462Z" fill="#173347"/>
<path d="M19.2164 4.54175C20.2625 4.95917 21.1677 5.5564 21.9321 6.33344C22.095 6.64801 22.3131 6.92505 22.5867 7.16454C23.0336 7.88527 23.4182 8.63829 23.7406 9.42359C23.7501 9.44759 23.7683 9.46755 23.7919 9.47989L23.8554 9.5148C23.8139 9.60039 23.8143 9.70212 23.8566 9.81999C24.505 11.6353 24.9703 14.025 24.5356 15.935L24.1045 15.873C24.1008 15.3291 24.1338 14.7322 24.0227 14.2345C23.4781 11.7986 20.6548 10.8482 18.3005 11.8561C18.3339 11.5993 18.3669 11.3467 18.3994 11.0982C18.432 10.8504 18.4756 10.5993 18.5301 10.3448C18.9103 8.56772 19.2713 6.7869 19.6132 5.00234C19.6175 4.9798 19.6143 4.95662 19.6041 4.9359C19.5938 4.91518 19.577 4.89789 19.5558 4.88635C19.4085 4.80527 19.2953 4.6904 19.2164 4.54175ZM20.4302 9.81999C20.0793 9.75468 19.8815 9.9236 19.8367 10.3268C19.8344 10.3462 19.8377 10.3659 19.8462 10.3838C19.8546 10.4018 19.8681 10.4174 19.8851 10.4291C19.9021 10.4408 19.9221 10.4482 19.9432 10.4506C19.9642 10.453 19.9856 10.4503 20.0052 10.4428C20.238 10.3527 20.409 10.1973 20.5181 9.97653C20.5258 9.9612 20.5296 9.94444 20.5291 9.92753C20.5287 9.91063 20.5241 9.894 20.5156 9.87893C20.5071 9.86385 20.4951 9.85071 20.4802 9.8405C20.4654 9.83029 20.4483 9.82328 20.4302 9.81999Z" fill="#042A40"/>
<path d="M22.9029 23.9329C22.7311 22.984 22.4434 22.0658 22.0396 21.1784C22.0304 21.1583 22.0279 21.1362 22.0322 21.1148C22.0366 21.0933 22.0476 21.0736 22.064 21.0579C22.6465 20.4869 23.1007 19.8766 23.1081 19.0804C23.108 19.0699 23.1112 19.0597 23.1173 19.0507C23.1233 19.0418 23.132 19.0345 23.1423 19.0297C23.1707 19.0162 23.1891 19.0256 23.1972 19.0579C23.2192 19.1404 23.2342 19.2241 23.2424 19.309C23.2636 19.5094 23.325 19.5207 23.4268 19.3428C24.0349 18.2797 24.4045 17.1438 24.5355 15.935C24.9703 14.0251 24.505 11.6354 23.8566 9.82008C23.8143 9.70221 23.8139 9.60048 23.8554 9.51489C25.764 9.39439 25.9374 6.74119 24.0666 6.61056C23.5171 6.57227 23.0238 6.75696 22.5866 7.16462C22.3131 6.92513 22.0949 6.6481 21.9321 6.33353C22.8516 5.61167 24.2755 5.14094 25.4184 5.70402C26.8703 6.42024 27.1426 8.1714 26.1706 9.34034C25.8694 9.70145 25.4994 9.98675 25.0606 10.1962C24.9499 10.2488 24.9495 10.3017 25.0594 10.355C25.464 10.5532 25.8246 10.8081 26.1413 11.1196C26.8715 11.8411 27.3547 12.6857 27.5908 13.6535C27.6811 14.0251 27.7577 14.4001 27.8203 14.7785C27.8497 14.9504 27.7951 14.9767 27.6567 14.8573C27.4605 14.6877 27.2871 14.4973 27.1365 14.2864C27.1137 14.2548 27.0909 14.2413 27.0681 14.2458C27.0633 14.2468 27.0588 14.2488 27.055 14.2517C27.0512 14.2546 27.0482 14.2583 27.0461 14.2624C27.0441 14.2666 27.0432 14.2711 27.0434 14.2757C27.0436 14.2802 27.045 14.2846 27.0474 14.2886C27.5993 15.1618 27.9156 16.1017 27.9962 17.1085C28.0165 17.3705 27.9555 17.3878 27.813 17.1603C27.4939 16.649 27.13 16.1453 26.7213 15.649C26.6566 15.5702 26.6578 15.6715 26.6688 15.6974C27.255 16.9767 27.9229 17.8472 27.5151 19.3349C27.4353 19.6232 27.3612 19.9126 27.2928 20.2031C27.2391 20.4314 27.176 20.4332 27.1036 20.2088C27.0392 20.0098 26.966 19.8135 26.8838 19.6198C26.6924 19.1708 26.6139 19.187 26.6481 19.6682C26.6595 19.8206 26.6753 19.9727 26.6957 20.1243C26.758 20.586 26.5553 21.1041 26.272 21.5365C25.9594 22.014 25.6118 22.4693 25.2291 22.9025C25.1355 23.0084 25.0651 22.9964 25.0179 22.8665C24.9479 22.672 24.9194 22.4712 24.9324 22.264C24.9373 22.1874 24.9129 22.154 24.8591 22.1638C24.849 22.1658 24.8397 22.1706 24.8325 22.1774C24.8253 22.1842 24.8206 22.1928 24.8188 22.2021C24.7724 22.4536 24.7028 22.6972 24.61 22.9329C24.4147 23.4329 23.8639 23.8766 23.4683 24.2697C23.4414 24.2959 23.3962 24.3263 23.3327 24.3609C23.1968 24.4352 23.1357 24.3999 23.1496 24.255C23.1585 24.1514 23.1655 24.0501 23.1703 23.951C23.1842 23.6461 23.095 23.6401 22.9029 23.9329Z" fill="#173347"/>
<path d="M8.86007 6.81778L9.22641 7.275C9.24148 7.29344 9.24993 7.3158 9.25058 7.339C9.25124 7.3622 9.24407 7.38508 9.23007 7.4045C9.09249 7.59369 9.01719 7.79903 9.00417 8.0205L8.33866 9.48111C8.328 9.50383 8.30959 9.52272 8.28623 9.53492C8.26287 9.54711 8.23583 9.55195 8.20922 9.54868C7.28036 9.43232 6.76016 9.00063 6.64863 8.25362C6.52408 7.41576 7.02718 6.73782 7.94546 6.60719C8.30691 6.55613 8.61178 6.62634 8.86007 6.81778Z" fill="#F6AEB3"/>
<path d="M23.8554 9.51497L23.7919 9.48006C23.7683 9.46772 23.7501 9.44776 23.7406 9.42375C23.4182 8.63845 23.0336 7.88544 22.5867 7.16471C23.0238 6.75704 23.5172 6.57236 24.0667 6.61064C25.9374 6.74128 25.764 9.39447 23.8554 9.51497Z" fill="#F6AEB3"/>
<path d="M8.86005 6.81787C9.13602 6.89445 9.31634 7.03747 9.401 7.24693C9.40713 7.26185 9.40976 7.27779 9.40871 7.29371C9.40765 7.30963 9.40295 7.32515 9.3949 7.33927L9.00414 8.02059C9.01716 7.79912 9.09247 7.59378 9.23005 7.40459C9.24405 7.38517 9.25121 7.36229 9.25056 7.33909C9.2499 7.31589 9.24145 7.29353 9.22638 7.27509L8.86005 6.81787Z" fill="#F8F1D7"/>
<path d="M11.9666 10.4621C11.7468 10.3236 11.2486 9.93165 11.7908 9.75147C11.8086 9.74554 11.8277 9.74357 11.8466 9.74572C11.8654 9.74787 11.8836 9.75408 11.8994 9.76386C12.1347 9.90725 12.2202 10.1171 12.1559 10.3934C12.1517 10.4114 12.1427 10.4282 12.1297 10.4422C12.1168 10.4562 12.1002 10.4671 12.0815 10.4739C12.0628 10.4807 12.0426 10.4832 12.0226 10.4811C12.0025 10.479 11.9833 10.4725 11.9666 10.4621Z" fill="#070910"/>
<path d="M20.4302 9.82006C20.4483 9.82334 20.4654 9.83036 20.4803 9.84057C20.4951 9.85078 20.5071 9.86391 20.5156 9.87899C20.5241 9.89407 20.5287 9.91069 20.5291 9.9276C20.5296 9.94451 20.5258 9.96126 20.5181 9.97659C20.409 10.1973 20.238 10.3527 20.0052 10.4428C19.9856 10.4504 19.9643 10.4531 19.9432 10.4507C19.9221 10.4483 19.9021 10.4409 19.8851 10.4292C19.8681 10.4175 19.8546 10.4019 19.8462 10.3839C19.8377 10.366 19.8344 10.3463 19.8367 10.3268C19.8815 9.92366 20.0793 9.75474 20.4302 9.82006Z" fill="#070910"/>
<path d="M12.3793 11.4407C11.6467 11.4339 11.168 11.4564 10.9433 11.5082C8.64394 12.0364 7.87708 13.6716 7.97477 15.7065C7.8551 15.7223 7.79323 15.7891 7.78916 15.907C7.78803 15.9308 7.7787 15.9538 7.76248 15.9726C7.74626 15.9914 7.72397 16.0051 7.69879 16.0117L7.11022 16.1626C6.774 14.0102 7.06951 11.9384 7.99675 9.94739C8.04559 9.84379 8.21533 9.77397 8.14939 9.96879C7.93528 10.5987 7.81846 11.0747 7.79893 11.3967C7.72485 12.5972 7.64344 13.7973 7.5547 14.997C7.53761 15.2211 7.64507 15.2865 7.80015 15.0229C7.80992 15.0057 7.8148 14.9876 7.8148 14.9689C7.81602 13.5601 8.65004 12.3292 9.98228 11.6952C10.3645 11.5139 10.8627 11.4283 11.306 11.2819C11.6373 11.173 11.9951 11.2259 12.3793 11.4407Z" fill="#0C293F"/>
<path d="M12.3793 11.4406C14.1744 11.7086 15.6324 12.7042 15.6287 14.5195C15.6287 14.5348 15.632 14.5499 15.6385 14.5639C15.645 14.578 15.6544 14.5907 15.6663 14.6012C15.6782 14.6117 15.6922 14.6199 15.7076 14.6252C15.723 14.6305 15.7393 14.6329 15.7557 14.6321L16.3638 14.6096C16.395 14.6084 16.4244 14.5963 16.4462 14.5755C16.468 14.5548 16.4805 14.5271 16.4811 14.4981C16.4982 13.2736 17.1046 12.393 18.3005 11.8562C20.6548 10.8483 23.4781 11.7987 24.0227 14.2346C24.1338 14.7323 24.1008 15.3292 24.1045 15.8731C23.7687 18.3867 21.0212 19.1243 18.7267 19.2786L13.1096 19.2842C10.7382 19.0173 8.18603 18.3653 7.97478 15.7065C7.87709 13.6715 8.64395 12.0364 10.9433 11.5082C11.168 11.4564 11.6467 11.4339 12.3793 11.4406ZM11.8183 15.2116C12.0836 15.2631 12.362 15.2076 12.5922 15.0573C12.8224 14.9069 12.9857 14.674 13.0461 14.4098C13.1065 14.1456 13.059 13.8718 12.9141 13.6485C12.7692 13.4252 12.5388 13.2708 12.2736 13.2193C12.0084 13.1677 11.73 13.2233 11.4998 13.3736C11.2695 13.524 11.1062 13.7569 11.0459 14.0211C10.9855 14.2853 11.033 14.5591 11.1778 14.7824C11.3227 15.0057 11.5531 15.16 11.8183 15.2116ZM19.9728 15.2253C20.1074 15.2432 20.2448 15.2347 20.3771 15.2004C20.5094 15.166 20.634 15.1065 20.7439 15.0252C20.8537 14.9438 20.9467 14.8423 21.0174 14.7263C21.0881 14.6104 21.1351 14.4823 21.1559 14.3494C21.1767 14.2165 21.1707 14.0814 21.1384 13.9517C21.1061 13.8221 21.048 13.7005 20.9675 13.5939C20.887 13.4872 20.7857 13.3977 20.6693 13.3303C20.5529 13.2629 20.4237 13.219 20.2891 13.2011C20.1545 13.1832 20.0172 13.1917 19.8849 13.226C19.7526 13.2604 19.6279 13.3199 19.5181 13.4012C19.4082 13.4826 19.3153 13.5841 19.2446 13.7C19.1739 13.816 19.1268 13.9441 19.1061 14.077C19.0853 14.2099 19.0912 14.345 19.1236 14.4747C19.1559 14.6043 19.2139 14.7259 19.2944 14.8325C19.3749 14.9392 19.4763 15.0287 19.5927 15.0961C19.7091 15.1635 19.8382 15.2074 19.9728 15.2253ZM16.1978 16.5488C16.1815 16.6472 16.1827 16.8724 16.2014 17.2245C16.2393 17.9723 15.1024 18.5252 14.6946 17.6446C14.664 17.5792 14.6628 17.2054 14.5358 17.4711C14.5248 17.4937 14.5226 17.5196 14.5297 17.5443C14.7153 18.2211 15.4724 18.5657 16.0073 17.9711C16.07 17.9013 16.1335 17.8311 16.1978 17.7606C16.2089 17.7481 16.2228 17.738 16.2385 17.7309C16.2542 17.7238 16.2714 17.7199 16.2888 17.7195C16.3063 17.7191 16.3237 17.7221 16.3398 17.7284C16.3559 17.7347 16.3703 17.7441 16.3822 17.756C16.4107 17.7853 16.4375 17.815 16.4628 17.845C16.9121 18.3934 17.9293 18.4115 18.0246 17.5882C18.0251 17.585 18.0248 17.5818 18.0238 17.5786C18.0227 17.5755 18.0209 17.5726 18.0185 17.5702C18.016 17.5677 18.013 17.5657 18.0097 17.5644C18.0063 17.563 18.0026 17.5623 17.9989 17.5623H17.9611C17.9444 17.5621 17.928 17.5667 17.9144 17.5756C17.9007 17.5846 17.8906 17.5973 17.8854 17.6119C17.6594 18.2414 16.8401 18.1941 16.5043 17.702C16.3003 17.4024 16.3834 16.8945 16.315 16.5162C16.5897 16.4058 16.9121 16.4542 17.1954 16.2335C17.6021 15.9171 17.5593 15.4463 17.0428 15.2718C16.5063 15.0893 15.969 15.0769 15.4309 15.2346C14.868 15.4002 14.5749 15.8461 15.1855 16.2425C15.446 16.4122 15.7618 16.4903 16.133 16.4767C16.1795 16.4752 16.201 16.4993 16.1978 16.5488ZM9.12018 17.1659C9.44744 18.2065 10.7894 17.9734 11.2901 17.1997C12.0582 16.0139 8.54504 15.3303 9.12018 17.1659ZM23.0684 17.0296C23.0829 16.791 22.975 16.556 22.7684 16.3761C22.5619 16.1962 22.2737 16.0863 21.9671 16.0705C21.6606 16.0547 21.3609 16.1343 21.1339 16.2918C20.9069 16.4493 20.7712 16.6718 20.7568 16.9104C20.7423 17.149 20.8502 17.384 21.0567 17.5639C21.2633 17.7438 21.5515 17.8537 21.8581 17.8695C22.1646 17.8853 22.4643 17.8057 22.6913 17.6482C22.9183 17.4907 23.0539 17.2682 23.0684 17.0296Z" fill="#FEFEFE"/>
<path d="M11.8183 15.2115C11.5531 15.16 11.3227 15.0056 11.1778 14.7823C11.0329 14.5591 10.9855 14.2852 11.0458 14.021C11.1062 13.7568 11.2695 13.5239 11.4997 13.3736C11.73 13.2232 12.0083 13.1677 12.2736 13.2192C12.5388 13.2708 12.7692 13.4252 12.9141 13.6484C13.059 13.8717 13.1064 14.1455 13.0461 14.4097C12.9857 14.6739 12.8224 14.9068 12.5922 15.0572C12.3619 15.2076 12.0836 15.2631 11.8183 15.2115ZM12.4898 13.7406C12.4857 13.6789 12.4552 13.6212 12.405 13.5802C12.3548 13.5393 12.289 13.5184 12.2221 13.5222L12.1002 13.529C12.0333 13.5328 11.9707 13.5609 11.9263 13.6072C11.8819 13.6535 11.8592 13.7142 11.8633 13.7759L11.8708 13.8883C11.8749 13.9501 11.9054 14.0077 11.9556 14.0487C12.0058 14.0897 12.0716 14.1106 12.1385 14.1068L12.2604 14.0999C12.3273 14.0961 12.3898 14.068 12.4343 14.0217C12.4787 13.9754 12.5013 13.9147 12.4972 13.853L12.4898 13.7406Z" fill="#05050B"/>
<path d="M19.9728 15.2252C19.8382 15.2073 19.7091 15.1634 19.5927 15.096C19.4763 15.0286 19.3749 14.9391 19.2944 14.8324C19.2139 14.7258 19.1559 14.6042 19.1236 14.4746C19.0912 14.3449 19.0853 14.2098 19.1061 14.0769C19.1268 13.944 19.1739 13.8159 19.2446 13.7C19.3153 13.584 19.4082 13.4825 19.5181 13.4011C19.6279 13.3198 19.7526 13.2603 19.8849 13.2259C20.0172 13.1916 20.1545 13.1831 20.2891 13.201C20.4237 13.2189 20.5529 13.2628 20.6693 13.3302C20.7857 13.3976 20.887 13.4871 20.9675 13.5938C21.048 13.7004 21.1061 13.822 21.1384 13.9516C21.1707 14.0813 21.1767 14.2164 21.1559 14.3493C21.1351 14.4822 21.0881 14.6103 21.0174 14.7263C20.9467 14.8422 20.8537 14.9437 20.7439 15.0251C20.634 15.1064 20.5094 15.1659 20.3771 15.2003C20.2448 15.2346 20.1074 15.2431 19.9728 15.2252ZM20.4253 13.8133C20.4253 13.7357 20.3918 13.6612 20.3323 13.6063C20.2727 13.5514 20.192 13.5205 20.1078 13.5205C20.0236 13.5205 19.9428 13.5514 19.8833 13.6063C19.8237 13.6612 19.7903 13.7357 19.7903 13.8133C19.7903 13.891 19.8237 13.9655 19.8833 14.0204C19.9428 14.0753 20.0236 14.1061 20.1078 14.1061C20.192 14.1061 20.2727 14.0753 20.3323 14.0204C20.3918 13.9655 20.4253 13.891 20.4253 13.8133Z" fill="#070910"/>
<path d="M12.2221 13.5221L12.1002 13.529C11.9609 13.5368 11.8548 13.6474 11.8633 13.7759L11.8708 13.8883C11.8793 14.0168 11.9992 14.1146 12.1385 14.1067L12.2604 14.0999C12.3997 14.092 12.5058 13.9815 12.4973 13.853L12.4898 13.7406C12.4813 13.612 12.3614 13.5142 12.2221 13.5221Z" fill="#F8F8F8"/>
<path d="M20.1078 14.1061C20.2831 14.1061 20.4253 13.975 20.4253 13.8133C20.4253 13.6516 20.2831 13.5205 20.1078 13.5205C19.9324 13.5205 19.7903 13.6516 19.7903 13.8133C19.7903 13.975 19.9324 14.1061 20.1078 14.1061Z" fill="#F8F8F8"/>
<path d="M16.315 16.5162L16.1978 16.5488C16.201 16.4993 16.1794 16.4753 16.133 16.4768C15.7618 16.4903 15.446 16.4122 15.1855 16.2425C14.5749 15.8461 14.868 15.4002 15.4309 15.2346C15.969 15.077 16.5063 15.0894 17.0428 15.2718C17.5593 15.4463 17.602 15.9171 17.1954 16.2335C16.9121 16.4542 16.5897 16.4058 16.315 16.5162Z" fill="#EDA39F"/>
<path d="M7.97478 15.7065C8.18603 18.3654 10.7382 19.0174 13.1096 19.2843L12.7982 19.9555C12.3692 20.7851 12.05 21.6811 11.8408 22.6436C11.1147 22.3703 10.4349 22.0148 9.80157 21.5771C9.04814 20.7843 8.37042 20.1233 8.42781 19.1616C8.42848 19.1528 8.4264 19.1441 8.42184 19.1365C8.41729 19.1288 8.41045 19.1227 8.40217 19.1188C8.37612 19.1052 8.35821 19.1109 8.34844 19.1357C8.33216 19.1784 8.31913 19.2156 8.30936 19.2471C8.25808 19.4086 8.19702 19.4119 8.1262 19.2573C7.66869 18.264 7.33003 17.2325 7.11023 16.1626L7.69881 16.0117C7.72399 16.0051 7.74627 15.9915 7.76249 15.9727C7.77871 15.9539 7.78805 15.9309 7.78917 15.907C7.79324 15.7891 7.85511 15.7223 7.97478 15.7065Z" fill="#020519"/>
<path d="M24.1045 15.873L24.5355 15.935C24.4045 17.1437 24.0349 18.2796 23.4268 19.3427C23.325 19.5206 23.2635 19.5094 23.2424 19.3089C23.2342 19.2241 23.2192 19.1404 23.1972 19.0578C23.189 19.0255 23.1707 19.0161 23.1422 19.0296C23.1319 19.0344 23.1233 19.0417 23.1173 19.0506C23.1112 19.0596 23.108 19.0699 23.108 19.0803C23.1007 19.8765 22.6465 20.4869 22.064 21.0578C22.0476 21.0735 22.0366 21.0933 22.0322 21.1147C22.0279 21.1361 22.0304 21.1582 22.0396 21.1783C22.4434 22.0657 22.7311 22.9839 22.9029 23.9329C22.6208 25.032 22.55 26.1503 21.6 26.9949C21.7327 26.6105 21.81 26.2625 21.832 25.9509C21.8654 25.4577 21.8568 24.9179 21.8063 24.3315C21.7367 23.5162 20.9345 22.8473 20.3202 22.3281C20.3068 22.3172 20.291 22.309 20.274 22.3041C20.2569 22.2993 20.239 22.2979 20.2213 22.3L20.0443 22.3202C19.8375 21.5072 19.529 20.7282 19.1187 19.9835L18.7267 19.2785C21.0212 19.1242 23.7687 18.3866 24.1045 15.873Z" fill="#020519"/>
<path d="M11.2901 17.1997C10.7894 17.9733 9.44744 18.2065 9.12018 17.1659C8.54503 15.3303 12.0582 16.0139 11.2901 17.1997Z" fill="#F6A8AA"/>
<path d="M21.858 17.8696C22.4964 17.9025 23.0383 17.5265 23.0684 17.0297C23.0985 16.5329 22.6054 16.1035 21.9671 16.0706C21.3288 16.0377 20.7869 16.4137 20.7567 16.9105C20.7266 17.4073 21.2197 17.8367 21.858 17.8696Z" fill="#F6A8AA"/>
<path d="M16.315 16.5161C16.3834 16.8945 16.3003 17.4024 16.5043 17.7019C16.8401 18.1941 17.6594 18.2414 17.8854 17.6119C17.8906 17.5972 17.9007 17.5845 17.9144 17.5756C17.928 17.5667 17.9444 17.562 17.9611 17.5623H17.9989C18.0026 17.5623 18.0063 17.563 18.0097 17.5643C18.013 17.5657 18.0161 17.5676 18.0185 17.5701C18.0209 17.5726 18.0227 17.5755 18.0238 17.5786C18.0248 17.5817 18.0251 17.585 18.0246 17.5882C17.9293 18.4114 16.9121 18.3934 16.4628 17.845C16.4375 17.8149 16.4107 17.7853 16.3822 17.756C16.3704 17.7441 16.3559 17.7347 16.3398 17.7284C16.3237 17.7221 16.3063 17.719 16.2888 17.7195C16.2714 17.7199 16.2542 17.7238 16.2385 17.7309C16.2228 17.7379 16.2089 17.748 16.1978 17.7605C16.1335 17.8311 16.07 17.9013 16.0073 17.9711C15.4724 18.5657 14.7153 18.2211 14.5297 17.5443C14.5226 17.5195 14.5248 17.4937 14.5358 17.4711C14.6628 17.2053 14.664 17.5792 14.6946 17.6445C15.1024 18.5252 16.2393 17.9722 16.2014 17.2245C16.1827 16.8723 16.1815 16.6471 16.1978 16.5488L16.315 16.5161Z" fill="black"/>
<path d="M18.7267 19.2786L19.1187 19.9835C19.0999 19.9745 19.0792 19.9753 19.0564 19.9858C19.0433 19.9921 19.033 20.0024 19.0275 20.015C19.0219 20.0276 19.0213 20.0416 19.0258 20.0545C19.1048 20.2872 19.0059 20.3856 18.7291 20.3495C17.8686 20.2384 16.8808 20.1821 15.7655 20.1806C15.1394 20.1799 14.1503 20.1048 12.7982 19.9554L13.1095 19.2842L18.7267 19.2786Z" fill="#FDFCEE"/>
<path d="M9.80154 21.5771C10.4349 22.0148 11.1146 22.3703 11.8408 22.6436C11.5779 23.775 11.6833 24.8764 12.1571 25.9477C12.1662 25.9681 12.1815 25.9856 12.2013 25.998C12.221 26.0104 12.2443 26.0172 12.2682 26.0175C12.3984 26.019 12.5287 26.0179 12.659 26.0142C14.5444 25.9635 13.9436 28.575 12.1449 27.8149C11.5685 27.6182 11.0166 27.3821 10.489 27.1065C9.77345 26.3933 9.39328 25.5483 9.34851 24.5716C9.34693 24.5412 9.33291 24.5129 9.30943 24.4927C9.12708 24.3403 9.04852 24.177 9.07375 24.0029C9.2325 23.1763 9.4751 22.3677 9.80154 21.5771Z" fill="#05253B"/>
<path d="M21.6 26.9949L21.3826 27.2123L20.6805 27.4679C20.6113 27.3703 20.5071 27.3279 20.3679 27.3406C20.3508 27.3422 20.3335 27.3404 20.3171 27.3354C20.3008 27.3303 20.2858 27.3221 20.2731 27.3112C20.2604 27.3004 20.2504 27.2872 20.2435 27.2724C20.2367 27.2577 20.2333 27.2418 20.2336 27.2258C20.2409 26.9187 20.1546 26.6364 19.9747 26.3789C19.8729 26.231 19.8847 26.0925 20.0101 25.9634C20.1045 25.8665 20.0956 25.7502 19.9832 25.6143C20.3593 24.5242 20.3797 23.4262 20.0443 22.3203L20.2214 22.3C20.239 22.2979 20.257 22.2993 20.274 22.3042C20.2911 22.309 20.3068 22.3172 20.3203 22.3282C20.9345 22.8473 21.7368 23.5163 21.8064 24.3316C21.8568 24.9179 21.8654 25.4577 21.832 25.951C21.81 26.2625 21.7327 26.6105 21.6 26.9949Z" fill="#05253B"/>
<path d="M19.9832 25.6143C20.0955 25.7501 20.1045 25.8665 20.0101 25.9634C19.8847 26.0925 19.8729 26.231 19.9747 26.3789C20.1546 26.6364 20.2409 26.9187 20.2335 27.2258C20.2333 27.2418 20.2367 27.2577 20.2435 27.2724C20.2503 27.2872 20.2604 27.3004 20.2731 27.3112C20.2858 27.3221 20.3008 27.3303 20.3171 27.3354C20.3334 27.3404 20.3507 27.3422 20.3679 27.3406C20.5071 27.3279 20.6113 27.3703 20.6805 27.4679C20.3442 27.4972 20.0361 27.6327 19.7561 27.8744C18.9192 28.0629 18.4088 27.8666 18.2248 27.2855C18.1173 26.9446 18.156 26.6481 18.3408 26.3958C18.679 25.9318 19.1235 26.0062 19.7036 26.0568C19.7302 26.0592 19.7569 26.0534 19.7796 26.0404C19.8024 26.0274 19.8198 26.0078 19.8293 25.9848L19.9832 25.6143Z" fill="#040E23"/>
<path d="M10.4891 27.1064C11.0166 27.382 11.5685 27.6181 12.1449 27.8148C11.8005 27.9537 11.4509 28.0014 11.096 27.9578C10.8102 27.9229 9.96765 27.7551 10.2607 27.281C10.2705 27.2654 10.2841 27.2521 10.3005 27.2423C10.3168 27.2325 10.3354 27.2265 10.3547 27.2247C10.4288 27.2179 10.4736 27.1785 10.4891 27.1064Z" fill="#D0D2D3"/>
<path d="M21.3826 27.2123C21.8125 27.171 22.2073 27.2562 22.5671 27.4679C22.6966 27.5445 22.6909 27.6109 22.55 27.6672C21.6464 28.0253 20.7151 28.0944 19.7561 27.8744C20.0361 27.6327 20.3443 27.4972 20.6805 27.4679L21.3826 27.2123Z" fill="#D0DAD8"/>
<path d="M13.6786 27.6998C15.1545 27.678 16.5726 27.6499 17.933 27.6153C18.169 27.6093 18.3445 27.6866 18.4593 27.8473C18.5105 27.9201 18.4914 27.9434 18.4019 27.9171C17.9427 27.782 13.6163 27.9137 13.6017 27.7786C13.6006 27.7687 13.6019 27.7587 13.6053 27.7492C13.6087 27.7397 13.6142 27.731 13.6214 27.7236C13.6286 27.7162 13.6374 27.7103 13.6473 27.7062C13.6571 27.7021 13.6678 27.6999 13.6786 27.6998Z" fill="#D0DAD8"/>
</g>
<defs>
<clipPath id="clip0_55889_43470">
<rect width="24" height="24" fill="white" transform="translate(4 4)"/>
</clipPath>
</defs>
</svg>
